<svg xmlns="http://www.w3.org/2000/svg" width="24" height="24"><g fill="none" fill-rule="evenodd"><rect width="24" height="24" fill="#394791" rx="2"/><path fill="#FFF" fill-rule="nonzero" d="M16.63 6c.572 0 1.094.092 1.566.277.47.185.876.474 1.214.868.339.393.602.895.79 1.507.187.612.28 1.345.28 2.2v1.976c0 .854-.092 1.587-.277 2.2-.185.611-.445 1.115-.78 1.511a3.01 3.01 0 01-1.212.871 4.256 4.256 0 01-1.566.277 4.256 4.256 0 01-1.567-.277 3.04 3.04 0 01-1.214-.87c-.339-.397-.602-.9-.79-1.513-.187-.612-.28-1.345-.28-2.199v-1.976c0-.855.092-1.588.277-2.2.184-.612.446-1.114.785-1.507a3.062 3.062 0 011.21-.868A4.23 4.23 0 0116.629 6zm-7.677.14v11.391H6.695V8.828L4 9.664V7.828l4.71-1.687h.243zm7.676 1.688c-.25 0-.473.047-.668.14-.195.095-.36.247-.496.458-.135.21-.238.488-.309.832-.07.344-.105.768-.105 1.273v2.594c0 .51.036.94.11 1.29.072.348.176.63.312.847.135.216.302.37.5.465.198.093.422.14.672.14.25 0 .474-.047.672-.14.198-.094.363-.25.496-.465.133-.216.234-.499.304-.848a6.66 6.66 0 00.106-1.289v-2.594c0-.505-.035-.93-.106-1.273-.07-.344-.174-.621-.312-.832a1.236 1.236 0 00-.504-.457 1.55 1.55 0 00-.672-.14z"/></g></svg>