<svg version="1.1" id="Слой_1" xmlns="http://www.w3.org/2000/svg" xmlns:xlink="http://www.w3.org/1999/xlink" x="0" y="0" viewBox="0 0 24 24" xml:space="preserve"><path d="M21.6 24H2.4C1.1 24 0 22.9 0 21.6V2.4C0 1.1 1.1 0 2.4 0h19.2C22.9 0 24 1.1 24 2.4v19.2c0 1.3-1.1 2.4-2.4 2.4z" fill-rule="evenodd" clip-rule="evenodd" fill="#41479b"/><path d="M22.2.6c.7 0 1.2.5 1.2 1.2v20.4c0 .7-.5 1.2-1.2 1.2H1.8c-.7 0-1.2-.5-1.2-1.2V1.8c0-.7.5-1.2 1.2-1.2h20.4m0-.6H1.8C.8 0 0 .8 0 1.8v20.4c0 1 .8 1.8 1.8 1.8h20.4c1 0 1.8-.8 1.8-1.8V1.8c0-1-.8-1.8-1.8-1.8z" fill="#fff"/><path d="M12 3l.5 1.5H14l-1.2.9.5 1.5-1.3-1-1.3 1 .5-1.5-1.2-.9h1.5zM5.6 5.6l1.4.7 1.1-1.1-.2 1.6 1.3.7-1.5.2-.2 1.5-.7-1.3-1.6.2L6.3 7zM3 12l1.5-.5V10l.9 1.2 1.5-.5-1 1.3 1 1.3-1.5-.5-.9 1.2v-1.5zm2.6 6.4l.7-1.4-1.1-1.1 1.6.2.7-1.3.2 1.5 1.5.2-1.3.7.2 1.6L7 17.7zM12 21l-.5-1.5H10l1.2-.9-.5-1.5 1.3 1 1.3-1-.5 1.5 1.2.9h-1.5zm6.4-2.6l-1.4-.7-1.1 1.1.2-1.6-1.3-.7 1.5-.2.2-1.5.7 1.3 1.6-.2-1.1 1.1zM21 12l-1.5.5V14l-.9-1.2-1.5.5 1-1.3-1-1.3 1.5.5.9-1.2v1.5zm-2.6-6.4L17.7 7l1.1 1.1-1.6-.2-.7 1.3-.2-1.5-1.5-.2 1.3-.7-.2-1.6L17 6.3z" fill="#ffda44"/></svg>