<svg version="1.1" id="Слой_1" xmlns="http://www.w3.org/2000/svg" xmlns:xlink="http://www.w3.org/1999/xlink" x="0" y="0" viewBox="0 0 40 40" xml:space="preserve"><path d="M36 40H4c-2.2 0-4-1.8-4-4V4c0-2.2 1.8-4 4-4h32c2.2 0 4 1.8 4 4v32c0 2.2-1.8 4-4 4z" fill-rule="evenodd" clip-rule="evenodd" fill="#41479b"/><path d="M37 1c1.1 0 2 .9 2 2v34c0 1.1-.9 2-2 2H3c-1.1 0-2-.9-2-2V3c0-1.1.9-2 2-2h34m0-1H3C1.3 0 0 1.3 0 3v34c0 1.7 1.3 3 3 3h34c1.7 0 3-1.3 3-3V3c0-1.7-1.3-3-3-3z" fill="#fff"/><path d="M20 8l.6 2h2.1L21 11.2l.7 1.9-1.7-1.2-1.7 1.2.7-1.9-1.7-1.2h2.1zm-8.5 3.5l1.9 1 1.4-1.5-.3 2 1.8 1-2 .3-.3 2-1-1.8-2 .3 1.5-1.4zM8 20l2-.6v-2.1l1.2 1.7 1.9-.7-1.2 1.7 1.2 1.7-1.9-.7-1.2 1.7v-2.1zm3.5 8.5l1-1.9-1.5-1.4 2 .3 1-1.8.3 2 2 .3-1.8 1 .3 2-1.4-1.5zM20 32l-.6-2h-2.1l1.7-1.2-.7-1.9 1.7 1.2 1.7-1.2-.7 1.9 1.7 1.2h-2.1zm8.5-3.5l-1.9-1-1.4 1.5.3-2-1.8-1 2-.3.3-2 1 1.8 2-.3-1.5 1.4zM32 20l-2 .6v2.1L28.8 21l-1.9.7 1.2-1.7-1.2-1.7 1.9.7 1.2-1.7v2.1zm-3.5-8.5l-1 1.9 1.5 1.4-2-.3-1 1.8-.3-2-2-.3 1.8-1-.3-2 1.4 1.5z" fill="#ffda44"/></svg>