<svg xmlns="http://www.w3.org/2000/svg" width="24" height="24"><g fill="none" fill-rule="evenodd"><rect width="24" height="24" fill="#394791" rx="2"/><path fill="#FFF" d="M8.211 11.802c-.95 0-1.723-.326-2.318-.979C5.298 10.171 5 9.363 5 8.401c0-.963.304-1.77.912-2.422C6.52 5.325 7.299 5 8.249 5c.95 0 1.723.326 2.318.979.595.652.893 1.46.893 2.422 0 .95-.304 1.754-.912 2.413-.608.659-1.387.988-2.337.988zm-1.881 6.65l9.709-13.3H18.3l-9.709 13.3H6.33zm10.051.152c-.95 0-1.723-.326-2.318-.979-.595-.652-.893-1.46-.893-2.422 0-.963.304-1.77.912-2.422.608-.653 1.387-.979 2.337-.979.95 0 1.723.326 2.318.979.595.652.893 1.46.893 2.422 0 .95-.304 1.754-.912 2.413-.608.659-1.387.988-2.337.988zm-8.132-8.531c.38 0 .678-.161.893-.485.215-.323.323-.718.323-1.187 0-.456-.117-.849-.351-1.178-.235-.33-.536-.494-.903-.494-.38 0-.678.158-.893.475-.215.317-.323.716-.323 1.197 0 .456.117.849.351 1.178.235.33.536.494.903.494zm8.17 6.802c.38 0 .678-.161.893-.485.215-.323.323-.718.323-1.187 0-.456-.117-.849-.352-1.178-.234-.33-.535-.494-.902-.494-.38 0-.678.158-.893.475-.215.317-.323.716-.323 1.197 0 .456.117.849.352 1.178.234.33.535.494.902.494z"/></g></svg>