<svg xmlns="http://www.w3.org/2000/svg" width="24" height="24" viewBox="0 0 24 24"><g fill="none" fill-rule="evenodd"><rect width="24" height="24" fill="#394791" rx="2"/><path fill="#FFF" d="M12 3c.654 0 1.287.182 1.832.527.834.528 2.503 1.46 4.315 1.765C19.221 5.472 20 6.347 20 7.37v4.243c0 1.402-.417 2.769-1.24 4.062-.642 1.012-1.534 1.979-2.648 2.874-1.874 1.506-3.73 2.291-3.808 2.324L12 21l-.304-.127c-.078-.033-1.934-.818-3.808-2.324-1.114-.895-2.006-1.862-2.649-2.874C4.417 14.382 4 13.015 4 11.613V7.37c0-1.023.78-1.897 1.853-2.078 1.812-.306 3.481-1.237 4.315-1.765A3.418 3.418 0 0112 3zm0 1.407c-.355 0-.7.1-.997.287-.931.59-2.804 1.632-4.887 1.983-.36.06-.62.352-.62.693v4.243c0 4.442 5.181 7.203 6.504 7.835a16.72 16.72 0 003.169-1.99c2.213-1.789 3.336-3.755 3.336-5.845V7.37c0-.341-.262-.633-.621-.693-2.083-.351-3.956-1.393-4.887-1.983A1.86 1.86 0 0012 4.407zm3.556 4.08l1.112.94-5.386 5.642-3.536-3.166 1.031-1.019 2.42 2.168 4.359-4.565z"/></g></svg>