<svg xmlns="http://www.w3.org/2000/svg" width="46" height="46" viewBox="0 0 46 46">
  <g fill="none" fill-rule="evenodd">
    <rect width="30" height="30" x="6.627" y="6.627" stroke="#394791" stroke-width="2" rx="10" transform="rotate(-23 24.585 19.67)"/>
    <path fill="#394791" fill-rule="nonzero" d="M26.9338125,16.46875 C27.506732,16.46875 28.0288622,16.561197 28.5002188,16.7460938 C28.9715753,16.9309905 29.3765191,17.2200501 29.7150625,17.6132812 C30.0536059,18.0065124 30.3166241,18.5091115 30.504125,19.1210938 C30.6916259,19.733076 30.785375,20.4661416 30.785375,21.3203125 L30.785375,23.296875 C30.785375,24.1510459 30.692928,24.8841115 30.5080313,25.4960938 C30.3231345,26.108076 30.0627204,26.6119772 29.7267813,27.0078125 C29.3908421,27.4036478 28.9872003,27.6940095 28.5158438,27.8789062 C28.0444872,28.063803 27.522357,28.15625 26.9494375,28.15625 C26.376518,28.15625 25.8543878,28.063803 25.3830313,27.8789062 C24.9116747,27.6940095 24.5067309,27.4036478 24.1681875,27.0078125 C23.8296441,26.6119772 23.5666259,26.108076 23.379125,25.4960938 C23.1916241,24.8841115 23.097875,24.1510459 23.097875,23.296875 L23.097875,21.3203125 C23.097875,20.4661416 23.190322,19.733076 23.3752188,19.1210938 C23.5601155,18.5091115 23.8218316,18.0065124 24.160375,17.6132812 C24.4989184,17.2200501 24.9025602,16.9309905 25.3713125,16.7460938 C25.8400648,16.561197 26.360893,16.46875 26.9338125,16.46875 Z M19.2578125,16.609375 L19.2578125,28 L17,28 L17,19.296875 L14.3046875,20.1328125 L14.3046875,18.296875 L19.015625,16.609375 L19.2578125,16.609375 Z M26.9338125,18.296875 C26.6838112,18.296875 26.4611572,18.3437495 26.2658438,18.4375 C26.0705303,18.5312505 25.9051673,18.6835927 25.76975,18.8945312 C25.6343327,19.1054698 25.5314691,19.3828108 25.4611563,19.7265625 C25.3908434,20.0703142 25.3556875,20.4947891 25.3556875,21 L25.3556875,21 L25.3556875,23.59375 C25.3556875,24.1041692 25.3921455,24.5338524 25.4650625,24.8828125 C25.5379795,25.2317726 25.6421452,25.5143218 25.7775625,25.7304688 C25.9129798,25.9466157 26.0796448,26.101562 26.2775625,26.1953125 C26.4754802,26.289063 26.6994363,26.3359375 26.9494375,26.3359375 C27.1994387,26.3359375 27.4233948,26.289063 27.6213125,26.1953125 C27.8192302,26.101562 27.9845931,25.9466157 28.1174063,25.7304688 C28.2502194,25.5143218 28.3517809,25.2317726 28.4220938,24.8828125 C28.4924066,24.5338524 28.5275625,24.1041692 28.5275625,23.59375 L28.5275625,23.59375 L28.5275625,21 C28.5275625,20.4947891 28.4924066,20.0703142 28.4220938,19.7265625 C28.3517809,19.3828108 28.2476153,19.1054698 28.1095938,18.8945312 C27.9715722,18.6835927 27.8036052,18.5312505 27.6056875,18.4375 C27.4077698,18.3437495 27.1838137,18.296875 26.9338125,18.296875 Z"/>
  </g>
</svg>
