<?xml version="1.0" encoding="utf-8"?>
<svg width="65px" height="65px" viewBox="0 0 65 65" version="1.1" xmlns:xlink="http://www.w3.org/1999/xlink" xmlns="http://www.w3.org/2000/svg">
  <desc>Created with Lunacy</desc>
  <g id="checklist" transform="translate(0.5 0.5)">
    <path d="M24 48C37.2548 48 48 37.2548 48 24C48 10.7452 37.2548 0 24 0C10.7452 0 0 10.7452 0 24C0 37.2548 10.7452 48 24 48Z" transform="translate(16 1.9990234)" id="Oval" fill="#2A91CA" fill-opacity="0.14901961" stroke="none" />
    <path d="M37.3579 4.87512L46.9052 4.87512C50.2659 4.87512 53 7.60925 52.9999 10.9699L52.9999 57.9054C52.9999 61.266 50.2657 64.0001 46.9051 64.0001L6.09475 64.0001C2.73412 64.0001 0 61.266 0 57.9054L0 10.9699C0 7.60925 2.73412 4.87512 6.09475 4.87512L15.6394 4.87512C17.0195 3.56 18.885 2.75 20.9374 2.75L22.035 2.75C22.8722 1.09275 24.592 0 26.4999 0C28.4077 0 30.1276 1.09275 30.9647 2.75L32.0597 2.75C34.1121 2.75 35.9777 3.56 37.3579 4.87512ZM20.9375 5.25L22.8857 5.25C23.448 5.25 23.941 4.87463 24.0906 4.33275C24.3888 3.25362 25.3795 2.5 26.5 2.5C27.6205 2.5 28.6113 3.25362 28.9093 4.33275C29.0589 4.87463 29.552 5.25 30.1141 5.25L32.0597 5.25C34.7729 5.25 37.0061 7.34375 37.229 10.0001L15.7683 10.0001C15.9911 7.34375 18.2245 5.25 20.9375 5.25ZM27.3838 5.74125C27.1513 5.50875 26.8288 5.375 26.5 5.375C26.1712 5.375 25.8487 5.50875 25.6162 5.74125C25.3838 5.97375 25.25 6.29625 25.25 6.625C25.25 6.95375 25.3838 7.27625 25.6162 7.50875C25.8487 7.74125 26.1712 7.875 26.5 7.875C26.8288 7.875 27.1513 7.74125 27.3838 7.50875C27.6162 7.27625 27.75 6.95375 27.75 6.625C27.75 6.29625 27.6162 5.97375 27.3838 5.74125ZM46.9053 61.5003C48.8874 61.5003 50.5 59.8876 50.5 57.9055L50.5 10.9699C50.5 8.98775 48.8874 7.37512 46.9053 7.37512L39.1092 7.37512C39.5187 8.31413 39.7474 9.3495 39.7474 10.4376L39.7474 11.2501C39.7474 11.9405 39.1878 12.5001 38.4974 12.5001L14.5 12.5001C13.8096 12.5001 13.25 11.9405 13.25 11.2501L13.25 10.4376C13.25 9.34937 13.4786 8.31413 13.8881 7.37512L6.09475 7.37512C4.11263 7.37512 2.5 8.98775 2.5 10.9699L2.5 57.9055C2.5 59.8876 4.11263 61.5003 6.09475 61.5003L46.9053 61.5003ZM16.7821 18.699C17.2702 18.211 18.0617 18.211 18.5498 18.6991C19.038 19.1874 19.038 19.9789 18.5498 20.467L12.3207 26.6961C12.0767 26.9402 11.7567 27.0622 11.4368 27.0622C11.117 27.0622 10.7971 26.9402 10.553 26.6961L8.02234 24.1655C7.53422 23.6772 7.53422 22.8857 8.02234 22.3976C8.51059 21.9096 9.30209 21.9096 9.79022 22.3976L11.4368 24.0444L16.7821 18.699ZM26.5 19L44.5003 19C45.1906 19 45.7503 19.5596 45.7503 20.25C45.7503 20.9404 45.1906 21.5 44.5003 21.5L26.5 21.5C25.8096 21.5 25.25 20.9404 25.25 20.25C25.25 19.5596 25.8096 19 26.5 19ZM26.5 25L33.9846 25C34.675 25 35.2346 25.5596 35.2346 26.25C35.2346 26.9404 34.675 27.5 33.9846 27.5L26.5 27.5C25.8096 27.5 25.25 26.9404 25.25 26.25C25.25 25.5596 25.8096 25 26.5 25ZM39.2422 25C39.5709 25 39.8934 25.1338 40.1259 25.3662C40.3584 25.5987 40.4922 25.9212 40.4922 26.25C40.4922 26.5788 40.3584 26.9013 40.1259 27.1338C39.8934 27.3662 39.5709 27.5 39.2422 27.5C38.9134 27.5 38.5909 27.3662 38.3584 27.1338C38.1259 26.9013 37.9922 26.5788 37.9922 26.25C37.9922 25.9212 38.1259 25.5987 38.3584 25.3662C38.5909 25.1338 38.9134 25 39.2422 25ZM15.5 32.5L9.5 32.5C8.80962 32.5 8.25 33.0596 8.25 33.75L8.25 39.75C8.25 40.4404 8.80962 41 9.5 41L15.5 41C16.1904 41 16.75 40.4404 16.75 39.75L16.75 33.75C16.75 33.0596 16.1904 32.5 15.5 32.5ZM44.5003 32.5L26.5 32.5C25.8096 32.5 25.25 33.0596 25.25 33.75C25.25 34.4404 25.8096 35 26.5 35L44.5003 35C45.1906 35 45.7503 34.4404 45.7503 33.75C45.7503 33.0596 45.1906 32.5 44.5003 32.5ZM14.25 38.5L10.75 38.5L10.75 35L14.25 35L14.25 38.5ZM33.9846 38.5L26.5 38.5C25.8096 38.5 25.25 39.0596 25.25 39.75C25.25 40.4404 25.8096 41 26.5 41L33.9846 41C34.675 41 35.2346 40.4404 35.2346 39.75C35.2346 39.0596 34.675 38.5 33.9846 38.5ZM39.2422 38.5C39.5709 38.5 39.8934 38.6338 40.1259 38.8662C40.3584 39.0988 40.4922 39.4212 40.4922 39.75C40.4922 40.0788 40.3584 40.4012 40.1259 40.6338C39.8934 40.8662 39.5709 41 39.2422 41C38.9134 41 38.5909 40.8662 38.3584 40.6338C38.1259 40.4012 37.9922 40.0788 37.9922 39.75C37.9922 39.4212 38.1259 39.0988 38.3584 38.8662C38.5909 38.6338 38.9134 38.5 39.2422 38.5ZM9.5 46L15.5 46C16.1904 46 16.75 46.5596 16.75 47.25L16.75 53.25C16.75 53.9404 16.1904 54.5 15.5 54.5L9.5 54.5C8.80962 54.5 8.25 53.9404 8.25 53.25L8.25 47.25C8.25 46.5596 8.80962 46 9.5 46ZM26.5 46L44.5003 46C45.1906 46 45.7503 46.5596 45.7503 47.25C45.7503 47.9404 45.1906 48.5 44.5003 48.5L26.5 48.5C25.8096 48.5 25.25 47.9404 25.25 47.25C25.25 46.5596 25.8096 46 26.5 46ZM10.75 52L14.25 52L14.25 48.5L10.75 48.5L10.75 52ZM26.5 52L33.9846 52C34.675 52 35.2346 52.5596 35.2346 53.25C35.2346 53.9404 34.675 54.5 33.9846 54.5L26.5 54.5C25.8096 54.5 25.25 53.9404 25.25 53.25C25.25 52.5596 25.8096 52 26.5 52ZM40.1259 52.3662C39.8934 52.1338 39.5709 52 39.2422 52C38.9134 52 38.5909 52.1338 38.3584 52.3662C38.1259 52.5988 37.9922 52.9212 37.9922 53.25C37.9922 53.5788 38.1259 53.9012 38.3584 54.1338C38.5909 54.3662 38.9134 54.5 39.2422 54.5C39.5709 54.5 39.8934 54.3662 40.1259 54.1338C40.3584 53.9012 40.4922 53.5788 40.4922 53.25C40.4922 52.9212 40.3584 52.5988 40.1259 52.3662Z" id="Combined-Shape" fill="#212C89" fill-rule="evenodd" stroke="none" />
  </g>
</svg>