<?xml version="1.0" encoding="utf-8"?>
<svg width="65px" height="65px" viewBox="0 0 65 65" version="1.1" xmlns:xlink="http://www.w3.org/1999/xlink" xmlns="http://www.w3.org/2000/svg">
  <desc>Created with Lunacy</desc>
  <g id="appliances-2" transform="translate(0.5 0.5)">
    <path d="M24 48C37.2548 48 48 37.2548 48 24C48 10.7452 37.2548 0 24 0C10.7452 0 0 10.7452 0 24C0 37.2548 10.7452 48 24 48Z" transform="translate(7 7.9990234)" id="Oval" fill="#2A91CA" fill-opacity="0.14901961" stroke="none" />
    <path d="M61.0586 28.0566L49.9717 28.0566L49.9717 17.9072L59.0547 17.9072C60.6763 17.9072 61.9961 16.5879 61.9961 14.9658L61.9961 2.94141C61.9961 1.31982 60.6763 0 59.0547 0L39.0142 0C37.3921 0 36.0728 1.31982 36.0728 2.94141L36.0728 8.01611L29.9316 8.01611L29.9316 4.94531C29.9316 2.21875 27.7129 0 24.9858 0L4.94531 0C2.21875 0 0 2.21875 0 4.94531L0 61.0586C0 62.6802 1.31982 64 2.94141 64L26.9897 64C28.6118 64 29.9312 62.6802 29.9312 61.0586L29.9312 46.9658L34.0684 46.9658L34.0684 61.0586C34.0684 62.6807 35.3882 64 37.0098 64L61.0586 64C62.6802 64 64 62.6802 64 61.0586L64 30.998C64 29.376 62.6802 28.0566 61.0586 28.0566ZM26.9902 62.125C27.5781 62.125 28.0566 61.6465 28.0566 61.0586L28.0562 61.0586L28.0562 37.9473L26.9902 37.9473C26.4727 37.9473 26.0527 37.5278 26.0527 37.0098C26.0527 36.4922 26.4727 36.0723 26.9902 36.0723L28.0562 36.0723L28.0562 4.94531C28.0562 3.25244 26.6792 1.875 24.9858 1.875L4.94531 1.875C3.25244 1.875 1.875 3.25244 1.875 4.94531L1.875 23.0464L3.94336 23.0464C5.01318 23.0464 5.88281 23.9165 5.88281 24.9863L5.88281 32.0005C5.88281 33.0698 5.01318 33.9399 3.94336 33.9399L1.875 33.9399L1.875 36.0728L22.9819 36.0728C23.4995 36.0728 23.9194 36.4927 23.9194 37.0103C23.9194 37.5278 23.4995 37.9478 22.9819 37.9478L1.875 37.9478L1.875 40.0806L3.94336 40.0806C5.01318 40.0806 5.88281 40.9507 5.88281 42.02L5.88281 49.0342C5.88281 50.104 5.01318 50.9736 3.94336 50.9736L1.875 50.9736L1.875 61.0586C1.875 61.6465 2.35352 62.125 2.94141 62.125L26.9902 62.125ZM37.9478 2.94141C37.9478 2.35352 38.4263 1.875 39.0142 1.875L54.1089 1.875L54.1089 16.0322L39.0142 16.0322C38.4258 16.0322 37.9478 15.5537 37.9478 14.9658L37.9478 2.94141ZM60.1211 6.01221L60.1211 2.94141C60.1211 2.35352 59.6426 1.875 59.0542 1.875L55.9839 1.875L55.9839 6.01221L60.1211 6.01221ZM51.04 13.8989L41.0195 13.8989C40.502 13.8989 40.082 13.4795 40.082 12.9614L40.082 4.94531C40.082 4.42773 40.502 4.00781 41.0195 4.00781L45.0278 4.00781C45.5454 4.00781 45.9653 4.42773 45.9653 4.94531C45.9653 5.46338 45.5454 5.88281 45.0278 5.88281L41.957 5.88281L41.957 12.0239L50.1025 12.0239L50.1025 5.88281L49.0361 5.88281C48.5186 5.88281 48.0986 5.46338 48.0986 4.94531C48.0986 4.42773 48.5186 4.00781 49.0361 4.00781L51.04 4.00781C51.5576 4.00781 51.9775 4.42773 51.9775 4.94531L51.9775 12.9614C51.9775 13.4795 51.5576 13.8989 51.04 13.8989ZM59.0547 16.0322L55.9839 16.0322L55.9839 7.88721L60.1211 7.88721L60.1211 14.9658C60.1211 15.5537 59.6426 16.0322 59.0547 16.0322ZM16.9712 8.01563L12.9629 8.01563C11.8936 8.01563 11.0234 8.88574 11.0234 9.95508L11.0234 11.959C11.0234 13.0288 11.8936 13.8984 12.9629 13.8984L16.9712 13.8984C18.0405 13.8984 18.9106 13.0288 18.9106 11.959L18.9106 9.95508C18.9106 8.88574 18.0405 8.01563 16.9712 8.01563ZM17.0356 11.959C17.0356 11.9946 17.0068 12.0234 16.9712 12.0234L12.9629 12.0234C12.9272 12.0234 12.8984 11.9946 12.8984 11.959L12.8984 9.95508C12.8984 9.91943 12.9272 9.89063 12.9629 9.89063L16.9712 9.89063C17.0068 9.89063 17.0356 9.91943 17.0356 9.95508L17.0356 11.959ZM29.9316 45.0908L29.9316 9.89111L36.0728 9.89111L36.0728 14.9658C36.0728 16.5879 37.3921 17.9072 39.0142 17.9072L48.0967 17.9072L48.0967 28.0566L37.0103 28.0566C35.3882 28.0566 34.0688 29.376 34.0688 30.998L34.0688 45.0908L29.9316 45.0908ZM1.875 24.9214L3.94336 24.9214C3.979 24.9214 4.00781 24.9502 4.00781 24.9858L4.00781 32C4.00781 32.0356 3.979 32.0645 3.94336 32.0645L1.875 32.0645L1.875 24.9214ZM62.125 36.0728L62.125 30.998C62.125 30.4097 61.6465 29.9316 61.0586 29.9316L37.0103 29.9316C36.4224 29.9316 35.9438 30.4097 35.9438 30.998L35.9438 36.0728L38.0767 36.0728L38.0767 33.002C38.0767 32.4844 38.4966 32.0645 39.0142 32.0645L45.0264 32.0645C45.5439 32.0645 45.9639 32.4844 45.9639 33.002L45.9639 36.0728L48.2979 36.0728C48.1685 35.7417 48.0967 35.3823 48.0967 35.0063C48.0967 33.3843 49.4165 32.0645 51.0386 32.0645C52.6602 32.0645 53.98 33.3843 53.98 35.0063C53.98 35.3823 53.9082 35.7417 53.7788 36.0728L62.125 36.0728ZM56.0469 33.9395L59.0527 33.9395C59.5708 33.9395 59.9902 33.5195 59.9902 33.002C59.9902 32.4844 59.5708 32.0645 59.0527 32.0645L56.0469 32.0645C55.5293 32.0645 55.1094 32.4844 55.1094 33.002C55.1094 33.5195 55.5293 33.9395 56.0469 33.9395ZM39.9517 33.9395L39.9517 36.0728L44.0889 36.0728L44.0889 33.9395L39.9517 33.9395ZM49.9717 35.0059C49.9717 34.418 50.4502 33.9395 51.0381 33.9395C51.6265 33.9395 52.105 34.418 52.105 35.0059C52.105 35.5942 51.6265 36.0723 51.0381 36.0723C50.4502 36.0723 49.9717 35.5942 49.9717 35.0059ZM37.0103 62.125L61.0586 62.125C61.6465 62.125 62.125 61.6465 62.125 61.0586L62.125 37.9478L35.9438 37.9478L35.9438 61.0586C35.9438 61.6465 36.4219 62.125 37.0103 62.125ZM49.0356 41.082C44.0986 41.082 40.082 45.0986 40.082 50.0356C40.082 54.9727 44.0986 58.9893 49.0356 58.9893C53.9727 58.9893 57.9893 54.9727 57.9893 50.0356C57.9893 45.0986 53.9727 41.082 49.0356 41.082ZM3.94336 41.9556L1.875 41.9556L1.875 49.0986L3.94336 49.0986C3.979 49.0986 4.00781 49.0698 4.00781 49.0342L4.00781 42.02C4.00781 41.9844 3.979 41.9556 3.94336 41.9556ZM49.0356 57.1143C45.1323 57.1143 41.957 53.939 41.957 50.0356C41.957 46.1323 45.1328 42.957 49.0356 42.957C52.939 42.957 56.1143 46.1328 56.1143 50.0356C56.1143 53.939 52.939 57.1143 49.0356 57.1143ZM52.6826 48.125C52.1812 48.2544 51.8794 48.7651 52.0088 49.2666C52.0732 49.5166 52.106 49.7754 52.106 50.0361C52.106 51.7295 50.7285 53.1069 49.0352 53.1069C47.3423 53.1069 45.9648 51.7295 45.9648 50.0361C45.9648 48.3433 47.3423 46.9658 49.0352 46.9658C49.2959 46.9658 49.5547 46.998 49.8037 47.0625C50.3052 47.1914 50.8164 46.8896 50.9453 46.3882C51.0747 45.8872 50.7729 45.376 50.2715 45.2466C49.8696 45.1431 49.4536 45.0908 49.0352 45.0908C46.3081 45.0908 44.0898 47.3091 44.0898 50.0361C44.0898 52.7632 46.3081 54.9819 49.0352 54.9819C51.7622 54.9819 53.981 52.7632 53.981 50.0361C53.981 49.6177 53.9282 49.2012 53.8247 48.7988C53.6953 48.2974 53.1836 47.9961 52.6826 48.125Z" id="Combined-Shape" fill="#212C89" fill-rule="evenodd" stroke="none" />
  </g>
</svg>