<?xml version="1.0" encoding="utf-8"?>
<svg width="65px" height="65px" viewBox="0 0 65 65" version="1.1" xmlns:xlink="http://www.w3.org/1999/xlink" xmlns="http://www.w3.org/2000/svg">
  <desc>Created with Lunacy</desc>
  <g id="Group-12" transform="translate(0.5 0.5)">
    <path d="M1 24L1 0L15 4L1 24ZM22 43C22 49.0751 17.0751 54 11 54C4.92487 54 0 49.0751 0 43C0 36.9249 4.92487 32 11 32C17.0751 32 22 36.9249 22 43Z" transform="translate(31 7.830078)" id="Combined-Shape" fill="#DFEFF7" fill-rule="evenodd" stroke="none" />
    <path d="M31.8984 0C40.7026 0 48.6942 3.58942 54.5185 9.41376C60.2751 15.1704 63.8646 23.1619 63.8646 31.9661C63.8646 34.6751 63.4582 37.452 62.781 40.0931C62.036 42.7344 61.0201 45.3079 59.6656 47.6783C59.2593 48.288 58.5143 48.491 57.9048 48.1524C57.2952 47.746 57.0921 47.0011 57.4307 46.3915C58.7175 44.2245 59.6656 41.8541 60.2751 39.4838C60.8847 37.0455 61.2233 34.5397 61.2233 31.9661C61.2233 23.8392 57.9048 16.4571 52.6222 11.1746C47.3397 5.89206 40.0254 2.57354 31.8984 2.57354C23.7714 2.57354 16.4571 5.82434 11.1746 11.1069C5.89206 16.4571 2.57354 23.7714 2.57354 31.8984C2.57354 39.8224 5.68889 47.0011 10.7683 52.3515C15.8476 57.6339 22.9587 61.0201 30.8148 61.291C31.4921 61.291 32.0339 61.9005 32.0339 62.5778C32.0339 63.255 31.4243 63.7968 30.7471 63.7968C22.146 63.4582 14.4931 59.8012 8.93968 54.0446C3.38624 48.288 0 40.4996 0 31.8984C0 23.0942 3.58942 15.1026 9.34603 9.34603C15.1026 3.58942 23.0942 0 31.8984 0ZM31.829 6.97559C24.9888 6.97559 18.7581 9.75231 14.2205 14.2899C9.75069 18.7597 6.90625 24.9904 6.90625 31.8983C6.90625 37.4518 8.73482 42.6666 11.9179 46.9333C15.101 51.1322 19.6385 54.383 24.9888 55.8729C25.666 56.0761 26.3433 55.6698 26.5465 54.9925C26.7496 54.3153 26.3433 53.638 25.666 53.4348C20.8576 52.0803 16.7941 49.1682 13.9496 45.4433C11.3084 41.9893 9.75069 37.7904 9.47979 33.2528L12.6629 33.2528C13.3401 33.2528 13.9496 32.711 13.9496 31.9661C13.9496 31.2888 13.4078 30.6793 12.6629 30.6793L9.47979 30.6793C9.81842 24.9904 12.1888 19.911 15.9814 16.1862C19.774 12.3936 24.8533 10.0232 30.4745 9.68458L30.4745 12.8676C30.4745 13.5449 31.0163 14.1544 31.7613 14.1544C32.4385 14.1544 33.048 13.6126 33.048 12.8676L33.048 9.68458C38.7369 10.0232 43.8163 12.3936 47.5412 16.1862C51.3338 19.9788 53.7041 25.0581 54.0428 30.6793L50.8597 30.6793C50.1824 30.6793 49.5729 31.2211 49.5729 31.9661C49.5729 32.6433 50.1147 33.2528 50.8597 33.2528L54.0428 33.2528C53.975 33.9301 53.975 34.6073 53.8396 35.2846C53.7041 36.3682 53.4332 37.4518 53.0946 38.5354C52.8914 39.2126 53.2978 39.8899 53.9073 40.093C54.7877 40.2962 55.465 39.8899 55.6682 39.2126C56.0068 37.9936 56.3454 36.7745 56.4809 35.6232C56.684 34.4042 56.7518 33.1851 56.7518 31.8983C56.7518 25.0581 53.975 18.8274 49.4375 14.2899C44.9676 9.82003 38.7369 6.97559 31.829 6.97559ZM31.899 16.457C31.2217 16.457 30.6122 16.9988 30.6122 17.7438L30.6122 28.1057C30.0704 28.3089 29.5286 28.5798 29.1223 28.9861L29.0545 29.0539C28.6482 29.4602 28.3096 30.002 28.1064 30.6115L20.318 30.6115C19.6408 30.6115 19.0313 31.1533 19.0313 31.8983C19.0313 32.5755 19.573 33.1851 20.318 33.1851L28.0387 33.1851C28.2418 33.7946 28.5805 34.3364 28.9868 34.7427C29.7318 35.4877 30.7477 35.8941 31.8312 35.8941C32.9148 35.8941 33.9307 35.42 34.6757 34.7427C35.4207 33.9978 35.8268 32.9819 35.8268 31.8983C35.8268 30.8147 35.3529 29.7988 34.6757 29.0539C34.2693 28.6475 33.7275 28.3089 33.1179 28.1057L33.1179 17.7438C33.1857 17.0666 32.5762 16.457 31.899 16.457ZM33.3889 31.8983C33.3889 32.3046 33.1857 32.711 32.9148 32.9819Q32.5085 33.3882 31.899 33.3882C31.4926 33.3882 31.0863 33.2528 30.8831 32.9819C30.6122 32.711 30.4768 32.3724 30.4768 31.966C30.4768 31.5597 30.6122 31.2211 30.8831 30.9502L30.9508 30.8824C31.2217 30.6115 31.5604 30.4761 31.9667 30.4761C32.373 30.4761 32.7792 30.6115 32.9826 30.8824Q33.3889 31.2888 33.3889 31.8983ZM33.2535 41.5826C35.5562 39.2123 38.807 37.79 42.3964 37.79C45.9181 37.79 49.1689 39.2123 51.5392 41.5826C53.9096 43.8853 55.3318 47.1361 55.3318 50.7255C55.3318 54.2472 53.9096 57.498 51.5392 59.8683C49.2366 62.2387 45.9858 63.6609 42.3964 63.6609C38.807 63.6609 35.5562 62.171 33.2535 59.8683C30.8832 57.5657 29.4609 54.3149 29.4609 50.7255C29.4609 47.2038 30.8832 43.953 33.2535 41.5826ZM42.3964 61.0874C45.3086 61.0874 47.8821 59.9361 49.7784 58.0398C51.6747 56.1435 52.826 53.5699 52.826 50.6578C52.826 47.7456 51.6747 45.1721 49.7784 43.2758C47.8821 41.3795 45.3086 40.2281 42.3964 40.2281C39.4842 40.2281 36.9107 41.3795 35.0144 43.2758C33.1181 45.1721 31.9668 47.8133 31.9668 50.6578C31.9668 53.5699 33.1181 56.1435 35.0144 58.0398C36.9107 59.9361 39.4842 61.0874 42.3964 61.0874ZM45.5985 56.6194C44.9407 57.2774 43.8967 57.8311 42.2888 57.8311C40.921 57.8311 39.9083 57.5386 39.0312 56.7969C38.4048 56.2538 37.9141 55.4285 37.9141 54.5198C37.9141 54.0811 38.0498 53.7468 38.2899 53.4961C38.5196 53.2558 38.8642 53.1305 39.24 53.1305C39.6472 53.1305 39.8769 53.2141 40.0858 53.4021C40.305 53.5901 40.4199 53.7572 40.6078 54.2377C40.9419 55.0734 41.4222 55.3659 42.2888 55.3659C42.863 55.3659 43.2807 55.2301 43.6148 54.8958C44.095 54.4153 44.189 53.6319 44.189 52.6813C44.189 50.9787 43.7087 50.0177 42.3514 50.0177C41.5997 50.0177 41.109 50.237 40.7122 50.6758C40.5452 50.8638 40.3781 51.01 40.1693 51.1354C39.9709 51.2503 39.7725 51.3025 39.4384 51.3025C39.0626 51.3025 38.7598 51.2189 38.4883 50.9473C38.2168 50.6758 38.0916 50.2579 38.0916 49.7879L38.0919 44.3595C38.0953 43.9855 38.1291 43.5455 38.4674 43.2071C38.8433 42.8311 39.3445 42.8311 39.7412 42.8311L44.9616 42.8311C45.5776 42.8311 45.8178 42.8519 46.0788 42.9877C46.4338 43.1758 46.6739 43.5518 46.6739 44.0636C46.6739 44.5755 46.4338 44.9515 46.0788 45.1395C45.8178 45.2753 45.5776 45.2962 44.9616 45.2962L40.5556 45.2962L40.5556 48.4508C40.9837 48.0643 41.7772 47.7196 42.8108 47.7196C44.0324 47.7196 44.9825 48.1166 45.5776 48.712C46.7366 49.8714 46.9141 51.2816 46.9141 52.6813C46.9141 54.3735 46.6948 55.5226 45.5985 56.6194Z" id="Combined-Shape" fill="#212C89" fill-rule="evenodd" stroke="none" />
  </g>
</svg>