<?xml version="1.0" encoding="utf-8"?>
<svg width="65px" height="65px" viewBox="0 0 65 65" version="1.1" xmlns:xlink="http://www.w3.org/1999/xlink" xmlns="http://www.w3.org/2000/svg">
  <desc>Created with Lunacy</desc>
  <g id="thumbs-up" transform="translate(0.5 0.5)">
    <path d="M24 48C37.2548 48 48 37.2548 48 24C48 10.7452 37.2548 0 24 0C10.7452 0 0 10.7452 0 24C0 37.2548 10.7452 48 24 48Z" transform="translate(0 15.988281)" id="Oval" fill="#2A91CA" fill-opacity="0.14901961" stroke="none" />
    <path d="M58.8017 49.1546C68.3209 34.3177 64.0099 14.573 49.173 5.05389C44.0263 1.75178 38.0396 -0.00243766 31.9249 5.09002e-06C14.2968 -0.00357761 0.00342107 14.2841 0 31.9122C-0.00341862 49.5404 14.2842 63.8336 31.9122 63.8372L31.9248 63.8372C38.6169 63.8503 45.1404 61.7382 50.5548 57.8052L61.8891 63.6938C62.529 64.023 63.3144 63.7709 63.6435 63.131C63.8137 62.8001 63.8342 62.4124 63.7 62.0653L58.8017 49.1546ZM50.9718 55.1605C50.5273 54.9312 49.9905 54.9768 49.5909 55.2778C44.5183 59.1546 38.3095 61.2518 31.9249 61.2446C15.7357 61.2649 2.59534 48.1575 2.57498 31.9684C2.55463 15.7793 15.6621 2.63899 31.8512 2.61863C48.0402 2.59827 61.1806 15.7056 61.2009 31.8946C61.2083 37.7046 59.4889 43.3857 56.2612 48.2164C56.0018 48.5811 55.9477 49.0533 56.1179 49.4671L56.1179 49.5062L60.0914 59.8504L50.9718 55.1605ZM56.1295 28.2182C54.97 26.3161 51.9084 26.0686 48.7556 26.1077L39.3233 26.1077C40.9168 21.9936 41.6914 17.6079 41.6032 13.1969C41.4616 10.4088 39.0866 8.26339 36.2984 8.40507C33.7085 8.53665 31.6383 10.607 31.5066 13.1969C31.1628 17.8235 29.6033 22.2773 26.9858 26.1077L26.608 26.1077C25.5756 26.3122 24.6507 26.8809 24.0024 27.7101C23.6041 27.4896 23.155 27.3772 22.6996 27.3844L13.6843 27.3844C12.2101 27.4341 11.0494 28.6587 11.0787 30.1333L11.0787 47.5908C11.1055 49.025 12.2505 50.1873 13.6843 50.2355L22.6736 50.2355C23.5 50.2316 24.2786 49.8471 24.7841 49.1933L26.8165 49.9619C26.9626 50.015 27.1171 50.0414 27.2725 50.0401L41.3557 50.0401C45.4465 50.0401 46.8014 48.6721 47.8697 47.2651L48.1042 46.9655L48.2345 46.7701L55.7516 32.4393C56.6766 30.7717 56.8069 29.3386 56.1295 28.2182ZM53.4196 31.371L52.9767 32.2178L48.1563 32.2178C47.4369 32.2178 46.8535 32.8011 46.8535 33.5206C46.8535 34.2401 47.4369 34.8234 48.1563 34.8234L51.6478 34.8234L50.1626 37.5072L46.0588 37.5072C45.3393 37.5072 44.756 38.0905 44.756 38.81C44.756 39.5294 45.3393 40.1128 46.0588 40.1128L48.8598 40.1128L47.3616 42.9529L43.805 42.9529C43.0855 42.9529 42.5022 43.5362 42.5022 44.2557C42.5022 44.9751 43.0855 45.5585 43.805 45.5585L45.9155 45.5585L45.7722 45.7539C45.1338 46.6398 44.5215 47.4736 41.4078 47.4736L27.52 47.4736L25.4095 46.6267L25.4095 30.1333C25.7575 29.6205 26.1994 29.1785 26.7123 28.8305L27.5851 28.8305C27.9815 28.8287 28.3556 28.6465 28.6013 28.3354C31.0579 25.1039 32.7383 21.3507 33.5129 17.3659C34.281 17.5538 35.0673 17.6587 35.8579 17.6786C36.5774 17.6786 37.1607 17.0952 37.1607 16.3758C37.1607 15.6563 36.5774 15.073 35.8579 15.073C35.2111 15.0464 34.5689 14.9503 33.9428 14.7863C34.034 13.9786 34.0731 13.4835 34.0731 13.3663C34.1716 12.0172 35.3453 11.0035 36.6943 11.102C37.9062 11.1906 38.87 12.1544 38.9586 13.3663C39.0972 18.0508 38.1145 22.7005 36.0924 26.9284C35.7615 27.5673 36.011 28.3535 36.6498 28.6844C36.8358 28.7808 37.0423 28.8308 37.2519 28.8305L48.7296 28.8305C52.8855 28.8305 53.6932 29.4037 53.8626 29.6773C54.0319 29.9509 53.9277 30.4199 53.4196 31.371ZM13.6843 47.6299L22.7127 47.682L22.8039 30.1333L13.6843 29.99L13.5931 47.5387C13.5913 47.5481 13.5913 47.5579 13.5931 47.5674C13.601 47.6099 13.6418 47.6379 13.6843 47.6299Z" id="Combined-Shape" fill="#212C89" fill-rule="evenodd" stroke="none" />
  </g>
</svg>