<?xml version="1.0" encoding="utf-8"?>
<svg width="67px" height="65px" viewBox="0 0 67 65" version="1.1" xmlns:xlink="http://www.w3.org/1999/xlink" xmlns="http://www.w3.org/2000/svg">
  <desc>Created with Lunacy</desc>
  <g id="Group-12" transform="translate(0.5 0.5)">
    <path d="M24 48C37.2548 48 48 37.2548 48 24C48 10.7452 37.2548 0 24 0C10.7452 0 0 10.7452 0 24C0 37.2548 10.7452 48 24 48Z" id="Oval" fill="#2A91CA" fill-opacity="0.14901961" stroke="none" />
    <path d="M64.4302 17.6961L56.6615 12.5192L56.8889 12.5192L56.8889 4.55474C56.8889 3.9264 56.3794 3.41696 55.7511 3.41696L50.0622 3.41696C49.4339 3.41696 48.9244 3.9264 48.9244 4.55474L48.9244 7.35936L38.1783 0.19136C37.7958 -0.0637867 37.2976 -0.0637867 36.9152 0.19136L10.6634 17.6961C9.05273 18.7697 8.61739 20.9456 9.69116 22.5561C10.7647 24.1666 12.9405 24.602 14.551 23.5283L18.2044 21.0935L18.2044 43.2392L15.9289 43.2392C15.9289 42.6108 15.4194 42.1014 14.7911 42.1014L5.68889 42.1014C5.06055 42.1014 4.55111 42.6108 4.55111 43.2392L0 43.2392L0 45.5147L4.55111 45.5147L4.55111 56.8925L0 56.8925L0 59.1681L4.55111 59.1681C4.55111 59.7964 5.06055 60.3058 5.68889 60.3058L14.7911 60.3058C15.4194 60.3058 15.9289 59.7964 15.9289 59.1681L15.9289 58.7346L24.4235 62.2617C29.0544 64.153 34.2315 64.2104 38.903 62.4221L56.4794 55.7195C57.5206 55.3238 58.3585 54.5252 58.8038 53.5042C59.2637 52.4688 59.2875 51.2919 58.8698 50.2388C58.4977 49.2971 57.793 48.525 56.8889 48.069L56.8889 21.0935L60.5423 23.5283C62.1528 24.602 64.3287 24.1666 65.4025 22.5561C66.4761 20.9456 66.0406 18.7696 64.4302 17.6961ZM61.8041 21.6373C62.0062 21.7717 62.2433 21.8434 62.4858 21.8434C63.165 21.8433 63.7157 21.2926 63.7156 20.6133C63.7163 20.2019 63.5108 19.8175 63.1684 19.5893L37.5467 2.50674L11.9252 19.5871C11.5826 19.815 11.3772 20.1996 11.3778 20.6111C11.3778 20.8537 11.4495 21.0908 11.584 21.2927C11.9605 21.8582 12.7238 22.0115 13.2892 21.6351L36.9152 5.88366C37.2976 5.62852 37.7958 5.62852 38.1783 5.88366L61.8041 21.6373ZM51.2 5.69252L54.6133 5.69252L54.6133 11.1538L51.2 8.87829L51.2 5.69252ZM42.0978 46.6525L33.2722 46.6525C32.3792 46.6512 31.4988 46.4432 30.6995 46.0449C27.5106 44.4563 24.0357 43.5216 20.48 43.2961L20.48 19.5734L37.5467 8.19563L54.6133 19.5734L54.6133 47.631C54.2019 47.6657 53.7977 47.7627 53.4154 47.9189L46.038 51.0512C46.0595 50.9132 46.0736 50.7743 46.08 50.6347C46.08 48.4354 44.2971 46.6525 42.0978 46.6525ZM30.7191 19.3457C28.2056 19.3457 26.168 21.3833 26.168 23.8968C26.168 26.4103 28.2056 28.4479 30.7191 28.4479C33.2326 28.4479 35.2702 26.4103 35.2702 23.8968C35.2702 21.3833 33.2326 19.3457 30.7191 19.3457ZM45.8446 20.8174L27.6406 39.0214L29.2496 40.6304L47.4537 22.4263L45.8446 20.8174ZM30.7191 26.1724C29.4623 26.1724 28.4435 25.1536 28.4435 23.8968C28.4435 22.64 29.4623 21.6213 30.7191 21.6213C31.9759 21.6213 32.9946 22.64 32.9946 23.8968C32.9946 25.1536 31.9759 26.1724 30.7191 26.1724ZM39.8242 37.5501C39.8242 35.0366 41.8618 32.999 44.3753 32.999C46.8888 32.999 48.9264 35.0366 48.9264 37.5501C48.9264 40.0636 46.8888 42.1012 44.3753 42.1012C41.8618 42.1012 39.8242 40.0636 39.8242 37.5501ZM42.0998 37.5501C42.0998 38.807 43.1185 39.8257 44.3753 39.8257C45.6321 39.8257 46.6509 38.807 46.6509 37.5501C46.6509 36.2933 45.6321 35.2746 44.3753 35.2746C43.1185 35.2746 42.0998 36.2933 42.0998 37.5501ZM13.6533 58.0303L6.82667 58.0303L6.82667 44.377L13.6533 44.377L13.6533 58.0303ZM55.6635 53.5964C56.1362 53.4156 56.5161 53.0517 56.7171 52.5872C56.9301 52.1077 56.9412 51.5627 56.7478 51.0751C56.5649 50.5972 56.1953 50.2148 55.7238 50.0158C55.2708 49.8224 54.7581 49.8224 54.305 50.0158L44.7922 54.0538C43.9607 54.4066 43.0692 54.5956 42.1662 54.6101C42.1423 54.6101 42.1207 54.617 42.0978 54.617L28.4444 54.617L28.4444 52.3414L42.0272 52.3414C42.1787 52.3414 42.3242 52.3107 42.4732 52.2969C43.2422 52.1183 43.7882 51.4352 43.7934 50.6457C43.7995 49.7032 43.0403 48.9342 42.0978 48.9281L33.2722 48.9281C32.0262 48.9271 30.7972 48.6369 29.6825 48.0804C26.306 46.3974 22.5859 45.5191 18.8132 45.5147L15.9289 45.5147L15.9289 56.2701L25.285 60.1602C29.38 61.8308 33.9571 61.88 38.0871 60.2979L55.6635 53.5964ZM9.10156 55.755L11.3771 55.755L11.3771 53.4795L9.10156 53.4795L9.10156 55.755Z" transform="translate(0 0.14355469)" id="Combined-Shape" fill="#212C89" fill-rule="evenodd" stroke="none" />
  </g>
</svg>