<?xml version="1.0" encoding="utf-8"?>
<svg width="65px" height="65px" viewBox="0 0 65 65" version="1.1" xmlns:xlink="http://www.w3.org/1999/xlink" xmlns="http://www.w3.org/2000/svg">
  <desc>Created with Lunacy</desc>
  <g id="museum-2" transform="translate(0.5 0.5)">
    <path d="M24 48C37.2548 48 48 37.2548 48 24C48 10.7452 37.2548 0 24 0C10.7452 0 0 10.7452 0 24C0 37.2548 10.7452 48 24 48Z" transform="translate(0 8)" id="Oval" fill="#2A91CA" fill-opacity="0.14901961" stroke="none" />
    <path d="M1.13718 18.0617C1.14141 17.9335 1.15453 17.8053 1.17779 17.6788C0.767049 17.8345 0.30512 17.6594 0.100382 17.271C-0.123391 16.8459 0.0394684 16.3201 0.464595 16.0955L30.9295 0.100571C31.1837 -0.0335237 31.4874 -0.0335237 31.7417 0.100571L62.207 16.1128C62.644 16.307 62.8411 16.8184 62.6473 17.2554C62.4536 17.6928 61.9422 17.8899 61.5048 17.6962C61.528 17.8227 61.5416 17.9508 61.5454 18.079L61.5454 20.6945C61.542 21.7795 60.8681 22.7495 59.8521 23.1306L59.8521 27.0045C59.8474 28.3015 58.8271 29.3675 57.5323 29.4288L57.5323 51.7863C58.8271 51.8476 59.8474 52.9136 59.8521 54.2106L59.8521 58.0959C60.8703 58.4868 61.5437 59.4639 61.5454 60.5549L61.5454 63.1302C61.5454 63.6103 61.1558 63.9999 60.6757 63.9999L2.00732 63.9999C1.5272 63.9999 1.13718 63.6103 1.13718 63.1302L1.13718 60.5549C1.13888 59.4644 1.81231 58.4872 2.83092 58.0959L2.83092 54.2334C2.83558 52.9369 3.85546 51.8709 5.15072 51.8091L5.15072 29.4288C3.85546 29.3675 2.83558 28.3015 2.83092 27.0045L2.83092 23.1306C1.81443 22.7495 1.14057 21.7795 1.13718 20.6945L1.13718 18.0617ZM31.3356 1.84042L57.2421 15.4576L5.42906 15.4576L31.3356 1.84042ZM3.73532 17.2093C3.2552 17.2093 2.86561 17.5989 2.86561 18.079L2.86561 20.7122C2.86561 21.1924 3.2552 21.582 3.73532 21.582L58.9358 21.582C59.416 21.582 59.8055 21.1924 59.8055 20.7122L59.8055 18.079C59.8055 17.5989 59.416 17.2093 58.9358 17.2093L3.73532 17.2093ZM4.57077 24.6382L4.57077 23.2985L14.6038 23.2985L14.6038 24.6268L4.57077 24.6382ZM26.9104 51.8091L26.9104 29.4347L26.899 29.4288C25.6017 29.3666 24.5809 28.2981 24.5788 26.999L24.5788 23.2985L16.3318 23.2985L16.3318 27.0045C16.3271 28.3015 15.3072 29.3675 14.012 29.4288L14.012 51.8091C15.3072 51.8709 16.3271 52.9369 16.3318 54.2334L16.3318 57.9335L24.5907 57.9335L24.5907 54.2334C24.5953 52.9369 25.6152 51.8709 26.9104 51.8091ZM26.3305 24.6382L26.3305 23.2985L36.3639 23.2985L36.3639 24.6268L26.3305 24.6382ZM48.6706 51.8091L48.6706 29.4347L48.6588 29.4288C47.3614 29.3666 46.3407 28.2981 46.339 26.999L46.339 23.2985L38.0919 23.2985L38.0919 27.0045C38.0873 28.3015 37.067 29.3675 35.7721 29.4288L35.7721 51.8091C37.067 51.8709 38.0873 52.9369 38.0919 54.2334L38.0919 57.9335L46.3504 57.9335L46.3504 54.2334C46.355 52.9369 47.3753 51.8709 48.6706 51.8091ZM48.0907 24.6382L48.0907 23.2985L58.1236 23.2985L58.1236 24.6268L48.0907 24.6382ZM4.55893 26.3781L4.55893 27.0172C4.56226 27.3913 4.86179 27.6971 5.23744 27.7063L13.8961 27.7063C14.281 27.7063 14.5923 27.395 14.5923 27.0105L14.5923 26.3781L4.55893 26.3781ZM35.6562 27.7063C36.0407 27.7063 36.3521 27.395 36.3521 27.0105L36.3521 26.3781L26.3191 26.3781L26.3191 27.0105C26.3191 27.395 26.6304 27.7063 27.0149 27.7063L35.6562 27.7063ZM57.4164 27.7237C57.8009 27.7237 58.1122 27.4123 58.1122 27.0278L58.1177 26.3781L48.0847 26.3781L48.0847 27.0278C48.0847 27.4123 48.3961 27.7237 48.7806 27.7237L57.4164 27.7237ZM12.2725 29.4635L12.2725 51.7977L6.87872 51.7977L6.87872 29.4462L12.2725 29.4635ZM34.0382 29.4462L34.0382 51.7977L28.6389 51.7977L28.6389 29.4462L34.0382 29.4462ZM50.3986 51.815L50.3986 29.4462L55.7979 29.4462L55.7979 51.7977L50.3986 51.815ZM27.0149 53.5375C26.6304 53.5375 26.3191 53.8489 26.3191 54.2334L26.3191 54.8658L36.3521 54.8658L36.3521 54.2334C36.3521 53.8489 36.0407 53.5375 35.6562 53.5375L27.0149 53.5375ZM5.25478 53.5549C4.87026 53.5549 4.55893 53.8662 4.55893 54.2512L4.55893 54.8831L14.5923 54.8831L14.5923 54.2512C14.5923 53.8662 14.281 53.5549 13.8961 53.5549L5.25478 53.5549ZM58.1122 54.8831L58.1122 54.2334C58.1029 53.8624 57.8047 53.5642 57.4337 53.5549L48.7747 53.5549C48.3901 53.5549 48.0788 53.8662 48.0788 54.2512L48.0788 54.8831L58.1122 54.8831ZM14.5923 56.6056L14.5923 57.9335L4.55893 57.9335L4.55893 56.6056L14.5923 56.6056ZM36.3639 56.6056L36.3639 57.9335L26.3191 57.9335L26.3191 56.6056L36.3639 56.6056ZM58.1236 57.9335L58.1236 56.6056L48.0788 56.6056L48.0788 57.9335L58.1236 57.9335ZM59.8055 60.5722L59.8055 62.2947L2.86561 62.2947L2.86561 60.59C2.86561 60.0934 3.26789 59.6907 3.76451 59.6907L58.9066 59.6907C59.3961 59.6907 59.7962 60.0828 59.8055 60.5722Z" transform="translate(1.0078125 0)" id="Shape" fill="#212C89" fill-rule="evenodd" stroke="none" />
  </g>
</svg>