<?xml version="1.0" encoding="utf-8"?>
<svg width="24px" height="27px" viewBox="0 0 24 27" version="1.1" xmlns:xlink="http://www.w3.org/1999/xlink" xmlns="http://www.w3.org/2000/svg">
  <desc>Created with Lunacy</desc>
  <g id="small-appl">
    <path d="M10.045 0C7.36841 0 5.38979 0.93564 4.88867 1.92L15.2012 1.92C14.7001 0.93564 12.7215 0 10.045 0ZM17.5153 4.19992C17.9202 3.39334 18.7442 2.88298 19.6467 2.87992L20.6067 2.87992C21.9315 2.88148 23.0051 3.95506 23.0067 5.27992L23.0067 14.8799C23.0051 16.2047 21.9315 17.2784 20.6067 17.2799L19.9371 17.2799C19.9627 17.6213 19.9845 17.9392 20.004 18.2399L20.6067 18.2399C22.4615 18.2378 23.9645 16.7347 23.9667 14.8799L23.9667 5.27992C23.9645 3.42514 22.4615 1.92208 20.6067 1.91992L16.2188 1.91992C16.2412 2.00788 16.2575 2.0974 16.2674 2.18764C16.737 2.66614 17.1516 3.35614 17.5153 4.19992ZM18.5087 12.7142C17.6755 6.26988 16.4973 3.80004 15.6114 2.87988L4.47991 2.87988C4.11991 3.25398 3.71113 3.89166 3.29713 4.94112C3.28933 4.9677 3.27913 4.9935 3.26671 5.01828C2.67223 6.55386 2.06875 8.95428 1.58257 12.7142C1.16353 15.9552 0.997633 18.9992 0.945313 20.1599L19.146 20.1599C19.0936 18.9992 18.9277 15.9552 18.5087 12.7142ZM0.195313 5.28003L2.16595 5.28003C1.84489 6.24255 1.57897 7.22253 1.36945 8.21529L0.195313 5.28003ZM16.7663 23.0401L3.32631 23.0401C2.18631 23.0386 1.20417 22.2367 0.974609 21.1201L19.1183 21.1201C18.8887 22.2368 17.9064 23.0387 16.7663 23.0401ZM20.0916 26.88C19.8509 25.228 18.4353 24.0021 16.7658 24L3.3258 24C1.6563 24.0021 0.24078 25.228 0 26.88L20.0916 26.88ZM8.6058 24.96L11.4858 24.96C11.7509 24.96 11.9658 25.1749 11.9658 25.44C11.9658 25.7051 11.7509 25.92 11.4858 25.92L8.6058 25.92C8.34072 25.92 8.1258 25.7051 8.1258 25.44C8.1258 25.1749 8.34072 24.96 8.6058 24.96Z" id="Combined-Shape" fill="#374BAF" fill-rule="evenodd" stroke="none" />
  </g>
</svg>