<?xml version="1.0" encoding="utf-8"?>
<svg width="24px" height="32px" viewBox="0 0 24 32" version="1.1" xmlns:xlink="http://www.w3.org/1999/xlink" xmlns="http://www.w3.org/2000/svg">
  <desc>Created with Lunacy</desc>
  <g id="big-appl">
    <path d="M0 4.8L24 4.8L24 0L0 0L0 4.8ZM1.8 0.6C1.46865 0.6 1.2 0.86865 1.2 1.2L1.2 3.6C1.2 3.93135 1.46865 4.2 1.8 4.2L5.4 4.2C5.73135 4.2 6 3.93135 6 3.6L6 1.2C6 0.86865 5.73135 0.6 5.4 0.6L1.8 0.6ZM7.8 2.4L9 2.4L9 1.2L7.8 1.2L7.8 2.4ZM11.4 2.4L10.2 2.4L10.2 1.2L11.4 1.2L11.4 2.4ZM12.6 2.4L13.8 2.4L13.8 1.2L12.6 1.2L12.6 2.4ZM16.2 2.4L15 2.4L15 1.2L16.2 1.2L16.2 2.4ZM4.8 2.99999L2.4 2.99999L2.4 1.79999L4.8 1.79999L4.8 2.99999ZM24 6L24 31.8L0 31.8L0 6L24 6ZM21.6 19.8C21.6 14.4982 17.3018 10.2 12 10.2C6.7008 10.2062 2.40615 14.5008 2.4 19.8C2.4 25.1018 6.69817 29.4 12 29.4C17.3018 29.4 21.6 25.1018 21.6 19.8ZM8.1961 19.2299C9.32492 19.2571 10.4476 19.0547 11.4961 18.6354C12.6729 18.1676 13.9319 17.9414 15.198 17.9701C16.4639 17.9417 17.7228 18.1676 18.9 18.6348C19.3746 18.8171 19.863 18.9615 20.3604 19.0667C19.996 14.8837 16.5964 11.6133 12.4022 11.4111C8.2081 11.209 4.5097 14.1369 3.7447 18.2658C4.17362 18.3774 4.54247 18.5057 4.89962 18.6366C5.947 19.0553 7.06847 19.2571 8.1961 19.2299ZM22.2 21L23.4 21L23.4 18.6L22.2 18.6L22.2 21ZM12 28.2C16.4447 28.1927 20.1149 24.726 20.3754 20.289C19.7338 20.175 19.1045 19.9992 18.4969 19.764C17.4484 19.3447 16.3257 19.1426 15.1969 19.1701C14.0698 19.1428 12.9489 19.345 11.9021 19.764C10.7235 20.2324 9.4629 20.4589 8.19495 20.4299C6.92962 20.4583 5.67157 20.2324 4.49535 19.7657C4.20585 19.6615 3.92228 19.5624 3.61492 19.4748C3.61087 19.5835 3.5988 19.6901 3.5988 19.8C3.60382 24.4377 7.3623 28.1956 12 28.2ZM6 22.2L7.2 22.2L7.2 21L6 21L6 22.2ZM9 23.4L7.8 23.4L7.8 22.2L9 22.2L9 23.4Z" transform="translate(0 1.5E-05)" id="Combined-Shape" fill="#374BAF" fill-rule="evenodd" stroke="none" />
  </g>
</svg>