<?xml version="1.0" encoding="utf-8"?>
<svg width="18px" height="18px" viewBox="0 0 18 18" version="1.1" xmlns:xlink="http://www.w3.org/1999/xlink" xmlns="http://www.w3.org/2000/svg">
  <desc>Created with Lunacy</desc>
  <defs>
    <path d="M5.77125 11.1368C2.295 8.08283 0 6.06866 0 3.59673C0 1.58256 1.6335 0 3.7125 0C4.887 0 6.01425 0.5297 6.75 1.36676C7.48575 0.5297 8.613 0 9.7875 0C11.8665 0 13.5 1.58256 13.5 3.59673C13.5 6.06866 11.205 8.08283 7.72875 11.1433L6.75 12L5.77125 11.1368Z" transform="translate(2.25 3)" id="path_1" />
    <clipPath id="mask_1">
      <use xlink:href="#path_1" />
    </clipPath>
  </defs>
  <g id="compare">
    <path d="M5.77125 11.1368C2.295 8.08283 0 6.06866 0 3.59673C0 1.58256 1.6335 0 3.7125 0C4.887 0 6.01425 0.5297 6.75 1.36676C7.48575 0.5297 8.613 0 9.7875 0C11.8665 0 13.5 1.58256 13.5 3.59673C13.5 6.06866 11.205 8.08283 7.72875 11.1433L6.75 12L5.77125 11.1368Z" transform="translate(2.25 3)" id="Icon" fill="#394791" stroke="none" />
  </g>
</svg>