<svg xmlns="http://www.w3.org/2000/svg" width="494" height="115" viewBox="0 0 494 115">
  <path fill="#9E9E9E" d="M619.419596,112.001218 C651.370519,112.001218 669.839018,137.425861 669.839018,169.488166 C669.839018,201.712322 651.370519,226.973373 619.421337,226.973373 C587.627045,226.973373 569.001914,201.712322 569.001914,169.488166 C569.001914,137.425861 587.627045,112.001218 619.419596,112.001218 Z M820.724504,112.16307 C838.86582,112.16307 851.871389,119.288026 862.955621,135.969196 L840.794118,150.704664 C836.300557,142.92882 830.517403,138.396972 820.881135,138.396972 C808.681344,138.396972 796.958406,149.30543 796.958406,168.839018 C796.958406,190.73251 809.643752,200.739471 821.686913,200.739471 C832.121998,200.739471 836.939262,195.558475 841.436304,188.109816 L863.754438,203.168987 C852.517055,219.362861 842.078489,226.973373 820.406022,226.973373 C789.572398,226.973373 769.661156,201.388618 769.661156,168.839018 C769.661156,137.911417 787.645841,112.16307 820.724504,112.16307 Z M719.507658,112 C739.100418,112 751.782283,120.41977 759.491994,129.166725 L742.473199,146.008006 C737.170379,140.339715 729.142186,135.806126 719.987992,135.806126 C713.729725,135.806126 706.66568,138.721197 706.66568,146.008006 C706.66568,152.645667 714.018622,155.054299 723.359032,157.020884 L727.217369,157.830143 C742.852593,161.112426 761.738775,165.92621 761.738775,191.18552 C761.738775,215.313609 739.902715,226.972155 719.349286,226.972155 C695.584929,226.972155 683.383397,217.904977 673.748869,206.408284 L691.251479,189.241559 C698.637487,198.635921 708.270275,203.331361 719.029064,203.331361 C727.859554,203.331361 733.801079,198.959624 733.801079,192.480334 C733.801079,185.51897 728.55047,183.350505 714.208319,180.336234 L710.358684,179.526975 C693.080578,175.898364 678.886356,166.088061 678.886356,146.493561 C678.886356,124.955099 696.387226,112 719.507658,112 Z M522.381831,114.753742 C542.132962,114.753742 556.424643,124.631918 556.424643,144.873825 C556.424643,162.200661 541.330665,167.381657 541.330665,167.381657 C541.330665,167.545249 561.241907,172.078837 561.241907,193.77567 C561.241907,212.237208 544.221371,224.383049 527.037243,224.383049 L471,224.383049 L471,114.753742 L522.381831,114.753742 Z M902.186565,114.753568 L902.186565,155.075531 L935.423599,155.075531 L935.423599,114.753568 L964.325444,114.753568 L964.325444,224.382875 L935.423599,224.382875 L935.423599,181.147581 L902.186565,181.147581 L902.186565,224.382875 L873.443091,224.382875 L873.443091,114.753568 L902.186565,114.753568 Z M517.566307,180.013053 L497.975287,180.013053 L497.975287,201.551514 L518.048381,201.551514 C526.236686,201.551514 532.0181,198.636443 532.0181,190.698747 C532.0181,184.384789 527.360947,180.013053 517.566307,180.013053 Z M619.421337,138.396972 C603.847024,138.396972 596.137313,152.323181 596.137313,169.488166 C596.137313,186.815002 603.845284,200.739471 619.421337,200.739471 C634.995649,200.739471 642.863731,186.815002 642.863731,169.488166 C642.863731,152.323181 634.995649,138.396972 619.421337,138.396972 Z M518.048381,137.585277 L497.975287,137.585277 L497.975287,157.990776 L517.566307,157.990776 C524.630352,157.990776 528.483467,152.809781 528.483467,147.952489 C528.483467,141.796902 524.310129,137.585277 518.048381,137.585277 Z" opacity=".119" transform="translate(-471 -112)"/>
</svg>
