<svg xmlns="http://www.w3.org/2000/svg" width="163" height="41" viewBox="0 0 163 41">
  <path fill="#394791" d="M4.34711714,12.3517008 C4.57116267,12.3517008 4.78371549,12.3171921 4.98478199,12.2481737 C5.18584849,12.1791554 5.36393329,12.0713158 5.51904173,11.9246518 C5.67415017,11.7779878 5.79909677,11.5910659 5.89388526,11.3638804 C5.98867375,11.136695 6.04468429,10.8620635 6.06191856,10.5399779 L7.50097302,10.5399779 C7.48373875,11.0058518 7.38751551,11.4300208 7.21230042,11.8124975 C7.03708533,12.1949743 6.80729849,12.5228066 6.52293302,12.7960042 C6.23856754,13.0692019 5.90968513,13.2805675 5.53627592,13.4301073 C5.16286671,13.579647 4.76648441,13.6544158 4.34711714,13.6544158 C3.74391765,13.6544158 3.21971642,13.5566413 2.77449775,13.3610893 C2.32927907,13.1655372 1.96018396,12.8837165 1.66720135,12.5156186 C1.37421874,12.1475206 1.15592124,11.6960323 1.01230231,11.16114 C0.868683387,10.6262477 0.796875,10.0194704 0.796875,9.34078983 L0.796875,8.28826509 C0.796875,7.60958455 0.868683387,7.00424509 1.01230231,6.47222855 C1.15592124,5.94021202 1.37421874,5.48872369 1.66720135,5.11775 C1.96018396,4.74677631 2.3278429,4.4635177 2.7701892,4.26796568 C3.2125355,4.07241366 3.73530055,3.97463911 4.33850005,3.97463911 C4.80957013,3.97463911 5.23611195,4.05084574 5.6181383,4.20326129 C6.00016464,4.35567683 6.32761089,4.57710742 6.60048685,4.86755969 C6.87336281,5.15801196 7.08735181,5.51316361 7.24246025,5.93302531 C7.39756869,6.352887 7.48373875,6.82738112 7.50097302,7.35652188 L6.06191856,7.35652188 C6.02745002,6.66633827 5.86229073,6.14870833 5.56643574,5.80361653 C5.27058075,5.45852472 4.86127295,5.28598141 4.33850005,5.28598141 C3.93636705,5.28598141 3.60604847,5.35787446 3.3475344,5.50166271 C3.08902033,5.64545096 2.88364835,5.84818935 2.73141228,6.10988397 C2.57917622,6.37157859 2.47289981,6.68647014 2.41257986,7.05456806 C2.35225991,7.42266599 2.32210039,7.83389422 2.32210039,8.28826509 L2.32210039,9.34078983 C2.32210039,9.80091224 2.35082374,10.2164541 2.40827131,10.5874277 C2.46571888,10.9584014 2.57055913,11.2747308 2.72279519,11.5364255 C2.87503125,11.7981201 3.08183941,11.9994206 3.34322586,12.1403331 C3.6046123,12.2812456 3.93923939,12.3517008 4.34711714,12.3517008 Z M16.0125541,13.4818708 L14.4959458,13.4818708 L14.4959458,5.4671537 L11.1266626,5.4671537 L11.1266626,13.4818708 L9.59282012,13.4818708 L9.59282012,4.14718415 L16.0125541,4.14718415 L16.0125541,13.4818708 Z M21.9734758,13.6544158 C21.4162343,13.6544158 20.9135756,13.5710199 20.4654846,13.4042255 C20.0173935,13.2374311 19.636809,12.9829297 19.3237198,12.6407137 C19.0106305,12.2984977 18.7707905,11.8657015 18.6041926,11.3423123 C18.4375946,10.8189231 18.3542969,10.2006428 18.3542969,9.48745312 L18.3542969,8.43492838 C18.3542969,7.61245958 18.4519563,6.91797274 18.647278,6.35144703 C18.8425998,5.78492132 19.0996738,5.32480581 19.4185078,4.97108671 C19.7373418,4.61736761 20.1035646,4.36286623 20.5171871,4.20757491 C20.9308096,4.0522836 21.3587876,3.97463911 21.8011339,3.97463911 C22.3870991,3.97463911 22.8868855,4.07097579 23.300508,4.26365205 C23.7141305,4.45632831 24.0530661,4.73958692 24.3173249,5.11343637 C24.5815838,5.48728582 24.7740302,5.94740133 24.8946701,6.49379668 C25.01531,7.04019204 25.0756291,7.66997514 25.0756291,8.38316487 L25.0756291,9.27177182 L19.8709052,9.27177182 L19.8709052,9.48745312 C19.8709052,10.4882193 20.0590431,11.215777 20.4353247,11.6701479 C20.8116063,12.1245187 21.3530416,12.3517008 22.0596467,12.3517008 C22.3181607,12.3517008 22.5508199,12.3258193 22.7576312,12.2740555 C22.9644424,12.2222917 23.1540166,12.1489608 23.3263593,12.0540606 C23.498702,11.9591603 23.6566805,11.8470072 23.8002994,11.7175978 C23.9439183,11.5881883 24.0789181,11.4458401 24.2053027,11.2905488 L24.9980752,12.256801 C24.8716906,12.4350984 24.7194568,12.6076417 24.5413693,12.7744361 C24.3632819,12.9412305 24.150729,13.0893302 23.9037045,13.2187396 C23.6566799,13.348149 23.3737549,13.4531129 23.0549209,13.5336343 C22.7360869,13.6141557 22.3756087,13.6544158 21.9734758,13.6544158 Z M21.8011339,5.28598141 C21.5368751,5.28598141 21.2927266,5.32624152 21.068681,5.40676294 C20.8446355,5.48728436 20.6478805,5.62963259 20.4784102,5.83381191 C20.3089399,6.03799123 20.1725039,6.31262267 20.0690983,6.65771447 C19.9656927,7.00280628 19.9025013,7.43704028 19.8795223,7.96042952 L23.5504037,7.96042952 L23.5504037,7.75337547 C23.5331694,7.39102908 23.4943929,7.0588832 23.4340729,6.75692787 C23.373753,6.45497254 23.2789659,6.19471971 23.1497089,5.97616157 C23.0204519,5.75760342 22.8466756,5.58793583 22.6283748,5.4671537 C22.410074,5.34637157 22.1343298,5.28598141 21.8011339,5.28598141 Z M27.2364129,4.14718415 L28.7702554,4.14718415 L28.7702554,12.1791557 L32.1395386,12.1791557 L32.1395386,4.14718415 L33.6561469,4.14718415 L33.6561469,12.1791557 L34.6384954,12.1791557 L34.4833878,16.2512187 L33.1305042,16.2512187 L33.1305042,13.4818708 L27.2364129,13.4818708 L27.2364129,4.14718415 Z M41.5903827,4.14718415 L43.106991,4.14718415 L43.106991,13.4818708 L41.5903827,13.4818708 L41.5903827,6.67496898 L38.2124825,13.4818708 L36.6872571,13.4818708 L36.6872571,4.14718415 L38.2124825,4.14718415 L38.2124825,10.9627132 L41.5903827,4.14718415 Z M50.5328184,13.4818708 C50.4811156,13.3668402 50.4394668,13.2187405 50.4078706,13.0375673 C50.3762744,12.8563941 50.3518596,12.6651586 50.3346253,12.463855 C50.2254749,12.6248979 50.1005283,12.7773111 49.9597818,12.9210994 C49.8190352,13.0648877 49.6610568,13.1914194 49.4858417,13.3006985 C49.3106266,13.4099776 49.1210525,13.4962492 48.9171136,13.559516 C48.7131747,13.6227829 48.4963134,13.6544158 48.2665231,13.6544158 C47.8586453,13.6544158 47.4895502,13.5969014 47.1592267,13.4818708 C46.8289032,13.3668402 46.5459781,13.1942969 46.3104431,12.9642357 C46.074908,12.7341745 45.8939509,12.4509158 45.7675662,12.1144513 C45.6411816,11.7779868 45.5779902,11.3854508 45.5779902,10.9368314 C45.5779902,10.4882121 45.6555433,10.0741081 45.8106517,9.69450716 C45.9657602,9.31490618 46.195547,8.98707388 46.5000191,8.71100044 C46.8044912,8.434927 47.1865119,8.21780999 47.6460924,8.05964292 C48.105673,7.90147584 48.6399274,7.82239349 49.2488716,7.82239349 L50.308774,7.82239349 L50.308774,6.83025951 C50.308774,6.27236109 50.1852636,5.87551147 49.9382391,5.63969874 C49.6912145,5.40388601 49.3149386,5.28598141 48.8093999,5.28598141 C48.5623754,5.28598141 48.3426417,5.32480366 48.1501923,5.40244931 C47.957743,5.48009497 47.795456,5.58505882 47.6633266,5.71734401 C47.5311972,5.8496292 47.4306655,6.00348032 47.3617284,6.17890199 C47.2927913,6.35432366 47.2583233,6.53980772 47.2583233,6.73535974 L45.7330979,6.73535974 C45.7330979,6.401771 45.8063424,6.06962512 45.9528337,5.73891214 C46.099325,5.40819916 46.3090055,5.1119998 46.5818815,4.85030519 C46.8547575,4.58861057 47.1865122,4.37724501 47.5771557,4.21620217 C47.9677992,4.05515932 48.4043942,3.97463911 48.8869538,3.97463911 C49.3178105,3.97463911 49.7127567,4.0264021 50.071804,4.12992965 C50.4308513,4.23345719 50.7410635,4.40024906 51.00245,4.63031026 C51.2638364,4.86037146 51.4663361,5.15657082 51.609955,5.51891721 C51.7535739,5.88126361 51.8253823,6.32412478 51.8253823,6.84751402 L51.8253823,11.4458393 C51.8253823,11.6011306 51.831127,11.7650468 51.8426165,11.9375927 C51.854106,12.1101386 51.8727762,12.2798062 51.8986276,12.4466005 C51.924479,12.6133949 51.9560747,12.7729975 51.9934156,12.925413 C52.0307566,13.0778286 52.0724054,13.2173011 52.1183635,13.3438347 L52.1183635,13.4818708 L50.5328184,13.4818708 Z M48.4991846,12.2654283 C48.7117406,12.2654283 48.9128041,12.2337953 49.1023811,12.1705285 C49.2919581,12.1072616 49.4642982,12.0253036 49.6194066,11.9246518 C49.7745151,11.824 49.910951,11.7089711 50.0287185,11.5795617 C50.146486,11.4501523 50.2398369,11.3164312 50.308774,11.1783945 L50.308774,8.9525635 L49.5073844,8.9525635 C49.13972,8.9525635 48.8079652,8.9928236 48.5121102,9.07334502 C48.2162552,9.15386644 47.9634897,9.27033318 47.7538061,9.42274873 C47.5441225,9.57516427 47.3832717,9.76352406 47.2712489,9.98783373 C47.1592261,10.2121434 47.1032156,10.4680827 47.1032156,10.7556592 C47.1032156,11.0374841 47.131939,11.2747312 47.1893865,11.4674074 C47.2468341,11.6600837 47.3330042,11.8153727 47.4478993,11.933279 C47.5627944,12.0511854 47.7078474,12.1360192 47.8830625,12.187783 C48.0582776,12.2395468 48.2636496,12.2654283 48.4991846,12.2654283 Z M60.9573941,4.14718415 L60.9573941,13.4818708 L59.4321687,13.4818708 L59.4321687,5.4671537 L56.9849144,5.4671537 L56.8987435,8.14160181 C56.8642749,9.02733744 56.7982112,9.80378235 56.7005503,10.4709598 C56.6028895,11.1381373 56.4506557,11.6945895 56.2438444,12.1403331 C56.0370332,12.5860767 55.7627251,12.9210983 55.4209121,13.145408 C55.079099,13.3697176 54.6468125,13.4818708 54.1240396,13.4818708 L53.7018021,13.4818708 L53.7362705,12.0583742 L54.0292516,12.049747 C54.2877657,12.049747 54.4988824,11.976416 54.6626079,11.829752 C54.8263335,11.683088 54.9570248,11.4530303 55.0546856,11.1395719 C55.1523465,10.8261135 55.2227187,10.4220746 55.2658044,9.92744297 L55.3064963,9.3992631 C55.3320284,9.02477724 55.3543689,8.60555857 55.3735181,8.14160181 L55.5200086,4.14718415 L60.9573941,4.14718415 Z M68.615883,4.14718415 L70.1324913,4.14718415 L70.1324913,13.4818708 L68.615883,13.4818708 L68.615883,6.67496898 L65.2379827,13.4818708 L63.7127573,13.4818708 L63.7127573,4.14718415 L65.2379827,4.14718415 L65.2379827,10.9627132 L68.615883,4.14718415 Z M78.4803476,6.69222348 C78.4803476,7.11208517 78.3740711,7.49743191 78.1615151,7.84827524 C77.9489591,8.19911858 77.6473639,8.4780636 77.2567204,8.68511868 C77.7048115,8.86916765 78.0451832,9.14236123 78.2778459,9.50470762 C78.5105085,9.86705402 78.6268381,10.3185424 78.6268381,10.8591862 C78.6268381,11.302054 78.5521574,11.6960279 78.4027937,12.0411197 C78.25343,12.3862115 78.0423134,12.6766594 77.7694374,12.9124721 C77.4965615,13.1482849 77.1705514,13.3294554 76.7913974,13.455989 C76.4122434,13.5825227 75.9957548,13.6457886 75.541919,13.6457886 C75.1570203,13.6457886 74.7764358,13.5882741 74.4001542,13.4732435 C74.0238726,13.3582129 73.6878094,13.1827939 73.3919544,12.9469812 C73.0960994,12.7111684 72.8576956,12.4092176 72.6767357,12.0411197 C72.4957759,11.6730218 72.4052973,11.2330363 72.4052973,10.7211501 L73.9132885,10.7211501 C73.9132885,10.9397083 73.952065,11.1481981 74.0296192,11.3466259 C74.1071735,11.5450537 74.2163222,11.7204727 74.3570688,11.8728883 C74.4978153,12.0253038 74.6687193,12.147522 74.8697858,12.2395465 C75.0708523,12.331571 75.2948944,12.3775825 75.541919,12.3775825 C75.8004331,12.3775825 76.0273476,12.3358846 76.2226693,12.2524874 C76.417991,12.1690902 76.580278,12.0583749 76.709535,11.9203382 C76.8387921,11.7823014 76.9364515,11.621261 77.0025162,11.4372121 C77.0685809,11.2531631 77.1016127,11.0604897 77.1016127,10.8591862 C77.1016127,10.3357969 76.9852832,9.96051524 76.7526205,9.7333298 C76.5199578,9.50614436 76.1537351,9.39255335 75.6539412,9.39255335 L74.2579722,9.39255335 L74.2579722,8.04670204 L75.6539412,8.04670204 C75.9009657,8.04670204 76.1077739,8.0150691 76.2743719,7.95180227 C76.4409698,7.88853544 76.5759696,7.7979502 76.6793752,7.68004383 C76.7827808,7.56213746 76.8560254,7.41978923 76.8991111,7.25299486 C76.9421967,7.08620049 76.9637393,6.90215428 76.9637393,6.70085073 C76.9637393,6.51680177 76.9378882,6.33994487 76.8861854,6.17027474 C76.8344826,6.0006046 76.7526211,5.8496292 76.6405983,5.71734401 C76.5285755,5.58505882 76.3835226,5.47865711 76.2054351,5.39813568 C76.0273476,5.31761426 75.8090502,5.27735416 75.5505361,5.27735416 C75.3379801,5.27735416 75.1397889,5.31473854 74.9559567,5.38950843 C74.7721245,5.46427832 74.6112737,5.56924217 74.4733995,5.70440313 C74.3355253,5.83956409 74.2278128,5.99629093 74.1502585,6.17458836 C74.0727043,6.35288579 74.0339278,6.54555916 74.0339278,6.75261424 L72.5259366,6.75261424 C72.5259366,6.32700102 72.606362,5.94309215 72.7672152,5.60087611 C72.9280684,5.25866007 73.1449297,4.96821216 73.4178057,4.72952366 C73.6906816,4.49083516 74.010947,4.30678896 74.3786115,4.17737953 C74.7462759,4.04797011 75.1369136,3.98326636 75.5505361,3.98326636 C76.0043719,3.98326636 76.4122435,4.04221866 76.7741632,4.16012503 C77.1360829,4.27803139 77.4434228,4.45057471 77.6961921,4.67776015 C77.9489614,4.90494558 78.1428441,5.18820419 78.2778459,5.52754446 C78.4128477,5.86688474 78.4803476,6.25510719 78.4803476,6.69222348 Z M85.8717066,4.14718415 L87.3883149,4.14718415 L87.3883149,13.4818708 L85.8717066,13.4818708 L85.8717066,6.67496898 L82.4938063,13.4818708 L80.9685809,13.4818708 L80.9685809,4.14718415 L82.4938063,4.14718415 L82.4938063,10.9627132 L85.8717066,4.14718415 Z M96.7529881,9.26314457 C96.7529881,10.7412878 96.4872971,11.8426893 95.955907,12.5673821 C95.424517,13.2920749 94.6734013,13.6544158 93.7025373,13.6544158 C93.214233,13.6544158 92.7934358,13.5638306 92.4401333,13.3826574 C92.0868307,13.2014842 91.7866717,12.9383556 91.5396471,12.5932638 L91.5396471,17.0708076 L90.0230388,17.0708076 L90.0230388,4.14718415 L91.4017736,4.14718415 L91.4793275,5.18245439 C91.726352,4.79135034 92.0293834,4.49227526 92.3884307,4.28522018 C92.747478,4.0781651 93.1768922,3.97463911 93.6766861,3.97463911 C94.1764799,3.97463911 94.6173834,4.06091077 94.9994098,4.23345667 C95.3814361,4.40600257 95.7017015,4.67200685 95.9602156,5.03147748 C96.2187297,5.39094811 96.4154846,5.84962575 96.5504864,6.40752417 C96.6854882,6.96542258 96.7529881,7.62683862 96.7529881,8.39179212 L96.7529881,9.26314457 Z M95.2363798,8.39179212 C95.2363798,7.34501364 95.075529,6.57288232 94.7538226,6.07537496 C94.4321162,5.57786761 93.9150959,5.32911767 93.202746,5.32911767 C92.8063577,5.32911767 92.4717306,5.4312058 92.1988547,5.63538511 C91.9259787,5.83956443 91.7062451,6.10269299 91.5396471,6.42477867 L91.5396471,11.2819215 C91.7062451,11.5982557 91.9216702,11.8556328 92.185929,12.0540606 C92.4501879,12.2524884 92.7948681,12.3517008 93.2199802,12.3517008 C93.9150958,12.3517008 94.4249353,12.0986372 94.7495141,11.5925026 C95.0740929,11.086368 95.2363798,10.309923 95.2363798,9.26314457 L95.2363798,8.39179212 Z M98.5949395,8.38316487 C98.5949395,7.65272055 98.6882904,7.01287242 98.874995,6.4636013 C99.0616996,5.91433018 99.3173375,5.45565254 99.6419163,5.08755461 C99.966495,4.71945669 100.347079,4.44194953 100.783681,4.2550248 C101.220283,4.06810007 101.688473,3.97463911 102.188267,3.97463911 C102.693806,3.97463911 103.167741,4.06810007 103.610087,4.2550248 C104.052434,4.44194953 104.43589,4.71945669 104.760469,5.08755461 C105.085048,5.45565254 105.340686,5.91433018 105.527391,6.4636013 C105.714095,7.01287242 105.807446,7.65272055 105.807446,8.38316487 L105.807446,9.26314457 C105.807446,9.98783735 105.714095,10.6248098 105.527391,11.1740809 C105.340686,11.723352 105.085048,12.1820296 104.760469,12.5501276 C104.43589,12.9182255 104.055306,13.1942948 103.618704,13.3783438 C103.182103,13.5623927 102.71104,13.6544158 102.205501,13.6544158 C101.699963,13.6544158 101.227464,13.5623927 100.78799,13.3783438 C100.348516,13.1942948 99.966495,12.9182255 99.6419163,12.5501276 C99.3173375,12.1820296 99.0616996,11.723352 98.874995,11.1740809 C98.6882904,10.6248098 98.5949395,9.98783735 98.5949395,9.26314457 L98.5949395,8.38316487 Z M100.120165,9.26314457 C100.120165,9.78078227 100.173303,10.2322706 100.279581,10.6176231 C100.385859,11.0029756 100.532348,11.3236186 100.719053,11.5795617 C100.905757,11.8355048 101.125491,12.0281782 101.37826,12.1575876 C101.63103,12.286997 101.906774,12.3517008 102.205501,12.3517008 C103.589988,12.3517008 104.282221,11.3221923 104.282221,9.26314457 L104.282221,8.38316487 C104.282221,7.87127869 104.229082,7.42266607 104.122804,7.03731356 C104.016526,6.65196104 103.870037,6.32988019 103.683333,6.07106134 C103.496628,5.81224249 103.275458,5.6166934 103.019817,5.4844082 C102.764175,5.35212301 102.486994,5.28598141 102.188267,5.28598141 C101.895285,5.28598141 101.622413,5.35212301 101.369643,5.4844082 C101.116874,5.6166934 100.898577,5.81224249 100.714744,6.07106134 C100.530912,6.32988019 100.385859,6.65196104 100.279581,7.03731356 C100.173303,7.42266607 100.120165,7.87127869 100.120165,8.38316487 L100.120165,9.26314457 Z M108.106103,13.4818708 L108.106103,4.14718415 L111.234108,4.14718415 C111.739647,4.14718415 112.196348,4.19894714 112.604226,4.30247469 C113.012103,4.40600223 113.35822,4.56272907 113.642585,4.77265992 C113.926951,4.98259076 114.145248,5.24859504 114.297484,5.57068072 C114.44972,5.89276641 114.525837,6.2723617 114.525837,6.70947798 C114.525837,7.14084274 114.413816,7.5290652 114.189771,7.874157 C113.965725,8.2192488 113.638279,8.48381522 113.207422,8.66786418 C113.465936,8.73688254 113.694287,8.84184639 113.892481,8.98275888 C114.090675,9.12367136 114.257271,9.28902537 114.392272,9.47882587 C114.527274,9.66862636 114.627806,9.87999192 114.693871,10.1129289 C114.759935,10.3458659 114.792967,10.5859886 114.792967,10.8333044 C114.792967,11.2761722 114.722595,11.6629568 114.581848,11.9936698 C114.441102,12.3243828 114.238602,12.5990142 113.974343,12.8175724 C113.710085,13.0361305 113.388383,13.2014845 113.009229,13.3136394 C112.630075,13.4257942 112.202097,13.4818708 111.725282,13.4818708 L108.106103,13.4818708 Z M109.622712,9.38392609 L109.622712,12.1964102 L111.725282,12.1964102 C112.2538,12.1964102 112.643001,12.0727542 112.892898,11.8254384 C113.142795,11.5781226 113.267742,11.2301603 113.267742,10.7815409 C113.267742,10.3386731 113.142795,9.99502433 112.892898,9.7505843 C112.643001,9.50614427 112.2538,9.38392609 111.725282,9.38392609 L109.622712,9.38392609 Z M109.622712,8.1070928 L111.216874,8.1070928 C112.406038,8.1070928 113.000612,7.66998307 113.000612,6.7957505 C113.000612,5.89276028 112.411783,5.44127194 111.234108,5.44127194 L109.622712,5.44127194 L109.622712,8.1070928 Z M121.84826,13.4818708 C121.796557,13.3668402 121.754908,13.2187405 121.723312,13.0375673 C121.691716,12.8563941 121.667301,12.6651586 121.650066,12.463855 C121.540916,12.6248979 121.415969,12.7773111 121.275223,12.9210994 C121.134476,13.0648877 120.976498,13.1914194 120.801283,13.3006985 C120.626068,13.4099776 120.436494,13.4962492 120.232555,13.559516 C120.028616,13.6227829 119.811755,13.6544158 119.581964,13.6544158 C119.174086,13.6544158 118.804991,13.5969014 118.474668,13.4818708 C118.144344,13.3668402 117.861419,13.1942969 117.625884,12.9642357 C117.390349,12.7341745 117.209392,12.4509158 117.083007,12.1144513 C116.956623,11.7779868 116.893431,11.3854508 116.893431,10.9368314 C116.893431,10.4882121 116.970984,10.0741081 117.126093,9.69450716 C117.281201,9.31490618 117.510988,8.98707388 117.81546,8.71100044 C118.119932,8.434927 118.501953,8.21780999 118.961534,8.05964292 C119.421114,7.90147584 119.955369,7.82239349 120.564313,7.82239349 L121.624215,7.82239349 L121.624215,6.83025951 C121.624215,6.27236109 121.500705,5.87551147 121.25368,5.63969874 C121.006656,5.40388601 120.63038,5.28598141 120.124841,5.28598141 C119.877817,5.28598141 119.658083,5.32480366 119.465633,5.40244931 C119.273184,5.48009497 119.110897,5.58505882 118.978768,5.71734401 C118.846638,5.8496292 118.746107,6.00348032 118.67717,6.17890199 C118.608232,6.35432366 118.573764,6.53980772 118.573764,6.73535974 L117.048539,6.73535974 C117.048539,6.401771 117.121784,6.06962512 117.268275,5.73891214 C117.414766,5.40819916 117.624447,5.1119998 117.897323,4.85030519 C118.170199,4.58861057 118.501953,4.37724501 118.892597,4.21620217 C119.28324,4.05515932 119.719835,3.97463911 120.202395,3.97463911 C120.633252,3.97463911 121.028198,4.0264021 121.387245,4.12992965 C121.746292,4.23345719 122.056505,4.40024906 122.317891,4.63031026 C122.579278,4.86037146 122.781777,5.15657082 122.925396,5.51891721 C123.069015,5.88126361 123.140823,6.32412478 123.140823,6.84751402 L123.140823,11.4458393 C123.140823,11.6011306 123.146568,11.7650468 123.158058,11.9375927 C123.169547,12.1101386 123.188217,12.2798062 123.214069,12.4466005 C123.23992,12.6133949 123.271516,12.7729975 123.308857,12.925413 C123.346198,13.0778286 123.387847,13.2173011 123.433805,13.3438347 L123.433805,13.4818708 L121.84826,13.4818708 Z M119.814626,12.2654283 C120.027182,12.2654283 120.228245,12.2337953 120.417822,12.1705285 C120.607399,12.1072616 120.779739,12.0253036 120.934848,11.9246518 C121.089956,11.824 121.226392,11.7089711 121.34416,11.5795617 C121.461927,11.4501523 121.555278,11.3164312 121.624215,11.1783945 L121.624215,8.9525635 L120.822826,8.9525635 C120.455161,8.9525635 120.123406,8.9928236 119.827551,9.07334502 C119.531696,9.15386644 119.278931,9.27033318 119.069247,9.42274873 C118.859564,9.57516427 118.698713,9.76352406 118.58669,9.98783373 C118.474667,10.2121434 118.418657,10.4680827 118.418657,10.7556592 C118.418657,11.0374841 118.44738,11.2747312 118.504828,11.4674074 C118.562275,11.6600837 118.648445,11.8153727 118.76334,11.933279 C118.878236,12.0511854 119.023289,12.1360192 119.198504,12.187783 C119.373719,12.2395468 119.579091,12.2654283 119.814626,12.2654283 Z M132.246984,13.4818708 L130.730376,13.4818708 L130.730376,9.49608037 L127.36971,9.49608037 L127.36971,13.4818708 L125.835867,13.4818708 L125.835867,4.14718415 L127.36971,4.14718415 L127.36971,8.19336532 L130.730376,8.19336532 L130.730376,4.14718415 L132.246984,4.14718415 L132.246984,13.4818708 Z M141.422081,13.4818708 L139.905473,13.4818708 L139.905473,9.49608037 L136.544807,9.49608037 L136.544807,13.4818708 L135.010964,13.4818708 L135.010964,4.14718415 L136.544807,4.14718415 L136.544807,8.19336532 L139.905473,8.19336532 L139.905473,4.14718415 L141.422081,4.14718415 L141.422081,13.4818708 Z M145.70267,7.36514913 L147.59843,7.36514913 C148.08099,7.36514913 148.504659,7.44135576 148.869451,7.59377131 C149.234243,7.74618686 149.541583,7.95611456 149.79148,8.2235607 C150.041377,8.49100685 150.229515,8.81021198 150.3559,9.18118567 C150.482284,9.55215936 150.545476,9.95619829 150.545476,10.3933146 C150.545476,10.8246793 150.482284,11.2287183 150.3559,11.6054435 C150.229515,11.9821687 150.041377,12.3085631 149.79148,12.5846366 C149.541583,12.86071 149.234243,13.0792649 148.869451,13.2403077 C148.504659,13.4013506 148.08099,13.4818708 147.59843,13.4818708 L144.186061,13.4818708 L144.186061,4.14718415 L145.70267,4.14718415 L145.70267,7.36514913 Z M153.389116,13.4818708 L151.863891,13.4818708 L151.863891,4.14718415 L153.389116,4.14718415 L153.389116,13.4818708 Z M145.70267,8.66786418 L145.70267,12.1791557 L147.59843,12.1791557 C147.862689,12.1791557 148.085295,12.1302685 148.266255,12.0324924 C148.447215,11.9347164 148.593704,11.805309 148.705726,11.6442661 C148.817749,11.4832233 148.898175,11.2991771 148.947005,11.092122 C148.995836,10.8850669 149.02025,10.6722635 149.02025,10.4537053 C149.02025,10.2466503 148.995836,10.0367226 148.947005,9.82391594 C148.898175,9.61110933 148.817749,9.41843596 148.705726,9.24589006 C148.593704,9.07334416 148.447215,8.93387165 148.266255,8.82746834 C148.085295,8.72106504 147.862689,8.66786418 147.59843,8.66786418 L145.70267,8.66786418 Z M161.280267,4.14718415 L162.796875,4.14718415 L162.796875,13.4818708 L161.280267,13.4818708 L161.280267,6.67496898 L157.902366,13.4818708 L156.377141,13.4818708 L156.377141,4.14718415 L157.902366,4.14718415 L157.902366,10.9627132 L161.280267,4.14718415 Z M162.176444,0.748046875 C162.176444,1.08738715 162.117561,1.39796511 161.999794,1.67979009 C161.882026,1.96161506 161.711122,2.20461356 161.487077,2.40879288 C161.263031,2.6129722 160.991596,2.77257476 160.672762,2.88760536 C160.353928,3.00263596 159.996322,3.0601504 159.599934,3.0601504 C159.203545,3.0601504 158.84594,3.00263596 158.527106,2.88760536 C158.208272,2.77257476 157.936836,2.6129722 157.71279,2.40879288 C157.488745,2.20461356 157.316405,1.96161506 157.195765,1.67979009 C157.075125,1.39796511 157.014806,1.08738715 157.014806,0.748046875 L158.315987,0.748046875 C158.315987,0.920592777 158.338966,1.08450893 158.384924,1.23980024 C158.430882,1.39509155 158.504126,1.53168834 158.604659,1.64959471 C158.705193,1.76750107 158.83732,1.86096203 159.001046,1.92998039 C159.164771,1.99899876 159.364399,2.03350742 159.599934,2.03350742 C159.829724,2.03350742 160.026479,1.99899876 160.190204,1.92998039 C160.35393,1.86096203 160.487494,1.76750107 160.590899,1.64959471 C160.694305,1.53168834 160.768986,1.39509155 160.814944,1.23980024 C160.860902,1.08450893 160.88388,0.920592777 160.88388,0.748046875 L162.176444,0.748046875 Z M8.12038991,36.3146543 L10.5899473,27.3260728 L14.9086313,27.3260728 L14.9086313,40.5044539 L11.4658494,40.5044539 L11.4658494,33.4524366 L9.2760941,40.5044539 L6.97685104,40.5044539 L4.8722529,33.68385 L4.8722529,40.5044539 L1.44163628,40.5044539 L1.44163628,27.3260728 L5.68732848,27.3260728 L8.12038991,36.3146543 Z M24.0204464,40.5044539 C23.9555644,40.3664172 23.9008211,40.2101132 23.8562147,40.0355374 C23.8116084,39.8609615 23.7690302,39.6762387 23.728479,39.4813633 C23.4689512,39.8386348 23.1344086,40.1390632 22.7248412,40.3826574 C22.3152738,40.6262516 21.8144736,40.7480469 21.2224257,40.7480469 C20.6871495,40.7480469 20.1863494,40.6546705 19.7200103,40.4679149 C19.2536712,40.2811594 18.848165,40.0172696 18.5034796,39.6762377 C18.1587942,39.3352058 17.887105,38.9231318 17.688404,38.4400032 C17.489703,37.9568747 17.390354,37.4148857 17.390354,36.81402 C17.390354,36.1481958 17.4978131,35.5453092 17.7127346,35.005342 C17.9276561,34.4653748 18.2520611,34.0066126 18.6859592,33.6290415 C19.1198573,33.2514705 19.6632356,32.9611918 20.3161103,32.7581966 C20.9689851,32.5552014 21.7374193,32.4537053 22.6214361,32.4537053 L23.5581647,32.4537053 L23.5581647,31.3940758 C23.5581647,30.8013299 23.4567882,30.3831661 23.254032,30.1395719 C23.0512759,29.8959777 22.7552564,29.7741824 22.3659646,29.7741824 C21.9199011,29.7741824 21.5934686,29.9061273 21.3866574,30.170021 C21.1798461,30.4339147 21.076442,30.8053903 21.076442,31.284459 L17.6336601,31.284459 C17.6336601,30.7079526 17.7451743,30.1659636 17.9682061,29.6584757 C18.1912378,29.1509878 18.5136152,28.706435 18.935348,28.324804 C19.3570807,27.9431731 19.8639635,27.6407148 20.4560114,27.4174201 C21.0480593,27.1941254 21.7171445,27.0824798 22.4632871,27.0824798 C23.1202169,27.0824798 23.7244211,27.1657065 24.2759178,27.3321626 C24.8274145,27.4986186 25.3059118,27.7584486 25.7114241,28.1116602 C26.1169363,28.4648718 26.4332312,28.9155143 26.660318,29.4636013 C26.8874049,30.0116883 27.0009466,30.6714127 27.0009466,31.4427944 L27.0009466,37.2890263 C27.0009466,37.6706573 27.0110843,38.0096541 27.0313599,38.3060271 C27.0516355,38.6024 27.0820485,38.8703497 27.1225997,39.109884 C27.1631509,39.3494183 27.2138392,39.5645899 27.274666,39.7554054 C27.3354929,39.9462209 27.4064565,40.1268839 27.4875589,40.2973998 L27.4875589,40.5044539 L24.0204464,40.5044539 Z M21.9888401,38.0441646 C22.3700216,38.0441646 22.6944266,37.9670276 22.9620647,37.8127513 C23.2297028,37.6584749 23.4284008,37.475782 23.5581647,37.264667 L23.5581647,34.5242458 L22.7430891,34.5242458 C22.4186793,34.5242458 22.13888,34.5770238 21.9036829,34.6825813 C21.6684858,34.7881388 21.4718153,34.9342931 21.3136655,35.1210487 C21.1555158,35.3078042 21.037919,35.5270357 20.9608716,35.7787497 C20.8838243,36.0304638 20.8453012,36.2984134 20.8453012,36.5826066 C20.8453012,37.0616753 20.9446502,37.4250312 21.1433512,37.6726853 C21.3420522,37.9203394 21.623879,38.0441646 21.9888401,38.0441646 Z M37.195474,30.2004701 L32.9254512,30.2004701 L32.9254512,40.5044539 L29.4826693,40.5044539 L29.4826693,27.3260728 L37.195474,27.3260728 L37.195474,30.2004701 Z M44.9812706,40.5044539 C44.9163887,40.3664172 44.8616453,40.2101132 44.817039,40.0355374 C44.7724326,39.8609615 44.7298545,39.6762387 44.6893033,39.4813633 C44.4297754,39.8386348 44.0952328,40.1390632 43.6856654,40.3826574 C43.276098,40.6262516 42.7752979,40.7480469 42.18325,40.7480469 C41.6479738,40.7480469 41.1471737,40.6546705 40.6808345,40.4679149 C40.2144954,40.2811594 39.8089893,40.0172696 39.4643038,39.6762377 C39.1196184,39.3352058 38.8479293,38.9231318 38.6492282,38.4400032 C38.4505272,37.9568747 38.3511782,37.4148857 38.3511782,36.81402 C38.3511782,36.1481958 38.4586374,35.5453092 38.6735589,35.005342 C38.8884804,34.4653748 39.2128853,34.0066126 39.6467834,33.6290415 C40.0806816,33.2514705 40.6240598,32.9611918 41.2769346,32.7581966 C41.9298093,32.5552014 42.6982436,32.4537053 43.5822603,32.4537053 L44.518989,32.4537053 L44.518989,31.3940758 C44.518989,30.8013299 44.4176124,30.3831661 44.2148563,30.1395719 C44.0121001,29.8959777 43.7160806,29.7741824 43.3267889,29.7741824 C42.8807254,29.7741824 42.5542929,29.9061273 42.3474816,30.170021 C42.1406704,30.4339147 42.0372663,30.8053903 42.0372663,31.284459 L38.5944844,31.284459 C38.5944844,30.7079526 38.7059986,30.1659636 38.9290303,29.6584757 C39.1520621,29.1509878 39.4744395,28.706435 39.8961722,28.324804 C40.317905,27.9431731 40.8247877,27.6407148 41.4168356,27.4174201 C42.0088835,27.1941254 42.6779687,27.0824798 43.4241113,27.0824798 C44.0810412,27.0824798 44.6852454,27.1657065 45.2367421,27.3321626 C45.7882388,27.4986186 46.2667361,27.7584486 46.6722483,28.1116602 C47.0777606,28.4648718 47.3940554,28.9155143 47.6211423,29.4636013 C47.8482292,30.0116883 47.9617709,30.6714127 47.9617709,31.4427944 L47.9617709,37.2890263 C47.9617709,37.6706573 47.9719085,38.0096541 47.9921842,38.3060271 C48.0124598,38.6024 48.0428727,38.8703497 48.083424,39.109884 C48.1239752,39.3494183 48.1746635,39.5645899 48.2354903,39.7554054 C48.2963171,39.9462209 48.3672807,40.1268839 48.4483832,40.2973998 L48.4483832,40.5044539 L44.9812706,40.5044539 Z M42.9496643,38.0441646 C43.3308459,38.0441646 43.6552508,37.9670276 43.9228889,37.8127513 C44.190527,37.6584749 44.389225,37.475782 44.518989,37.264667 L44.518989,34.5242458 L43.7039134,34.5242458 C43.3795036,34.5242458 43.0997043,34.5770238 42.8645072,34.6825813 C42.6293101,34.7881388 42.4326396,34.9342931 42.2744898,35.1210487 C42.11634,35.3078042 41.9987432,35.5270357 41.9216959,35.7787497 C41.8446485,36.0304638 41.8061255,36.2984134 41.8061255,36.5826066 C41.8061255,37.0616753 41.9054745,37.4250312 42.1041755,37.6726853 C42.3028765,37.9203394 42.5847033,38.0441646 42.9496643,38.0441646 Z M54.9446572,32.6242204 C55.3420592,32.6242204 55.6259135,32.4943055 55.7962287,32.2344716 C55.9665439,31.9746378 56.0517002,31.6376709 56.0517002,31.2235607 C56.0517002,31.0449249 56.0354799,30.8703517 56.0030389,30.6998358 C55.9705979,30.5293198 55.9138271,30.3750458 55.8327246,30.2370091 C55.7516222,30.0989723 55.640108,29.9873267 55.4981787,29.9020687 C55.3562494,29.8168107 55.1757991,29.7741824 54.9568225,29.7741824 C54.5594205,29.7741824 54.2471807,29.8898879 54.0200939,30.1213024 C53.793007,30.3527169 53.6794653,30.6876539 53.6794653,31.1261235 L50.2366833,31.1261235 C50.2366833,30.4927785 50.3542801,29.9284604 50.5894772,29.4331522 C50.8246743,28.9378439 51.1470518,28.5156203 51.5566192,28.1664686 C51.9661865,27.8173169 52.4467114,27.5513972 52.9982081,27.3687015 C53.5497047,27.1860059 54.1417438,27.0946594 54.7743429,27.0946594 C55.4880445,27.0946594 56.1348269,27.1778862 56.7147094,27.3443422 C57.2945919,27.5107983 57.7893095,27.7543888 58.1988769,28.0751212 C58.6084443,28.3958536 58.9247391,28.7957481 59.1477708,29.2748167 C59.3708026,29.7538854 59.4823168,30.306024 59.4823168,30.9312491 C59.4823168,31.5158752 59.3322795,32.0538044 59.0322004,32.5450527 C58.7321213,33.036301 58.31445,33.4280759 57.7791738,33.7203889 C58.3955524,33.9802227 58.8659396,34.3679377 59.1903494,34.8835455 C59.5147592,35.3991532 59.6769617,36.0304588 59.6769617,36.777481 C59.6769617,37.4027062 59.5553098,37.9609345 59.3120025,38.4521829 C59.0686951,38.9434312 58.7300974,39.3595651 58.2961993,39.700597 C57.8623012,40.0416289 57.3432533,40.3014588 56.73904,40.4800946 C56.1348267,40.6587303 55.4758792,40.7480469 54.7621776,40.7480469 C54.1782399,40.7480469 53.6044487,40.66685 53.0407866,40.5044539 C52.4771246,40.3420577 51.9763244,40.0923774 51.5383712,39.7554054 C51.1004179,39.4184334 50.7456,38.99012 50.4739068,38.4704524 C50.2022136,37.9507847 50.066369,37.3296288 50.066369,36.6069659 L53.509151,36.6069659 C53.509151,36.8018413 53.5355089,36.9885941 53.5882254,37.1672298 C53.640942,37.3458656 53.7260983,37.5021695 53.8436969,37.6361463 C53.9612955,37.7701232 54.1113327,37.877709 54.2938133,37.9589071 C54.4762938,38.0401051 54.6972947,38.0807036 54.9568225,38.0807036 C55.2001299,38.0807036 55.4049105,38.0360453 55.5711705,37.9467274 C55.7374305,37.8574095 55.8692201,37.7396741 55.966543,37.5935176 C56.0638659,37.447361 56.1348295,37.2788776 56.1794359,37.0880621 C56.2240422,36.8972466 56.2463451,36.7044041 56.2463451,36.5095287 C56.2463451,35.9411422 56.1388859,35.533128 55.9239644,35.2854739 C55.7090429,35.0378198 55.3826104,34.9139946 54.9446572,34.9139946 L53.3266713,34.9139946 L53.3266713,32.6242204 L54.9446572,32.6242204 Z M68.2413379,27.3260728 L71.6719546,27.3260728 L71.6719546,40.5044539 L68.2413379,40.5044539 L68.2413379,32.4049867 L65.1756805,40.5044539 L61.7207333,40.5044539 L61.7207333,27.3260728 L65.1756805,27.3260728 L65.1756805,35.4133602 L68.2413379,27.3260728 Z M84.0927332,40.5044539 L80.6499512,40.5044539 L80.6499512,35.4498992 L77.6207898,35.4498992 L77.6207898,40.5044539 L74.1658425,40.5044539 L74.1658425,27.3260728 L77.6207898,27.3260728 L77.6207898,32.5998611 L80.6499512,32.5998611 L80.6499512,27.3260728 L84.0927332,27.3260728 L84.0927332,40.5044539 Z M92.523291,40.5044539 L92.523291,22.7708837 L97.9976793,22.7708837 C98.881696,22.7708837 99.6744606,22.8683199 100.375997,23.0631953 C101.077533,23.2580707 101.6716,23.5564691 102.158214,23.9583996 C102.644829,24.36033 103.015867,24.8657804 103.27134,25.474766 C103.526813,26.0837515 103.654547,26.8023437 103.654547,27.630564 C103.654547,28.0365544 103.611969,28.4262993 103.526811,28.7998104 C103.441654,29.1733215 103.307837,29.522468 103.125356,29.8472603 C102.942876,30.1720526 102.711737,30.4663912 102.431934,30.7302849 C102.15213,30.9941786 101.817588,31.2113802 101.428296,31.3818962 C101.88247,31.5118131 102.2677,31.7087154 102.584,31.9726092 C102.9003,32.2365029 103.155769,32.543021 103.350414,32.8921727 C103.54506,33.2413244 103.686987,33.6209197 103.7762,34.03097 C103.865413,34.4410203 103.910019,34.861214 103.910019,35.2915637 C103.910019,37.0129629 103.437604,38.3121125 102.49276,39.1890517 C101.547917,40.0659909 100.179333,40.5044539 98.3869691,40.5044539 L92.523291,40.5044539 Z M96.0998913,32.7947355 L96.0998913,37.5326193 L98.3869691,37.5326193 C98.7357096,37.5326193 99.0337567,37.4757815 99.2811192,37.3621042 C99.5284817,37.2484269 99.7312347,37.0880631 99.8893845,36.8810081 C100.047534,36.673953 100.163104,36.432391 100.236096,36.1563189 C100.309088,35.8802454 100.345584,35.5757572 100.345584,35.2428451 C100.345584,34.4877031 100.205684,33.8909062 99.9258804,33.4524366 C99.646077,33.013967 99.1736623,32.7947355 98.5086222,32.7947355 L96.0998913,32.7947355 Z M96.0998913,30.1882905 L97.9611833,30.1882905 C98.6748849,30.1882905 99.2040705,30.0035676 99.5487559,29.6341164 C99.8934414,29.2646652 100.065781,28.7226762 100.065781,28.0081331 C100.065781,27.2042722 99.903579,26.6277746 99.5791692,26.2786229 C99.2547594,25.9294712 98.7276013,25.7548979 97.9976793,25.7548979 L96.0998913,25.7548979 L96.0998913,30.1882905 Z M118.970669,33.2332029 C118.970669,34.4755334 118.816576,35.5676311 118.508387,36.5095287 C118.200198,37.4514264 117.768334,38.234976 117.212782,38.8602012 C116.65723,39.4854263 115.988145,39.9563681 115.205506,40.2730405 C114.422868,40.589713 113.557112,40.7480469 112.608213,40.7480469 C111.659314,40.7480469 110.791531,40.589713 110.004837,40.2730405 C109.218144,39.9563681 108.542976,39.4854263 107.979314,38.8602012 C107.415652,38.234976 106.977705,37.4514264 106.665461,36.5095287 C106.353216,35.5676311 106.197096,34.4755334 106.197096,33.2332029 L106.197096,30.2857277 C106.197096,29.0109179 106.351189,27.8883714 106.659378,26.9180545 C106.967567,25.9477375 107.401459,25.1377989 107.961066,24.4882143 C108.520673,23.8386298 109.193813,23.3494187 109.980507,23.0205665 C110.767201,22.6917144 111.634984,22.5272907 112.583883,22.5272907 C113.532781,22.5272907 114.398537,22.6917144 115.181176,23.0205665 C115.963814,23.3494187 116.636955,23.8386298 117.200617,24.4882143 C117.764279,25.1377989 118.200198,25.9477375 118.508387,26.9180545 C118.816576,27.8883714 118.970669,29.0109179 118.970669,30.2857277 L118.970669,33.2332029 Z M115.381903,30.2613684 C115.381903,29.4169084 115.321077,28.6962863 115.199424,28.0994805 C115.07777,27.5026747 114.899347,27.0134637 114.66415,26.6318327 C114.428953,26.2502018 114.136989,25.9700726 113.788248,25.7914369 C113.439507,25.6128011 113.038056,25.5234846 112.583883,25.5234846 C112.121599,25.5234846 111.716092,25.6128011 111.367352,25.7914369 C111.018611,25.9700726 110.726647,26.2502018 110.49145,26.6318327 C110.256253,27.0134637 110.07783,27.5026747 109.956176,28.0994805 C109.834523,28.6962863 109.773697,29.4169084 109.773697,30.2613684 L109.773697,33.2332029 C109.773697,34.0370638 109.834523,34.7252072 109.956176,35.2976536 C110.07783,35.8701 110.25828,36.3390118 110.497532,36.7044031 C110.736785,37.0697945 111.032804,37.3377441 111.3856,37.50826 C111.738395,37.678776 112.145929,37.7640327 112.608213,37.7640327 C113.062387,37.7640327 113.46181,37.678776 113.806496,37.50826 C114.151181,37.3377441 114.441118,37.0697945 114.676315,36.7044031 C114.911513,36.3390118 115.087908,35.8701 115.205506,35.2976536 C115.323105,34.7252072 115.381903,34.0370638 115.381903,33.2332029 L115.381903,30.2613684 Z M129.019213,35.8518276 C129.019213,35.543275 128.990827,35.2672057 128.934055,35.0236115 C128.877284,34.7800172 128.757659,34.5506361 128.575179,34.3354612 C128.392698,34.1202863 128.133174,33.9112044 127.796599,33.7082093 C127.460024,33.5052141 127.01194,33.2900424 126.452333,33.0626878 C125.787293,32.8109738 125.152675,32.522725 124.548462,32.1979327 C123.944249,31.8731404 123.413036,31.4894853 122.954807,31.0469558 C122.496578,30.6044263 122.131622,30.0928861 121.859929,29.5123199 C121.588236,28.9317537 121.452391,28.2557899 121.452391,27.4844082 C121.452391,26.7455058 121.590264,26.0695419 121.866012,25.4564965 C122.14176,24.8434511 122.529019,24.3217613 123.027799,23.8914115 C123.526579,23.4610617 124.118618,23.1261247 124.803934,22.8865904 C125.489249,22.6470561 126.245518,22.5272907 127.072763,22.5272907 C127.924339,22.5272907 128.692773,22.6632955 129.378089,22.935309 C130.063405,23.2073225 130.647334,23.5848879 131.129893,24.0680164 C131.612453,24.551145 131.983491,25.1276426 132.243019,25.7975267 C132.502547,26.4674108 132.632309,27.2042763 132.632309,28.0081331 L129.067874,28.0081331 C129.067874,27.634622 129.029351,27.2915653 128.952303,26.9789527 C128.875256,26.6663402 128.753604,26.3983905 128.587344,26.1750958 C128.421084,25.9518012 128.208193,25.7772279 127.948666,25.6513709 C127.689138,25.5255139 127.376898,25.4625863 127.011937,25.4625863 C126.671307,25.4625863 126.377315,25.5153643 126.129952,25.6209218 C125.88259,25.7264793 125.677809,25.8706037 125.515604,26.0532993 C125.353399,26.235995 125.231747,26.4531966 125.150645,26.7049106 C125.069542,26.9566246 125.028992,27.2245743 125.028992,27.5087675 C125.028992,27.8010806 125.091845,28.0649703 125.217554,28.3004447 C125.343263,28.5359192 125.521686,28.7551507 125.752828,28.9581458 C125.98397,29.161141 126.263769,29.3519536 126.592234,29.5305894 C126.920699,29.7092251 127.283627,29.8837984 127.681029,30.0543143 C128.508274,30.3547472 129.230075,30.6876543 129.846453,31.0530456 C130.462832,31.4184369 130.977825,31.8325409 131.391447,32.2953699 C131.80507,32.7581989 132.113255,33.2798887 132.316011,33.8604549 C132.518767,34.4410211 132.620143,35.0966857 132.620143,35.8274683 C132.620143,36.6069698 132.492409,37.3012029 132.236936,37.9101885 C131.981464,38.519174 131.616508,39.0327441 131.142059,39.4509142 C130.667609,39.8690842 130.093818,40.1898118 129.420668,40.4131065 C128.747517,40.6364012 127.989221,40.7480469 127.145755,40.7480469 C126.383392,40.7480469 125.635233,40.6323414 124.901256,40.4009269 C124.167279,40.1695124 123.512386,39.8142761 122.936559,39.3352075 C122.360732,38.8561389 121.896427,38.2512223 121.543631,37.5204397 C121.190836,36.789657 121.01444,35.9208507 121.01444,34.9139946 L124.603206,34.9139946 C124.603206,35.4499019 124.655922,35.9046043 124.761355,36.2781154 C124.866788,36.6516265 125.026963,36.9540848 125.241885,37.1854993 C125.456806,37.4169138 125.722413,37.5833674 126.038712,37.6848649 C126.355012,37.7863625 126.724025,37.8371106 127.145755,37.8371106 C127.486386,37.8371106 127.776322,37.7863625 128.015575,37.6848649 C128.254827,37.5833674 128.44947,37.4453327 128.599509,37.2707568 C128.749549,37.096181 128.857008,36.8870991 128.92189,36.6435049 C128.986772,36.3999107 129.019213,36.1360209 129.019213,35.8518276 Z M146.999537,34.5973237 C146.910324,36.6191557 146.342615,38.1497164 145.296394,39.1890517 C144.250172,40.228387 142.774129,40.7480469 140.868222,40.7480469 C139.886882,40.7480469 139.010989,40.5856532 138.240515,40.2608609 C137.470042,39.9360686 136.821232,39.4529473 136.294066,38.8114826 C135.7669,38.1700178 135.363422,37.3763185 135.083618,36.430361 C134.803815,35.4844035 134.663915,34.3943357 134.663915,33.160125 L134.663915,30.1395719 C134.663915,28.9053612 134.80787,27.8132635 135.095783,26.8632461 C135.383697,25.9132286 135.799341,25.1174995 136.342727,24.4760347 C136.886114,23.8345699 137.543034,23.3494187 138.313507,23.0205665 C139.083981,22.6917144 139.951764,22.5272907 140.916883,22.5272907 C142.847121,22.5272907 144.313026,23.0672498 145.314641,24.1471841 C146.316257,25.2271185 146.885993,26.7779784 147.023867,28.7998104 L143.435102,28.7998104 C143.418881,28.1664654 143.364138,27.636656 143.27087,27.2103661 C143.177602,26.7840762 143.033647,26.4450793 142.839001,26.1933653 C142.644356,25.9416513 142.390914,25.7630182 142.07867,25.6574607 C141.766425,25.5519032 141.379167,25.4991253 140.916883,25.4991253 C140.438378,25.4991253 140.030845,25.5803221 139.69427,25.7427183 C139.357694,25.9051144 139.083978,26.1669743 138.873111,26.5283057 C138.662245,26.8896371 138.506125,27.3646387 138.404747,27.9533247 C138.303369,28.5420107 138.252681,29.2626328 138.252681,30.1152126 L138.252681,33.160125 C138.252681,33.9883454 138.293231,34.694758 138.374334,35.2793841 C138.455436,35.8640102 138.597363,36.3410417 138.800119,36.710493 C139.002876,37.0799442 139.27051,37.3499237 139.60303,37.5204397 C139.93555,37.6909556 140.357276,37.7762123 140.868222,37.7762123 C141.306175,37.7762123 141.681268,37.7295241 141.993513,37.6361463 C142.305757,37.5427686 142.563254,37.3783449 142.76601,37.1428705 C142.968765,36.9073961 143.122858,36.5826087 143.228291,36.1684985 C143.333724,35.7543884 143.398605,35.2306687 143.422936,34.5973237 L146.999537,34.5973237 Z M161.622236,40.5044539 L158.057801,40.5044539 L158.057801,32.916532 L152.778057,32.916532 L152.778057,40.5044539 L149.201457,40.5044539 L149.201457,22.7708837 L152.778057,22.7708837 L152.778057,29.9446975 L158.057801,29.9446975 L158.057801,22.7708837 L161.622236,22.7708837 L161.622236,40.5044539 Z"/>
</svg>
