<?xml version="1.0" encoding="utf-8"?>
<svg width="159px" height="51px" viewBox="0 0 159 51" version="1.1" xmlns:xlink="http://www.w3.org/1999/xlink" xmlns="http://www.w3.org/2000/svg">
  <desc>Created with Lunacy</desc>
  <g id="специализированный-м">
    <g id="специализированный" fill="#212C89">
      <path d="M155.568 6.67034Q156.253 6.05796 156.253 5.0498L155.007 5.0498Q155.007 5.63916 154.68 5.96289Q154.352 6.28662 153.771 6.28662Q153.165 6.28662 152.849 5.95874Q152.534 5.63086 152.534 5.0498L151.28 5.0498Q151.28 6.04966 151.969 6.66619Q152.658 7.28271 153.771 7.28271Q154.883 7.28272 155.568 6.67034ZM5.38721 15.762Q4.94727 16.2144 4.2168 16.2144Q3.2041 16.2144 2.73511 15.5586Q2.26611 14.9028 2.26611 13.3174L2.26611 12.1719Q2.28271 10.7026 2.75586 10.0593Q3.229 9.41602 4.2085 9.41602Q4.96387 9.41602 5.39136 9.91406Q5.81885 10.4121 5.86865 11.4082L7.25488 11.4082Q7.20508 9.89746 6.39575 9.02588Q5.58643 8.1543 4.2085 8.1543Q2.54004 8.1543 1.66846 9.21265Q0.796875 10.271 0.796875 12.3047L0.796875 13.2925Q0.796875 15.3677 1.67261 16.4177Q2.54834 17.4678 4.2168 17.4678Q5.47021 17.4678 6.33765 16.6169Q7.20508 15.7661 7.25488 14.4712L5.86865 14.4712Q5.82715 15.3096 5.38721 15.762ZM18.6229 16.4675Q17.7264 15.4673 17.7098 13.5332L17.7098 12.4458Q17.7098 10.437 18.5855 9.29565Q19.4613 8.1543 21.0301 8.1543Q22.6073 8.1543 23.3875 9.15869Q24.1678 10.1631 24.1844 12.2881L24.1844 13.251L19.1707 13.251L19.1707 13.4585Q19.1707 14.9028 19.7144 15.5586Q20.2581 16.2144 21.2791 16.2144Q21.9266 16.2144 22.4205 15.9695Q22.9144 15.7246 23.346 15.1934L24.1097 16.123Q23.1551 17.4678 21.1961 17.4678Q19.5194 17.4678 18.6229 16.4675ZM48.5162 16.3223Q48.5743 17.0112 48.7071 17.3018L50.2345 17.3018L50.2345 17.1689Q49.9606 16.4053 49.9523 15.3677L49.9523 10.8354Q49.9357 9.52393 49.2176 8.83911Q48.4996 8.1543 47.1217 8.1543Q46.275 8.1543 45.586 8.51123Q44.8971 8.86816 44.4903 9.49487Q44.0836 10.1216 44.0836 10.8105L45.5528 10.8105Q45.5528 10.2046 45.9679 9.8103Q46.3829 9.41602 47.047 9.41602Q47.7775 9.41602 48.1344 9.75635Q48.4913 10.0967 48.4913 10.9019L48.4913 11.8564L47.4122 11.8564Q45.7936 11.873 44.8639 12.6782Q43.9342 13.4834 43.9342 14.853Q43.9342 16.0981 44.619 16.783Q45.3038 17.4678 46.524 17.4678Q47.7359 17.4678 48.5162 16.3223ZM93.2307 13.2427Q93.2307 15.376 92.4629 16.4219Q91.695 17.4678 90.2922 17.4678Q88.9392 17.4678 88.2087 16.4468L88.2087 20.7549L86.7478 20.7549L86.7478 8.32031L88.0759 8.32031L88.1506 9.31641Q88.8894 8.1543 90.2673 8.1543Q91.7448 8.1543 92.4753 9.18359Q93.2058 10.2129 93.2307 12.2632L93.2307 13.2427ZM95.9555 9.29565Q95.005 10.437 95.005 12.396L95.005 13.3755Q95.0382 15.2598 95.9804 16.3638Q96.9225 17.4678 98.483 17.4678Q100.06 17.4678 101.006 16.3306Q101.953 15.1934 101.953 13.2427L101.953 12.2964Q101.928 10.3789 100.977 9.2666Q100.027 8.1543 98.4664 8.1543Q96.9059 8.1543 95.9555 9.29565ZM117.214 16.3223Q117.272 17.0112 117.405 17.3018L118.932 17.3018L118.932 17.1689Q118.658 16.4053 118.65 15.3677L118.65 10.8354Q118.633 9.52393 117.915 8.83911Q117.197 8.1543 115.819 8.1543Q114.973 8.1543 114.284 8.51123Q113.595 8.86816 113.188 9.49487Q112.781 10.1216 112.781 10.8105L114.25 10.8105Q114.25 10.2046 114.666 9.8103Q115.081 9.41602 115.745 9.41602Q116.475 9.41602 116.832 9.75635Q117.189 10.0967 117.189 10.9019L117.189 11.8564L116.11 11.8564Q114.491 11.873 113.562 12.6782Q112.632 13.4834 112.632 14.853Q112.632 16.0981 113.317 16.783Q114.001 17.4678 115.222 17.4678Q116.434 17.4678 117.214 16.3223ZM75.6288 10.7712Q75.6288 11.3777 75.3217 11.8845Q75.0145 12.3913 74.4501 12.6904Q75.7699 13.2296 75.7699 14.7805Q75.7699 16.0329 74.9523 16.7462Q74.1346 17.4595 72.7982 17.4595Q71.4784 17.4595 70.6276 16.7Q69.7767 15.9404 69.7767 14.6455L71.2294 14.6455Q71.2294 15.3096 71.6776 15.7744Q72.1259 16.2393 72.7982 16.2393Q73.4789 16.2393 73.8898 15.8337Q74.3007 15.4281 74.3007 14.7826Q74.3007 14.0293 73.9645 13.7024Q73.6283 13.3755 72.9061 13.3755L71.5614 13.3755L71.5614 12.0723L73.0057 12.0723Q74.1678 12.0308 74.1678 10.7773Q74.1678 10.1465 73.8068 9.7771Q73.4457 9.40771 72.8065 9.40771Q72.184 9.40772 71.7648 9.82275Q71.3456 10.2378 71.3456 10.8271L69.8929 10.8271Q69.8929 9.65674 70.723 8.90967Q71.5531 8.1626 72.8065 8.1626Q74.1429 8.1626 74.8859 8.84385Q75.6288 9.52509 75.6288 10.7712ZM13.9931 17.3018L15.454 17.3018L15.454 8.32031L9.26994 8.32031L9.26994 17.3018L10.7475 17.3018L10.7475 9.59033L13.9931 9.59033L13.9931 17.3018ZM27.7434 8.32031L26.2659 8.32031L26.2659 17.3018L31.9436 17.3018L31.9436 19.9663L33.2468 19.9663L33.3963 16.0483L32.45 16.0483L32.45 8.32031L30.989 8.32031L30.989 16.0483L27.7434 16.0483L27.7434 8.32031ZM40.093 8.32031L41.5539 8.32031L41.5539 17.3018L40.093 17.3018L40.093 10.7524L36.8391 17.3018L35.3698 17.3018L35.3698 8.32031L36.8391 8.32031L36.8391 14.8779L40.093 8.32031ZM58.7491 8.32031L58.7491 17.3018L57.2798 17.3018L57.2798 9.59033L54.9141 9.59033L54.773 12.6367Q54.6568 15.1685 54.0923 16.2268Q53.5279 17.2852 52.2827 17.3018L51.793 17.3018L51.793 15.9487L52.1665 15.9155Q52.7808 15.8325 53.034 15.0896Q53.2871 14.3467 53.3701 12.1636L53.5113 8.32031L58.7491 8.32031ZM67.5874 8.32031L66.1264 8.32031L62.8725 14.8779L62.8725 8.32031L61.4033 8.32031L61.4033 17.3018L62.8725 17.3018L66.1264 10.7524L66.1264 17.3018L67.5874 17.3018L67.5874 8.32031ZM84.2098 8.32031L82.7488 8.32031L79.4949 14.8779L79.4949 8.32031L78.0257 8.32031L78.0257 17.3018L79.4949 17.3018L82.7488 10.7524L82.7488 17.3018L84.2098 17.3018L84.2098 8.32031ZM104.167 17.3018L104.167 8.32031L107.18 8.32031Q108.724 8.32031 109.538 8.95117Q110.351 9.58203 110.351 10.7856Q110.351 11.4082 110.027 11.9063Q109.704 12.4043 109.081 12.6699Q109.77 12.8525 110.189 13.4087Q110.608 13.9648 110.608 14.7534Q110.608 15.9985 109.832 16.6501Q109.056 17.3018 107.637 17.3018L104.167 17.3018ZM127.422 17.3018L125.961 17.3018L125.961 13.4668L122.724 13.4668L122.724 17.3018L121.246 17.3018L121.246 8.32031L122.724 8.32031L122.724 12.2134L125.961 12.2134L125.961 8.32031L127.422 8.32031L127.422 17.3018ZM134.799 17.3018L136.26 17.3018L136.26 8.32031L134.799 8.32031L134.799 12.2134L131.562 12.2134L131.562 8.32031L130.084 8.32031L130.084 17.3018L131.562 17.3018L131.562 13.4668L134.799 13.4668L134.799 17.3018ZM140.384 11.4165L142.235 11.4165Q143.521 11.4248 144.285 12.2051Q145.049 12.9854 145.049 14.3301Q145.049 15.6748 144.277 16.4841Q143.505 17.2935 142.235 17.3018L138.923 17.3018L138.923 8.32031L140.384 8.32031L140.384 11.4165ZM147.788 17.3018L146.319 17.3018L146.319 8.32031L147.788 8.32031L147.788 17.3018ZM156.85 8.32031L155.389 8.32031L152.135 14.8779L152.135 8.32031L150.666 8.32031L150.666 17.3018L152.135 17.3018L155.389 10.7524L155.389 17.3018L156.85 17.3018L156.85 8.32031ZM21.0301 9.41602Q20.117 9.41602 19.6771 10.0427Q19.2372 10.6694 19.179 11.9893L22.7152 11.9893L22.7152 11.79Q22.6571 10.5117 22.2545 9.96387Q21.8519 9.41602 21.0301 9.41602ZM97.018 15.4216Q96.4743 14.6289 96.4743 13.2427L96.4743 12.3877Q96.4743 11.0181 97.018 10.217Q97.5617 9.41602 98.4664 9.41602Q99.3878 9.41602 99.9357 10.217Q100.484 11.0181 100.484 12.396L100.484 13.4087Q100.425 16.2144 98.483 16.2144Q97.5617 16.2144 97.018 15.4216ZM91.7697 12.4043Q91.7697 10.8936 91.3049 10.1755Q90.8401 9.45752 89.8108 9.45752Q88.7566 9.45752 88.2087 10.5117L88.2087 15.1851Q88.7483 16.2144 89.8274 16.2144Q90.8235 16.2144 91.2924 15.4963Q91.7614 14.7783 91.7697 13.3008L91.7697 12.4043ZM105.628 12.1304L107.164 12.1304Q108.882 12.1304 108.882 10.8687Q108.882 9.59863 107.263 9.56543L105.628 9.56543L105.628 12.1304ZM140.384 12.6699L140.384 16.0483L142.21 16.0483Q142.857 16.0483 143.218 15.6084Q143.579 15.1685 143.579 14.3882Q143.579 13.6245 143.222 13.1514Q142.865 12.6782 142.243 12.6699L140.384 12.6699ZM47.7775 15.8325Q47.2877 16.1313 46.7482 16.1313Q46.0177 16.1313 45.7106 15.7869Q45.4034 15.4424 45.4034 14.6787Q45.4034 13.8652 46.0094 13.4128Q46.6153 12.9604 47.6612 12.9438L48.4913 12.9438L48.4913 15.0854Q48.2672 15.5337 47.7775 15.8325ZM116.475 15.8325Q115.985 16.1313 115.446 16.1313Q114.715 16.1313 114.408 15.7869Q114.101 15.4424 114.101 14.6787Q114.101 13.8652 114.707 13.4128Q115.313 12.9604 116.359 12.9438L117.189 12.9438L117.189 15.0854Q116.965 15.5337 116.475 15.8325ZM105.628 13.3589L105.628 16.0649L107.653 16.0649Q109.139 16.0649 109.139 14.7036Q109.139 13.3589 107.637 13.3589L105.628 13.3589Z" />
    </g>
    <g id="магазин-BOSCH" fill="#212C89">
      <path d="M114.633 38.0352Q114.633 41.4688 113.01 43.3672Q111.387 45.2656 108.504 45.2656Q105.633 45.2656 103.992 43.3848Q102.352 41.5039 102.328 38.1172L102.328 35.1992Q102.328 31.6836 103.957 29.709Q105.586 27.7344 108.48 27.7344Q111.328 27.7344 112.969 29.6738Q114.609 31.6133 114.633 35.1172L114.633 38.0352ZM123.779 38.9785Q124.313 39.5117 124.313 40.5547Q124.313 42.4648 122.508 42.4648Q121.207 42.4648 120.633 41.7969Q120.059 41.1289 120.059 39.6523L116.602 39.6523Q116.602 41.375 117.369 42.6406Q118.137 43.9063 119.496 44.5859Q120.855 45.2656 122.508 45.2656Q124.945 45.2656 126.363 44.0117Q127.781 42.7578 127.781 40.5313Q127.781 38.5039 126.65 37.1914Q125.52 35.8789 123.023 34.9766Q121.594 34.3672 121.031 33.7988Q120.469 33.2305 120.469 32.5273Q120.469 31.625 120.973 31.0918Q121.477 30.5586 122.379 30.5586Q123.34 30.5586 123.85 31.1855Q124.359 31.8125 124.359 33.0078L127.793 33.0078Q127.793 31.4727 127.131 30.2656Q126.469 29.0586 125.238 28.3965Q124.008 27.7344 122.438 27.7344Q120.082 27.7344 118.553 29.041Q117.023 30.3477 117.023 32.5039Q117.023 34.2852 118.148 35.5918Q119.273 36.8984 121.84 37.8711Q123.246 38.4453 123.779 38.9785ZM141.633 39.3477Q141.504 42.2656 139.992 43.7656Q138.48 45.2656 135.727 45.2656Q132.832 45.2656 131.291 43.3613Q129.75 41.457 129.75 37.9297L129.75 35.0586Q129.75 31.543 131.344 29.6387Q132.938 27.7344 135.773 27.7344Q138.563 27.7344 140.01 29.293Q141.457 30.8516 141.656 33.7695L138.199 33.7695Q138.152 31.9648 137.643 31.2793Q137.133 30.5938 135.773 30.5938Q134.391 30.5938 133.816 31.5605Q133.242 32.5273 133.207 34.7422L133.207 37.9648Q133.207 40.5078 133.775 41.457Q134.344 42.4063 135.727 42.4063Q137.086 42.4063 137.602 41.7441Q138.117 41.082 138.188 39.3477L141.633 39.3477ZM89.1563 27.9688L89.1563 45.0313L94.8047 45.0313Q97.3945 45.0313 98.7598 43.7656Q100.125 42.5 100.125 40.0156Q100.125 38.5625 99.5039 37.5723Q98.8828 36.582 97.7344 36.2539Q98.7305 35.8203 99.3047 34.8828Q99.8789 33.9453 99.8789 32.6445Q99.8789 30.3477 98.4902 29.1582Q97.1016 27.9688 94.4297 27.9688L89.1563 27.9688ZM152.285 45.0313L155.719 45.0313L155.719 27.9688L152.285 27.9688L152.285 34.8711L147.199 34.8711L147.199 27.9688L143.754 27.9688L143.754 45.0313L147.199 45.0313L147.199 37.7305L152.285 37.7305L152.285 45.0313ZM111.176 35.1758Q111.176 32.8672 110.52 31.7422Q109.863 30.6172 108.48 30.6172Q107.109 30.6172 106.453 31.7012Q105.797 32.7852 105.773 35L105.773 38.0352Q105.773 40.2734 106.441 41.334Q107.109 42.3945 108.504 42.3945Q109.852 42.3945 110.508 41.3574Q111.164 40.3203 111.176 38.1406L111.176 35.1758ZM94.3945 35.1055L92.6016 35.1055L92.6016 30.8398L94.4297 30.8398Q95.4844 30.8398 95.9531 31.3438Q96.4219 31.8477 96.4219 33.0078Q96.4219 35.1055 94.3945 35.1055ZM22.8867 44.0469Q23.0273 44.7383 23.168 45.0313L26.5078 45.0313L26.5078 44.832Q26.0625 43.9063 26.0391 42.2656L26.0391 36.3008Q26.0391 34.2852 24.8965 33.2012Q23.7539 32.1172 21.668 32.1172Q19.6523 32.1172 18.334 33.2598Q17.0156 34.4023 17.0156 36.1602L20.332 36.1602Q20.332 34.707 21.5742 34.707Q22.1367 34.707 22.4297 35.0586Q22.7227 35.4102 22.7227 36.2656L22.7227 37.2852L21.7148 37.2852Q19.3242 37.3086 18.0527 38.3984Q16.7813 39.4883 16.7813 41.4805Q16.7813 43.1563 17.8301 44.2109Q18.8789 45.2656 20.4727 45.2656Q21.9961 45.2656 22.8867 44.0469ZM43.0781 44.0469Q43.2188 44.7383 43.3594 45.0313L46.6992 45.0313L46.6992 44.832Q46.2539 43.9063 46.2305 42.2656L46.2305 36.3008Q46.2305 34.2852 45.0879 33.2012Q43.9453 32.1172 41.8594 32.1172Q39.8438 32.1172 38.5254 33.2598Q37.207 34.4023 37.207 36.1602L40.5234 36.1602Q40.5234 34.707 41.7656 34.707Q42.3281 34.707 42.6211 35.0586Q42.9141 35.4102 42.9141 36.2656L42.9141 37.2852L41.9063 37.2852Q39.5156 37.3086 38.2441 38.3984Q36.9727 39.4883 36.9727 41.4805Q36.9727 43.1563 38.0215 44.2109Q39.0703 45.2656 40.6641 45.2656Q42.1875 45.2656 43.0781 44.0469ZM54.0234 36.1016Q54.0234 34.707 52.9688 34.707Q52.3945 34.707 52.0664 35.041Q51.7383 35.375 51.7383 36.0078L48.4219 36.0078Q48.4219 34.2852 49.6406 33.207Q50.8594 32.1289 52.793 32.1289Q54.9141 32.1289 56.1211 33.0957Q57.3281 34.0625 57.3281 35.8203Q57.3281 36.6641 56.8945 37.373Q56.4609 38.082 55.6875 38.5039Q57.5156 39.2773 57.5156 41.4453Q57.5156 43.1797 56.2266 44.2227Q54.9375 45.2656 52.7813 45.2656Q50.7773 45.2656 49.5176 44.1816Q48.2578 43.0977 48.2578 41.2813L51.5742 41.2813Q51.5742 41.9492 51.9492 42.3242Q52.3242 42.6992 52.9688 42.6992Q53.5781 42.6992 53.8945 42.2949Q54.2109 41.8906 54.2109 41.1875Q54.2109 39.6992 53.0508 39.6523L51.3984 39.6523L51.3984 37.4492L52.9688 37.4492Q54.0234 37.4375 54.0234 36.1016ZM10.2305 32.3516L7.85156 41L5.50781 32.3516L1.41797 32.3516L1.41797 45.0313L4.72266 45.0313L4.72266 38.4688L6.75 45.0313L8.96484 45.0313L11.0742 38.2461L11.0742 45.0313L14.3906 45.0313L14.3906 32.3516L10.2305 32.3516ZM35.8594 35.1172L31.7461 35.1172L31.7461 45.0313L28.4297 45.0313L28.4297 32.3516L35.8594 32.3516L35.8594 35.1172ZM69.0703 32.3516L65.7656 32.3516L62.8125 40.1328L62.8125 32.3516L59.4844 32.3516L59.4844 45.0313L62.8125 45.0313L65.7656 37.2383L65.7656 45.0313L69.0703 45.0313L69.0703 32.3516ZM81.0352 45.0313L77.7188 45.0313L77.7188 40.1563L74.8008 40.1563L74.8008 45.0313L71.4727 45.0313L71.4727 32.3516L74.8008 32.3516L74.8008 37.4258L77.7188 37.4258L77.7188 32.3516L81.0352 32.3516L81.0352 45.0313ZM92.6016 42.1719L92.6016 37.6133L95.0273 37.6133Q96.6914 37.6719 96.6914 39.9688Q96.6914 41.0234 96.2109 41.5977Q95.7305 42.1719 94.8047 42.1719L92.6016 42.1719ZM22.1484 42.4414Q21.7617 42.6641 21.2109 42.6641Q20.1094 42.6641 20.1094 41.2578Q20.1094 40.3555 20.5957 39.8164Q21.082 39.2773 21.9258 39.2773L22.7227 39.2773L22.7227 41.9141Q22.5352 42.2188 22.1484 42.4414ZM42.3398 42.4414Q41.9531 42.6641 41.4023 42.6641Q40.3008 42.6641 40.3008 41.2578Q40.3008 40.3555 40.7871 39.8164Q41.2734 39.2773 42.1172 39.2773L42.9141 39.2773L42.9141 41.9141Q42.7266 42.2188 42.3398 42.4414Z" />
    </g>
  </g>
</svg>