<svg xmlns="http://www.w3.org/2000/svg" width="46" height="46" viewBox="0 0 46 46"><g fill="none" fill-rule="evenodd"><rect width="30" height="30" x="6.627" y="6.627" stroke="#394791" stroke-width="2" rx="10" transform="rotate(-23 24.585 19.67)"/><path fill="#394791" fill-rule="nonzero" d="M26.934 16.469a4.25 4.25 0 011.566.277c.472.185.877.474 1.215.867.339.394.602.896.79 1.508.187.612.28 1.345.28 2.2v1.976c0 .854-.092 1.587-.277 2.2-.185.611-.445 1.115-.781 1.51a3.01 3.01 0 01-1.211.872 4.256 4.256 0 01-1.567.277 4.256 4.256 0 01-1.566-.277 3.04 3.04 0 01-1.215-.871c-.338-.396-.601-.9-.789-1.512-.187-.612-.281-1.345-.281-2.2V21.32c0-.854.092-1.587.277-2.199.185-.612.447-1.114.785-1.508a3.062 3.062 0 011.211-.867 4.23 4.23 0 011.563-.277zm-7.676.14V28H17v-8.703l-2.695.836v-1.836l4.71-1.688h.243zm7.676 1.688c-.25 0-.473.047-.668.14-.195.094-.36.247-.496.458-.136.21-.239.488-.309.832-.07.343-.105.768-.105 1.273v2.594c0 .51.036.94.11 1.289.072.349.176.631.312.847.135.217.302.372.5.465.197.094.421.14.671.14.25 0 .474-.046.672-.14a1.16 1.16 0 00.496-.465c.133-.216.235-.498.305-.847a6.66 6.66 0 00.106-1.29V21c0-.505-.036-.93-.106-1.273-.07-.344-.174-.622-.312-.832a1.236 1.236 0 00-.504-.457 1.55 1.55 0 00-.672-.141z"/></g></svg>