<svg width="194" height="40" xmlns:xlink="http://www.w3.org/1999/xlink" xmlns="http://www.w3.org/2000/svg"><defs><clipPath id="b"><use xlink:href="#a"/></clipPath><path d="M0 39.53h193.006V0H0v39.53z" transform="translate(0 .205)" id="a"/></defs><path d="M186.387 7.864l-6.586 7.38v-7.38h-4.766v18.633h4.766v-7.844l7.05 7.844h6.155l-8.67-9.763 8.041-8.87h-5.99zm-19.754 6.95h-6.585v-6.95h-4.767v18.633h4.767V19.15h6.585v7.347h4.766V7.864h-4.766v6.95zM28.296 17.958c-.114 3.474-.562 4.17-2.515 4.17v4.369h.728c4.871 0 6.043-2.516 6.222-8.108l.199-6.19h4.567v14.298h4.766V7.865H28.627l-.33 10.093z" fill="#EF3124"/><path d="M50.666 13.523h3.442c4.534 0 7.115 2.317 7.115 6.42 0 3.178-1.853 6.554-7.049 6.554H45.9V7.864h4.766v5.66zm0 8.87h3.078c1.688 0 2.648-.761 2.648-2.45 0-1.554-.993-2.283-2.648-2.283h-3.078v4.733zM76.745.517v6.917c5.46.43 9.135 4.302 9.135 9.73 0 5.428-3.674 9.333-9.135 9.763v7.017H71.98v-7.017c-5.461-.463-9.135-4.335-9.135-9.763 0-5.394 3.674-9.267 9.135-9.73V.517h4.765zm-4.765 21.91c-2.648-.365-4.303-2.35-4.303-5.263 0-2.912 1.655-4.898 4.303-5.262v10.524zm4.765 0V11.901c2.648.364 4.303 2.35 4.303 5.262 0 2.912-1.655 4.898-4.303 5.262zm27.006-7.91v6.255c0 1.026.33 1.423 1.191 1.423v4.302h-1.655c-1.82 0-3.21-.695-3.838-1.953-.705 1.041-2.32 2.416-5.23 2.416-3.966 0-6.718-2.647-6.718-6.52 0-3.706 2.516-5.923 6.752-5.923h4.733c0-2.25-1.192-3.111-3.045-3.111-2.25 0-2.979 1.191-3.144 1.886h-4.832c.232-3.177 2.912-6.222 7.976-6.222 4.898 0 7.81 2.88 7.81 7.447zm-8.274 8.406c1.986 0 3.509-1.225 3.509-3.376v-1.224H95.18c-1.291 0-2.78.297-2.78 2.117 0 1.854 1.357 2.483 3.077 2.483zm23.366-12.411h5.328c5.725 0 9.002 2.979 9.002 7.91 0 5.229-3.277 8.075-9.002 8.075h-10.326V.517h17.342V5.25h-12.344v5.262zm0 11.285h5.096c2.648 0 4.137-1.158 4.137-3.375 0-2.151-1.489-3.376-4.137-3.376h-5.096v6.751zm32.565-7.28v6.255c0 1.026.331 1.423 1.192 1.423v4.302h-1.655c-1.82 0-3.21-.695-3.84-1.953-.704 1.041-2.32 2.416-5.228 2.416-3.967 0-6.719-2.647-6.719-6.52 0-3.706 2.516-5.923 6.752-5.923h4.733c0-2.25-1.192-3.111-3.045-3.111-2.25 0-2.979 1.191-3.144 1.886h-4.832c.232-3.177 2.913-6.222 7.976-6.222 4.898 0 7.81 2.88 7.81 7.447zm-8.273 8.406c1.986 0 3.508-1.225 3.508-3.376v-1.224h-3.806c-1.29 0-2.78.297-2.78 2.117 0 1.854 1.357 2.483 3.078 2.483z" fill="#EF3124" fill-rule="evenodd"/><path d="M0 39.735h193.006V.205H0v39.53z" fill="none"/><g clip-path="url(#b)" fill="#EF3124"><path d="M0 39.735h25.483V34.44H0v5.295z"/><path d="M12.94.205c2.87 0 3.707 1.711 4.434 3.878l7.514 22.414h-5.56l-1.688-5.328H7.579l-1.82 5.328H.529L8.416 4.083C9.179 1.909 10.07.205 12.94.205zm-.264 5.84L9.1 16.667h7.083L12.808 6.044h-.132z" fill-rule="evenodd"/></g></svg>