<svg width="65" height="65" xmlns="http://www.w3.org/2000/svg"><path d="M31.5 56.499c13.255 0 24-10.745 24-24s-10.745-24-24-24-24 10.745-24 24 10.745 24 24 24z" fill="#2A91CA" fill-opacity=".149"/><path d="M61.559 28.557H50.472v-10.15h9.083a2.945 2.945 0 002.941-2.941V3.44A2.945 2.945 0 0059.555.5h-20.04a2.945 2.945 0 00-2.942 2.941v5.075h-6.141v-3.07A4.951 4.951 0 0025.486.5H5.446A4.951 4.951 0 00.5 5.445V61.56a2.945 2.945 0 002.941 2.94H27.49a2.945 2.945 0 002.941-2.941V47.466h4.137v14.093A2.945 2.945 0 0037.51 64.5h24.049a2.945 2.945 0 002.941-2.941V31.498a2.945 2.945 0 00-2.941-2.941zM27.49 62.625c.588 0 1.067-.478 1.067-1.066V38.447H27.49a.938.938 0 010-1.875h1.066V5.445a3.074 3.074 0 00-3.07-3.07H5.446a3.074 3.074 0 00-3.071 3.07v18.101h2.068c1.07 0 1.94.87 1.94 1.94v7.015c0 1.069-.87 1.939-1.94 1.939H2.375v2.133h21.107a.938.938 0 010 1.875H2.375v2.133h2.068c1.07 0 1.94.87 1.94 1.939v7.014c0 1.07-.87 1.94-1.94 1.94H2.375v10.085c0 .588.479 1.066 1.066 1.066h24.05zM38.448 3.441c0-.587.478-1.066 1.066-1.066H54.61v14.157H39.514a1.067 1.067 0 01-1.066-1.066V3.44zM60.62 6.512v-3.07c0-.588-.478-1.067-1.067-1.067h-3.07v4.137h4.137zM51.54 14.4H41.52a.937.937 0 01-.938-.938V5.445c0-.517.42-.937.938-.937h4.008a.938.938 0 010 1.875h-3.071v6.14h8.145v-6.14h-1.066a.937.937 0 110-1.875h2.004c.518 0 .938.42.938.937v8.016c0 .518-.42.938-.938.938zm8.015 2.133h-3.071V8.387h4.137v7.079c0 .588-.478 1.066-1.066 1.066zM17.47 8.516h-4.008c-1.07 0-1.94.87-1.94 1.94v2.003c0 1.07.87 1.94 1.94 1.94h4.008c1.07 0 1.94-.87 1.94-1.94v-2.004c0-1.07-.87-1.94-1.94-1.94zm.065 3.943a.064.064 0 01-.065.064h-4.008a.064.064 0 01-.065-.064v-2.004c0-.036.03-.064.065-.064h4.008c.036 0 .065.028.065.064v2.004zm12.896 33.132v-35.2h6.14v5.075a2.944 2.944 0 002.942 2.941h9.083v10.15H37.51a2.945 2.945 0 00-2.941 2.941v14.093h-4.137zM2.375 25.42h2.068c.036 0 .065.03.065.065V32.5a.064.064 0 01-.065.065H2.375V25.42zm60.25 11.152v-5.075c0-.588-.478-1.066-1.066-1.066H37.51c-.588 0-1.066.478-1.066 1.066v5.075h2.133v-3.071c0-.518.42-.938.937-.938h6.012c.518 0 .938.42.938.938v3.07h2.334a2.923 2.923 0 01-.201-1.066 2.945 2.945 0 012.942-2.941 2.945 2.945 0 012.74 4.008h8.346zm-6.078-2.133h3.006a.937.937 0 100-1.875h-3.006a.938.938 0 000 1.875zm-16.095 0v2.133h4.137V34.44h-4.137zm10.02 1.066a1.068 1.068 0 012.133 0 1.068 1.068 0 01-2.133 0zM37.51 62.625h24.05c.588 0 1.066-.478 1.066-1.066V38.448H36.444v23.11c0 .589.478 1.067 1.066 1.067zm12.026-21.043c-4.937 0-8.954 4.017-8.954 8.954s4.017 8.953 8.954 8.953 8.953-4.016 8.953-8.953c0-4.937-4.016-8.954-8.953-8.954zm-45.093.874H2.375v7.143h2.068a.064.064 0 00.065-.065V42.52a.064.064 0 00-.065-.064zm45.093 15.158a7.086 7.086 0 01-7.079-7.078 7.087 7.087 0 017.079-7.079 7.087 7.087 0 017.078 7.079 7.086 7.086 0 01-7.078 7.078zm3.647-8.989a.937.937 0 00-.674 1.142 3.074 3.074 0 01-2.974 3.84 3.074 3.074 0 01-3.07-3.07 3.074 3.074 0 013.839-2.974.938.938 0 00.468-1.816 4.95 4.95 0 00-6.182 4.79 4.951 4.951 0 004.945 4.945 4.951 4.951 0 004.79-6.183.938.938 0 00-1.142-.674z" fill="#212C89" fill-rule="evenodd"/></svg>