<svg width="65" height="65" viewBox="0 0 65 65" xmlns:xlink="http://www.w3.org/1999/xlink" xmlns="http://www.w3.org/2000/svg"><g id="museum-2" transform="translate(.5 .5)" stroke="none"><path d="M24 48c13.255 0 24-10.745 24-24S37.255 0 24 0 0 10.745 0 24s10.745 24 24 24z" transform="translate(0 8)" id="Oval" fill="#2A91CA" fill-opacity=".149"/><path d="M1.137 18.062a2.59 2.59 0 01.04-.383.87.87 0 01-.712-1.583L30.93.1a.87.87 0 01.812 0l30.465 16.012a.866.866 0 01-.702 1.583c.023.127.037.255.04.383v2.616a2.61 2.61 0 01-1.693 2.436v3.873a2.436 2.436 0 01-2.32 2.425v22.357a2.436 2.436 0 012.32 2.425v3.885a2.639 2.639 0 011.693 2.459v2.575c0 .48-.39.87-.87.87H2.008a.87.87 0 01-.87-.87v-2.575a2.64 2.64 0 011.694-2.46v-3.862a2.436 2.436 0 012.32-2.424V29.43a2.435 2.435 0 01-2.32-2.424V23.13a2.61 2.61 0 01-1.694-2.436v-2.633zM31.336 1.84l25.906 13.618H5.43L31.336 1.84zm-27.6 15.37a.87.87 0 00-.87.869v2.633c0 .48.39.87.87.87h55.2c.48 0 .87-.39.87-.87V18.08a.87.87 0 00-.87-.87h-55.2zm.835 7.428v-1.34h10.033v1.329l-10.033.011zM26.91 51.81V29.435l-.012-.006a2.437 2.437 0 01-2.32-2.43v-3.7h-8.247v3.706a2.435 2.435 0 01-2.32 2.424v22.38a2.436 2.436 0 012.32 2.424v3.7h8.259v-3.7a2.436 2.436 0 012.32-2.424zm-.58-27.17V23.3h10.033v1.328l-10.033.011zm22.34 27.17V29.435l-.012-.006a2.436 2.436 0 01-2.32-2.43v-3.7h-8.247v3.706a2.436 2.436 0 01-2.32 2.424v22.38a2.436 2.436 0 012.32 2.424v3.7h8.258v-3.7a2.436 2.436 0 012.32-2.424zm-.58-27.17V23.3h10.033v1.328l-10.033.011zM4.558 26.38v.638c.003.374.303.68.678.69h8.66a.696.696 0 00.695-.697v-.632H4.56zm31.097 1.327a.696.696 0 00.696-.695v-.633H26.32v.633c0 .384.311.695.696.695h8.641zm21.76.018a.696.696 0 00.696-.696l.006-.65H48.085v.65c0 .384.311.696.696.696h8.635zm-45.143 1.74v22.334H6.879V29.446l5.394.017zm21.765-.018v22.352h-5.4V29.446h5.4zm16.36 22.369v-22.37h5.4v22.352l-5.4.017zm-23.383 1.723a.696.696 0 00-.696.695v.633h10.033v-.633a.696.696 0 00-.696-.695h-8.641zm-21.76.017a.696.696 0 00-.696.696v.632h10.033v-.632a.696.696 0 00-.696-.696h-8.64zm52.857 1.328v-.65a.696.696 0 00-.678-.678h-8.66a.696.696 0 00-.695.696v.632h10.033zm-43.52 1.723v1.328H4.56v-1.328h10.033zm21.772 0v1.328H26.319v-1.328h10.045zm21.76 1.328v-1.328H48.079v1.328h10.045zm1.681 2.638v1.723H2.866V60.59a.9.9 0 01.9-.9h55.142a.9.9 0 01.899.882z" transform="translate(1.008)" id="Shape" fill="#212C89" fill-rule="evenodd"/></g></svg>