<svg width="65" height="65" viewBox="0 0 65 65" xmlns:xlink="http://www.w3.org/1999/xlink" xmlns="http://www.w3.org/2000/svg"><g id="checklist" transform="translate(.5 .5)" stroke="none"><path d="M24 48c13.255 0 24-10.745 24-24S37.255 0 24 0 0 10.745 0 24s10.745 24 24 24z" transform="translate(16 1.999)" id="Oval" fill="#2A91CA" fill-opacity=".149"/><path d="M37.358 4.875h9.547A6.102 6.102 0 0153 10.97v46.935A6.102 6.102 0 0146.905 64H6.095A6.102 6.102 0 010 57.905V10.97a6.102 6.102 0 016.095-6.095h9.544a7.658 7.658 0 015.298-2.125h1.098A5.016 5.016 0 0126.5 0a5.016 5.016 0 014.465 2.75h1.095a7.66 7.66 0 015.298 2.125zm-16.42.375h1.948a1.25 1.25 0 001.205-.917A2.506 2.506 0 0126.5 2.5c1.12 0 2.111.754 2.41 1.833.149.542.642.917 1.204.917h1.946A5.195 5.195 0 0137.229 10h-21.46a5.195 5.195 0 015.168-4.75zm6.446.491a1.26 1.26 0 00-.884-.366 1.26 1.26 0 00-.884.366 1.26 1.26 0 00-.366.884c0 .329.134.651.366.884.233.232.555.366.884.366.329 0 .651-.134.884-.366a1.26 1.26 0 00.366-.884 1.26 1.26 0 00-.366-.884zm19.521 55.76a3.599 3.599 0 003.595-3.595V10.97a3.599 3.599 0 00-3.595-3.595H39.11c.41.94.638 1.975.638 3.063v.812c0 .69-.56 1.25-1.25 1.25H14.5c-.69 0-1.25-.56-1.25-1.25v-.812a7.65 7.65 0 01.638-3.063H6.095A3.599 3.599 0 002.5 10.97v46.936A3.599 3.599 0 006.095 61.5h40.81zM16.782 18.698a1.25 1.25 0 011.768 1.768l-6.23 6.23a1.246 1.246 0 01-1.767 0l-2.53-2.531a1.25 1.25 0 011.767-1.768l1.647 1.646 5.345-5.345zM26.5 19h18a1.25 1.25 0 010 2.5h-18a1.25 1.25 0 110-2.5zm0 6h7.485a1.25 1.25 0 110 2.5H26.5a1.25 1.25 0 110-2.5zm12.742 0c.329 0 .651.134.884.366.232.233.366.555.366.884 0 .329-.134.651-.366.884a1.26 1.26 0 01-.884.366 1.26 1.26 0 01-.884-.366 1.26 1.26 0 01-.366-.884c0-.329.134-.651.366-.884a1.26 1.26 0 01.884-.366zM15.5 32.5h-6c-.69 0-1.25.56-1.25 1.25v6c0 .69.56 1.25 1.25 1.25h6c.69 0 1.25-.56 1.25-1.25v-6c0-.69-.56-1.25-1.25-1.25zm29 0h-18a1.25 1.25 0 100 2.5h18a1.25 1.25 0 000-2.5zm-30.25 6h-3.5V35h3.5v3.5zm19.735 0H26.5a1.25 1.25 0 100 2.5h7.485a1.25 1.25 0 100-2.5zm5.257 0c.329 0 .651.134.884.366.232.233.366.555.366.884 0 .329-.134.651-.366.884a1.26 1.26 0 01-.884.366 1.26 1.26 0 01-.884-.366 1.26 1.26 0 01-.366-.884c0-.329.134-.651.366-.884a1.26 1.26 0 01.884-.366zM9.5 46h6c.69 0 1.25.56 1.25 1.25v6c0 .69-.56 1.25-1.25 1.25h-6c-.69 0-1.25-.56-1.25-1.25v-6c0-.69.56-1.25 1.25-1.25zm17 0h18a1.25 1.25 0 010 2.5h-18a1.25 1.25 0 110-2.5zm-15.75 6h3.5v-3.5h-3.5V52zm15.75 0h7.485a1.25 1.25 0 110 2.5H26.5a1.25 1.25 0 110-2.5zm13.626.366a1.26 1.26 0 00-.884-.366 1.26 1.26 0 00-.884.366 1.26 1.26 0 00-.366.884c0 .329.134.651.366.884.233.232.555.366.884.366.329 0 .651-.134.884-.366a1.26 1.26 0 00.366-.884 1.26 1.26 0 00-.366-.884z" id="Combined-Shape" fill="#212C89" fill-rule="evenodd"/></g></svg>