<svg width="67" height="65" xmlns="http://www.w3.org/2000/svg"><path d="M24.5 48.5c13.255 0 24-10.745 24-24S37.755.5 24.5.5s-24 10.745-24 24 10.745 24 24 24z" fill="#2A91CA" fill-opacity=".149"/><path d="M64.93 18.34l-7.769-5.177h.228V5.198c0-.628-.51-1.137-1.138-1.137h-5.689c-.628 0-1.138.509-1.138 1.137v2.805L38.678.835a1.138 1.138 0 00-1.263 0L11.163 18.34a3.504 3.504 0 103.888 5.832l3.653-2.435v22.146H16.43c0-.629-.51-1.138-1.138-1.138H6.19c-.628 0-1.138.51-1.138 1.138H.5v2.275h4.551v11.378H.5v2.276h4.551c0 .628.51 1.137 1.138 1.137h9.102c.628 0 1.138-.509 1.138-1.137v-.434l8.495 3.527a19.684 19.684 0 0014.479.16l17.576-6.702a4.14 4.14 0 002.325-2.215 4.215 4.215 0 00.066-3.266 4.13 4.13 0 00-1.981-2.17V21.738l3.653 2.435a3.505 3.505 0 003.888-5.832zm-2.626 3.94a1.231 1.231 0 001.364-2.047L38.047 3.15 12.425 20.23a1.228 1.228 0 00-.341 1.706 1.23 1.23 0 001.705.343L37.415 6.527c.383-.255.88-.255 1.263 0l23.626 15.754zM51.7 6.337h3.413v5.461L51.7 9.522V6.336zm-9.102 40.96h-8.826a5.787 5.787 0 01-2.572-.608 26.711 26.711 0 00-10.22-2.748V20.217L38.047 8.839l17.066 11.378v28.058a4.073 4.073 0 00-1.198.287l-7.377 3.133a3.85 3.85 0 00.042-.417 3.982 3.982 0 00-3.982-3.982zM31.219 19.99a4.551 4.551 0 100 9.102 4.551 4.551 0 000-9.102zm15.126 1.472L28.14 39.665l1.609 1.609L47.954 23.07l-1.61-1.609zm-15.126 5.355a2.276 2.276 0 110-4.551 2.276 2.276 0 010 4.551zm9.105 11.378a4.551 4.551 0 119.102 0 4.551 4.551 0 01-9.102 0zm2.276 0a2.275 2.275 0 104.55 0 2.275 2.275 0 00-4.55 0zm-28.447 20.48H7.327V45.02h6.826v13.653zm42.01-4.434a1.88 1.88 0 001.054-1.01 1.947 1.947 0 00.03-1.511 1.878 1.878 0 00-1.023-1.06 1.807 1.807 0 00-1.419 0l-9.513 4.038a7.011 7.011 0 01-2.626.557c-.024 0-.045.007-.068.007H28.944v-2.276h13.583c.152 0 .297-.03.446-.045a1.707 1.707 0 00-.375-3.368h-8.826a8.052 8.052 0 01-3.59-.848 24.429 24.429 0 00-10.869-2.566H16.43v10.756l9.356 3.89a17.407 17.407 0 0012.802.137l17.576-6.701zM9.602 56.399h2.275v-2.276H9.602V56.4z" fill="#212C89" fill-rule="evenodd"/></svg>