<svg width="65" height="65" xmlns="http://www.w3.org/2000/svg"><path d="M24.5 56.5c13.255 0 24-10.745 24-24s-10.745-24-24-24-24 10.745-24 24 10.745 24 24 24z" fill="#2A91CA" fill-opacity=".149"/><path d="M2.645 18.562a2.59 2.59 0 01.04-.383.87.87 0 01-.713-1.583L32.437.6a.87.87 0 01.813 0l30.465 16.012a.866.866 0 01-.702 1.583c.023.127.036.255.04.383v2.616a2.61 2.61 0 01-1.693 2.436v3.873a2.436 2.436 0 01-2.32 2.425v22.357a2.436 2.436 0 012.32 2.425v3.885a2.639 2.639 0 011.693 2.459v2.575c0 .48-.39.87-.87.87H3.516a.87.87 0 01-.87-.87v-2.575a2.64 2.64 0 011.694-2.46v-3.862a2.436 2.436 0 012.32-2.424V29.93a2.435 2.435 0 01-2.32-2.424V23.63a2.61 2.61 0 01-1.694-2.436v-2.633zM32.843 2.34L58.75 15.958H6.937L32.843 2.34zm-27.6 15.37a.87.87 0 00-.87.869v2.633c0 .48.39.87.87.87h55.2c.48 0 .87-.39.87-.87V18.58a.87.87 0 00-.87-.87h-55.2zm.836 7.428v-1.34h10.033v1.329l-10.033.011zm22.34 27.171V29.935l-.012-.006a2.437 2.437 0 01-2.32-2.43v-3.7H17.84v3.706a2.435 2.435 0 01-2.32 2.424v22.38a2.436 2.436 0 012.32 2.424v3.7h8.259v-3.7a2.436 2.436 0 012.32-2.424zm-.58-27.17v-1.34h10.033v1.328l-10.034.011zm22.34 27.17V29.935l-.012-.006a2.436 2.436 0 01-2.32-2.43v-3.7H39.6v3.706a2.436 2.436 0 01-2.32 2.424v22.38a2.436 2.436 0 012.32 2.424v3.7h8.258v-3.7a2.436 2.436 0 012.32-2.424zm-.58-27.17v-1.34H59.63v1.328l-10.032.011zm-43.532 1.74v.638c.003.374.303.68.678.69h8.659a.696.696 0 00.696-.697v-.632H6.067zm31.097 1.327a.696.696 0 00.696-.695v-.633H27.827v.633c0 .384.311.695.696.695h8.641zm21.76.018a.696.696 0 00.696-.696l.006-.65H49.593v.65c0 .384.31.696.695.696h8.636zm-45.144 1.74v22.334H8.387V29.946l5.393.017zm21.766-.018v22.352h-5.4V29.946h5.4zm16.36 22.369V29.946h5.4v22.352l-5.4.017zm-23.383 1.723a.696.696 0 00-.696.695v.633H37.86v-.633a.696.696 0 00-.696-.695h-8.641zm-21.76.017a.696.696 0 00-.696.696v.632H16.1v-.632a.696.696 0 00-.696-.696H6.763zm52.857 1.328v-.65a.696.696 0 00-.678-.678h-8.66a.696.696 0 00-.695.696v.632H59.62zM16.1 57.106v1.328H6.067v-1.328H16.1zm21.772 0v1.328H27.827v-1.328h10.045zm21.76 1.328v-1.328H49.586v1.328H59.63zm1.681 2.638v1.723H4.373V61.09a.9.9 0 01.9-.9h55.141a.9.9 0 01.9.882z" fill="#212C89" fill-rule="evenodd"/></svg>