<svg width="67" height="65" viewBox="0 0 67 65" xmlns:xlink="http://www.w3.org/1999/xlink" xmlns="http://www.w3.org/2000/svg"><g id="Group-12" transform="translate(.5 .5)" stroke="none"><path d="M24 48c13.255 0 24-10.745 24-24S37.255 0 24 0 0 10.745 0 24s10.745 24 24 24z" id="Oval" fill="#2A91CA" fill-opacity=".149"/><path d="M64.43 17.696l-7.769-5.177h.228V4.555c0-.629-.51-1.138-1.138-1.138h-5.689c-.628 0-1.138.51-1.138 1.138v2.804L38.178.191a1.138 1.138 0 00-1.263 0L10.663 17.696a3.504 3.504 0 103.888 5.832l3.653-2.434v22.145H15.93c0-.628-.51-1.138-1.138-1.138H5.69c-.628 0-1.138.51-1.138 1.138H0v2.276h4.551v11.377H0v2.276h4.551c0 .628.51 1.138 1.138 1.138h9.102c.628 0 1.138-.51 1.138-1.138v-.433l8.495 3.527a19.684 19.684 0 0014.479.16l17.576-6.703a4.14 4.14 0 002.325-2.215 4.215 4.215 0 00.066-3.265 4.13 4.13 0 00-1.981-2.17V21.093l3.653 2.435a3.505 3.505 0 003.888-5.832zm-2.626 3.941a1.231 1.231 0 001.364-2.048L37.547 2.507l-25.622 17.08a1.228 1.228 0 00-.341 1.706 1.23 1.23 0 001.705.342L36.915 5.884c.383-.255.88-.255 1.263 0l23.626 15.753zM51.2 5.693h3.413v5.46L51.2 8.879V5.693zm-9.102 40.96h-8.826a5.787 5.787 0 01-2.572-.608 26.711 26.711 0 00-10.22-2.749V19.573L37.547 8.196l17.066 11.377v28.058a4.073 4.073 0 00-1.198.288l-7.377 3.132a3.85 3.85 0 00.042-.416c0-2.2-1.783-3.982-3.982-3.982zM30.719 19.346a4.551 4.551 0 100 9.102 4.551 4.551 0 000-9.102zm15.126 1.471L27.64 39.021l1.609 1.61 18.204-18.205-1.61-1.609zm-15.126 5.355a2.276 2.276 0 110-4.55 2.276 2.276 0 010 4.55zm9.105 11.378a4.551 4.551 0 119.102 0 4.551 4.551 0 01-9.102 0zm2.276 0a2.275 2.275 0 104.55 0 2.275 2.275 0 00-4.55 0zM13.653 58.03H6.827V44.377h6.826V58.03zm42.01-4.434a1.88 1.88 0 001.054-1.009 1.95 1.95 0 00.03-1.512 1.878 1.878 0 00-1.023-1.06 1.807 1.807 0 00-1.419 0l-9.513 4.039a7.011 7.011 0 01-2.626.556c-.024 0-.045.007-.068.007H28.444v-2.276h13.583c.152 0 .297-.03.446-.044a1.707 1.707 0 00-.375-3.369h-8.826a8.052 8.052 0 01-3.59-.848 24.429 24.429 0 00-10.869-2.565H15.93V56.27l9.356 3.89a17.407 17.407 0 0012.802.138l17.576-6.702zM9.102 55.755h2.275v-2.276H9.102v2.276z" transform="translate(0 .144)" id="Combined-Shape" fill="#212C89" fill-rule="evenodd"/></g></svg>