<svg width="65" height="65" viewBox="0 0 65 65" xmlns:xlink="http://www.w3.org/1999/xlink" xmlns="http://www.w3.org/2000/svg"><g id="thumbs-up" transform="translate(.5 .5)" stroke="none"><path d="M24 48c13.255 0 24-10.745 24-24S37.255 0 24 0 0 10.745 0 24s10.745 24 24 24z" transform="translate(0 15.988)" id="Oval" fill="#2A91CA" fill-opacity=".149"/><path d="M58.802 49.155c9.519-14.837 5.208-34.582-9.629-44.101A31.917 31.917 0 0031.925 0C14.297-.004.003 14.284 0 31.912-.003 49.54 14.284 63.834 31.912 63.837h.013a31.594 31.594 0 0018.63-6.032l11.334 5.889a1.303 1.303 0 001.811-1.629l-4.898-12.91zm-7.83 6.005a1.303 1.303 0 00-1.381.118 29.039 29.039 0 01-17.666 5.967c-16.19.02-29.33-13.087-29.35-29.277C2.555 15.78 15.662 2.64 31.851 2.618c16.19-.02 29.33 13.088 29.35 29.277a29.312 29.312 0 01-4.94 16.321c-.26.365-.313.837-.143 1.251v.04L60.09 59.85l-9.12-4.69zm5.157-26.942c-1.159-1.902-4.22-2.15-7.373-2.11h-9.433a33.871 33.871 0 002.28-12.911 5.055 5.055 0 00-10.096 0 26.344 26.344 0 01-4.521 12.91h-.378a4.39 4.39 0 00-2.606 1.603 2.605 2.605 0 00-1.302-.326h-9.016a2.697 2.697 0 00-2.605 2.75V47.59a2.697 2.697 0 002.605 2.645h8.99a2.684 2.684 0 002.11-1.043l2.033.769c.146.053.3.08.456.078h14.083c4.09 0 5.445-1.368 6.514-2.775l.234-.3.13-.195 7.518-14.33c.925-1.668 1.055-3.101.377-4.222zm-2.71 3.153l-.442.847h-4.82a1.303 1.303 0 000 2.605h3.49l-1.484 2.684h-4.104a1.303 1.303 0 000 2.606h2.8l-1.497 2.84h-3.557a1.303 1.303 0 000 2.605h2.11l-.143.196c-.638.886-1.25 1.72-4.364 1.72H27.52l-2.11-.847V30.133c.348-.512.79-.954 1.302-1.302h.873c.396-.002.77-.184 1.016-.496a26.472 26.472 0 004.912-10.97c.768.189 1.554.294 2.345.314a1.303 1.303 0 000-2.606 9.022 9.022 0 01-1.915-.287c.091-.807.13-1.303.13-1.42a2.45 2.45 0 014.886 0 29.416 29.416 0 01-2.867 13.562 1.303 1.303 0 001.16 1.902H48.73c4.156 0 4.963.574 5.133.847.169.274.065.743-.443 1.694zM13.685 47.63l9.029.052.09-17.549-9.119-.143-.09 17.549a.078.078 0 00.091.091z" id="Combined-Shape" fill="#212C89" fill-rule="evenodd"/></g></svg>