<svg width="65" height="65" viewBox="0 0 65 65" xmlns:xlink="http://www.w3.org/1999/xlink" xmlns="http://www.w3.org/2000/svg"><g id="Group-12" transform="translate(.5 .5)" fill-rule="evenodd" stroke="none"><path d="M1 24V0l14 4L1 24zm21 19c0 6.075-4.925 11-11 11S0 49.075 0 43s4.925-11 11-11 11 4.925 11 11z" transform="translate(31 7.83)" id="Combined-Shape" fill="#DFEFF7"/><path d="M31.898 0c8.805 0 16.796 3.59 22.62 9.414 5.757 5.756 9.347 13.748 9.347 22.552 0 2.71-.407 5.486-1.084 8.127-.745 2.641-1.76 5.215-3.115 7.585-.407.61-1.152.813-1.761.474-.61-.406-.813-1.15-.474-1.76 1.287-2.168 2.235-4.538 2.844-6.908.61-2.439.948-4.944.948-7.518a29.382 29.382 0 00-8.6-20.791C47.34 5.892 40.024 2.574 31.897 2.574s-15.44 3.25-20.723 8.533c-5.283 5.35-8.601 12.664-8.601 20.791 0 7.924 3.115 15.103 8.194 20.454a29.198 29.198 0 0020.047 8.939c.677 0 1.219.61 1.219 1.287 0 .677-.61 1.219-1.287 1.219-8.601-.339-16.254-3.996-21.807-9.752C3.386 48.288 0 40.5 0 31.898c0-8.804 3.59-16.795 9.346-22.552C15.103 3.589 23.094 0 31.898 0zm-.069 6.976c-6.84 0-13.07 2.776-17.608 7.314-4.47 4.47-7.315 10.7-7.315 17.608 0 5.554 1.829 10.769 5.012 15.035 3.183 4.2 7.72 7.45 13.07 8.94.678.203 1.355-.203 1.559-.88.203-.678-.204-1.355-.881-1.558-4.808-1.355-8.872-4.267-11.716-7.992-2.642-3.454-4.2-7.653-4.47-12.19h3.183a1.286 1.286 0 100-2.573H9.48c.338-5.69 2.709-10.769 6.501-14.494a22.295 22.295 0 0114.493-6.501v3.183a1.286 1.286 0 102.574 0V9.685c5.689.338 10.768 2.709 14.493 6.501 3.793 3.793 6.163 8.872 6.502 14.493H50.86a1.286 1.286 0 100 2.573h3.183c-.068.678-.068 1.355-.203 2.033-.136 1.083-.407 2.167-.745 3.25-.204.678.203 1.355.812 1.558.88.203 1.558-.203 1.761-.88.339-1.22.677-2.438.813-3.59.203-1.219.27-2.438.27-3.725 0-6.84-2.776-13.07-7.313-17.608-4.47-4.47-10.701-7.314-17.609-7.314zm.07 9.481c-.677 0-1.287.542-1.287 1.287v10.362c-.542.203-1.083.474-1.49.88l-.067.068a4.02 4.02 0 00-.949 1.558h-7.788a1.286 1.286 0 100 2.574h7.72c.204.609.543 1.15.949 1.557.745.745 1.76 1.151 2.844 1.151 1.084 0 2.1-.474 2.845-1.151.745-.745 1.15-1.761 1.15-2.845 0-1.083-.473-2.1-1.15-2.844a4.02 4.02 0 00-1.558-.948V17.744c.068-.677-.542-1.287-1.219-1.287zm1.49 15.441c0 .407-.203.813-.474 1.084q-.407.406-1.016.406c-.406 0-.813-.135-1.016-.406-.27-.271-.406-.61-.406-1.016s.135-.745.406-1.016l.068-.068c.27-.27.61-.406 1.016-.406s.812.136 1.016.406q.406.407.406 1.016zm-.136 9.685c2.303-2.37 5.554-3.793 9.143-3.793 3.522 0 6.773 1.422 9.143 3.793 2.37 2.302 3.793 5.553 3.793 9.142 0 3.522-1.422 6.773-3.793 9.143-2.302 2.37-5.553 3.793-9.143 3.793-3.589 0-6.84-1.49-9.142-3.793-2.37-2.302-3.793-5.553-3.793-9.143 0-3.521 1.422-6.772 3.793-9.142zm9.143 19.504a10.33 10.33 0 007.382-3.047 10.33 10.33 0 003.048-7.382 10.33 10.33 0 00-3.048-7.382 10.33 10.33 0 00-7.382-3.048 10.33 10.33 0 00-7.382 3.048 10.449 10.449 0 00-3.047 7.382 10.33 10.33 0 003.047 7.382 10.33 10.33 0 007.382 3.047zM45.6 56.62c-.658.658-1.702 1.212-3.31 1.212-1.368 0-2.38-.292-3.258-1.034-.626-.543-1.117-1.368-1.117-2.277 0-.439.136-.773.376-1.024.23-.24.574-.366.95-.366.407 0 .637.084.846.272.219.188.334.355.522.836.334.835.814 1.128 1.68 1.128.575 0 .993-.136 1.327-.47.48-.48.574-1.264.574-2.215 0-1.702-.48-2.663-1.838-2.663-.751 0-1.242.219-1.639.658a2.269 2.269 0 01-.543.46c-.198.114-.396.166-.73.166-.376 0-.68-.083-.95-.355-.272-.271-.397-.69-.397-1.16V44.36c.003-.373.037-.814.375-1.152.376-.376.877-.376 1.274-.376h5.22c.617 0 .857.02 1.118.157.355.188.595.564.595 1.076 0 .511-.24.888-.595 1.075-.261.136-.501.157-1.117.157h-4.406v3.155c.428-.387 1.221-.731 2.255-.731 1.221 0 2.172.397 2.767.992 1.159 1.16 1.336 2.57 1.336 3.97 0 1.691-.22 2.84-1.316 3.937z" id="Combined-Shape" fill="#212C89"/></g></svg>