<svg width="65" height="65" xmlns="http://www.w3.org/2000/svg"><path d="M40.5 50.499c13.255 0 24-10.745 24-24s-10.745-24-24-24-24 10.745-24 24 10.745 24 24 24z" fill="#2A91CA" fill-opacity=".149"/><path d="M37.858 5.375h9.547A6.102 6.102 0 0153.5 11.47v46.935a6.102 6.102 0 01-6.095 6.095H6.595A6.102 6.102 0 01.5 58.405V11.47a6.102 6.102 0 016.095-6.095h9.544a7.658 7.658 0 015.298-2.125h1.098A5.016 5.016 0 0127 .5a5.016 5.016 0 014.465 2.75h1.095a7.66 7.66 0 015.298 2.125zm-16.42.375h1.948a1.25 1.25 0 001.205-.917A2.506 2.506 0 0127 3c1.12 0 2.111.754 2.41 1.833.149.542.642.917 1.204.917h1.946a5.195 5.195 0 015.169 4.75h-21.46a5.195 5.195 0 015.169-4.75zm6.446.491A1.26 1.26 0 0027 5.875a1.26 1.26 0 00-.884.366 1.26 1.26 0 00-.366.884c0 .329.134.651.366.884.233.232.555.366.884.366.329 0 .651-.134.884-.366a1.26 1.26 0 00.366-.884 1.26 1.26 0 00-.366-.884zm19.521 55.76A3.599 3.599 0 0051 58.405V11.47a3.599 3.599 0 00-3.595-3.595H39.61c.41.94.638 1.975.638 3.063v.812c0 .69-.56 1.25-1.25 1.25H15c-.69 0-1.25-.56-1.25-1.25v-.812a7.65 7.65 0 01.638-3.063H6.595A3.599 3.599 0 003 11.47v46.936A3.599 3.599 0 006.595 62h40.81zM17.282 19.198a1.25 1.25 0 011.768 1.768l-6.23 6.23a1.246 1.246 0 01-1.767 0l-2.53-2.531a1.25 1.25 0 011.767-1.768l1.647 1.646 5.345-5.345zM27 19.5h18a1.25 1.25 0 010 2.5H27a1.25 1.25 0 110-2.5zm0 6h7.485a1.25 1.25 0 110 2.5H27a1.25 1.25 0 110-2.5zm12.742 0c.329 0 .651.134.884.366.232.233.366.555.366.884 0 .329-.134.651-.366.884a1.26 1.26 0 01-.884.366 1.26 1.26 0 01-.884-.366 1.26 1.26 0 01-.366-.884c0-.329.134-.651.366-.884a1.26 1.26 0 01.884-.366zM16 33h-6c-.69 0-1.25.56-1.25 1.25v6c0 .69.56 1.25 1.25 1.25h6c.69 0 1.25-.56 1.25-1.25v-6c0-.69-.56-1.25-1.25-1.25zm29 0H27a1.25 1.25 0 100 2.5h18a1.25 1.25 0 000-2.5zm-30.25 6h-3.5v-3.5h3.5V39zm19.735 0H27a1.25 1.25 0 100 2.5h7.485a1.25 1.25 0 100-2.5zm5.257 0c.329 0 .651.134.884.366.232.233.366.555.366.884 0 .329-.134.651-.366.884a1.26 1.26 0 01-.884.366 1.26 1.26 0 01-.884-.366 1.26 1.26 0 01-.366-.884c0-.329.134-.651.366-.884a1.26 1.26 0 01.884-.366zM10 46.5h6c.69 0 1.25.56 1.25 1.25v6c0 .69-.56 1.25-1.25 1.25h-6c-.69 0-1.25-.56-1.25-1.25v-6c0-.69.56-1.25 1.25-1.25zm17 0h18a1.25 1.25 0 010 2.5H27a1.25 1.25 0 110-2.5zm-15.75 6h3.5V49h-3.5v3.5zm15.75 0h7.485a1.25 1.25 0 110 2.5H27a1.25 1.25 0 110-2.5zm13.626.366a1.26 1.26 0 00-.884-.366 1.26 1.26 0 00-.884.366 1.26 1.26 0 00-.366.884c0 .329.134.651.366.884.233.232.555.366.884.366.329 0 .651-.134.884-.366a1.26 1.26 0 00.366-.884 1.26 1.26 0 00-.366-.884z" fill="#212C89" fill-rule="evenodd"/></svg>