<svg xmlns="http://www.w3.org/2000/svg" xmlns:xlink="http://www.w3.org/1999/xlink" width="157" height="41" viewBox="0 0 157 41"><defs><path id="bs-rus.ru-a" d="M.546.545h1.09v1.091H.546z"/><path id="bs-rus.ru-c" d="M.582.158h12.812v12.751H.582z"/></defs><g fill="none" fill-rule="evenodd"><g opacity=".745"><path fill="#9FD6FF" d="M18.424 39.206c0-.243.182-.424.425-.424.242 0 .424.181.424.424a.414.414 0 01-.424.423c-.243.062-.425-.181-.425-.423m5.758-3.213c0-.485.364-.848.848-.848.485 0 .849.363.849.848a.828.828 0 01-.849.849.828.828 0 01-.848-.849m18 2.121c0-.241.182-.484.485-.484.242 0 .484.181.484.484a.479.479 0 01-.484.486c-.243-.061-.485-.243-.485-.486m-22.849-.969c0-.364.303-.667.667-.667.364 0 .667.303.667.667a.673.673 0 01-.667.667.673.673 0 01-.667-.667m35.758-12.121a.7.7 0 01.727-.728.7.7 0 01.728.728.7.7 0 01-.728.727.7.7 0 01-.727-.727m17.818-15.03c0-.546.424-.97.97-.97.545 0 .97.424.97.97 0 .545-.425.97-.97.97-.485 0-.97-.425-.97-.97m35.273 18.423c0-.303.242-.484.485-.484.303 0 .485.243.485.484a.479.479 0 01-.485.486c-.303 0-.485-.183-.485-.486m19.94 4.425c0-.424.363-.788.787-.788.424 0 .788.364.788.788a.803.803 0 01-.788.788.803.803 0 01-.788-.788M32.97 38.236c0-.485.363-.848.848-.848s.849.363.849.848a.829.829 0 01-.849.848c-.424 0-.848-.363-.848-.848m72.121.06c0-.424.364-.788.788-.788.424 0 .788.364.788.789a.803.803 0 01-.788.788c-.424-.062-.788-.365-.788-.788m19.757-15.637c0-.424.365-.788.788-.788.424 0 .789.364.789.788a.803.803 0 01-.789.788.803.803 0 01-.788-.788M15.03 17.448c0-.303.243-.545.546-.545.303 0 .545.242.545.545a.543.543 0 01-.545.545c-.303.061-.546-.181-.546-.545m1.758-6.303c0-.364.303-.667.667-.667.363 0 .666.303.666.667a.673.673 0 01-.666.667.673.673 0 01-.667-.667m14.303-1.03c0-.425.364-.788.788-.788.424 0 .788.363.788.788a.802.802 0 01-.788.787.802.802 0 01-.788-.787M19.94 3.993c0-.424.363-.727.727-.727.424 0 .727.364.727.727a.737.737 0 01-.727.728.7.7 0 01-.727-.728m26.545 4.97c0-.424.363-.788.788-.788.424 0 .788.364.788.788a.802.802 0 01-.788.788c-.425 0-.788-.303-.788-.788m12.909-3.455c0-.181.182-.363.363-.363.182 0 .364.182.364.363a.391.391 0 01-.364.364c-.181 0-.363-.121-.363-.364m7.818-2c0-.545.485-1.03 1.03-1.03.546 0 1.03.485 1.03 1.03 0 .546-.484 1.03-1.03 1.03-.545 0-1.03-.484-1.03-1.03m49.516.485c0-.242.241-.485.484-.485.242 0 .485.243.485.485 0 .243-.243.485-.485.485a.478.478 0 01-.484-.485M104.606 5.69c0-.303.242-.606.545-.606.303 0 .546.243.546.606a.544.544 0 01-.546.546.543.543 0 01-.545-.546M85.151 9.994A.83.83 0 0186 9.145c.485 0 .848.364.848.849a.829.829 0 01-.848.848c-.424 0-.849-.364-.849-.848m9.637 5.575c0-.242.242-.485.485-.485.242 0 .485.243.485.485 0 .243-.243.485-.485.485a.478.478 0 01-.485-.485m14.727 1.273a.83.83 0 01.849-.849c.484 0 .848.364.848.849a.829.829 0 01-.848.848.829.829 0 01-.849-.848m21.09-.424c0-.243.183-.425.425-.425.243 0 .424.182.424.425a.414.414 0 01-.424.424.414.414 0 01-.424-.424m8.546 2.788c0-.485.363-.849.848-.849a.83.83 0 01.849.849.829.829 0 01-.85.848c-.424 0-.847-.364-.847-.848m.727 16.424c0-.182.182-.364.364-.364.181 0 .363.182.363.364s-.182.363-.363.363c-.243 0-.364-.12-.364-.363m6.363 4.12c0-.363.303-.666.667-.666.363 0 .667.303.667.667a.673.673 0 01-.667.667.673.673 0 01-.667-.667m-32.909-29.576c0-.182.182-.363.364-.363.242 0 .363.181.363.363 0 .243-.181.364-.363.364a.391.391 0 01-.364-.364m-15.273.122a.26.26 0 01.243-.243.26.26 0 01.243.243.26.26 0 01-.243.242.26.26 0 01-.243-.242m-7.636-6.97c0-.303.243-.606.606-.606.303 0 .606.242.606.606a.607.607 0 01-.606.606c-.303 0-.606-.303-.606-.606m-26.182 3.09a.545.545 0 110 1.092.545.545 0 010-1.091m0-2c0-.182.122-.303.303-.303.182 0 .303.12.303.303 0 .182-.12.303-.303.303-.181 0-.303-.121-.303-.303M40.91 7.206c0-.364.303-.667.667-.667.363 0 .666.303.666.667a.673.673 0 01-.666.666.673.673 0 01-.667-.666m14.97 24.606c0-.243.182-.485.485-.485.242 0 .484.182.484.485a.478.478 0 01-.484.485.478.478 0 01-.485-.485m32.303 4.06c0-.364.303-.667.667-.667.363 0 .666.303.666.667a.672.672 0 01-.666.667.673.673 0 01-.667-.667m8.909.849c0-.182.182-.364.364-.364.181 0 .363.182.363.364 0 .181-.182.364-.363.364-.182 0-.364-.122-.364-.364m12.849 1.03a.607.607 0 011.212 0 .607.607 0 01-1.212 0m-9.516 1.333a.607.607 0 011.212 0 .607.607 0 01-.606.607c-.303 0-.606-.303-.606-.607m-83.818-12.97c0-.181.121-.302.303-.302s.303.12.303.303c0 .181-.121.303-.303.303s-.303-.182-.303-.303m125.455.484a.414.414 0 01-.425.425.414.414 0 01-.424-.425c0-.242.181-.423.424-.423s.425.181.425.423m-6-4.484a.673.673 0 01-.667.666.673.673 0 01-.667-.666c0-.364.303-.667.667-.667.363 0 .666.303.666.667m11.758 4.667c0 .181-.12.303-.303.303-.182 0-.303-.122-.303-.303 0-.183.121-.303.303-.303.182.06.303.181.303.303m-9.394-4.91a.414.414 0 01-.424.424.414.414 0 01-.424-.424c0-.242.181-.424.424-.424s.424.182.424.424m9.879 8.122a.478.478 0 01-.485.484.478.478 0 01-.485-.484c0-.243.182-.485.485-.485.243 0 .485.242.485.485m-12.849 3.515c0 .181-.12.363-.363.363-.181 0-.364-.121-.364-.363 0-.182.121-.364.364-.364.182 0 .363.182.363.364m-2.06-7.273a.543.543 0 01-.545.545.544.544 0 01-.546-.545c0-.303.243-.546.546-.546.303 0 .545.243.545.546m-7.09 11.515a.673.673 0 01-.668.667.672.672 0 01-.666-.667c0-.364.303-.667.666-.667.364 0 .667.303.667.667m-2.121-7.454a.543.543 0 01-.546.544.543.543 0 01-.545-.544c0-.303.242-.546.545-.546.304 0 .546.243.546.546m14.848-.546a.607.607 0 11-.606-.606c.364 0 .606.242.606.606m-3.939-18.121a.26.26 0 01-.242.242.26.26 0 01-.243-.242.26.26 0 01.243-.243c.18 0 .242.122.242.243m-10.667-5.94a.414.414 0 01-.424.425.414.414 0 01-.424-.425c0-.242.181-.424.424-.424.242 0 .424.182.424.424m16.303-1.878a.391.391 0 01-.363.363.391.391 0 01-.364-.363c0-.182.182-.364.364-.364.242 0 .363.182.363.364M126.97 5.024a.543.543 0 01-.545.545.544.544 0 01-.546-.545c0-.303.243-.546.546-.546.363 0 .545.243.545.546m3.273-2.485a.26.26 0 01-.243.242.26.26 0 01-.242-.242.26.26 0 01.242-.243.26.26 0 01.243.243m1.696 8a.414.414 0 01-.424.424.414.414 0 01-.424-.424c0-.242.182-.424.424-.424.243 0 .424.182.424.424m-8.242-.667a.543.543 0 01-.545.546.544.544 0 01-.546-.546c0-.303.243-.545.546-.545.303 0 .545.242.545.545m17.758-4.485a.414.414 0 01-.425.425.414.414 0 01-.424-.425c0-.242.181-.424.424-.424s.425.182.425.424m3.212 8.364a.607.607 0 01-.606.606.607.607 0 01-.606-.606c0-.364.303-.606.606-.606.303-.06.606.242.606.606m-.364-11.273a.391.391 0 01-.364.364c-.181 0-.363-.182-.363-.364s.182-.363.363-.363c.243 0 .364.181.364.363m.303 2.182a.607.607 0 01-.606.606.607.607 0 11.606-.606m-3.091 2.485c0 .121-.121.303-.303.303-.121 0-.242-.121-.242-.303 0-.121.12-.303.242-.303.182.06.303.182.303.303M12.364 37.448a.543.543 0 01-.546.545.543.543 0 01-.545-.545c0-.303.242-.545.545-.545.364 0 .546.242.546.545m-1.818-15.576a.543.543 0 01-.546.546.543.543 0 01-.545-.546c0-.303.242-.545.545-.545.303 0 .546.242.546.545m4.605 8.364a.673.673 0 01-.666.667.673.673 0 01-.667-.667c0-.364.303-.667.667-.667.363 0 .666.303.666.667M10 7.933a.414.414 0 01-.424.424.414.414 0 01-.425-.424c0-.243.182-.425.425-.425.181 0 .424.182.424.425"/><g transform="translate(147.394 14.781)"><mask id="bs-rus.ru-b" fill="#fff"><use xlink:href="#bs-rus.ru-a"/></mask><path fill="#9FD6FF" d="M1.636 1.09a.543.543 0 01-.545.546.543.543 0 01-.545-.545c0-.303.242-.546.545-.546.303 0 .545.243.545.546" mask="url(#bs-rus.ru-b)"/></g><path fill="#9FD6FF" d="M145.454 18.6a.673.673 0 01-.666.666.673.673 0 01-.667-.667c0-.363.303-.666.667-.666.363 0 .666.303.666.666m-9.212 5.455a.542.542 0 01-.545.545.543.543 0 01-.546-.545c0-.303.243-.545.546-.545.363.06.545.303.545.545m-8.97-4.303a.391.391 0 01-.363.364.392.392 0 01-.364-.364c0-.182.183-.364.364-.364.182 0 .364.182.364.364m-7.576 16.242c0 .121-.121.243-.242.243a.26.26 0 01-.243-.243c0-.12.121-.242.243-.242a.26.26 0 01.242.242m12.848 3.213a.607.607 0 01-.606.606.607.607 0 010-1.212c.303 0 .606.303.606.606m-7.333-19.818c0 .181-.182.363-.364.363a.391.391 0 01-.363-.363c0-.182.182-.364.363-.364.182 0 .364.121.364.364m-12.667 5.817a.26.26 0 01-.242.243.26.26 0 01-.242-.243c0-.12.12-.241.242-.241.182 0 .242.12.242.241M93.091 22.54a.607.607 0 11-.606-.606c.364 0 .606.242.606.606M88 31.63a.478.478 0 01-.485.485.478.478 0 01-.485-.485c0-.242.243-.485.485-.485.243 0 .485.182.485.485m-15.818.788a.478.478 0 01-.485.485.478.478 0 01-.485-.485c0-.243.182-.485.485-.485.242 0 .485.242.485.485m.06 6.424a.543.543 0 01-.545.545.543.543 0 01-.545-.545c0-.303.242-.545.545-.545.303 0 .545.242.545.545m27.94-2.666c0 .241-.242.484-.485.484-.242 0-.485-.243-.485-.484 0-.243.243-.486.485-.486.303 0 .485.243.485.486m13.03 2.241a.414.414 0 01-.424.425.414.414 0 01-.424-.425c0-.241.181-.423.424-.423.242 0 .424.242.424.423M118 14.963a.26.26 0 01-.242.243.26.26 0 01-.243-.243.26.26 0 01.243-.242c.181 0 .242.12.242.242m-11.152 1.394a.543.543 0 01-.545.546.544.544 0 01-.546-.546c0-.303.243-.545.546-.545.303 0 .545.242.545.545m-10.545-5.212a.673.673 0 01-.667.667.672.672 0 01-.666-.667c0-.364.303-.667.666-.667.364 0 .667.303.667.667m-5.03 6.91a.415.415 0 01-.424.423.414.414 0 01-.425-.424c0-.242.182-.424.425-.424.242.06.424.242.424.424m-5.03.485c0 .121-.121.242-.243.242a.26.26 0 01-.243-.242.26.26 0 01.243-.243c.122 0 .242.122.242.243m-6.302 5.515a.414.414 0 01-.425.424.414.414 0 01-.424-.424c0-.242.182-.424.424-.424.243 0 .425.182.425.424M67.636 19.63a.673.673 0 01-.666.667.673.673 0 01-.667-.667c0-.364.303-.667.667-.667.363 0 .666.303.666.667m-4.06 15.151c0 .243-.243.486-.485.486s-.485-.243-.485-.486c0-.242.243-.485.485-.485s.485.243.485.485m-8.122-5.454c0 .242-.242.485-.484.485-.243 0-.485-.243-.485-.485s.242-.485.485-.485c.242 0 .484.243.484.485m-4.363-7.152a.673.673 0 01-.667.667.673.673 0 01-.666-.667c0-.363.303-.667.666-.667.364 0 .667.304.667.667m-3.758 18.06c0 .365-.242.607-.606.607-.363 0-.606-.242-.606-.606s.243-.606.606-.606c.364 0 .606.303.606.606m-11.818-8.364a.478.478 0 01-.485.485.478.478 0 01-.485-.485c0-.303.243-.485.485-.485.243-.06.485.182.485.485m-7.757.849a.607.607 0 01-.606.606.607.607 0 010-1.212c.303 0 .606.303.606.606m-4.485 4.727a.391.391 0 01-.364.364.391.391 0 01-.363-.364c0-.182.181-.364.363-.364s.364.182.364.364m-11.394-6a.673.673 0 01-.667.667.673.673 0 01-.667-.667c0-.364.303-.667.667-.667.364 0 .667.303.667.667m20 1.636c0 .182-.121.303-.303.303s-.303-.12-.303-.303c0-.182.12-.303.303-.303.182.061.303.182.303.303m24.303 4.364c0 .242-.243.485-.485.485s-.485-.243-.485-.485.243-.485.485-.485.485.182.485.485M55.03 23.569c0 .364-.242.606-.606.606-.363 0-.606-.242-.606-.606 0-.303.243-.606.606-.606.364 0 .606.242.606.606m6.546 6.425a.673.673 0 01-.667.666.673.673 0 01-.667-.666c0-.365.303-.668.667-.668.364 0 .667.303.667.668m8.303 3.636c0 .242-.243.485-.485.485s-.485-.243-.485-.485.243-.485.485-.485.485.243.485.485m-2.06-21.576a.607.607 0 01-.607.606c-.363 0-.606-.242-.606-.606 0-.303.243-.606.606-.606.364 0 .606.303.606.606m-6.424 12.364a.673.673 0 01-.667.666.673.673 0 01-.666-.666c0-.364.303-.667.666-.667.364 0 .667.303.667.667m-14.848-.425a.543.543 0 01-.546.546.543.543 0 01-.545-.546c0-.303.242-.545.545-.545.242 0 .546.242.546.545m-8.728-5.454a.673.673 0 01-.666.666.673.673 0 01-.667-.666c0-.364.303-.667.667-.667.363 0 .666.303.666.667M35.212 37.69a.391.391 0 01-.364.363c-.181 0-.363-.122-.363-.363 0-.183.182-.365.363-.365.182.062.364.182.364.365"/><path fill="#45A7FF" d="M36.727 5.933l-.424-.06-.121-.304.121-.06.06-.061.061-.121.303.121v.485zm-.848.303l-.243-.364.122-.303h.12L36 5.51l.121.303-.242.424zm-.788-.303l.06-.424.303-.122.061.122.06.06.122.06-.121.304h-.485zm-.303-.788l.363-.242.303.12-.06.122v.06l.06.122-.303.121-.363-.303zm.303-.849l.424.122.121.303-.12.06-.062.06-.06.122-.303-.121v-.546zm.788-.303l.242.364L36 4.66l-.121-.06h-.06l-.122.06-.121-.303.303-.364zm.848.303l-.06.425-.303.12-.061-.12-.06-.06-.122-.061.121-.182.485-.122zm-.485.849l-.06.06-.06.122-.061.06-.061.061-.121.06-.06-.06-.122-.06-.06-.061-.061-.06-.06-.122-.062-.06.122-.061.06-.121.06-.061.062-.06.12-.061v.06l.061.06.122.062.06.06.06.06h.061v.122zm.364-.242l.364.242-.364.242-.303-.12.06-.122v-.121l.243-.121zm1.09.848l-.12-.06.06-.061s.06-.06 0-.06c0 0-.06-.061-.06 0l-.122.06h-.12l.181-.121s.06-.061 0-.061c0 0-.06-.06-.06 0l-.243.121-.121-.06.242-.182s.06-.06 0-.06c0 0-.06-.061-.06 0l-.303.242-.182-.061.363-.242v-.121l-.363-.243.182-.06.303.242h.12v-.06l-.242-.183.122-.06.242.12h.121v-.06l-.182-.12.122-.061.12.06h.122V4.6l-.06-.061-.061-.06v-.061l-.06-.06-.122.06v-.122s0-.06-.06-.06c0 0-.061 0-.061.06v.182l-.121.06.06-.242s0-.06-.06-.06c0 0-.06 0-.06.06l-.062.304-.12.06.06-.364s0-.06-.06-.06c0 0-.061 0-.061.06l-.061.364-.121.06.06-.484v-.06h-.06l-.485.06.06-.121.364-.06.06-.062-.06-.06-.303.06.06-.12.243-.061.06-.061-.06-.06-.242.06.06-.121h.182l.06-.06-.06-.061h-.121l.06-.122s0-.06-.06-.06c0 0-.06 0-.06.06l-.061.061v-.06s-.06-.061-.06 0c0 0-.061.06 0 .06l.06.121-.06.121-.122-.181s-.06-.061-.06 0c0 0-.061.06 0 .06l.12.243-.06.12-.182-.242s-.06-.06-.06 0c0 0-.061.061 0 .061l.242.303-.06.182L36 3.872c0-.06-.06-.06-.121 0l-.243.364-.06-.182.242-.303v-.06h-.06l-.182.242-.122-.121.122-.243v-.06h-.06l-.122.181-.06-.12.06-.122v-.06h-.06l-.061.06-.06-.121-.062-.06-.06.06.06.121h-.12s-.061 0-.061.06c0 0 0 .061.06.061h.182l.06.182-.242-.06s-.06 0-.06.06c0 0 0 .06.06.06l.303.061.06.121-.302-.06s-.06 0-.06.06c0 0 0 .061.06.061l.363.06.061.122-.485-.06h-.06v.06l.06.485-.121-.06-.06-.365-.061-.06-.06.06.06.304-.121-.061-.061-.303-.06-.06-.061.06.06.242-.12-.06v-.182l-.061-.06-.061.06v.121l-.121-.06s-.06 0-.06.06c0 0 0 .06.06.06l.121.061-.06.06s-.061.062 0 .062h.12l.122-.061.121.06-.182.122s-.06.06 0 .06h.121l.243-.12.121.06-.242.182s-.061.06 0 .06h.12l.304-.242.182.06-.606.303v.121l.363.243-.182.06-.303-.242h-.06v.06l.242.183-.121.06-.242-.121h-.061v.06l.182.122-.121.06-.122-.06h-.06v.06l.06.061-.12.06-.061.061.06.06.121-.06v.121s0 .061.061.061c0 0 .06 0 .06-.06v-.182l.122-.061-.06.242s0 .061.06.061c0 0 .06 0 .06-.06l.122-.304.12-.06-.06.303s0 .06.06.06c0 0 .061 0 .061-.06l.061-.364.182-.06-.06.484v.061h.06l.485-.06-.06.12-.365.061-.06.06.06.061.243-.06-.06.121-.304.06-.06.061.06.06.243-.06-.06.122h-.183l-.06.06.06.06h.121v.122s0 .06.061.06c0 0 .06 0 .06-.06v-.06l.061.06h.121s.061-.06 0-.06l-.06-.122.06-.121.122.121h.12s.062-.06 0-.06l-.12-.243-.06-.121.18.242h.122s.06-.06 0-.06l-.242-.303.06-.182.243.424h.12l.243-.364.061.182-.242.303v.06h.12l.122-.302.06.121-.12.243v.06h.12l.122-.121v.121l-.06.121v.06h.12l-.06-.06.06.122s0 .06.061.06l.06-.06-.06-.122h.121s.06 0 .06-.06c0 0 0-.06-.06-.06h-.182l-.06-.183.242.06s.06 0 .06-.06c0 0 0-.06-.06-.06l-.242-.06-.06-.122.302.06s.06 0 .06-.06c0 0 0-.06-.06-.06l-.363-.061-.061-.122.485.061h.06v-.06l-.06-.485.182.06.06.364s0 .06.06.06l.061-.06-.12-.303.12.06.061.303s0 .061.06.061l.061-.06-.06-.243.12.06v.182s0 .061.061.061l.061-.06v-.122l.121.06s.06 0 .06-.06v-.121zM65.94 27.145l-.484-.06-.122-.364.122-.06.06-.061.06-.122.364.122v.545zm-.848.303l-.242-.364.12-.303.122.06.121-.06.121.303-.242.364zm-.849-.303l.061-.485.364-.121.06.121.06.06.122.061-.121.364h-.546zm-.303-.849l.364-.242.303.121-.06.121v.061l.06.121-.303.122-.364-.304zm.303-.787l.485.06.122.364-.122.06-.06.061-.06.121-.243-.242-.122-.424zm.849-.364l.242.364-.12.303-.122-.061h-.06l-.061.121-.121-.303.242-.424zm.848.364l-.06.484-.364.122-.06-.122-.061-.06-.121-.06.121-.364h.545zm-.484.787l-.061.061-.06.121-.061.06-.06.062-.122.06-.06.06-.061-.06-.121-.06-.061-.061-.06-.06-.061-.122-.06-.06.06-.061.06-.121.06-.06.062-.062.12-.06.061-.06.061.06.121.06.06.061.061.06.061.122.06.06zm.424-.242l.363.242-.363.243-.303-.121.06-.122v-.06l-.06-.06.303-.122zm1.03.97l-.121-.06.06-.061s.061-.061 0-.061c0 0-.06-.06-.06 0l-.121.06-.121-.06.181-.121s.06-.06 0-.06c0 0-.06-.061-.06 0l-.243.12-.182-.06.304-.182s.06-.06 0-.06c0 0-.061-.061-.061 0l-.303.181L66 26.6l.424-.243v-.121L66 25.993l.182-.06.364.242h.12v-.06l-.302-.182.182-.06.242.12h.121v-.06l-.182-.121.122-.061.12.06h.122v-.06l-.06-.06.12-.061.061-.06-.06-.061-.364.06v-.121c0-.06 0-.06-.06-.06 0 0-.061 0-.061.06v.182l-.121.06.06-.242c0-.06 0-.06-.06-.06 0 0-.061 0-.061.06l-.06.303-.122.06.06-.302c0-.061 0-.061-.06-.061 0 0-.06 0-.06.06l-.061.364-.182.06.06-.484v-.06H66l-.485.06.06-.182.364-.06c.061 0 .061-.061.061-.061 0-.06-.06-.06-.06-.06l-.304.06.061-.121.303-.06c.06 0 .06-.061.06-.061 0-.061-.06-.061-.06-.061l-.242.06.06-.12H66c.06 0 .06-.061.06-.061 0-.06-.06-.06-.06-.06h-.121l.06-.122s0-.06-.06-.06c0 0-.06 0-.06.06l-.061.121-.061-.06s-.06-.061-.06 0c0 0-.061.06 0 .06l.06.121-.06.122-.122-.182s-.06-.06-.06 0c0 0-.061.06 0 .06l.12.243-.06.182-.182-.303s-.06-.061-.06 0c0 0-.06.06 0 .06l.242.364-.06.182-.303-.485c0-.06-.061-.06-.122 0l-.242.424-.06-.182.242-.363v-.061h-.06l-.183.303-.06-.182.12-.242v-.06h-.06l-.12.18-.061-.12.06-.121v-.061h-.06l-.061.06-.06-.12-.061-.061-.06.06.06.122h-.122s-.06 0-.06.06 0 .06.06.06h.182l.06.122-.242-.06c-.06 0-.06 0-.06.06s0 .06.06.06l.304.061.06.121-.303-.06c-.06 0-.06 0-.06.06 0 .061 0 .061.06.061l.364.06.06.182-.485-.06h-.06v.06l.06.485-.181-.06-.06-.364c0-.06-.062-.06-.062-.06-.06 0-.06.06-.06.06l.06.303-.12-.06-.061-.243c0-.06-.061-.06-.061-.06-.06 0-.06.06-.06.06l.06.242-.121-.06v-.182c0-.06-.06-.06-.06-.06-.061 0-.061.06-.061.06v.121l-.122-.06s-.06 0-.06.06c0 0 0 .06.06.06l.122.061-.061.061s-.06.06 0 .06h.121l.121-.06.122.06-.182.122s-.06.06 0 .06h.121l.242-.12.182.06-.303.182s-.06.06 0 .06h.121l.364-.242.182.06-.424.243v.121l.424.243-.182.06-.364-.242h-.06v.06l.303.182-.424.121-.243-.12h-.06v.06l.181.12-.12.062-.122-.061h-.06v.06l.06.061-.121.06-.06.061.06.061.121-.06v.12c0 .061 0 .061.06.061 0 0 .061 0 .061-.06v-.182l.121-.06-.06.242c0 .06 0 .06.06.06 0 0 .061 0 .061-.06l.06-.303.122-.061-.06.303c0 .06 0 .06.06.06 0 0 .06 0 .06-.06l.061-.364.182-.06-.06.485v.06h.06l.485-.06-.06.181-.365.061c-.06 0-.06.06-.06.06 0 .061.06.061.06.061l.304-.06-.061.12-.303.061c-.06 0-.06.061-.06.061 0 .06.06.06.06.06l.242-.06-.06.121h-.182c-.06 0-.06.06-.06.06 0 .061.06.061.06.061h.121l-.06.122s0 .06.06.06c0 0 .06 0 .06-.06l.061-.122.06.061h.122s.06-.06 0-.06l-.06-.122.06-.121.121.182h.122s.06-.06 0-.06l-.122-.243.06-.182.183.303h.121s.06-.06 0-.06l-.242-.364.06-.182.243.424h.12l.243-.424.06.182-.242.363v.061h.121l.182-.303.061.182-.121.242v.06h.121l.121-.181.06.121-.302.182v.06h.121l.06-.06.061.121s0 .06.06.06l.061-.06-.06-.12H66c.06 0 .06 0 .06-.062 0-.06 0-.06-.06-.06h-.182l-.06-.121.242.06c.06 0 .06 0 .06-.06 0-.061 0-.061-.06-.061l-.303-.06-.06-.243.302.06c.061 0 .061 0 .061-.06s0-.06-.06-.06l-.364-.061-.06-.182.484.06h.06v-.06L66 26.66l.182.06.06.364s0 .061.061.061c.06 0 .06-.06.06-.06l-.12-.243.12.06.061.304s0 .06.06.06c.062 0 .062-.06.062-.06l-.061-.243.121.06v.183s0 .06.06.06c.061 0 .061-.06.061-.06v-.122l.122.061s.06 0 .06-.06c.06-.061.06-.061 0-.061zm36.667-10.243l-1.091-.182-.303-.787.242-.122c.061 0 .061-.06.061-.06l.06-.303.788.303.243 1.151zm-2 .728l-.606-.91.303-.727.242.121h.121l.243-.12.303.726-.606.91zm-2-.728l.182-1.09.788-.304.12.243c0 .06.061.06.061.06l.243.122-.303.787-1.092.182zm-.788-2l.91-.606.726.303-.12.243v.12l.12.243-.727.303-.909-.606zm.787-2l1.092.182.303.788-.243.121c-.06 0-.06.06-.06.06l-.121.243-.788-.303-.183-1.09zm2-.788l.607.91-.303.727-.243-.121h-.12l-.243.12-.303-.727.606-.909zm2 .788l-.18 1.091-.79.303-.12-.242c0-.06-.06-.06-.06-.06l-.243-.122.303-.788 1.09-.182zm-1.09 2l-.06.182-.122.243-.06.181-.182.06-.243.122-.182.06-.181-.06-.243-.121-.182-.06-.06-.182-.121-.243-.062-.182.062-.182.12-.242.061-.182.182-.06.243-.122.181-.06.182.06.243.122.182.06.06.182.121.242.061.182zm.91-.606l.908.606-.909.606-.727-.303.121-.242v-.121l-.121-.243.727-.303zm2.544 2.243l-.242-.122.121-.06c.06-.06.06-.121.06-.182 0-.06-.12-.06-.18-.06l-.304.181-.303-.121.364-.242c.06-.061.06-.122.06-.182-.06-.06-.12-.06-.182-.06l-.545.363-.364-.182.667-.424c.06-.06.06-.121.06-.182-.06-.06-.121-.06-.181-.06l-.788.545-.424-.182.969-.606c.061 0 .061-.06.061-.121 0-.06 0-.06-.061-.122l-.97-.606.364-.181.788.545h.06c.06 0 .06 0 .122-.06.06-.061 0-.122-.061-.182l-.666-.425.363-.12.546.363h.06c.061 0 .061 0 .122-.06.06-.061 0-.122-.06-.183l-.365-.242.303-.121.303.182h.061c.06 0 .06 0 .121-.061.06-.06 0-.121-.06-.182l-.122-.06.243-.122c.06 0 .121-.12.06-.182 0-.06-.12-.12-.181-.06l-.303.121.06-.242c0-.06-.06-.122-.12-.182-.062 0-.122.06-.183.121l-.06.424-.303.122.06-.546c0-.06-.06-.121-.121-.182-.061 0-.121.06-.182.121l-.121.667-.303.121.121-.727c0-.06-.06-.121-.121-.182-.061 0-.121.06-.182.121l-.182.91-.363.12.181-1.15c0-.061 0-.061-.06-.122-.061-.06-.061-.06-.121-.06l-1.152.181.182-.363.91-.182c.06 0 .12-.06.12-.182 0-.06-.06-.121-.182-.121l-.727.121.121-.303.728-.121c.06 0 .12-.06.12-.182 0-.06-.06-.121-.18-.121l-.546.06.12-.303.425-.06c.06 0 .12-.06.12-.182 0-.06-.06-.121-.18-.121l-.243.06.12-.303c0-.06 0-.182-.06-.182s-.12 0-.181.061l-.121.242-.061-.12c-.06-.061-.121-.061-.182-.061-.06.06-.06.12-.06.181l.181.303-.121.303-.242-.363c-.061-.06-.121-.06-.182-.06-.06.06-.06.12-.06.181l.363.546-.182.363-.424-.667c-.06-.06-.121-.06-.183-.06-.06.06-.06.121-.06.182l.546.788-.182.363-.607-.97c-.06-.06-.18-.06-.241 0l-.606.97-.182-.363.545-.788c.06-.06 0-.122-.06-.182-.062-.06-.122 0-.182.06l-.424.667-.182-.363.363-.546c.06-.06 0-.121-.06-.182-.06-.06-.121 0-.183.06l-.241.364-.122-.303.182-.303c.06-.06 0-.12-.06-.181-.062-.061-.122 0-.182.06l-.06.121-.123-.242c0-.06-.12-.121-.18-.06-.062 0-.123.12-.062.181l.122.303-.243-.06c-.06 0-.121.06-.182.12 0 .061.061.122.122.183l.423.06.122.303-.545-.06c-.061 0-.122.06-.183.12 0 .062.061.122.122.183l.727.12.122.304-.728-.121c-.06 0-.121.06-.182.121 0 .06.061.121.122.182l.909.182.182.363-1.152-.182c-.06 0-.06 0-.122.061 0 .06-.06.06-.06.121l.182 1.152-.364-.121-.181-.91c0-.06-.061-.12-.183-.12-.06 0-.12.06-.12.181l.12.727-.303-.12-.12-.668c0-.06-.061-.12-.183-.12-.06 0-.12.06-.12.181l.06.546-.303-.122-.06-.424c0-.06-.061-.121-.183-.121-.06 0-.12.06-.12.182l.06.242-.303-.121c-.06 0-.121 0-.182.06 0 .061 0 .182.06.182l.243.122-.121.06c-.06.06-.06.121-.06.182 0 .06.06.06.12.06h.061l.303-.181.303.12-.364.243c-.06.061-.06.122-.06.182s.06.06.121.06h.06l.546-.363.364.121-.667.425c-.06.06-.06.12-.06.181s.06.061.12.061h.061l.788-.545.364.181-.97.606c-.06 0-.06.061-.06.122 0 .06 0 .12.06.12l.97.607-.425.182-.787-.546c-.06-.06-.122 0-.182.06-.06.062 0 .122.06.183l.667.424-.364.182-.545-.364c-.061-.06-.121 0-.182.06-.06.061 0 .122.061.183l.363.242-.303.121-.303-.182c-.06-.06-.12 0-.181.061-.06.06 0 .121.06.182l.121.06-.242.122c-.061 0-.121.12-.061.181 0 .061.122.122.182.061l.303-.121-.06.242c0 .06.06.121.121.182.06 0 .121-.06.121-.121l.06-.424.304-.122-.122.546c0 .06.061.121.122.182a.13.13 0 00.121-.122l.121-.727.303-.121-.12.727c0 .06.06.121.12.182a.13.13 0 00.122-.121l.181-.91.364-.12-.182 1.151c0 .06 0 .06.06.121.061.06.061.06.122.06l1.152-.18-.122.363-.909.182c-.06 0-.121.06-.121.181 0 .122.06.122.181.122l.728-.122-.122.303-.726.122c-.061 0-.122.06-.122.181 0 .061.061.122.182.122l.546-.061-.122.303-.424.06c-.06 0-.121.061-.121.182 0 .061.06.122.181.122l.243-.06-.121.302c0 .06 0 .121.06.182h.061c.06 0 .121-.06.121-.06l.122-.243.06.121c0 .06.06.06.121.06h.061c.06-.06.06-.12.06-.181l-.182-.303.122-.303.243.363c0 .061.06.061.12.061h.061c.06-.06.06-.121.06-.182l-.363-.545.182-.364.424.667c0 .06.06.06.122.06h.06c.06-.06.06-.12.06-.181l-.545-.788.182-.364.606.97c0 .06.06.06.121.06.06 0 .06 0 .122-.06l.606-.97.182.364-.547.788c-.06.06 0 .12.062.181h.06c.06 0 .06 0 .121-.06l.425-.667.182.364-.364.545c-.06.06 0 .121.06.182h.06c.062 0 .062 0 .122-.06l.243-.364.121.303-.182.303c-.06.06 0 .121.06.182h.061c.061 0 .061 0 .122-.06l.06-.122.121.242c0 .06.061.06.122.06h.06c.06 0 .121-.12.06-.18l-.12-.304.242.06c.06 0 .12-.06.182-.12 0-.061-.061-.122-.121-.182l-.425-.06-.121-.304.546.06c.06 0 .12-.06.181-.12 0-.061-.06-.122-.121-.182l-.727-.122-.121-.303.727.122c.06 0 .12-.061.182-.122 0-.06-.061-.12-.121-.181l-.91-.182-.12-.364 1.15.182c.061 0 .061 0 .122-.06 0-.061.06-.061.06-.122l-.242-1.151.364.12.182.91c0 .06.06.121.12.121.062 0 .122-.06.122-.182l-.121-.727.303.121.121.727c0 .061.06.122.12.122.062 0 .123-.06.123-.182l-.122-.546.303.122.061.424c0 .06.06.121.121.121.06 0 .12-.06.12-.182l.547-.242.303.121c.06 0 .121 0 .182-.06 0-.122-.06-.182-.122-.182zM11.455 5.388l-.606-.122-.182-.424.121-.06s.06 0 .06-.061l.061-.121.424.181.122.606zm-1.091.424l-.303-.485.182-.364.12.06.122-.06.182.364-.303.485zm-1.03-.425l.12-.606.425-.181.06.12s0 .061.061.061l.121.061-.181.424-.607.121zm-.364-1.03l.485-.303.363.121-.06.122v.06l.06.121-.363.182-.485-.303zm.363-1.03l.607.121.181.364-.181.06s-.061 0-.061.06v.122l-.424-.182-.122-.545zm1.03-.424l.304.484-.121.364h-.303l-.182-.364.303-.484zm1.092.424l-.122.606-.424.121-.06-.121s0-.06-.061-.06l-.121-.061.182-.425.606-.06zm-.606 1.03v.121l-.061.122-.06.12h-.122l-.121.061-.121.061-.06-.06-.183-.061h-.06L10 4.6l-.061-.122v-.12l.06-.122.06-.121.061-.121.122-.061.12-.06.122-.061.121.06.121.06.122.062.06.12.06.122-.12.121zm.484-.303l.485.303-.485.303-.363-.182.06-.12v-.061l-.06-.122.363-.12zm1.334 1.152l-.121-.061.06-.06c.06 0 .06-.061 0-.122 0-.06-.06-.06-.121 0l-.06.121-.182-.06.181-.121c.061 0 .061-.061 0-.122 0-.06-.06-.06-.12 0l-.243.182-.182-.121.364-.182v-.12c0-.06-.061-.06-.122 0l-.424.242-.182-.06.485-.303.06-.06s0-.061-.06-.061l-.485-.303.182-.061.424.303h.06s.062 0 .062-.06v-.122l-.364-.242.182-.06.303.18h.06s.061 0 .061-.06v-.12l-.242-.062.181-.06.122.121h.06s.06 0 .06-.06V3.57h-.12l.12-.06c.061 0 .061-.06.061-.122 0-.06-.06-.06-.12-.06l-.122.121v-.121c0-.06 0-.06-.06-.06 0-.061-.061-.061-.061 0l-.06.242-.122.06.06-.303c0-.06-.06-.06-.12-.06 0 0-.061 0-.061.06L12 3.63l-.183.06.06-.363c0-.06 0-.06-.06-.06 0-.061-.06-.061-.06 0l-.06.484-.183.06.121-.605v-.061h-.06l-.606.121.06-.182.485-.06c.06 0 .06-.06.06-.06 0-.061-.06-.061-.06-.061h-.485l.061-.182.364-.06c.06 0 .12-.061.12-.061 0-.061-.06-.061-.06-.061l-.303.06.06-.181.243-.06c.06 0 .06-.061.06-.061 0-.061-.06-.061-.06-.061h-.12l.06-.182c0-.06 0-.06-.06-.121-.122.06-.122.06-.122.121l-.06.121-.061-.06c0-.06-.061-.06-.122 0v.06l.122.122-.061.181-.182-.181c0-.061-.06-.061-.121 0-.06 0-.06.06 0 .12l.182.304-.06.121-.243-.303c0-.06-.06-.06-.121 0-.061 0-.061.06 0 .121l.303.424-.061.122-.364-.485c0-.06-.12-.06-.12 0L10 3.206l-.06-.182.303-.424v-.122h-.122l-.242.364-.121-.182.182-.303v-.121h-.122l-.12.242-.062-.12.122-.122v-.121h-.122l-.06.06-.06-.12c0-.061-.061-.061-.061-.061-.06 0-.06.06-.06.12l.06.183h-.122c-.06 0-.06 0-.06.06s0 .06.06.06l.243.061V2.6l-.243-.061c-.06 0-.12 0-.12.06 0 .061 0 .061.06.061l.363.06.061.183-.364-.061c-.06 0-.06 0-.06.06 0 .061 0 .061.06.061l.485.06.06.183-.605-.122h-.06c0 .122-.061.122 0 .122l.12.606-.242-.06-.06-.486c0-.06-.061-.06-.122-.06 0 0-.06.06-.06.12l.06.364-.121-.06-.06-.364c0-.06-.061-.06-.122-.06 0 0-.06 0-.06.06l.06.303-.121-.06-.06-.243c0-.06-.061-.06-.061-.06-.06 0-.121.06-.06.06v.121H8.12c-.06 0-.06 0-.12.061 0 .06 0 .06.06.121l.12.06v-.06c-.06 0-.06.06 0 .121l.062.061h.06l.121-.121.182.06-.242.122c-.06 0-.06.06 0 .12l.06.062h.061l.303-.182h.121l-.363.242c-.061 0-.061.06 0 .121l.06.06h.06l.425-.302.182.06-.485.304-.06.06s0 .06.06.06l.485.304-.182.06-.424-.242h-.121v.121l.363.243-.182.06-.303-.182h-.12v.122l.242.12-.182.061-.121-.12H8.12v.12l.06.061-.12.06c-.06 0-.06.061-.06.122 0 .06.06.06.12.06l.182-.06v.121c0 .06 0 .06.06.06.061 0 .061 0 .061-.06l.061-.242.121-.061-.06.303c0 .06 0 .06.06.06s.06 0 .06-.06l.061-.364.243-.06-.121.363c0 .061 0 .061.06.061s.06 0 .06-.06l.061-.485.182-.061v.666h.06l.607-.12-.06.242-.486.121c-.06 0-.06.06-.06.06 0 .061.06.061.06.061l.364-.06-.06.12-.364.062c0 .06-.06.06-.06.12 0 .061.06.061.06.061l.303-.06-.06.182h-.183c-.06 0-.06.06-.06.06 0 .06.06.06.06.06h.122l-.06.183c0 .06 0 .06.06.12 0 0 .06 0 .06-.06l.06-.121.061.06.061.061h.06c.061 0 .061-.06 0-.121l-.12-.182.06-.182.121.182.06.06h.062c.06 0 .06-.06 0-.12l-.182-.243.06-.182.243.364.06.06h.06c.062 0 .062-.06 0-.12l-.24-.486.06-.18.303.485.06.06s.061 0 .061-.06l.303-.485.061.181-.242.425v.12h.06s.06 0 .06-.06l.243-.363.06.182-.181.303v.12h.06s.061 0 .061-.06l.121-.182.061.182-.06.121V6.6h.06s.06 0 .06-.061l.061-.06.06.12.061.061c.061 0 .061-.06.061-.121l-.06-.121h.12c.061 0 .061 0 .061-.06 0-.061 0-.061-.06-.061h-.182l-.06-.182.302.06c.06 0 .06 0 .06-.06s0-.06-.06-.06l-.424-.122-.06-.121.363.06c.06 0 .06 0 .06-.06s0-.06-.06-.06l-.424-.122-.06-.182.605.121h.06v-.06l-.12-.606.181.06.061.485c0 .06.06.06.06.06.061 0 .061-.06.061-.06v-.424l.182.06.06.364c0 .06.061.06.061.06.06 0 .06-.06.06-.06v-.303l.183.06.06.243c0 .06.061.06.061.06.06 0 .06-.06.06-.06v-.121l.182.06c.061 0 .061 0 .122-.06-.122-.06-.122-.121-.182-.121zm23.94 18.848l-1.152-.182-.303-.788.242-.121c.06 0 .06-.06.06-.06l.122-.243.788.303.242 1.091zm-2 .788L34 23.933l.303-.727.243.121h.12l.243-.121.303.727-.606.91zm-2-.788l.181-1.151.788-.303.121.242c0 .06.06.06.06.06l.243.122-.303.788-1.09.242zm-.789-2l.91-.606.727.303-.06.243v.12l.12.243-.727.303-.97-.606zm.788-2l1.152.182.303.849-.243.12c-.06 0-.06.06-.06.06l-.122.244-.787-.303-.243-1.152zm2-.788l.606.91-.303.727-.242-.06h-.121l-.243.12-.303-.787.606-.91zm2 .788l-.182 1.152-.788.303-.12-.243c0-.06-.061-.06-.061-.06l-.243-.121.303-.849 1.091-.182zm-1.09 2l-.061.182-.122.242-.06.243-.182.06-.242.122-.182.06-.182-.06-.242-.122-.182-.06-.06-.182-.122-.242-.06-.182.06-.182.121-.242.06-.182.183-.061.242-.121.182-.061.182.061.242.12.182-.06.06.182.122.243.06.242zm.969-.606l.91.606-.91.606-.727-.303.12-.242v-.121l-.12-.243.727-.303zm2.545 2.242l-.242-.121.121-.12c.06-.062.06-.122.06-.183-.06-.06-.12-.06-.181-.06l-.303.181-.303-.121.364-.242c.06-.061.06-.121.06-.182-.06-.061-.121-.061-.182-.061l-.545.425-.364-.182.667-.424c.06-.06.06-.122.06-.182-.06-.061-.12-.061-.181-.061l-.849.546-.424-.182.97-.606c.06 0 .06-.061.06-.121s0-.06-.06-.122l-.97-.606.424-.181.849.545h.06c.06 0 .06 0 .122-.061.06-.06 0-.121-.061-.181l-.667-.425.364-.181.545.363h.061c.06 0 .06 0 .121-.06.06-.061 0-.122-.06-.182l-.364-.121.303-.122.303.182h.06c.061 0 .061 0 .122-.06.06-.061 0-.122-.06-.182l-.122-.06.242-.122c.061 0 .122-.121.061-.182 0-.06-.121-.121-.182-.06l-.303.12.06-.242c0-.06-.06-.12-.12-.182-.061 0-.122.061-.182.122l-.06.424-.304.121.121-.545c0-.06-.06-.122-.12-.182-.061 0-.122.06-.183.121l-.12.727-.304.122.121-.728c0-.06-.06-.12-.12-.182-.062 0-.122.061-.183.122l-.121.909-.364.182.182-1.152c0-.06 0-.06-.06-.121-.061-.061-.061-.061-.122-.061l-1.151.182.182-.364.909-.181c.06 0 .121-.061.121-.182 0-.061-.06-.121-.182-.121l-.727.181.121-.303.727-.121c.061 0 .122-.06.122-.182 0-.06-.061-.121-.182-.121l-.546.121.122-.303.424-.06c.06 0 .121-.061.121-.182 0-.06-.06-.121-.182-.121l-.242.06.121-.303c0-.06 0-.182-.06-.182-.061 0-.122 0-.182.06l-.122.243-.06-.12c-.06-.061-.121-.061-.182-.061-.06.06-.06.12-.06.181l.181.304-.121.303-.243-.364c-.06-.06-.12-.06-.181-.06-.06.06-.06.12-.06.18l.363.547-.182.363-.424-.666c-.061-.061-.122-.061-.182-.061-.06.06-.06.12-.06.182l.545.848-.182.424-.606-.97a.183.183 0 00-.243 0l-.606.97-.182-.424.546-.848c.06-.061 0-.121-.06-.182-.061-.06-.122 0-.182.06l-.425.667-.06-.363.363-.546c.06-.06 0-.121-.06-.182-.06-.06-.122 0-.182.06l-.243.365-.12-.303.181-.304c.06-.06 0-.12-.06-.181-.061-.062-.122 0-.182.06l-.061.121-.121-.243c0-.06-.121-.12-.182-.06-.06 0-.121.122-.06.182l.12.303-.242-.06c-.06 0-.121.06-.182.12 0 .062.061.122.122.183l.424.06.121.303-.545-.121c-.061 0-.122.06-.182.121 0 .061.06.122.121.182l.727.121.121.303-.727-.121c-.06 0-.121.06-.182.121 0 .061.061.122.122.182l.909.121.181.364-1.151-.182c-.06 0-.06 0-.121.06 0 .061-.06.061-.06.122l.181 1.152-.364-.182-.181-.91c0-.06-.061-.12-.182-.12-.06 0-.122.06-.122.18l.122.729-.303-.122-.122-.727c0-.06-.06-.121-.181-.121-.061 0-.122.06-.122.182l.122.545-.303-.121-.061-.424c0-.06-.06-.122-.182-.122-.06 0-.121.061-.121.182l.06.243-.302-.121c-.061 0-.122 0-.182.06 0 .06 0 .182.06.182l.243.121-.121.06c-.061.06-.061.122-.061.183 0 .06.06.06.121.06h.06l.304-.182.363.122-.363.242c-.06.06-.06.121-.06.182 0 .06.06.06.12.06h.061l.545-.363.364.182-.667.424c-.06.06-.06.121-.06.182 0 .06.06.06.121.06h.06l.85-.545.423.182-.97.606c-.06 0-.06.06-.06.12s0 .122.06.122l.97.606-.424.182-.848-.546c-.061-.06-.122 0-.182.061-.06.06 0 .12.06.182l.667.424-.364.06-.545-.363c-.06-.061-.121 0-.182.06-.06.06 0 .122.06.182l.364.243-.303.121-.303-.182c-.06-.06-.12 0-.181.061-.061.06 0 .121.06.182l.121.121-.242.121c-.06 0-.121.12-.06.182 0 .06.12.121.181.06l.303-.121-.06.243c0 .06.06.121.12.181a.13.13 0 00.122-.121l.06-.424.304-.12-.122.544c0 .061.061.121.122.182.06 0 .12-.06.12-.12l.122-.728.303-.122-.121.728c0 .06.06.121.121.181a.13.13 0 00.121-.121l.182-.91.364-.181-.243 1.152c0 .06 0 .06.06.121.062.06.062.06.122.06l1.152-.18v.302l-.91.182c-.06 0-.12.06-.12.181 0 .061.06.122.181.122l.727-.122-.12.303-.728.122c-.06 0-.121.06-.121.181 0 .061.06.122.182.122l.545-.122-.121.303-.424.061c-.061 0-.122.061-.122.182 0 .06.061.122.182.122l.243-.062-.122.303c0 .062 0 .122.061.182h.06c.061 0 .122-.06.122-.06l.121-.243.06.121c0 .062.061.062.122.062h.06c.061-.062.061-.122.061-.183l-.182-.303.121-.303.243.364c0 .06.06.06.121.06h.06c.061-.06.061-.12.061-.18l-.363-.607.181-.364.425.667c0 .06.06.06.12.06h.062c.06-.06.06-.12.06-.182l-.545-.848.182-.424.606.97c0 .06.06.06.12.06.061 0 .061 0 .122-.06l.606-.97.182.424-.546.848c-.06.061 0 .122.061.182h.06c.061 0 .061 0 .122-.06l.424-.667.182.364-.364.545c-.06.061 0 .121.06.182h.061c.061 0 .061 0 .122-.06l.12-.364.122.303-.182.303c-.06.06 0 .121.06.181h.062c.06 0 .06 0 .12-.06l.061-.12.122.242c0 .06.06.06.12.06h.061c.061 0 .122-.122.061-.182l-.121-.303.242.06c.06 0 .121-.06.182-.12 0-.06-.06-.122-.121-.183l-.424-.06-.122-.303.546.121c.06 0 .121-.06.182-.12 0-.062-.061-.122-.122-.183l-.727-.12-.121-.304.727.121c.06 0 .121-.06.182-.12 0-.062-.06-.122-.121-.183l-.91-.182-.12-.363 1.151.181c.06 0 .06 0 .121-.06 0-.061.06-.061.06-.121l-.242-1.152.364.243.182.909c0 .06.06.121.121.121.06 0 .121-.061.121-.182l-.12-.727.302.121.121.727c0 .061.06.121.122.121.06 0 .12-.06.12-.181l-.12-.546.303.121.06.425c0 .06.06.121.121.121s.122-.061.122-.182l.12-.242.304.121c.06 0 .121 0 .182-.061 0-.06-.061-.12-.122-.182zm43.758 9.516l-1.333-.243-.364-.97.303-.12c.06 0 .06-.061.12-.122l.123-.303.969.364.182 1.394zm-2.424.909l-.727-1.091.363-.91.303.122h.121l.304-.121.363.909-.727 1.09zM78 33.205l.243-1.333.97-.363.12.303c0 .06.06.06.122.12l.303.122-.364.97-1.394.182zm-.909-2.424l1.09-.727.91.364-.121.303v.12l.12.304-.909.364-1.09-.728zm.91-2.363l1.333.242.363.97-.303.121c-.06 0-.06.06-.121.121l-.121.303-.97-.363L78 28.418zm2.363-.91l.727 1.092-.363.909-.304-.122h-.121L80 29.51l-.363-.91.727-1.09zm2.424.91l-.242 1.333-.97.364-.121-.303c0-.061-.061-.061-.121-.122l-.303-.12.363-.97 1.394-.182zm-1.333 2.363l-.121.243-.122.303-.121.242-.242.121-.303.122-.243.12-.242-.12-.303-.122-.243-.12-.121-.243-.121-.303-.121-.243.121-.242.12-.303.122-.243.243-.12.303-.122.242-.121.243.121.303.121.242.121.12.243.123.303.12.242zm1.09-.666l1.091.727-1.09.727-.91-.363.122-.303v-.122l-.121-.303.909-.363zm3.091 2.606l-.303-.121.182-.122c.061-.06.121-.182.061-.242s-.182-.121-.243-.06l-.363.242-.364-.122.424-.303c.061-.06.121-.181.061-.242-.061-.06-.121-.121-.243-.06l-.666.424-.424-.182.787-.546c.061-.06.122-.181.061-.242-.06-.06-.12-.121-.242-.06l-.97.666-.485-.182 1.152-.727c.06 0 .06-.06.06-.121 0-.06 0-.121-.06-.121l-1.152-.728.485-.182.97.667h.121c.06 0 .121 0 .121-.06.06-.061.06-.182-.06-.243l-.788-.545.424-.182.666.424h.122c.06 0 .121 0 .121-.06.06-.061.06-.182-.061-.243l-.424-.303.364-.121.363.242h.121c.061 0 .122 0 .122-.06.06-.061.06-.182-.06-.243l-.183-.121.303-.121c.061-.06.121-.121.121-.243-.06-.06-.121-.12-.181-.12l-.364.12.061-.303c0-.06-.06-.182-.122-.182-.06 0-.181.061-.181.122l-.06.485-.365.12.122-.605c0-.06-.06-.182-.122-.182-.06 0-.181.06-.181.121l-.122.849-.363.12.121-.848c0-.06-.061-.182-.121-.182-.061 0-.182.061-.182.122l-.182 1.09-.424.182.242-1.394c0-.06 0-.12-.06-.12-.061-.061-.121-.061-.121-.061l-1.394.242.182-.424 1.09-.182c.061 0 .122-.121.122-.182 0-.06-.122-.121-.182-.121l-.91.121.122-.363.848-.122c.061 0 .122-.12.122-.181s-.122-.122-.182-.122l-.667.122.12-.364.486-.06c.06 0 .12-.122.12-.183 0-.06-.12-.12-.18-.12l-.303.06.12-.364c.06-.06 0-.182-.12-.242-.06-.06-.182 0-.182.121l-.121.303-.122-.182c-.06-.06-.121-.121-.242-.06-.061.06-.121.12-.061.242l.243.364-.121.363-.303-.485c-.061-.06-.182-.12-.243-.06-.06.06-.121.182-.06.242l.424.667-.182.424-.545-.788c-.061-.06-.122-.12-.243-.06-.06.06-.121.182-.06.242l.666.97-.182.485-.728-1.152c-.06-.121-.241-.121-.303 0l-.726 1.152-.182-.485.667-.97c.06-.06.06-.182-.061-.242-.06-.06-.182-.06-.242.06l-.546.788-.182-.424.425-.667c.06-.06.06-.182-.061-.242-.06-.06-.182-.06-.242.06l-.303.485-.122-.363.243-.364c.06-.06.06-.182-.061-.242-.06-.061-.182-.061-.242.06l-.122.182-.12-.303c-.061-.06-.123-.121-.183-.121-.06.06-.12.121-.12.242l.12.364-.303-.06c-.06 0-.181.06-.181.12 0 .061.06.182.12.182l.486.06.12.365-.666-.122c-.06 0-.182.06-.182.122 0 .06.06.181.122.181l.847.122.122.363-.909-.121c-.06 0-.182.06-.182.121 0 .06.06.182.122.182l1.09.182.182.424-1.394-.242c-.06 0-.12 0-.12.06-.061.06-.061.121-.061.121l.241 1.394-.423-.181-.183-1.091c0-.06-.12-.122-.18-.122-.061 0-.123.122-.123.182l.425 1.091-.363-.121-.122-.849c0-.06-.12-.12-.182-.12-.06 0-.12.12-.12.181l.12.606-.364-.121-.06-.485c0-.06-.121-.121-.182-.121-.06 0-.12.121-.12.182l.06.303-.364-.121c-.06-.061-.182 0-.182.12-.06.061 0 .183.122.243l.303.121-.183.122c-.06.06-.12.181-.06.242.06.06.06.06.121.06h.122l.363-.242.363.121-.423.303c-.061.061-.122.182-.061.243.06.06.06.06.121.06h.121l.667-.424.424.182-.788.545c-.06.061-.12.122-.06.243.06.06.06.06.121.06h.121l.97-.666.485.182-1.152.727c-.06.06-.06.06-.06.121 0 .06 0 .121.06.121l1.152.728-.486.181-.969-.666c-.06-.06-.182-.06-.243.06-.06.061-.06.182.061.243l.788.545-.424.182-.667-.424c-.06-.06-.181 0-.242.06-.06.061-.06.182.06.243l.424.303-.363.121-.363-.242c-.061-.06-.183-.06-.243.06-.06.06-.06.182.06.243l.183.12-.303.122c-.061.06-.122.121-.122.182.061.06.122.121.182.06l.363-.12-.06.302c0 .061.06.182.121.182s.122-.06.182-.121l.06-.485.364-.121-.12.667c0 .06.06.181.12.181.061 0 .122-.06.182-.12l.122-.85.363-.424-.122.91c0 .06.062.181.122.181s.121-.06.181-.12l.183-1.092.423-.182-.241 1.394c0 .061 0 .122.06.122.06.06.121.06.121.06l1.394-.242-.181.424-1.091.182c-.062 0-.122.121-.122.182 0 .06.122.12.182.12l.849-.12-.121.363-.85.122c-.06 0-.12.12-.12.181 0 .06.12.122.182.122l.666-.122-.122.364-.484.06c-.06 0-.122.122-.122.182 0 .061.122.122.183.122l.303-.061-.121.364c-.062.06 0 .181.12.181h.061c.06 0 .122-.06.122-.12l.12-.304.122.182c.06.06.06.06.121.06h.122c.06-.06.12-.181.06-.242l-.242-.363.182-.364.303.424c.06.06.06.06.12.06h.122c.06-.06.12-.12.06-.242l-.424-.666.182-.425.546.788c.06.06.06.06.12.06h.121c.062-.06.122-.18.062-.241l-.667-.97.182-.485.726 1.151c.062.061.062.061.122.061s.122 0 .122-.06l.727-1.152.182.485-.667.97c-.061.06-.061.181.06.242h.122c.06 0 .121 0 .121-.06l.545-.789.182.425-.424.666c-.061.061-.061.182.06.243h.122c.06 0 .121 0 .121-.06l.303-.425.182.364-.243.363c-.06.06-.06.182.061.243h.12c.062 0 .122 0 .122-.061l.122-.182.12.303c0 .06.06.121.122.121h.06c.06-.06.122-.12.122-.181l-.121-.364.303.06c.06 0 .181-.06.181-.12 0-.061-.06-.182-.121-.182l-.485-.061-.121-.364.667.122c.06 0 .182-.061.182-.122 0-.06-.06-.181-.122-.181l-.848-.122-.121-.363.848.12c.061 0 .182-.06.182-.12s-.061-.182-.121-.182l-1.09-.182-.183-.424 1.394.242c.06 0 .12 0 .12-.06.062-.061.062-.122.062-.122l-.243-1.394.425.182.181 1.091c0 .06.061.121.182.121.061 0 .121-.12.121-.181l-.121-.91.364.122.121.848c0 .06.06.121.182.121.06 0 .121-.12.121-.181l-.12-.667.362.121.061.485c0 .06.061.121.182.121.06 0 .121-.121.121-.182l-.06-.303.363.122c.061.06.182 0 .182-.061-.243.06-.303-.06-.364-.121z"/><g transform="translate(46.788 1.448)"><mask id="bs-rus.ru-d" fill="#fff"><use xlink:href="#bs-rus.ru-c"/></mask><path fill="#45A7FF" d="M9.818 9.333L8.243 9.03l-.485-1.15.363-.121a.13.13 0 00.122-.122l.12-.363 1.152.485.303 1.575zM7.03 10.424l-.848-1.333.424-1.03.364.12h.121l.364-.12.424 1.03-.849 1.333zm-2.848-1.09l.303-1.576 1.151-.485.122.363c0 .061.06.122.12.122l.365.12-.485 1.152-1.576.303zM3.09 6.483l1.333-.848 1.03.425-.12.363v.121l.12.364-1.03.424-1.333-.848zm1.09-2.787L5.759 4l.485 1.152-.364.12a.13.13 0 00-.121.122l-.122.364-1.151-.485-.303-1.576zm2.85-1.09l.848 1.332-.424 1.03-.364-.12h-.12l-.364.12-.424-1.03.848-1.333zm2.787 1.09l-.303 1.576-1.151.485-.121-.364a.13.13 0 00-.122-.121l-.363-.121L8.243 4l1.575-.303zM8.303 6.485l-.121.303-.121.364-.121.303-.304.12-.363.122-.243.121-.303-.121-.363-.121-.303-.121-.121-.303-.122-.364-.12-.303.12-.303.122-.364.12-.242.304-.121.363-.122.303-.12.243.12.363.122.304.12.12.304.122.363.121.243zm1.273-.849l1.333.849-1.333.848-1.03-.424.12-.364v-.12l-.12-.364 1.03-.425zm3.636 3.152l-.363-.121.181-.122c.061-.06.122-.181.061-.242-.06-.06-.182-.121-.242-.06l-.425.242L12 8.303l.546-.364c.06-.06.12-.181.06-.242-.06-.06-.182-.121-.242-.06l-.728.484-.545-.242.91-.606c.06-.06.12-.182.06-.243-.06-.06-.182-.12-.243-.06l-1.151.788-.546-.243 1.334-.848c.06-.06.06-.122.06-.182s-.06-.121-.06-.182l-1.334-.848.546-.243L11.818 6c.06 0 .06.06.122.06.06 0 .12 0 .181-.06.06-.06.06-.182-.06-.242l-.91-.606.546-.243.606.485h.121c.061 0 .122 0 .182-.06.06-.061.06-.182-.06-.243L12 4.727l.424-.182.425.243c.06 0 .06.06.12.06.061 0 .122 0 .183-.06.06-.06.06-.182-.061-.243l-.182-.12.303-.243c.121 0 .182-.121.121-.243-.06-.12-.181-.12-.242-.12L12.667 4l.06-.364c0-.12-.06-.181-.181-.242-.122 0-.182.06-.243.182l-.121.606-.424.182.12-.728c0-.12-.06-.181-.18-.242-.122 0-.183.06-.243.182l-.182.97-.364.181.182-1.03c0-.121-.06-.182-.182-.242-.121 0-.182.06-.242.181l-.243 1.273-.545.243.424-1.697c0-.061 0-.122-.06-.182-.061-.06-.122-.06-.182-.06l-1.637.302.243-.545 1.273-.243c.12 0 .181-.12.181-.242 0-.121-.12-.182-.242-.182l-1.03.182.181-.424.97-.182c.121 0 .182-.121.182-.243 0-.12-.121-.181-.242-.181l-.728.12.182-.423L10 1.03c.121 0 .182-.12.182-.242 0-.121-.121-.182-.242-.182l-.364.06.121-.242c.06-.121 0-.242-.121-.242-.121-.06-.182 0-.243.121l-.12.364L9.09.485c-.06-.06-.182-.121-.242-.06-.061.06-.122.181-.061.242l.303.424-.182.424L8.485.97c-.06-.06-.182-.122-.242-.06-.061.06-.122.18-.061.242l.485.727-.243.545-.606-.909c-.06-.06-.182-.121-.242-.06-.06.06-.121.181-.06.242l.787 1.151-.242.546-.849-1.333c-.06-.122-.242-.122-.303 0l-.848 1.333-.243-.546.728-1.09c.06-.061.06-.182-.061-.243-.06-.06-.182-.06-.242.06l-.607.91-.242-.546.485-.727c.06-.06.06-.182-.06-.242-.061-.06-.183-.06-.243.06l-.364.546-.182-.424.303-.425c.061-.06.061-.182-.06-.242-.06-.06-.182-.06-.243.06l-.18.122-.123-.364c-.06-.121-.181-.121-.242-.121-.121.06-.121.182-.121.242l.182.424-.364-.06C4.06.788 4 .848 3.94.97c0 .12.06.182.181.242l.606.121.122.364-.728-.121c-.12 0-.181.06-.242.182 0 .12.06.181.182.242l.97.182.181.424-1.03-.182c-.121 0-.182.06-.242.182 0 .121.06.182.181.242l1.273.243.242.545L4 3.333c-.06 0-.121 0-.182.06-.06.062-.06.122-.06.183l.303 1.636-.546-.242-.242-1.394c0-.121-.121-.182-.243-.182-.12 0-.181.121-.181.242l.181 1.03-.424-.181-.182-.97c0-.121-.12-.182-.242-.182-.121 0-.182.122-.182.243l.121.727-.363-.121-.122-.606c0-.121-.12-.182-.242-.182-.121 0-.182.121-.182.242l.06.364-.423-.182c-.122-.06-.182 0-.243.121-.06.122 0 .243.121.243l.364.121-.182.121c-.06.06-.121.182-.06.243.06.06.12.06.181.06s.061 0 .122-.06l.424-.243.424.182-.545.364c-.06.06-.122.182-.06.242.06.182.12.182.18.182.061 0 .061 0 .122-.06l.727-.486.546.243-.91.606c-.06.06-.12.182-.06.242.06.061.121.061.182.061.06 0 .06 0 .121-.06l1.152-.788.545.242-1.333.848c-.06.061-.06.122-.06.182s.06.121.06.182L4 7.455l-.545.242-1.152-.788c-.06-.06-.182-.06-.242.06-.06.061-.06.183.06.243l.91.606-.546.243-.727-.485c-.06-.06-.182-.06-.243.06-.06.061-.06.182.06.243l.546.363-.424.182-.485-.182c-.06-.06-.182-.06-.242.061-.06.06-.06.182.06.242l.182.122-.363.12c-.122.061-.122.183-.122.243.061.122.182.182.243.122l.424-.182-.06.363c0 .122.06.182.181.243h.06c.122 0 .183-.06.183-.182l.12-.606.425-.182-.121.788c0 .121.06.182.182.242h.06c.122 0 .182-.06.182-.181l.182-.97.424-.182-.182 1.03c0 .122.061.182.182.243h.06c.122 0 .183-.06.183-.182l.242-1.273.546-.242-.303 1.636c0 .06 0 .121.06.182.06.06.121.06.182.06l1.636-.302-.182.545-1.515.242c-.12 0-.181.122-.181.243s.12.182.242.182l1.03-.182-.182.363-.97.182c-.12 0-.181.122-.181.243 0 .12.121.182.242.182l.728-.122-.182.425-.606.12c-.121 0-.182.122-.182.243s.121.182.242.182l.364-.06-.182.424c-.06.12 0 .181.121.242h.061c.06 0 .121-.06.182-.121l.121-.364.121.182c.06.06.121.06.182.06.06 0 .06 0 .121-.06.06-.06.121-.182.06-.242l-.302-.425.182-.424.363.546c.06.06.121.06.182.06.06 0 .06 0 .121-.06.06-.061.122-.182.06-.243l-.484-.727.242-.546.607.91c.06.06.12.06.181.06s.061 0 .122-.06c.06-.061.12-.182.06-.243l-.788-1.151.243-.546.848 1.333c.06.061.121.061.182.061.06 0 .121-.06.182-.06l.848-1.334.243.546-.788 1.151c-.06.06-.06.182.06.243.061 0 .061.06.122.06.06 0 .12 0 .182-.06l.606-.91.242.546-.485.727c-.06.06-.06.182.06.243.061 0 .061.06.122.06.06 0 .121 0 .182-.06l.363-.546.182.424-.303.425c-.06.06-.06.181.06.242.061 0 .061.06.122.06.06 0 .121 0 .182-.06l.121-.182.121.364c.06.06.121.121.182.121h.06c-.06-.121-.06-.242-.06-.303l-.182-.424.364.06c.121 0 .182-.06.242-.181 0-.122-.06-.182-.181-.243l-.607-.121-.181-.424.727.12c.121 0 .182-.06.242-.18 0-.122-.06-.183-.181-.243l-.97-.122-.182-.424 1.03.182c.122 0 .182-.06.243-.182 0-.121-.06-.182-.182-.242l-1.273-.243-.182-.545 1.637.303c.06 0 .12 0 .182-.06.06-.061.06-.122.06-.182L10 7.818l.546.243.242 1.272c0 .122.121.182.182.182h.06c.122 0 .182-.121.182-.242l-.303-.97.424.182.182.97c0 .12.121.181.182.181h.06c.122 0 .183-.12.183-.242l-.122-.788.425.182.12.606c0 .121.122.182.183.182h.06c.121 0 .182-.121.182-.243l-.06-.363.424.182c.12.06.181 0 .242-.122 0-.06-.06-.182-.182-.242z" mask="url(#bs-rus.ru-d)"/></g><path fill="#45A7FF" d="M80.849 6.054l-.546-.121-.122-.364.122-.06.06-.06.061-.122.363.121.062.606zm-.91.364l-.303-.424.122-.364.12.06.122-.06.121.364-.181.424zm-.909-.364l.122-.545.363-.121.06.12s0 .061.061.061l.122.06-.243.304-.485.121zm-.363-.909l.424-.303.364.121-.06.121v.061l.06.121-.364.122-.424-.243zm.363-.97l.546.122.121.363-.121.06-.06.061-.061.122-.364-.122-.06-.606zm.91-.303l.303.425-.122.363-.12-.06h-.061l-.122.06-.12-.363.242-.425zm.909.303l-.122.546-.363.121-.06-.121-.061-.06-.122-.061.122-.364.606-.06zm-.485.97l-.06.121-.061.122-.062.12-.06-.06-.12.06-.122.061-.121-.06-.122-.06-.12-.061-.061-.122-.06-.12h.12l.06-.122.061-.121.061-.122.121-.06.122-.06.12-.061.121.06.122.06.121.061.06.122.062.12-.182.122zm.423-.303l.425.303-.425.303-.363-.121.06-.121v-.06l-.06-.122.363-.182zm1.153 1.03l-.122-.06.06-.06s.062-.061 0-.061c0 0-.06-.061-.06 0l-.122.06-.12-.06.182-.122s.06-.06 0-.06c0 0-.062-.06-.062 0l-.303.12-.18-.06.302-.181s.06-.061 0-.061c0 0-.06-.06-.06 0l-.365.242-.18-.06.423-.303v-.122l-.424-.303.181-.06.365.242h.12v-.06l-.302-.182.182-.06.241.181h.122v-.06l-.182-.122.122-.06.12.06H82V4.6l-.182-.182.122-.06c.06 0 .06-.061.06-.061 0-.061-.06-.061-.06-.061l-.122.06v-.12c0-.061 0-.061-.06-.061-.062 0-.062 0-.062.06l-.06.182-.12.06.06-.242c0-.06 0-.06-.06-.06-.061 0-.061 0-.061.06l-.122.303-.12.061.06-.364c0-.06 0-.06-.06-.06-.061 0-.061 0-.061.06l-.062.425-.18.06.12-.545v-.06h-.06l-.546.12.06-.181.425-.061c.06 0 .06-.06.06-.06 0-.061-.06-.061-.06-.061l-.363.06.06-.12.303-.061c.06 0 .06-.061.06-.061 0-.06-.06-.06-.06-.06l-.242.06.06-.121.182-.06c.06 0 .06-.061.06-.061 0-.061-.06-.061-.06-.061h-.122l.062-.121c0-.06 0-.06-.062-.06 0 0-.06 0-.06.06h-.06l-.06-.06s-.061-.062-.061 0c0 0-.062.06 0 .06l.06.12-.06.122-.122-.182s-.06-.06-.06 0c0 0-.06.06 0 .06l.182.243-.122.243-.181-.303s-.062-.06-.062 0c0 0-.06.06 0 .06l.243.364-.06.182-.303-.424c0-.061-.06-.061-.121 0l-.304.424-.12-.182.242-.364v-.06h-.06l-.243.303-.06-.182.18-.242v-.061h-.06l-.12.182-.062-.121.061-.122v-.06h-.182l-.06-.122c0-.06-.061-.06-.061-.06-.06 0-.06.06-.06.06l.06.122h-.121c-.06 0-.06 0-.06.06s0 .06.06.06l.182.062.06.12-.242-.06c-.06 0-.06 0-.06.06 0 .061 0 .061.06.061l.303.06.06.122-.303.06c-.06 0-.06 0-.06.061s0 .061.06.061l.425.06.06.182-.545-.12h-.06v.06l.12.545-.181-.06-.061-.425c0-.06-.06-.06-.06-.06-.061 0-.061.06-.061.06l.06.364-.12-.06-.061-.304c0-.06-.061-.06-.061-.06-.06 0-.06.06-.06.06l.06.243-.121-.06-.06-.183c0-.06-.061-.06-.061-.06-.061 0-.061.06-.061.06v.122l-.121-.061s-.06 0-.06.06c0 .061 0 .061.06.061l.12.06-.06.061s-.06.061 0 .061h.122l.12-.06.122.06-.182.121s-.06.06 0 .06h.121l.243-.181.182.06-.546.243s-.06.06 0 .06h.121l.364-.242.182.06-.424.304v.121l.424.303-.182.06-.364-.242h-.06v.06l.303.183-.243.12-.242-.18h-.06v.06l.181.12-.121.062-.121-.061H78v.06l.06.061-.121.06c-.061 0-.061.061-.061.061 0 .061.06.061.06.061l.122-.06v.12c0 .061 0 .061.06.061 0 0 .06 0 .06-.06l.062-.182.12-.06-.06.302c0 .06 0 .06.06.06 0 0 .061 0 .061-.06l.061-.303.121-.06-.06.363c0 .06 0 .06.06.06 0 0 .06 0 .06-.06l.061-.424.182-.06-.121.545v.06h.06l.546-.12v.181l-.424.06c-.06 0-.06.061-.06.061 0 .06.06.06.06.06l.363-.06-.06.121-.303.061c-.06 0-.06.06-.06.06 0 .061.06.061.06.061l.242-.06-.06.242h-.182c-.06 0-.06.06-.06.06 0 .061.06.061.06.061h.121l-.06.121c0 .061 0 .061.06.061 0 0 .06 0 .06-.06l.061-.122.06.06h.122s.06-.06 0-.06l-.06-.12.06-.122.121.182h.121s.061-.06 0-.06l-.181-.243.06-.182.182.303h.121s.06-.06 0-.06l-.303-.364.06-.182.304.424H80l.303-.424.06.182-.242.363v.06h.122l.181-.302.06.182-.18.242v.06h.12l.122-.181.06.121-.06.121v.06h.12l.061-.06.06.121.062.061c.06 0 .06-.06.06-.06l-.182-.122h.122c.06 0 .06 0 .06-.06s0-.06-.06-.06h-.182l-.06-.122.242.06c.06 0 .06 0 .06-.06s0-.06-.06-.06l-.303-.061-.062-.122.365.061c.06 0 .06 0 .06-.06 0-.061 0-.061-.06-.061l-.365-.182-.06-.182.546.121h.06v-.06l-.12-.546.18.06.062.425c0 .06.06.06.06.06.06 0 .06-.06.06-.06l-.06-.363.121.06.06.303c0 .06.062.06.062.06.06 0 .06-.06.06-.06l-.06-.242.12.06.061.182c0 .06.06.06.06.06.062 0 .062-.06.062-.06v-.121l.12.06s.062 0 .062-.06c.06 0 .06-.06 0-.06zm61.454 31.273l-1.03-.182-.303-.727.242-.121c.06 0 .06-.06.06-.06l.122-.243.727.303.182 1.03zm-1.88.727l-.544-.848.303-.728.242.122h.121l.243-.122.303.728-.667.848zm-1.877-.727l.181-1.03.728-.303.12.242c0 .06.062.06.062.06l.242.122-.303.727-1.03.182zm-.668-1.879l.85-.545.665.303-.12.242v.121l.12.243-.726.303-.789-.667zm.668-1.879l1.03.182.303.788-.242.121c-.061 0-.061.06-.061.06l-.121.243-.728-.303-.181-1.09zm1.878-.666l.546.848-.303.727-.243-.12h-.121l-.242.12-.303-.727.666-.848zm1.88.666l-.183 1.03-.727.304-.121-.243c0-.06-.061-.06-.061-.06l-.242-.122.303-.787 1.03-.122zm-1.031 1.88l-.061.181-.12.242-.062.182-.181.06-.243.122-.182.06-.181-.06-.243-.121-.182-.06-.06-.183-.121-.242-.061-.182.06-.182.122-.242.06-.182.182-.06.243-.122.18-.06.183.06.243.122.18.06.062.182.12.242.062.182zm.909-.546l.848.545-.848.546-.727-.303.12-.243v-.121l-.12-.242.727-.182zm2.363 2.12l-.242-.12.121-.06c.061-.061.061-.122.061-.183-.06-.06-.122-.06-.182-.06l-.243.182-.303-.122.364-.242c.061-.06.061-.121.061-.182-.06-.06-.122-.06-.182-.06l-.485.363-.364-.121.606-.424c.061-.061.061-.122.061-.182-.06-.06-.12-.06-.182-.06l-.788.545-.363-.122.91-.545c.06 0 .06-.06.06-.121 0-.06 0-.06-.06-.121l-.91-.546.363-.182.788.546h.061c.06 0 .06 0 .121-.06.06-.061 0-.122-.06-.183l-.607-.424.364-.121.485.364h.06c.061 0 .061 0 .122-.061.06-.06 0-.121-.06-.182l-.365-.242.303-.122.243.182h.06c.061 0 .061 0 .122-.06.06-.06 0-.122-.06-.182l-.122-.06.242-.122c.061 0 .121-.121.061-.182-.061-.06-.061-.06-.121-.06l-.303.12.06-.242c0-.06-.06-.12-.12-.12a.13.13 0 00-.122.12l-.061.364-.303.121.061-.485c0-.06-.061-.12-.121-.12s-.122.06-.122.12l-.121.667-.303.121.121-.666a.13.13 0 00-.121-.122c-.06 0-.12.061-.12.122l-.122.848-.364.121.182-1.09c0-.061 0-.061-.061-.122-.06-.06-.06-.06-.121-.06l-1.091.181.122-.363.848-.121c.06 0 .12-.061.12-.122 0-.06-.06-.12-.12-.12l-.667.12.122-.303.666-.12a.13.13 0 00.121-.122.13.13 0 00-.121-.121l-.485.06.122-.303.363-.06a.13.13 0 00.121-.122.13.13 0 00-.121-.12l-.242.06.121-.303c0-.06 0-.121-.061-.182-.06 0-.121 0-.181.06l-.122.243-.06-.121c-.061-.06-.121-.06-.182-.06-.061.06-.061.12-.061.181l.182.242-.12.303-.243-.363c-.06-.06-.122-.06-.182-.06-.061.06-.061.12-.061.181l.364.485-.121.364-.425-.607c-.06-.06-.121-.06-.181-.06-.061.06-.061.121-.061.182l.545.788-.121.363-.545-.909a.185.185 0 00-.243 0l-.545.91-.242-.364.545-.788c.06-.06 0-.122-.061-.182-.06-.06-.121 0-.181.06l-.425.607-.122-.364.365-.485c.06-.06 0-.121-.061-.182-.06-.06-.121 0-.182.06l-.242.364-.121-.303.181-.242c.06-.06 0-.121-.06-.182-.061-.06-.121 0-.183.06l-.06.122-.121-.242c0-.061-.122-.122-.182-.061-.06 0-.121.121-.06.182l.12.303-.241-.06a.13.13 0 00-.122.12c0 .061.06.122.122.122l.363.06.121.303-.484-.06a.13.13 0 00-.122.12c0 .061.06.122.122.122l.666.121.121.303-.666-.12a.13.13 0 00-.121.12c0 .06.06.122.12.122l.849.12.122.364-1.091-.181c-.062 0-.062 0-.122.06 0 .06-.06.06-.06.121l.182 1.091-.365-.12-.12-.85c0-.06-.061-.12-.121-.12a.13.13 0 00-.122.12v.607l-.303-.122-.122-.666a.13.13 0 00-.12-.121c-.06 0-.121.06-.121.12l.06.486-.303-.122-.06-.363c0-.06-.062-.121-.122-.121a.13.13 0 00-.12.12l.06.243-.304-.121c-.06 0-.12 0-.182.06 0 .061 0 .122.062.182l.241.122-.12.06c-.06.06-.06.121-.06.182 0 .06.06.06.12.06h.06l.243-.181.303.121-.364.242c-.06.061-.06.122-.06.182s.06.06.121.06h.06l.485-.363.365.121-.607.425c-.06.06-.06.12-.06.182 0 .06.06.06.12.06h.062l.788-.545.363.182-.91.545c-.06 0-.06.06-.06.121 0 .06 0 .06.06.121l.91.546-.363.121-.788-.545c-.062-.061-.122 0-.183.06-.06.06 0 .121.061.182l.607.424-.365.121-.485-.363c-.06-.06-.12 0-.18.06-.061.061 0 .122.06.182l.363.243-.303.12-.243-.18c-.06-.062-.12 0-.18.06-.061.06 0 .12.06.182l.12.06-.241.121c-.062 0-.122.122-.062.182 0 .06.122.121.182.06l.303-.12-.06.242c0 .06.06.121.121.121.06 0 .122-.06.122-.121l.06-.364.303-.12-.06.484c0 .06.06.121.12.121a.13.13 0 00.121-.121l.122-.667.303-.12-.121.666c0 .06.06.121.121.121.06 0 .122-.06.122-.121l.12-.849.364-.12-.181 1.09c0 .06 0 .06.06.121.06 0 .06.06.121.06l1.09-.181-.12.364-.848.12a.13.13 0 00-.122.122c0 .06.06.121.122.121l.666-.121-.122.303-.666.121c-.06 0-.121.06-.121.121s.06.122.121.122l.485-.06-.122.302-.363.06c-.06 0-.121.061-.121.122 0 .06.06.121.121.121l.243-.06-.121.303c0 .06 0 .12.06.181h.06c.061 0 .121-.06.121-.06l.122-.243.06.122c0 .06.061.06.121.06h.062c.06-.06.06-.121.06-.182l-.182-.242.122-.303.241.364c0 .06.062.06.122.06h.06c.062-.06.062-.121.062-.182l-.364-.485.12-.363.425.606c0 .06.06.06.122.06h.06c.06-.06.06-.12.06-.181l-.545-.788.122-.364.545.91c0 .06.06.06.12.06.062 0 .062 0 .122-.06l.546-.91.121.364-.545.788c-.061.06 0 .12.06.182h.06c.06 0 .06 0 .122-.061l.424-.606.12.363-.362.485c-.061.06 0 .122.06.182h.061c.06 0 .06 0 .12-.06l.244-.364.12.303-.18.242c-.062.061 0 .122.06.182h.06c.06 0 .06 0 .12-.06l.062-.122.12.243c0 .06.062.06.122.06h.061c.06 0 .12-.12.06-.181l-.121-.303.243.06c.06 0 .121-.06.121-.121 0-.06-.061-.121-.121-.121l-.364-.06-.12-.304.484.06c.06 0 .121-.06.121-.12 0-.061-.061-.122-.121-.122l-.667-.12-.12-.304.666.121c.06 0 .121-.06.121-.121 0-.06-.061-.121-.121-.121l-.85-.121-.12-.364 1.091.182c.06 0 .06 0 .121-.06 0-.061.06-.061.06-.122l-.181-1.09.363.12.122.849c0 .06.06.121.121.121.06 0 .121-.06.121-.121l-.121-.667.303.121.121.667c0 .06.06.121.12.121a.13.13 0 00.122-.121l-.06-.485.303.121.06.364c0 .06.061.121.122.121.06 0 .121-.06.121-.121l-.061-.242.303.12c.061 0 .121 0 .182-.06.242-.06.182-.121.121-.121zm-4.909-19.09l-1.333-.242-.364-.97.303-.121c.06 0 .06-.06.122-.06l.12-.304.97.364.182 1.333zm-2.363.91l-.728-1.092.364-.848.303.12h.121l.303-.12.364.848-.727 1.091zm-2.303-.91l.242-1.333.97-.364.12.303c0 .06.062.06.122.06l.303.122-.363.97-1.394.242zm-.91-2.303l1.091-.727.849.363-.121.303v.122l.12.303-.848.363-1.09-.727zm.91-2.364l1.333.243.364.97-.303.12c-.061 0-.061.061-.122.061l-.12.303-.97-.363-.182-1.334zm2.303-.909l.727 1.091-.364.849-.303-.122h-.121l-.303.122-.364-.849.728-1.09zm2.363.91l-.242 1.333-.97.363-.121-.303c0-.06-.06-.06-.121-.06l-.303-.122.363-.97 1.394-.242zm-1.272 2.363l-.061.242-.121.303-.06.243-.243.06-.303.122-.243.06-.242-.06-.303-.122-.243-.06-.06-.243-.121-.303-.061-.242.06-.242.122-.303.06-.243.243-.06.303-.122.242-.06.243.06.303.122.242.06.06.243.122.303.06.242zm1.09-.727l1.091.727-1.09.727-.849-.363.121-.303v-.122l-.121-.303.848-.363zm2.97 2.606l-.303-.121.182-.122c.06-.06.121-.12.06-.242-.06-.06-.12-.121-.242-.06l-.303.242-.364-.121.425-.303c.06-.061.12-.122.06-.243-.06-.06-.12-.121-.242-.06l-.606.424-.424-.182.787-.546c.061-.06.122-.12.061-.242-.06-.06-.121-.121-.242-.06l-.97.666-.485-.182 1.091-.727c.06 0 .06-.06.06-.121 0-.06 0-.121-.06-.121l-1.09-.728.484-.182.97.667h.06c.06 0 .121 0 .121-.06.061-.061.061-.182-.06-.243l-.788-.545.424-.182.606.424h.06c.061 0 .122 0 .122-.06.06-.061.06-.182-.06-.243l-.425-.303.364-.121.303.242h.06c.061 0 .122 0 .122-.06.06-.061 0-.182-.06-.243l-.183-.121.303-.121c.06-.06.122-.121.06-.182-.06-.06-.12-.121-.18-.06l-.365.12.061-.302c0-.061-.06-.182-.121-.182-.06 0-.182.06-.182.12l-.06.486-.364.121.121-.606c0-.06-.06-.182-.121-.182-.06 0-.182.06-.182.121l-.121.849-.364.121.121-.848c0-.061-.06-.182-.12-.182-.061 0-.183.06-.183.12l-.181 1.031-.425.182.243-1.333c0-.06 0-.121-.06-.121-.062-.061-.062-.061-.122-.061l-1.333.242.181-.424 1.03-.182c.061 0 .122-.12.122-.182 0-.06-.121-.12-.182-.12l-.848.12.12-.363.85-.121c.06 0 .12-.122.12-.182s-.12-.121-.181-.121l-.606.12.12-.363.486-.06c.06 0 .12-.122.12-.182s-.12-.121-.18-.121l-.304.06.121-.364c.06-.06 0-.181-.06-.181-.061-.06-.182 0-.182.06l-.121.303-.122-.182c-.06-.06-.12-.12-.242-.06-.06.06-.121.121-.06.242l.242.364-.121.364-.303-.425c-.061-.06-.122-.12-.243-.06-.06.06-.121.12-.06.242l.424.606-.182.424-.546-.787c-.06-.061-.12-.122-.242-.061-.06.06-.121.121-.06.242l.666.97-.182.485-.727-1.091a.184.184 0 00-.242 0l-.728 1.09-.181-.484.666-.97c.06-.06 0-.181-.06-.242-.061-.06-.182-.06-.243.06l-.545.788-.182-.424.424-.606c.06-.06.06-.182-.06-.242-.061-.06-.182 0-.243.06l-.303.425-.121-.364.242-.364c.06-.06 0-.182-.06-.242s-.182 0-.243.06l-.121.182-.121-.303c-.06-.06-.121-.12-.182-.06-.06.06-.121.12-.06.181l.12.364-.302-.06c-.061 0-.182.06-.182.12 0 .061.06.183.121.183l.788.181.121.364-.606-.121c-.06 0-.182.06-.182.121 0 .06.06.182.121.182l.849.121.121.364-.848-.122c-.061 0-.182.061-.182.122 0 .06.06.181.121.181l1.03.182.182.425-1.333-.243c-.06 0-.121 0-.121.06-.061.061-.061.061-.061.122l.242 1.333-.424-.182-.182-1.03c0-.06-.12-.121-.181-.121s-.122.121-.122.182l.122.848-.364-.121-.121-.848c0-.061-.122-.122-.182-.122s-.121.122-.121.182l.12.606-.423-.06-.061-.485c0-.06-.121-.121-.182-.121-.06 0-.121.12-.121.181l.06.303-.363-.12c-.06-.061-.182 0-.182.06-.06.06 0 .182.06.182l.304.12-.182.122c-.06.06-.121.121-.06.242.06.061.06.061.12.061h.061l.303-.242.364.12-.424.304c-.061.06-.122.121-.061.242.06.06.06.06.121.06h.06l.607-.423.424.181-.788.546c-.06.06-.121.121-.06.242.06.061.06.061.12.061h.061l.97-.667.485.182-1.09.727c-.062.061-.062.061-.062.122 0 .06 0 .12.061.12l1.091.728-.485.182-.97-.667c-.06-.06-.181-.06-.242.06-.06.061-.06.183.06.243l.788.546-.424.182-.606-.425c-.06-.06-.182 0-.242.06-.06.062 0 .183.06.243l.425.303-.364.122-.303-.243c-.06-.06-.182 0-.242.06-.061.061-.061.183.06.243l.182.121-.303.122c-.06.06-.121.12-.06.181.06.061.12.122.181.061l.364-.121-.06.303c0 .06.06.182.12.182.061 0 .122-.06.182-.122l.06-.484.364-.122-.12.606c0 .061.06.182.12.182.061 0 .122-.06.182-.12l.121-.85.364-.12-.121.848c0 .06.06.182.121.182.06 0 .121-.06.182-.122l.182-1.03.424-.182-.242 1.334c0 .06 0 .12.06.12.06.061.06.061.121.061l1.334-.242-.182.424-1.03.182c-.061 0-.122.121-.122.182 0 .06.122.121.182.121l.849-.121-.122.364-.848.12c-.06 0-.121.122-.121.183 0 .06.121.12.182.12l.606-.12-.122.363-.484.06c-.061 0-.122.122-.122.183 0 .06.122.12.182.12l.303-.06-.121.364c-.06.06 0 .182.06.182h.061a.13.13 0 00.121-.121l.122-.304.12.182c.061.06.061.06.122.06h.06c.061-.06.122-.12.061-.242l-.242-.363.182-.364.303.424c.06.061.06.061.12.061h.062c.06-.06.12-.121.06-.242l-.424-.606.182-.425.545.788c.06.06.06.06.121.06h.061c.061-.06.121-.12.061-.242l-.667-.97.182-.484.727 1.09c.061.061.061.061.121.061s.121 0 .121-.06l.728-1.091.182.485-.667.97c-.06.06 0 .181.06.242h.061c.061 0 .121 0 .121-.06l.546-.789.182.425-.425.606c-.06.06 0 .181.06.242h.062c.06 0 .121 0 .121-.06l.303-.425.182.364-.243.363c-.06.061-.06.182.061.243h.06c.061 0 .122 0 .122-.06l.121-.183.121.304c0 .06.06.12.121.12h.061c.06-.06.121-.12.06-.181l-.12-.364h.605c.06 0 .182-.06.182-.12 0-.062-.06-.183-.121-.183l-.485-.06-.121-.364.606.121c.06 0 .182-.06.182-.121 0-.06-.06-.182-.122-.182l-.848-.121-.121-.364.848.122c.06 0 .182-.061.182-.122 0-.06-.06-.181-.121-.181l-1.03-.182-.182-.425 1.333.243c.06 0 .121 0 .121-.06.06-.061.06-.061.06-.122l-.242-1.333.425.182.182 1.03c0 .06.06.121.181.121.061 0 .122-.121.122-.182l-.122-.848.364.121.121.848c0 .061.06.122.182.122.06 0 .121-.122.121-.182l-.121-.606.364.121.06.485c0 .06.06.121.182.121.06 0 .121-.121.121-.182l-.06-.303.363.121c.06.061.182 0 .182-.06.121-.182.121-.243 0-.303zM52.97 31.993l-.727-.303.666-.363c.06-.06.121-.182.06-.243-.06-.06-.181-.12-.242-.06l-.909.545-.545-.182.667-.363c.06-.06.12-.182.06-.243-.06-.06-.182-.12-.242-.06l-.97.545-1.879-.727 1.879-.727.97.545h.06c.06 0 .122-.06.182-.121.06-.06 0-.182-.06-.243l-.667-.363.545-.182.91.545h.12c.061 0 .122-.06.182-.12.061-.061 0-.183-.06-.243l-.727-.485.727-.303c.121-.06.121-.121.121-.242-.06-.122-.121-.122-.242-.122l-.788.303.242-.788c0-.12 0-.181-.121-.242-.121 0-.182.06-.242.121l-.304 1.152-.545.182.242-.788c0-.122 0-.182-.12-.243-.122 0-.183.06-.243.121l-.303 1.03-2 .728.727-2 1.03-.303c.122 0 .182-.121.122-.242 0-.122-.122-.182-.243-.122l-.788.243.182-.546 1.091-.303c.121 0 .182-.12.121-.242 0-.121-.121-.182-.242-.121l-.788.242.303-.788c.06-.121 0-.182-.121-.242s-.182 0-.243.121l-.303.727-.363-.666c-.061-.061-.182-.122-.243-.061-.06.06-.121.182-.06.242l.545.91-.182.545-.363-.667c0 .06-.122 0-.243.06-.06.062-.121.183-.06.243l.545.97-.727 1.879-.728-1.879.546-.97c.06-.06 0-.181-.06-.242-.061-.06-.182 0-.243.06l-.364.667-.182-.545.546-.91c.06-.06 0-.181-.06-.242-.061-.06-.183 0-.243.06l-.364.668-.424-.788c-.06-.122-.121-.122-.242-.122-.122.061-.122.122-.122.243l.303.788-.787-.243c-.122 0-.182 0-.243.122 0 .12 0 .181.121.242l1.091.303.182.545-.788-.242c-.121 0-.182 0-.242.121 0 .121.06.182.12.243l1.031.303.728 2-2-.728-.304-1.03c0-.121-.12-.182-.242-.121-.121 0-.182.121-.121.242l.242.788-.545-.182-.303-1.09c0-.122-.121-.182-.243-.122-.12 0-.181.121-.12.243l.242.788-.788-.303c-.122-.061-.182 0-.243.12-.06.122 0 .183.121.243l.728.303-.667.364c-.06.06-.121.182-.06.242.06.06.12.121.181.121h.06l.91-.545.545.182-.666.363c-.06.061-.121.182-.06.243.06.06.12.121.181.121h.06l.97-.545 1.88.727-1.88.727-.97-.545c-.06-.06-.181 0-.242.06-.06.06 0 .182.06.243l.667.363-.363.182-.91-.545c-.06-.06-.181 0-.242.06-.06.061 0 .182.06.243l.668.363-.788.303c-.122.061-.122.122-.122.243 0 .06.122.121.182.121h.06l.789-.303-.243.788c0 .121 0 .182.122.242h.06c.06 0 .182-.06.182-.12l.303-1.092.545-.182-.242.788c0 .122 0 .182.121.243h.06c.061 0 .183-.06.183-.121l.303-1.03 2-.728-.728 2-1.03.303c-.121 0-.182.121-.121.242 0 .122.121.182.242.122l.788-.243-.182.546-1.09.303c-.122 0-.182.12-.122.242 0 .121.122.182.243.121l.788-.242-.303.788c-.061.121 0 .182.12.242.122.06.183 0 .243-.121l.303-.727.364.666c.06.061.121.122.182.122h.12c.062-.061.122-.182.062-.243l-.546-.909.182-.545.364.666c.06.06.12.121.181.121h.122c.06-.06.12-.181.06-.242l-.545-.97.727-1.878.727 1.878-.545.97c-.06.06 0 .182.06.242h.122c.06 0 .12-.06.181-.12l.364-.667.182.545-.546.91c-.06.06 0 .181.061.242h.121c.06 0 .121-.061.182-.122l.364-.666.303.727c0 .06.12.121.182.121h.06c.121-.06.121-.121.121-.242l-.303-.788.788.242c.121 0 .182-.06.243-.12 0-.122 0-.183-.122-.243l-1.212-.425-.182-.545.788.242c.122 0 .182-.06.243-.12 0-.122-.06-.183-.121-.243l-1.03-.303-.728-2 2 .727.303 1.03c0 .06.121.122.182.122h.06c.122 0 .182-.122.122-.243l-.364-.667.545.182.304 1.091c0 .06.12.121.181.121h.06c.122 0 .183-.12.122-.242l-.242-.788.788.303h.06c.06 0 .121-.06.182-.121.06-.06 0-.182-.121-.243M26.546 12.66l-.607-.242.485-.303c.06-.06.122-.121.06-.182-.06-.06-.12-.121-.18-.06l-.668.424-.424-.182.546-.303c.06-.06.12-.122.06-.182s-.121-.121-.182-.06l-.727.424-1.454-.546 1.454-.545.727.424h.061c.06 0 .121 0 .121-.06.06-.061 0-.183-.06-.183l-.546-.303.424-.181.728.424h.06c.06 0 .122 0 .122-.06.06-.061 0-.183-.061-.183L26 10.478l.606-.242c.06 0 .121-.121.06-.182 0-.06-.12-.121-.181-.06l-.606.242.182-.606c0-.06 0-.182-.122-.182-.06 0-.181 0-.181.121l-.243.849-.424.06.182-.606c0-.06 0-.182-.121-.182-.061 0-.182 0-.182.122l-.243.788-1.515.606.606-1.516.788-.242c.06 0 .121-.121.121-.182 0-.06-.12-.121-.181-.121l-.607.182.182-.424.849-.243c.06 0 .121-.121.121-.182 0-.06-.121-.12-.182-.12l-.606.181.243-.606c0-.06 0-.182-.061-.182-.06 0-.182 0-.182.06l-.242.607-.303-.485c-.061-.06-.122-.121-.182-.06-.06.06-.121.12-.06.181l.423.727-.242.485-.303-.545c-.06-.06-.121-.121-.182-.06-.06.06-.121.12-.06.181l.424.727-.606 1.515-.546-1.454.425-.727c.06-.061 0-.182-.061-.182-.06-.06-.182 0-.182.06l-.303.485-.182-.424.425-.727c.06-.06 0-.182-.061-.182-.06-.06-.182 0-.182.06L22 8.479l-.242-.606c0-.06-.122-.12-.182-.06-.06 0-.121.12-.06.182l.242.606-.606-.182c-.061 0-.182 0-.182.121 0 .06 0 .182.121.182l.848.242.182.424-.606-.181c-.06 0-.182 0-.182.12 0 .061 0 .183.122.183l.787.242.607 1.515-1.516-.606-.242-.788c0-.06-.121-.12-.182-.12-.06 0-.121.12-.121.18l.182.607-.424-.182-.243-.848c0-.06-.121-.122-.182-.122-.06 0-.12.122-.12.182l.18.606-.605-.242c-.06 0-.182 0-.182.06 0 .061 0 .182.06.182l.607.243-.485.303c-.06.06-.121.121-.06.182 0 .06.06.06.12.06h.061l.727-.424.425.182-.607.363c-.06.061-.12.122-.06.182 0 .06.06.06.121.06h.06l.728-.423 1.455.545-1.455.546-.727-.425c-.06-.06-.182 0-.182.06-.06.061 0 .183.06.183l.546.303-.424.182-.728-.425c-.06-.06-.181 0-.181.06-.061.062 0 .183.06.183l.485.303-.606.242c-.06 0-.121.121-.06.182 0 .06.06.121.12.121h.061l.606-.242-.182.606c0 .06 0 .182.122.182h.06a.13.13 0 00.121-.122l.243-.848.424-.182-.182.606c0 .06 0 .182.122.182h.06a.13.13 0 00.121-.121l.243-.788 1.515-.606-.606 1.515-.849.364c-.06 0-.12.12-.12.181s.12.122.181.122L22 13.63l-.182.424-.848.243c-.06 0-.121.12-.121.181s.12.122.181.122l.606-.182-.242.606c0 .06 0 .182.06.182.061 0 .182 0 .182-.061l.243-.606.303.485c0 .06.06.06.121.06h.06c.061-.06.122-.12.061-.181l-.303-.788.182-.425.303.546c0 .06.06.06.121.06h.06c.062-.06.122-.12.062-.181l-.425-.728.546-1.454.545 1.454-.363.667c-.061.06 0 .182.06.182h.06c.061 0 .122 0 .122-.06l.303-.546.182.424-.424.727c-.061.061 0 .182.06.182h.06c.061 0 .122 0 .122-.06l.303-.485.242.606c0 .06.061.121.122.121h.06c.06 0 .122-.121.06-.182l-.242-.606.607.182c.06 0 .181 0 .181-.121 0-.06 0-.182-.12-.182l-.85-.242-.181-.425.606.182c.06 0 .182 0 .182-.121 0-.06 0-.182-.121-.182l-.788-.242-.606-1.516 1.515.607.242.787c0 .061.06.122.121.122h.061c.06 0 .121-.122.121-.182l-.182-.606.425.182.242.848c0 .06.06.121.121.121h.06c.061 0 .122-.12.122-.182l-.182-.606.606.243h.06a.13.13 0 00.122-.121c.06-.122.06-.182-.06-.243m7.515 25.637l-.485-.183.424-.242c.06-.06.06-.12.06-.181-.06-.062-.12-.062-.181-.062l-.606.365-.364-.122.424-.243c.06-.06.06-.12.06-.18-.06-.061-.12-.061-.18-.061l-.607.363-1.273-.485 1.273-.484.606.363h.06c.061 0 .061 0 .122-.06.06-.062 0-.122-.06-.183l-.425-.242.364-.12.606.362h.06c.061 0 .061 0 .122-.06.06-.06 0-.122-.061-.182l-.424-.243.485-.18c.06 0 .12-.123.06-.183 0-.06-.121-.12-.182-.06l-.484.182.12-.546c0-.06 0-.122-.06-.182-.06 0-.121 0-.182.06l-.181.728-.304.181.122-.545c0-.06 0-.12-.06-.182-.062 0-.122 0-.183.061l-.182.788-1.333.484.485-1.333.727-.182c.06 0 .121-.06.06-.181 0-.06-.06-.122-.181-.06l-.545.12.12-.363.728-.182c.06 0 .121-.061.06-.182 0-.06-.06-.12-.181-.06l-.546.121.182-.546c0-.06 0-.12-.06-.182-.061 0-.122 0-.182.061l-.182.485-.06-.303c-.061-.061-.122-.061-.182-.061-.061.061-.061.121-.061.182l.364.606-.182.364-.243-.425c-.06-.06-.12-.06-.181-.06-.061.06-.061.121-.061.182l.364.606-.485 1.272-.485-1.272.363-.606c.061-.06 0-.122-.06-.182-.06-.061-.121 0-.182.06l-.182.425-.121-.364.364-.606c.06-.06 0-.12-.06-.182-.062-.06-.122 0-.183.061l-.242.424-.182-.485c0-.06-.121-.12-.182-.06-.06 0-.121.121-.06.181l.181.546-.545-.121c-.06 0-.121 0-.182.06 0 .061 0 .121.06.182l.728.182.121.363-.545-.121c-.06 0-.121 0-.182.061 0 .06 0 .121.06.182l.728.181.485 1.334-1.212-.606-.182-.728c0-.06-.06-.12-.182-.06-.06 0-.121.06-.06.182l.12.546-.363-.122-.182-.788c0-.06-.06-.12-.182-.06-.06 0-.121.06-.06.181l.12.546-.484-.243c-.06 0-.121 0-.182.061 0 .06 0 .122.06.182l.486.181-.364.243c-.06.06-.06.122-.06.182s.06.06.12.06h.061l.606-.363.364.121-.485.242c-.06.061-.06.121-.06.183 0 .06.06.06.12.06h.061l.606-.363 1.273.484-1.212.485-.606-.363c-.06-.062-.121 0-.182.06-.06.06 0 .121.06.181l.425.243-.364.122-.606-.365c-.06-.06-.121 0-.182.062-.06.06 0 .12.061.181l.424.242-.485.183c-.06 0-.12.12-.06.182 0 .06.06.06.121.06h.06l.546-.182-.121.546c0 .06 0 .12.06.182h.061c.06 0 .121-.062.121-.062l.182-.726.364-.121-.121.544c0 .062 0 .122.06.183h.06c.061 0 .122-.061.122-.121l.182-.728 1.333-.485-.485 1.334-.848.06c-.06 0-.121.06-.06.182 0 .06.06.121.181.06l.545-.12-.12.363-.728.181c-.06 0-.121.062-.06.183 0 .06.06.12.181.06l.546-.121-.182.546c0 .06 0 .12.06.182.061 0 .122 0 .182-.061l.182-.486.242.425c0 .06.061.06.122.06h.06c.06-.06.06-.12.06-.181l-.363-.607.121-.363.243.425c0 .06.06.06.121.06h.06c.061-.06.061-.122.061-.182l-.363-.606.485-1.272.484 1.272-.363.606c-.06.06 0 .122.06.182h.06c.062 0 .062 0 .122-.06l.243-.425.12.363-.363.607c-.06.06 0 .12.06.182h.061c.061 0 .061 0 .122-.061l.242-.425.182.486c0 .06.06.06.121.06h.06c.061 0 .122-.121.061-.181l-.182-.546.546.121c.06 0 .121 0 .182-.06 0-.061 0-.121-.06-.183l-.728-.181-.121-.363.545.12c.06 0 .121 0 .182-.06 0-.06 0-.122-.06-.182L32 38.782l-.485-1.334 1.333.484.182.728c0 .06.06.122.122.122h.06c.06 0 .121-.062.06-.182l-.424-.546.364.122.182.727c0 .06.06.06.121.06h.06c.061 0 .122-.06.061-.181l-.181-.485.545.182h.06c.061 0 .122-.062.122-.062 0-.06-.06-.12-.121-.12m67.878-7.455l-.303-.12.303-.183c.061 0 .061-.06.061-.12 0-.062-.06-.062-.121-.062l-.424.243-.243-.122.303-.181c.06 0 .06-.061.06-.122 0-.06-.06-.06-.12-.06l-.425.242-.848-.303.848-.303.425.243h.06s.06 0 .06-.061 0-.061-.06-.121l-.303-.182.243-.121.424.242h.06s.061 0 .061-.06c0-.061 0-.061-.06-.122l-.304-.181.303-.122c.061 0 .061-.06.061-.121 0-.06-.06-.06-.121-.06l-.364.12.121-.363c0-.06 0-.06-.06-.122-.06 0-.06 0-.121.062l-.122.484-.242.06.121-.363c0-.06 0-.06-.06-.121-.061 0-.061 0-.122.06l-.12.486-.85.303.304-.85.484-.12c.061 0 .061-.061.061-.121 0-.061-.06-.061-.121-.061l-.364.12.06-.242.486-.12c.06 0 .06-.061.06-.121 0-.062-.06-.062-.12-.062l-.365.122.122-.363c0-.062 0-.062-.06-.122-.062 0-.062 0-.122.06l-.121.303-.182-.303c0-.06-.06-.06-.121-.06s-.061.06-.061.122l.242.424-.12.242-.183-.303c0-.06-.06-.06-.12-.06-.061 0-.061.06-.061.12l.242.424-.303.849-.303-.849.242-.423c0-.061 0-.061-.06-.121-.06 0-.06 0-.121.06l-.182.303-.121-.242.242-.424c0-.062 0-.062-.06-.122-.061 0-.061 0-.122.06l-.182.303-.12-.303c0-.06-.062-.06-.122-.06s-.06.06-.06.122l.12.363-.363-.122c-.06 0-.06 0-.121.062 0 .06 0 .06.06.12l.485.121.06.243-.363-.121c-.06 0-.06 0-.121.06 0 .06 0 .06.06.121l.485.122.303.849-.848-.303-.121-.485c0-.061-.061-.061-.122-.061-.06 0-.06.06-.06.12l.121.365-.242-.061-.122-.484c0-.062-.06-.062-.12-.062-.061 0-.061.062-.061.122l.12.364-.363-.121c-.06 0-.06 0-.121.06 0 .06 0 .06.06.12l.304.123-.303.181c-.061 0-.061.06-.061.122l.06.06h.061l.424-.242.243.12-.303.183c-.06 0-.06.06-.06.12l.06.062h.06l.97-.122.849.303-.849.303-.424-.242c-.06 0-.06 0-.121.06 0 .06 0 .06.06.122l.303.182-.242.121-.424-.243c-.061 0-.061 0-.122.06 0 .062 0 .062.061.122l.303.182-.303.12c-.06 0-.06.062-.06.122s.06.06.06.06l.364-.12-.122.363c0 .06 0 .06.061.122.06 0 .06 0 .06-.061l.122-.485.242-.06-.12.363c0 .061 0 .061.06.121.06 0 .06 0 .06-.06l.121-.485.849-.303-.303.848-.485.122c-.06 0-.06.06-.06.121 0 .06.06.06.12.06l.364-.121-.06.243-.485.121c-.06 0-.06.06-.06.12 0 .062.06.062.12.062l.364-.122-.121.364c0 .061 0 .061.06.121.061 0 .061 0 .122-.06l.12-.303.183.303.06.06h.061c.06 0 .06-.06.06-.121l-.242-.424.121-.243.182.303.06.06h.061c.061 0 .061-.06.061-.12l-.242-.424.303-.85.303.85-.243.424c0 .06 0 .06.06.12h.061s.061 0 .061-.06l.182-.303.121.243-.242.424c0 .061 0 .061.06.121h.061s.06 0 .06-.06l.182-.303.121.303c0 .06.061.06.061.06.06 0 .06-.06.06-.121l-.12-.364.363.122c.06 0 .06 0 .121-.061 0-.06 0-.06-.06-.12l-.485-.122-.06-.243.364.121c.06 0 .06 0 .12-.06 0-.061 0-.061-.06-.121l-.485-.122-.303-.848.848.303.121.485c0 .06.062.06.062.06.06 0 .06-.06.06-.121l-.122-.363.243.06.122.485c0 .061.06.061.06.061.06 0 .06-.061.06-.122l-.12-.363.363.12c.06 0 .06 0 .06-.06-.06-.181-.121-.242-.182-.242M87.212 17.569l-.424-.181.363-.182c.061 0 .061-.06.061-.122 0-.06-.061-.06-.121-.06l-.485.242-.303-.12.364-.183c.06 0 .06-.06.06-.12 0-.062-.06-.062-.12-.062l-.486.303-.97-.363.97-.364.485.303h.06c.061 0 .061 0 .061-.06 0-.061 0-.122-.06-.122l-.364-.181.303-.122.485.243h.06c.061 0 .061 0 .061-.06 0-.061 0-.122-.061-.122l-.363-.182.424-.182c.06 0 .06-.06.06-.12 0-.061-.06-.061-.121-.061l-.424.181.121-.424c0-.06 0-.121-.06-.121s-.121 0-.121.06l-.182.546-.303.121.121-.424c0-.06 0-.121-.061-.121-.06 0-.12 0-.12.06l-.183.546-1.03.424.424-1.03.546-.182c.06 0 .06-.06.06-.121 0-.06-.06-.06-.12-.06l-.425.12.121-.303.546-.182c.06 0 .06-.06.06-.12 0-.061-.06-.061-.12-.061l-.425.12.182-.423c0-.061 0-.122-.06-.122-.062 0-.122 0-.122.061l-.182.424-.182-.363c0-.061-.06-.061-.121-.061s-.061.06-.061.121l.243.485-.121.303-.182-.364c0-.06-.06-.06-.121-.06s-.061.06-.061.121l.303.485-.364.97-.363-.97.303-.485c0-.06 0-.121-.06-.121-.061 0-.122 0-.122.06l-.182.364-.121-.303.242-.485c0-.06 0-.121-.06-.121s-.121 0-.121.06l-.182.364-.182-.424c0-.06-.061-.06-.121-.06s-.06.06-.06.12l.18.425-.423-.121c-.06 0-.122 0-.122.06s0 .121.061.121l.546.182.12.303-.424-.12c-.06 0-.121 0-.121.06s0 .12.06.12l.546.183.425 1.03-1.031-.424-.182-.546c0-.06-.06-.06-.121-.06-.06 0-.06.06-.06.12l.12.425-.302-.121-.182-.545c0-.061-.06-.061-.121-.061s-.061.06-.061.121l.121.424-.424-.181c-.06 0-.121 0-.121.06s0 .121.06.121l.425.182-.364.182c-.06 0-.06.06-.06.121 0 .06.06.06.06.06h.06l.486-.242.303.122-.364.181c-.06 0-.06.061-.06.122 0 .06.06.06.06.06h.06l.485-.303.97.364-.97.363-.484-.303c-.061 0-.122 0-.122.061 0 .06 0 .121.061.121l.364.182-.303.121-.485-.242c-.061 0-.121 0-.121.06 0 .061 0 .122.06.122l.364.182-.424.181c-.061 0-.061.06-.061.122 0 .06.06.06.12.06h.062l.424-.182-.121.425c0 .06 0 .12.06.12.061 0 .061 0 .122-.06l.181-.545.303-.121-.121.424c0 .06 0 .121.06.121.061 0 .061 0 .122-.06l.182-.546 1.03-.424-.424 1.03-.546.182c-.06 0-.06.06-.06.121 0 .06.06.06.121.06l.424-.12-.12.302-.546.182c-.06 0-.06.06-.06.121s.06.061.12.061l.425-.121-.182.424c0 .06 0 .121.06.121s.122 0 .122-.06l.18-.425.183.364c0 .06.06.06.06.06h.06c.062 0 .062-.06.062-.12l-.242-.485.12-.303.183.363c0 .06.06.06.06.06h.06c.06 0 .06-.06.06-.12l-.302-.485.364-.97.364.97-.303.485c0 .06 0 .12.06.12h.06c.06 0 .06 0 .06-.06l.183-.363.12.303-.241.484c0 .061 0 .122.06.122h.061c.06 0 .06 0 .06-.06l.183-.365.18.425c0 .06.062.06.123.06h.06c.06 0 .06-.06.06-.12l-.18-.425.423.121c.06 0 .12 0 .12-.06 0-.061 0-.122-.06-.122l-.545-.182-.12-.303.423.122c.061 0 .122 0 .122-.061 0-.06 0-.121-.06-.121l-.546-.182-.425-1.03 1.03.424.182.545c0 .061.061.061.122.061.06 0 .06-.06.06-.121l-.12-.424.302.12.182.546c0 .06.06.06.121.06.06 0 .06-.06.06-.12l-.12-.425.424.182h.06c.061 0 .061 0 .122-.06-.182-.061-.182-.122-.243-.122m29.212 19.819l-.606-.243.545-.303c.061-.06.122-.122.061-.182-.06-.06-.12-.12-.182-.06l-.727.423-.424-.18.545-.304c.061-.06.121-.122.061-.182-.061-.06-.121-.12-.182-.06l-.727.423-1.515-.544 1.515-.546.727.424h.061c.06 0 .121 0 .121-.06.06-.06 0-.183-.061-.183l-.545-.303.424-.181.727.424h.061c.06 0 .121 0 .121-.06.061-.06 0-.183-.06-.183l-.546-.303.606-.242c.061 0 .121-.12.061-.182 0-.06-.122-.12-.182-.06l-.606.242.182-.667c0-.06 0-.181-.122-.181-.06 0-.181 0-.181.121l-.243.848-.424.182.182-.606c0-.06 0-.182-.121-.182-.06 0-.182 0-.182.121l-.243.85-1.575.605.606-1.576.848-.242c.061 0 .121-.121.121-.182 0-.06-.121-.12-.181-.12l-.606.18.181-.424.85-.242c.06 0 .12-.121.12-.182 0-.06-.12-.12-.182-.12l-.666.181.242-.606c0-.061 0-.182-.06-.182s-.182 0-.182.06l-.243.607-.303-.546c-.06-.06-.12-.12-.182-.06-.06.06-.121.121-.06.181l.424.728-.182.424-.303-.546c-.06-.06-.12-.121-.182-.06-.06.06-.121.121-.06.182l.424.727-.545 1.515-.546-1.515.424-.727c.061-.06 0-.182-.06-.182-.061-.061-.182 0-.182.06l-.303.546-.182-.424.424-.728c.061-.06 0-.181-.06-.181-.061-.06-.182 0-.182.06l-.303.546-.242-.606c0-.06-.122-.122-.182-.06-.061 0-.121.12-.061.181l.243.606-.667-.182c-.061 0-.182 0-.182.12 0 .062 0 .183.12.183l.85.242.182.425-.606-.182c-.061 0-.182 0-.182.121 0 .06 0 .182.121.182l.848.242.606 1.576-1.575-.606-.243-.849c0-.06-.121-.121-.181-.121-.062 0-.122.121-.122.182l.182.606-.424-.182-.243-.848c0-.061-.121-.121-.181-.121-.062 0-.122.121-.122.181l.182.667-.606-.242c-.06 0-.182 0-.182.06 0 .061 0 .182.06.182l.606.242-.544.303c-.062.061-.122.122-.062.182 0 .061.062.061.122.061h.06l.727-.424.425.181-.545.303c-.061.061-.121.122-.061.182 0 .061.06.061.121.061h.06l.728-.424 1.515.546-1.515.544-.728-.424c-.06-.06-.181 0-.181.061-.06.06 0 .182.06.182l.546.303-.425.181-.726-.424c-.061-.06-.183 0-.183.061-.06.06 0 .182.062.182l.544.303-.606.243c-.06 0-.12.12-.06.181 0 .06.06.122.122.122h.06l.606-.243-.182.666c0 .062 0 .183.122.183h.06c.06 0 .121-.061.121-.121l.243-.85.424-.18-.182.605c0 .06 0 .181.122.181h.06a.13.13 0 00.12-.12l.244-.849 1.575-.606-.606 1.575-.848.244c-.061 0-.121.12-.121.181 0 .06.121.122.182.122l.606-.182-.182.423-.85.243c-.06 0-.12.122-.12.182s.12.121.182.121l.667-.181-.243.606c0 .06 0 .181.06.181s.183 0 .183-.06l.242-.606.303.545c0 .06.06.06.12.06h.062c.06-.06.121-.12.06-.182l-.424-.726.182-.424.303.544c0 .062.06.062.12.062h.062c.06-.062.121-.122.06-.182l-.424-.727.546-1.516.545 1.516-.424.727c-.061.06 0 .182.06.182h.061c.06 0 .12 0 .12-.062l.304-.544.182.424-.424.726c-.061.062 0 .183.06.183h.061c.06 0 .12 0 .12-.061l.304-.545.243.606c0 .06.06.12.121.12h.06c.061 0 .122-.12.061-.181l-.242-.606.666.181c.061 0 .182 0 .182-.12 0-.061 0-.183-.12-.183l-.85-.241-.181-.425.606.182c.06 0 .181 0 .181-.122 0-.06 0-.181-.121-.181l-.848-.242-.606-1.577 1.575.606.243.85c0 .06.06.12.121.12h.06c.06 0 .122-.12.122-.182l-.182-.606.424.183.243.848c0 .06.06.121.121.121h.06c.061 0 .122-.121.122-.181l-.182-.668.606.243h.06a.13.13 0 00.122-.122c.06-.12.06-.18-.06-.241m21.938-32.183l-.363-.12.303-.183c.06 0 .06-.06.06-.12 0-.061-.06-.061-.12-.061l-.424.242-.243-.121.303-.182c.06 0 .06-.06.06-.121 0-.06-.06-.06-.12-.06l-.425.242-.91-.243.85-.303.423.243h.062s.06 0 .06-.061c0-.06 0-.121-.06-.121l-.303-.182.241-.121.425.242h.06s.06 0 .06-.06c0-.061 0-.122-.06-.122l-.302-.181.363-.122c.06 0 .06-.06.06-.12 0-.062-.06-.062-.12-.062l-.364.122.12-.364c0-.06 0-.121-.06-.121s-.12 0-.12.06l-.062.607-.241.12.12-.363c0-.06 0-.121-.06-.121s-.122 0-.122.06l-.12.485-.91.364.364-.91.484-.12c.062 0 .062-.06.062-.122 0-.06-.062-.06-.122-.06l-.364.121.121-.242.485-.122c.062 0 .062-.06.062-.12 0-.061-.062-.061-.122-.061l-.363.12.12-.363c0-.06 0-.121-.06-.121s-.122 0-.122.06l-.12.364-.183-.303c0-.06-.06-.06-.12-.06-.061 0-.061.06-.061.12l.243.425-.062.242-.181-.303c0-.06-.06-.06-.122-.06-.06 0-.06.06-.06.121l.242.424-.303.849-.303-.849.243-.424c0-.06 0-.121-.06-.121-.062 0-.122 0-.122.06l-.121.303-.122-.242.243-.424c0-.06 0-.121-.06-.121-.061 0-.121 0-.121.06l-.183.303-.12-.363c0-.061-.062-.061-.122-.061s-.06.06-.06.121l.12.364-.363-.121c-.06 0-.122 0-.122.06s0 .121.061.121l.486.122.12.242-.364-.121c-.06 0-.12 0-.12.06 0 .061 0 .122.06.122l.485.12.363.91-.909-.364-.12-.485c0-.06-.062-.06-.122-.06s-.06.06-.06.121l.12.364-.18-.121-.123-.485c0-.06-.06-.06-.12-.06s-.06.06-.06.12l.12.364-.364-.121c-.06 0-.121 0-.121.06s0 .122.061.122l.363.12-.303.183c-.06 0-.06.06-.06.12l.06.061h.061l.424-.242.242.121-.303.06c-.06 0-.06.061-.06.122l.06.06h.061l.424-.242.85.303-.85.303-.424-.242c-.06 0-.12 0-.12.06 0 .061 0 .122.06.122l.302.181-.242.122-.424-.243c-.06 0-.12 0-.12.06 0 .061 0 .122.06.122l.302.182-.363.121c-.061 0-.061.06-.061.121 0 .06.061.06.061.06l.363-.12-.121.363c0 .06 0 .122.061.122.06 0 .06 0 .06-.061l.121-.485.243-.121-.12.363c0 .061 0 .122.06.122s.06 0 .06-.06l.121-.486.91-.363-.364.909h-.304c-.06 0-.06.06-.06.12 0 .062.06.062.121.062l.364-.122-.121.243-.485.12c-.06 0-.06.062-.06.122s.06.06.12.06l.365-.12-.122.363c0 .06 0 .121.06.121.062 0 .122 0 .122-.06l.121-.364.182.303.06.06H136c.06 0 .06-.06.06-.12l-.241-.425.12-.242.183.303.06.06h.06c.061 0 .061-.06.061-.12l-.243-.425.303-.848.303.848-.241.424c0 .06 0 .122.06.122h.06s.061 0 .061-.061l.182-.303.121.242-.243.425c0 .06 0 .12.062.12h.06s.06 0 .06-.06l.183-.303.12.364c0 .06.061.06.061.06.06 0 .06-.06.06-.12l-.12-.364.364.12c.06 0 .12 0 .12-.06s0-.121-.06-.121l-.485-.121-.122-.243.365.122c.06 0 .12 0 .12-.061 0-.06 0-.121-.06-.121l-.485-.122-.364-.909.91.364.12.485c0 .06.062.06.062.06.06 0 .06-.06.06-.12l-.181-.364.241.12.122.486c0 .06.06.06.06.06.06 0 .06-.06.06-.12l-.12-.365.364.122c.06 0 .06 0 .06-.06.122 0 .122-.062.06-.062m-24.969.303l-.364-.12.303-.183c.061 0 .061-.06.061-.12 0-.061-.061-.061-.121-.061l-.424.242-.243-.121.243-.121c.06 0 .06-.061.06-.122 0-.06-.06-.06-.12-.06l-.486.242-.91-.363.91-.364.485.242h.06c.06 0 .06 0 .06-.06s0-.121-.06-.121l-.302-.182.242-.121.424.242h.061c.06 0 .06 0 .06-.06 0-.061 0-.122-.06-.122l-.303-.182.363-.12c.061 0 .061-.061.061-.122 0-.06-.061-.06-.121-.06l-.364.12.12-.363c0-.06 0-.121-.06-.121s-.12 0-.12.06l-.122.546-.242.12.12-.363c0-.06 0-.12-.06-.12s-.121 0-.121.06l-.181.606-.97.363.364-.97.484-.12c.061 0 .061-.061.061-.122 0-.06-.061-.06-.121-.06l-.364.12.12-.242.547-.12c.06 0 .06-.061.06-.122 0-.06-.06-.06-.121-.06l-.363.12.12-.363c0-.06 0-.121-.06-.121s-.121 0-.121.06l-.121.364-.182-.364c0-.06-.061-.06-.121-.06-.061 0-.061.06-.061.121l.243.424-.122.243-.181-.303c0-.061-.061-.061-.122-.061-.06 0-.06.06-.06.121l.242.485-.363.91-.364-.91.242-.485c0-.06 0-.121-.06-.121-.061 0-.121 0-.121.06l-.182.304-.122-.243.243-.424c0-.06 0-.121-.061-.121-.06 0-.122 0-.122.06l-.181.303-.122-.363c0-.06-.06-.06-.12-.06-.061 0-.061.06-.061.12l.121.364-.363-.121c-.061 0-.121 0-.121.06 0 .061 0 .122.06.122l.546.12.12.243-.363-.12c-.06 0-.122 0-.122.06s0 .12.062.12l.484.122.364.97-.97-.364-.121-.485c0-.06-.06-.06-.122-.06-.06 0-.06.06-.06.12l.122.365-.243-.122-.122-.545c0-.06-.06-.06-.12-.06-.061 0-.061.06-.061.12l.121.364-.243-.06c-.06 0-.12 0-.12.06s0 .121.06.121l.363.122-.303.181c-.06 0-.06.061-.06.122l.06.06h.062l.424-.242.242.121-.303.182c-.06 0-.06.06-.06.121l.06.06h.06l.486-.242.909.364-.91.363-.484-.242c-.061 0-.121 0-.121.06 0 .061 0 .122.06.122l.303.182-.242.12-.424-.423c-.062 0-.122 0-.122.06s0 .121.06.121l.303.182-.363.121c-.06 0-.06.061-.06.122 0 .06.06.06.06.06h.06l.365-.12-.122.363c0 .06 0 .12.06.12.062 0 .062 0 .062-.06l.12-.545.243-.121-.122.363c0 .06 0 .122.062.122.06 0 .06 0 .06-.061l.121-.485.97-.364-.364.97-.484.121c-.062 0-.062.06-.062.122 0 .06.062.06.122.06l.364-.121.06.303-.546.121c-.06 0-.06.06-.06.121s.06.061.122.061l.363-.121-.122.363c0 .061 0 .122.062.122.06 0 .12 0 .12-.061l.121-.364.183.303.06.061h.06c.062 0 .062-.06.062-.121l-.243-.424.122-.243.18.303.062.06h.06c.06 0 .06-.06.06-.12l-.241-.485.363-.91.364.91-.242.485c0 .06 0 .12.06.12h.06c.06 0 .06 0 .06-.06l.183-.303.12.243-.423.424c0 .06 0 .121.06.121h.06c.062 0 .062 0 .062-.06l.182-.304.121.364c0 .06.06.06.06.06h.06c.062 0 .062-.06.062-.12l-.121-.364.363.121c.06 0 .12 0 .12-.06 0-.061 0-.122-.06-.122l-.545-.121-.121-.242.364.12c.06 0 .121 0 .121-.06s0-.121-.061-.121l-.484-.182-.364-.97.97.364.12.485c0 .06.06.06.06.06.062 0 .062-.06.062-.12l-.121-.364.242.12.12.546c0 .06.062.06.062.06.06 0 .06-.06.06-.12l-.121-.364.364.121h.06c.06 0 .06 0 .06-.06.244-.06.183-.122.183-.122M17.636 29.63l-.303-.121.303-.182c.06 0 .06-.061.06-.121 0-.061-.06-.061-.12-.061l-.485.303-.243-.06.303-.182c.061 0 .061-.061.061-.121 0-.061-.06-.061-.121-.061l-.424.242-.788-.303.788-.303.424.243h.06s.061 0 .061-.061c0-.06 0-.06-.06-.122l-.304-.181.243-.06.424.241h.06s.061 0 .061-.06 0-.06-.06-.121l-.303-.182.303-.121c.06 0 .06-.06.06-.122 0-.06-.06-.06-.12-.06l-.365.122.122-.365c0-.06 0-.06-.06-.12-.062 0-.062 0-.122.06l-.121.485-.243.06.121-.363c0-.06 0-.06-.06-.122-.06 0-.06 0-.121.062l-.122.424-.848.303.303-.85.424-.12c.06 0 .06-.06.06-.122 0-.06-.06-.06-.12-.06L16 27.57l.06-.243.485-.122c.061 0 .061-.06.061-.12 0-.061-.06-.061-.121-.061l-.364.12.121-.362c0-.062 0-.062-.06-.122-.06 0-.06 0-.121.06l-.122.304-.181-.304c0-.06-.061-.06-.122-.06-.06 0-.06.06-.06.122l.242.423-.06.243.12-.06c0-.061-.06-.061-.12-.061-.061 0-.061.06-.061.12l.242.426-.303.787-.303-.787.243-.425c0-.06 0-.06-.06-.121-.062 0-.062 0-.122.06l-.121.304-.122-.243.243-.424c0-.06 0-.06-.06-.122-.061 0-.061 0-.122.062l-.182.303-.121-.303c0-.062-.06-.062-.121-.062-.06 0-.06.062-.06.122l.12.364-.363-.121c-.06 0-.06 0-.121.06 0 .06 0 .06.06.12l.485.123.06.241-.363-.12c-.06 0-.06 0-.121.06 0 .06 0 .06.06.122l.425.12.303.849-.849-.303.06-.485c0-.06-.06-.06-.12-.06-.061 0-.061.06-.061.12l.121.365-.242-.062-.121-.544c0-.062-.061-.062-.122-.062-.06 0-.06.062-.06.122l.12.364-.363-.121c-.06 0-.06 0-.12.06 0 .06 0 .06.06.12l.303.123-.303.18c-.06 0-.06.061-.06.123l.06.06h.06l.425-.242.242.06-.303.182c-.06 0-.06.06-.06.12l.06.062h.06l.425-.242.788.303-.667.18-.424-.241c-.06 0-.06 0-.121.06 0 .06 0 .06.06.122l.303.182-.242.06-.424-.242c-.061 0-.061 0-.122.06 0 .06 0 .06.06.122l.304.181-.303.122c-.06 0-.06.06-.06.121 0 .06.06.06.06.06l.364-.121-.122.364c0 .06 0 .06.06.12.062 0 .062 0 .062-.06l.12-.484.243-.061-.121.364c0 .06 0 .06.06.121.061 0 .061 0 .061-.061l.121-.424.849-.303-.303.848-.424.122c-.061 0-.061.06-.061.121 0 .06.06.06.121.06l.364-.121-.06.243-.486-.122c-.06 0-.06.06-.06.122 0 .06.06.06.121.06l.364-.121-.122.364c0 .06 0 .06.061.121.06 0 .06 0 .121-.061l.121-.303.182.303.06.061h.061c.061 0 .061-.061.061-.121l-.242-.425.06-.242.182.303.06.06h.061c.06 0 .06-.06.06-.12l-.242-.425.304-.788.303.788-.243.424c0 .06 0 .06.06.122h.061s.06 0 .06-.061l.183-.303.06.242-.363.364c0 .06 0 .06.06.12H16s.062 0 .062-.06l.181-.302.122.303c0 .06.06.06.06.06.06 0 .06-.06.06-.121l-.12-.364.363.122c.06 0 .06 0 .121-.061 0-.06 0-.06-.06-.12l-.485-.122-.06-.243.363.121c.06 0 .06 0 .121-.06 0-.061 0-.061-.06-.121l-.425-.122-.303-.848.849.303.121.424c0 .061.06.061.06.061.061 0 .061-.061.061-.121l-.121-.364.242.06.122.485c0 .06.06.06.06.06.06 0 .06-.06.06-.12l-.12-.364.363.121c.06 0 .06 0 .06-.06 0 .182-.06.12-.06.12m106.182-4.787l-.727-.303.606-.364c.06-.06.12-.181.06-.242s-.18-.121-.242-.061l-.91.485-.544-.182.666-.363c.061-.06.121-.182.061-.243-.061-.06-.182-.12-.243-.06l-.909.485-1.757-.667 1.757-.667.91.485h.06c.061 0 .121-.06.182-.06.06-.061 0-.182-.061-.243l-.666-.364.545-.181.909.484h.061c.06 0 .121-.06.181-.06.06-.061 0-.182-.06-.243l-.606-.363.727-.303c.121-.061.121-.121.121-.243-.06-.121-.121-.121-.242-.121l-.727.303.242-.788c0-.12 0-.182-.12-.242-.122 0-.183 0-.244.121l-.303 1.152-.484.181.181-.727c0-.121 0-.182-.121-.242-.121 0-.182 0-.242.12l-.303.97-1.88.728.728-1.879.97-.303c.12 0 .12-.121.12-.242 0-.122-.12-.122-.24-.122l-.728.182.181-.485 1.03-.303c.122 0 .122-.12.122-.242 0-.121-.121-.121-.243-.121l-.787.242.303-.727c.06-.121 0-.182-.122-.243-.06-.06-.181 0-.242.122l-.303.727-.364-.606c-.06-.06-.181-.121-.242-.06-.061.06-.121.181-.061.242l.485.909-.182.545-.363-.666c-.061-.061-.182-.122-.243-.061-.06.06-.121.182-.06.242l.485.91-.668 1.757-.666-1.758.485-.909c.06-.06 0-.181-.06-.242-.062-.06-.182 0-.243.06l-.363.667-.182-.545.485-.91c.06-.06 0-.181-.062-.242-.06-.06-.181 0-.241.06l-.365.607-.303-.727c-.06-.122-.12-.122-.241-.122-.122.061-.122.122-.122.243l.303.727-.788-.242c-.121 0-.181 0-.243.12 0 .122 0 .183.122.243l1.03.303.182.485-.728-.182c-.12 0-.181 0-.241.122 0 .12 0 .181.12.242l.97.303.728 1.879-1.88-.727-.303-.97c0-.121-.12-.121-.241-.121-.122 0-.122.12-.122.242l.182.727-.485-.181-.303-1.03c0-.122-.121-.122-.243-.122-.12 0-.12.121-.12.242l.242.788-.728-.303c-.06-.06-.182 0-.242.122-.06.12 0 .181.121.242l.727.303-.606.364c-.06.06-.121.181-.06.242.06.06.121.06.181.06h.061l.91-.484.545.182-.666.363c-.062.06-.122.182-.062.243.062.06.122.06.182.06h.06l.91-.485 1.756.667-1.757.667-.909-.485c-.06-.061-.181 0-.243.06-.06.061 0 .182.062.243l.666.364-.546.18-.909-.483c-.06-.061-.182 0-.242.06-.061.06 0 .182.06.243l.606.363-.727.303c-.12.06-.12.12-.12.243 0 .06.12.12.181.12h.06l.728-.302-.243.788c0 .121 0 .181.121.242h.062c.06 0 .12-.061.181-.121l.303-1.03.485-.182-.182.727c0 .121 0 .182.122.242h.06c.06 0 .121-.06.181-.12l.303-.97 1.88-.728-.727 1.88-.97.302c-.121 0-.121.121-.121.242 0 .122.12.122.241.122l.728-.182-.181.485-1.031.303c-.122 0-.122.121-.122.242 0 .122.122.122.243.122l.788-.243-.303.727c-.06.122 0 .182.122.242.12.061.18 0 .241-.12l.303-.728.365.606c.06.061.12.061.18.061h.061c.062-.06.122-.182.062-.242l-.485-.91.182-.545.363.666c.06.061.12.061.181.061h.062c.06-.06.12-.182.06-.242l-.485-.91.667-1.757.848 1.576-.484.909c-.061.06 0 .182.06.242h.06c.06 0 .122-.06.183-.06l.363-.667.182.545-.485.91c-.06.06 0 .182.061.242h.06c.06 0 .122-.06.182-.06l.364-.607.303.727c0 .061.12.122.182.122h.06c.121-.06.121-.122.121-.242l-.303-.728.788.242c.121 0 .182 0 .243-.12 0-.122 0-.183-.122-.243l-1.03-.303-.182-.485.728.182c.121 0 .181 0 .242-.121 0-.122 0-.182-.12-.243l-.971-.303-.727-1.878 1.879.727.303.969c0 .061.121.122.181.122h.06c.122 0 .122-.122.122-.243l-.182-.727.485.182.303 1.03c0 .06.121.121.182.121h.061c.121 0 .121-.12.121-.242l-.243-.788.728.303h.06c.061 0 .121-.061.182-.121-.182-.06-.242-.182-.303-.182"/></g><path fill="#212C89" fill-rule="nonzero" d="M155.568 1.67c.457-.408.685-.948.685-1.62h-1.246c0 .393-.109.698-.327.913-.219.216-.522.324-.909.324-.404 0-.711-.11-.922-.328-.21-.219-.315-.522-.315-.91h-1.254c0 .667.23 1.206.689 1.617.46.411 1.06.617 1.802.617.741 0 1.34-.204 1.797-.613zM5.388 10.762c-.293.301-.684.452-1.171.452-.675 0-1.17-.218-1.482-.655-.313-.437-.469-1.185-.469-2.242V7.172c.011-.98.175-1.684.49-2.113.315-.429.8-.643 1.453-.643.503 0 .897.166 1.182.498.285.332.445.83.478 1.494h1.386c-.033-1.007-.32-1.8-.86-2.382-.54-.581-1.268-.872-2.186-.872-1.113 0-1.96.353-2.54 1.059-.581.705-.872 1.736-.872 3.092v.988c0 1.383.292 2.425.876 3.125.583.7 1.431 1.05 2.544 1.05.835 0 1.542-.284 2.12-.851.579-.567.885-1.282.918-2.146H5.869c-.028.56-.189.99-.482 1.291h.001zm13.235.706c-.598-.667-.902-1.645-.913-2.935V7.446c0-1.34.292-2.39.875-3.15.584-.761 1.399-1.142 2.445-1.142 1.051 0 1.837.335 2.357 1.005.52.67.786 1.713.797 3.13v.962h-5.013v.208c0 .963.181 1.663.543 2.1.363.437.884.655 1.565.655.432 0 .813-.081 1.142-.244.329-.163.637-.422.925-.777l.764.93c-.637.897-1.608 1.345-2.914 1.345-1.118 0-1.976-.333-2.573-1zm29.893-.146c.039.46.102.787.191.98h1.527v-.133c-.182-.51-.276-1.11-.282-1.801V5.835c-.01-.874-.255-1.54-.734-1.996-.479-.457-1.177-.685-2.096-.685-.565 0-1.077.119-1.536.357-.46.238-.825.566-1.096.984a2.39 2.39 0 00-.406 1.316h1.469c0-.404.138-.737.415-1 .277-.263.636-.395 1.079-.395.487 0 .849.113 1.087.34.238.227.357.609.357 1.146v.954h-1.079c-1.079.011-1.928.285-2.548.822-.62.537-.93 1.262-.93 2.175 0 .83.228 1.473.685 1.93.457.457 1.092.685 1.905.685.808 0 1.472-.382 1.992-1.146zm44.715-3.08c0 1.423-.256 2.483-.768 3.18-.512.697-1.235 1.046-2.17 1.046-.903 0-1.597-.34-2.084-1.021v4.308h-1.461V3.32h1.328l.075.996c.492-.775 1.197-1.162 2.116-1.162.985 0 1.721.343 2.208 1.03.487.686.739 1.713.756 3.08v.979-.001zm2.725-3.946c-.634.76-.951 1.794-.951 3.1v.98c.022 1.256.347 2.252.975 2.988.628.736 1.462 1.104 2.503 1.104 1.051 0 1.892-.379 2.523-1.137.631-.759.947-1.788.947-3.088v-.947c-.017-1.278-.342-2.288-.976-3.03-.633-.741-1.47-1.112-2.51-1.112-1.04 0-1.878.38-2.511 1.142zm21.258 7.026c.039.46.102.787.191.98h1.527v-.133c-.183-.51-.277-1.11-.282-1.801V5.835c-.011-.874-.256-1.54-.735-1.996-.479-.457-1.177-.685-2.096-.685-.564 0-1.076.119-1.535.357-.46.238-.825.566-1.096.984a2.38 2.38 0 00-.407 1.316h1.469c0-.404.139-.737.416-1 .277-.263.636-.395 1.079-.395.487 0 .849.113 1.087.34.238.227.357.609.357 1.146v.954h-1.079c-1.08.011-1.929.285-2.548.822-.62.537-.93 1.262-.93 2.175 0 .83.228 1.473.685 1.93.456.457 1.091.685 1.905.685.808 0 1.472-.382 1.992-1.146zm-41.585-5.55a2.1 2.1 0 01-.307 1.112 2.2 2.2 0 01-.872.806c.88.36 1.32 1.057 1.32 2.09 0 .835-.273 1.49-.818 1.966-.545.475-1.263.713-2.154.713-.88 0-1.603-.253-2.17-.759-.567-.507-.851-1.191-.851-2.054h1.452c0 .443.15.819.449 1.128.299.31.672.465 1.12.465.453 0 .817-.135 1.092-.405.273-.27.41-.621.41-1.051 0-.503-.112-.863-.335-1.08-.225-.218-.578-.327-1.059-.327h-1.345V7.072h1.445c.775-.027 1.162-.459 1.162-1.295 0-.42-.12-.753-.361-1-.24-.247-.574-.37-1-.37a1.42 1.42 0 00-1.042.416 1.36 1.36 0 00-.42 1.004h-1.452c0-.78.277-1.419.83-1.917.553-.498 1.248-.747 2.084-.747.89 0 1.584.227 2.079.68.495.455.743 1.097.743 1.928v.001zm-61.636 6.53h1.461V3.32H9.27v8.982h1.478V4.59h3.245v7.712zm13.75-8.982h-1.477v8.982h5.678v2.664h1.303l.15-3.918h-.947V3.32h-1.461v7.728h-3.246V3.32zm12.35 0h1.46v8.982h-1.46v-6.55l-3.254 6.55h-1.47V3.32h1.47v6.558l3.254-6.558zm18.656 0v8.982h-1.47V4.59h-2.365l-.141 3.047c-.077 1.687-.304 2.884-.68 3.59-.377.705-.98 1.064-1.81 1.075h-.49v-1.353l.373-.034c.41-.055.7-.33.868-.825.169-.495.28-1.47.336-2.926l.141-3.844h5.238zm8.838 0h-1.46l-3.254 6.558V3.32h-1.47v8.982h1.47l3.253-6.55v6.55h1.461V3.32zm16.623 0h-1.461l-3.254 6.558V3.32h-1.47v8.982h1.47l3.254-6.55v6.55h1.46V3.32h.001zm19.957 8.982V3.32h3.013c1.03 0 1.815.21 2.358.631.542.42.813 1.032.813 1.835 0 .415-.108.788-.324 1.12-.215.332-.53.587-.946.764.46.121.829.368 1.108.739.28.37.419.819.419 1.344 0 .83-.259 1.462-.776 1.897-.517.435-1.249.652-2.195.652h-3.47zm23.255 0h-1.461V8.467h-3.237v3.835h-1.478V3.32h1.478v3.893h3.237V3.32h1.461v8.982zm7.377 0h1.461V3.32h-1.461v3.893h-3.237V3.32h-1.478v8.982h1.478V8.467h3.237v3.835zm5.585-5.886h1.851c.857.006 1.54.27 2.05.79.51.52.764 1.228.764 2.124 0 .897-.257 1.615-.772 2.154-.515.54-1.195.813-2.042.818h-3.312V3.32h1.461v3.096zm7.404 5.886h-1.469V3.32h1.469v8.982zm9.062-8.982h-1.461l-3.254 6.558V3.32h-1.469v8.982h1.469l3.254-6.55v6.55h1.461V3.32zM21.03 4.416c-.609 0-1.06.209-1.353.627-.293.417-.46 1.066-.498 1.946h3.536V6.79c-.039-.852-.192-1.46-.46-1.826-.269-.365-.677-.548-1.225-.548zm75.988 6.006c-.363-.529-.544-1.255-.544-2.18v-.854c0-.913.181-1.637.544-2.171.363-.534.845-.801 1.448-.801.615 0 1.105.267 1.47.801s.548 1.26.548 2.179v1.013c-.04 1.87-.706 2.805-2.001 2.805-.614 0-1.102-.264-1.465-.792zM91.77 7.404c0-1.007-.155-1.75-.465-2.229-.31-.478-.808-.717-1.494-.717-.703 0-1.237.351-1.602 1.054v4.673c.36.687.9 1.03 1.618 1.03.664 0 1.152-.24 1.465-.719.313-.479.473-1.21.478-2.195v-.897zm13.858-.274h1.536c1.145 0 1.718-.42 1.718-1.261 0-.847-.54-1.281-1.619-1.304h-1.635V7.13zm34.756.54v3.378h1.826c.431 0 .767-.147 1.008-.44.24-.293.361-.7.361-1.22 0-.51-.119-.922-.357-1.237-.238-.315-.564-.476-.979-.481h-1.859zm-92.606 3.162c-.327.2-.67.3-1.03.3-.487 0-.832-.115-1.037-.345-.205-.23-.308-.6-.308-1.108 0-.543.202-.965.606-1.266.404-.302.955-.459 1.652-.47h.83v2.142c-.15.3-.387.548-.713.747zm68.697 0c-.327.2-.67.3-1.029.3-.487 0-.833-.115-1.038-.345-.205-.23-.307-.6-.307-1.108 0-.543.202-.965.606-1.266.404-.302.955-.459 1.652-.47h.83v2.142c-.15.3-.387.548-.714.747zm-10.847-2.473v2.706h2.025c.99 0 1.486-.454 1.486-1.361 0-.897-.5-1.345-1.502-1.345h-2.009zm9.005 24.676c0 2.29-.541 4.067-1.623 5.332-1.082 1.266-2.584 1.899-4.506 1.899-1.914 0-3.418-.627-4.512-1.881-1.093-1.254-1.648-3.01-1.664-5.268V30.2c0-2.343.543-4.173 1.629-5.49 1.086-1.317 2.594-1.975 4.523-1.975 1.899 0 3.395.647 4.489 1.94 1.093 1.293 1.648 3.108 1.664 5.443v2.918-.001zm9.146.944c.356.355.534.88.534 1.576 0 1.273-.602 1.91-1.805 1.91-.867 0-1.492-.223-1.875-.668-.383-.445-.574-1.16-.574-2.145h-3.457c0 1.149.256 2.145.767 2.989a5.105 5.105 0 002.127 1.945c.906.453 1.91.68 3.012.68 1.625 0 2.91-.418 3.855-1.254.945-.836 1.418-1.996 1.418-3.48 0-1.352-.377-2.465-1.131-3.34-.753-.875-1.962-1.614-3.627-2.215-.953-.407-1.617-.8-1.992-1.178-.375-.38-.562-.803-.562-1.272 0-.601.168-1.08.504-1.435.336-.355.805-.533 1.406-.533.64 0 1.131.209 1.471.627.34.418.509 1.025.509 1.822h3.434c0-1.023-.22-1.937-.662-2.742a4.597 4.597 0 00-1.893-1.87c-.82-.441-1.753-.662-2.8-.662-1.57 0-2.866.436-3.885 1.307-1.02.871-1.53 2.026-1.53 3.463 0 1.187.375 2.217 1.125 3.088.75.87 1.98 1.63 3.692 2.28.937.382 1.584.75 1.939 1.106v.001zm17.854.369c-.086 1.945-.633 3.418-1.641 4.418s-2.43 1.5-4.265 1.5c-1.93 0-3.409-.635-4.436-1.905-1.027-1.27-1.541-3.08-1.541-5.431v-2.871c0-2.344.531-4.15 1.594-5.42 1.063-1.27 2.539-1.905 4.429-1.905 1.86 0 3.272.52 4.237 1.559.965 1.04 1.513 2.532 1.646 4.477h-3.457c-.031-1.203-.217-2.033-.556-2.49-.34-.457-.963-.686-1.87-.686-.921 0-1.574.322-1.957.966-.383.645-.586 1.705-.609 3.182v3.223c0 1.695.19 2.86.568 3.492.38.633 1.03.95 1.952.95.906 0 1.531-.221 1.875-.663.343-.441.539-1.24.586-2.396h3.445zm-52.477-11.38v17.063h5.649c1.727 0 3.045-.422 3.955-1.265.91-.844 1.365-2.094 1.365-3.75 0-.969-.207-1.783-.621-2.444a2.983 2.983 0 00-1.77-1.318 3.385 3.385 0 001.57-1.371c.383-.625.575-1.372.575-2.239 0-1.53-.463-2.693-1.389-3.486-.925-.793-2.279-1.19-4.06-1.19h-5.274zm63.129 17.063h3.434V22.97h-3.434v6.902h-5.086V22.97h-3.445v17.06h3.445v-7.3h5.086v7.301zm-41.109-9.855c0-1.54-.219-2.684-.656-3.434-.438-.75-1.118-1.125-2.04-1.125-.914 0-1.59.361-2.027 1.084-.437.723-.664 1.822-.68 3.299v3.035c0 1.492.223 2.592.668 3.299.445.707 1.133 1.06 2.063 1.06.899 0 1.567-.346 2.004-1.037.437-.691.66-1.763.668-3.216v-2.965zm-16.782-.07h-1.792V25.84h1.828c.703 0 1.21.168 1.523.504.313.336.469.89.469 1.664 0 1.398-.676 2.097-2.028 2.097v.001zm-71.507 8.94c.093.461.187.79.281.985h3.34v-.199c-.297-.617-.453-1.473-.469-2.566V31.3c0-1.344-.381-2.377-1.143-3.1-.761-.723-1.837-1.084-3.228-1.084-1.344 0-2.455.381-3.334 1.143-.879.761-1.318 1.728-1.318 2.9h3.316c0-.969.414-1.453 1.242-1.453.375 0 .66.117.856.352.195.234.293.636.293 1.207v1.02h-1.008c-1.593.015-2.814.386-3.662 1.112-.848.727-1.272 1.754-1.272 3.082 0 1.117.35 2.027 1.05 2.73.699.704 1.58 1.056 2.642 1.056 1.015 0 1.82-.407 2.414-1.22v.001zm20.191 0c.093.461.187.79.281.985h3.34v-.199c-.297-.617-.453-1.473-.468-2.566V31.3c0-1.344-.381-2.377-1.143-3.1-.762-.723-1.838-1.084-3.229-1.084-1.343 0-2.455.381-3.334 1.143-.879.761-1.318 1.728-1.318 2.9h3.316c0-.969.414-1.453 1.243-1.453.375 0 .66.117.855.352.195.234.293.636.293 1.207v1.02h-1.008c-1.593.015-2.814.386-3.662 1.112-.847.727-1.271 1.754-1.271 3.082 0 1.117.35 2.027 1.049 2.73.699.704 1.58 1.056 2.642 1.056 1.015 0 1.82-.407 2.414-1.22v.001zm10.945-7.944c0-.93-.351-1.395-1.054-1.395-.383 0-.684.111-.903.334-.219.223-.328.545-.328.967h-3.316c0-1.149.406-2.082 1.219-2.801.812-.719 1.863-1.078 3.152-1.078 1.414 0 2.523.322 3.328.967.805.645 1.207 1.553 1.207 2.724 0 .563-.145 1.08-.434 1.553a3.14 3.14 0 01-1.206 1.13c1.219.516 1.828 1.497 1.828 2.942 0 1.157-.43 2.083-1.29 2.778-.859.695-2.007 1.043-3.445 1.043-1.336 0-2.424-.361-3.263-1.084-.84-.723-1.26-1.69-1.26-2.9h3.316c0 .445.125.792.375 1.042s.59.375 1.02.375c.407 0 .715-.135.925-.404.211-.27.317-.639.317-1.108 0-.992-.387-1.504-1.16-1.535h-1.653V32.45h1.57c.703-.007 1.055-.456 1.055-1.347v-.001zm-43.793-3.75L7.852 36l-2.344-8.648h-4.09v12.68h3.305v-6.563L6.75 40.03h2.215l2.11-6.785v6.785h3.316V27.35h-4.16l-.001.002zm25.63 2.765h-4.114v9.914H28.43v-12.68h7.43v2.766zm33.21-2.765h-3.304l-2.954 7.78v-7.78h-3.328v12.68h3.328l2.954-7.794v7.793h3.304v-12.68.001zm11.965 12.68H77.72v-4.876H74.8v4.875h-3.328v-12.68H74.8v5.075h2.918v-5.074h3.316v12.68h.001zm11.567-2.86v-4.559h2.425c1.11.04 1.664.825 1.664 2.356 0 .703-.16 1.246-.48 1.629-.32.383-.789.574-1.406.574h-2.203zm-70.454.27c-.257.148-.57.222-.937.222-.735 0-1.102-.469-1.102-1.406 0-.602.162-1.083.487-1.442.324-.36.767-.539 1.33-.539h.797v2.637a1.574 1.574 0 01-.575.527v.001zm20.192 0c-.258.148-.57.222-.938.222-.734 0-1.101-.469-1.101-1.406 0-.602.162-1.083.486-1.442.324-.36.767-.539 1.33-.539h.797v2.637a1.565 1.565 0 01-.574.527v.001z"/></g></svg>