<svg width="24" height="27" viewBox="0 0 24 27" xmlns:xlink="http://www.w3.org/1999/xlink" xmlns="http://www.w3.org/2000/svg"><g id="small-appl"><path d="M10.045 0C7.368 0 5.39.936 4.889 1.92H15.2C14.701.936 12.721 0 10.045 0zm7.47 4.2a2.394 2.394 0 012.132-1.32h.96a2.403 2.403 0 012.4 2.4v9.6a2.403 2.403 0 01-2.4 2.4h-.67c.026.341.047.66.067.96h.603a3.364 3.364 0 003.36-3.36v-9.6a3.364 3.364 0 00-3.36-3.36h-4.388c.022.088.038.177.048.268.47.478.885 1.168 1.248 2.012zm.994 8.514C17.675 6.27 16.497 3.8 15.61 2.88H4.48c-.36.374-.769 1.012-1.183 2.061a.463.463 0 01-.03.077c-.595 1.536-1.198 3.936-1.684 7.696a94.646 94.646 0 00-.638 7.446h18.201a94.712 94.712 0 00-.637-7.446zM.195 5.28h1.971a26.702 26.702 0 00-.797 2.935L.195 5.28zm16.571 17.76H3.326a2.404 2.404 0 01-2.351-1.92h18.143a2.404 2.404 0 01-2.352 1.92zm3.326 3.84A3.365 3.365 0 0016.766 24H3.326A3.365 3.365 0 000 26.88h20.092zM8.606 24.96h2.88a.48.48 0 110 .96h-2.88a.48.48 0 010-.96z" id="Combined-Shape" fill="#374BAF" fill-rule="evenodd" stroke="none"/></g></svg>