<svg width="24" height="32" xmlns="http://www.w3.org/2000/svg"><path d="M0 4.8h24V0H0v4.8zM1.8.6a.6.6 0 00-.6.6v2.4a.6.6 0 00.6.6h3.6a.6.6 0 00.6-.6V1.2a.6.6 0 00-.6-.6H1.8zm6 1.8H9V1.2H7.8v1.2zm3.6 0h-1.2V1.2h1.2v1.2zm1.2 0h1.2V1.2h-1.2v1.2zm3.6 0H15V1.2h1.2v1.2zM4.8 3H2.4V1.8h2.4V3zM24 6v25.8H0V6h24zm-2.4 13.8a9.6 9.6 0 00-9.6-9.6 9.611 9.611 0 00-9.6 9.6 9.6 9.6 0 0019.2 0zm-13.404-.57a8.346 8.346 0 003.3-.595 9.442 9.442 0 013.702-.665 9.46 9.46 0 013.702.665 9.63 9.63 0 001.46.432 8.394 8.394 0 00-16.615-.801c.429.111.797.24 1.155.37a8.339 8.339 0 003.296.594zM22.2 21h1.2v-2.4h-1.2V21zM12 28.2a8.403 8.403 0 008.375-7.911 10.13 10.13 0 01-1.878-.525 8.34 8.34 0 00-3.3-.594 8.324 8.324 0 00-3.295.594 9.452 9.452 0 01-3.707.666 9.456 9.456 0 01-3.7-.664c-.29-.104-.573-.204-.88-.291-.004.109-.016.215-.016.325A8.409 8.409 0 0012 28.2zm-6-6h1.2V21H6v1.2zm3 1.2H7.8v-1.2H9v1.2z" fill="#374BAF" fill-rule="evenodd"/></svg>