<svg width="159" height="51" viewBox="0 0 159 51" xmlns:xlink="http://www.w3.org/1999/xlink" xmlns="http://www.w3.org/2000/svg"><g id="специализированный-м" fill="#212C89"><path d="M155.568 6.67q.685-.612.685-1.62h-1.246q0 .59-.327.913-.328.324-.909.324-.606 0-.922-.328-.315-.328-.315-.91h-1.254q0 1 .689 1.617t1.802.617q1.112 0 1.797-.613zM5.388 15.762q-.44.452-1.171.452-1.013 0-1.482-.655-.469-.656-.469-2.242v-1.145q.017-1.47.49-2.113t1.453-.643q.755 0 1.182.498.428.498.478 1.494h1.386q-.05-1.51-.86-2.382-.809-.872-2.186-.872-1.669 0-2.54 1.059-.872 1.058-.872 3.092v.988q0 2.075.876 3.125.875 1.05 2.544 1.05 1.253 0 2.12-.851.868-.85.918-2.146H5.869q-.042.839-.482 1.291zm13.235.706q-.897-1-.913-2.935v-1.087q0-2.009.875-3.15.876-1.142 2.445-1.142 1.577 0 2.357 1.005.78 1.004.797 3.13v.962h-5.013v.208q0 1.444.543 2.1.544.655 1.565.655.648 0 1.142-.244.493-.245.925-.777l.764.93q-.955 1.345-2.914 1.345-1.677 0-2.573-1zm29.893-.146q.058.69.191.98h1.527v-.133q-.273-.764-.282-1.801v-4.533q-.016-1.311-.734-1.996t-2.096-.685q-.847 0-1.536.357-.689.357-1.096.984-.406.627-.406 1.316h1.469q0-.606.415-1 .415-.395 1.079-.395.73 0 1.087.34t.357 1.146v.954h-1.079q-1.618.017-2.548.822-.93.805-.93 2.175 0 1.245.685 1.93.685.685 1.905.685 1.212 0 1.992-1.146zm44.715-3.08q0 2.134-.768 3.18-.768 1.046-2.17 1.046-1.354 0-2.084-1.021v4.308h-1.461V8.32h1.328l.075.996q.738-1.162 2.116-1.162 1.478 0 2.208 1.03.73 1.029.756 3.08v.979zm2.725-3.946q-.951 1.141-.951 3.1v.98q.033 1.884.975 2.988t2.503 1.104q1.577 0 2.523-1.137.947-1.138.947-3.088v-.947q-.025-1.917-.976-3.03-.95-1.112-2.51-1.112-1.561 0-2.511 1.142zm21.258 7.026q.058.69.191.98h1.527v-.133q-.274-.764-.282-1.801v-4.533q-.017-1.311-.735-1.996t-2.096-.685q-.846 0-1.535.357t-1.096.984q-.407.627-.407 1.316h1.469q0-.606.416-1 .415-.395 1.079-.395.73 0 1.087.34t.357 1.146v.954h-1.079q-1.619.017-2.548.822-.93.805-.93 2.175 0 1.245.685 1.93.684.685 1.905.685 1.212 0 1.992-1.146zm-41.585-5.55q0 .606-.307 1.112-.308.507-.872.806 1.32.54 1.32 2.09 0 1.253-.818 1.966-.817.713-2.154.713-1.32 0-2.17-.759-.851-.76-.851-2.054h1.452q0 .664.449 1.128.448.465 1.12.465.68 0 1.092-.405.41-.406.41-1.051 0-.754-.335-1.08-.337-.327-1.059-.327h-1.345v-1.304h1.445q1.162-.041 1.162-1.295 0-.63-.361-1t-1-.37q-.623 0-1.042.416-.42.415-.42 1.004h-1.452q0-1.17.83-1.917.83-.747 2.084-.747 1.336 0 2.079.68.743.682.743 1.928zm-61.636 6.53h1.461V8.32H9.27v8.982h1.478V9.59h3.245v7.712zm13.75-8.982h-1.477v8.982h5.678v2.664h1.303l.15-3.918h-.947V8.32h-1.461v7.728h-3.246V8.32zm12.35 0h1.46v8.982h-1.46v-6.55l-3.254 6.55h-1.47V8.32h1.47v6.558l3.254-6.558zm18.656 0v8.982h-1.47V9.59h-2.365l-.141 3.047q-.116 2.531-.68 3.59-.565 1.058-1.81 1.075h-.49v-1.353l.373-.034q.615-.082.868-.825t.336-2.926l.141-3.844h5.238zm8.838 0h-1.46l-3.254 6.558V8.32h-1.47v8.982h1.47l3.253-6.55v6.55h1.461V8.32zm16.623 0h-1.461l-3.254 6.558V8.32h-1.47v8.982h1.47l3.254-6.55v6.55h1.46V8.32zm19.957 8.982V8.32h3.013q1.544 0 2.358.631.813.631.813 1.835 0 .622-.324 1.12-.323.498-.946.764.689.182 1.108.739.419.556.419 1.344 0 1.245-.776 1.897-.776.652-2.195.652h-3.47zm23.255 0h-1.461v-3.835h-3.237v3.835h-1.478V8.32h1.478v3.893h3.237V8.32h1.461v8.982zm7.377 0h1.461V8.32h-1.461v3.893h-3.237V8.32h-1.478v8.982h1.478v-3.835h3.237v3.835zm5.585-5.886h1.851q1.286.009 2.05.79.764.78.764 2.124 0 1.345-.772 2.154-.772.81-2.042.818h-3.312V8.32h1.461v3.096zm7.404 5.886h-1.469V8.32h1.469v8.982zm9.062-8.982h-1.461l-3.254 6.558V8.32h-1.469v8.982h1.469l3.254-6.55v6.55h1.461V8.32zM21.03 9.416q-.913 0-1.353.627-.44.626-.498 1.946h3.536v-.199q-.058-1.278-.46-1.826-.403-.548-1.225-.548zm75.988 6.006q-.544-.793-.544-2.18v-.854q0-1.37.544-2.171.544-.801 1.448-.801.922 0 1.47.801.548.801.548 2.179v1.013q-.059 2.805-2.001 2.805-.921 0-1.465-.792zm-5.248-3.018q0-1.51-.465-2.229-.465-.717-1.494-.717-1.054 0-1.602 1.054v4.673q.54 1.03 1.618 1.03.996 0 1.465-.719.47-.718.478-2.195v-.897zm13.858-.274h1.536q1.718 0 1.718-1.261 0-1.27-1.619-1.304h-1.635v2.565zm34.756.54v3.378h1.826q.647 0 1.008-.44t.361-1.22q0-.764-.357-1.237-.357-.473-.979-.481h-1.859zm-92.606 3.162q-.49.3-1.03.3-.73 0-1.037-.345-.308-.345-.308-1.108 0-.814.606-1.266.606-.453 1.652-.47h.83v2.142q-.224.449-.713.747zm68.697 0q-.49.3-1.029.3-.731 0-1.038-.345-.307-.345-.307-1.108 0-.814.606-1.266.606-.453 1.652-.47h.83v2.142q-.224.449-.714.747zm-10.847-2.473v2.706h2.025q1.486 0 1.486-1.361 0-1.345-1.502-1.345h-2.009z" id="специализированный"/><path d="M114.633 38.035q0 3.434-1.623 5.332-1.623 1.899-4.506 1.899-2.871 0-4.512-1.881-1.64-1.881-1.664-5.268V35.2q0-3.515 1.629-5.49t4.523-1.975q2.848 0 4.489 1.94 1.64 1.94 1.664 5.443v2.918zm9.146.944q.534.533.534 1.576 0 1.91-1.805 1.91-1.301 0-1.875-.668-.574-.668-.574-2.145h-3.457q0 1.723.767 2.989.768 1.265 2.127 1.945 1.359.68 3.012.68 2.437 0 3.855-1.254 1.418-1.254 1.418-3.48 0-2.028-1.131-3.34-1.13-1.313-3.627-2.215-1.429-.61-1.992-1.178-.562-.569-.562-1.272 0-.902.504-1.435t1.406-.533q.961 0 1.471.627.509.627.509 1.822h3.434q0-1.535-.662-2.742t-1.893-1.87q-1.23-.662-2.8-.662-2.356 0-3.885 1.307-1.53 1.307-1.53 3.463 0 1.781 1.125 3.088 1.125 1.306 3.692 2.28 1.406.573 1.939 1.106zm17.854.369q-.129 2.918-1.641 4.418t-4.265 1.5q-2.895 0-4.436-1.905-1.541-1.904-1.541-5.431v-2.871q0-3.516 1.594-5.42 1.594-1.905 4.429-1.905 2.79 0 4.237 1.559t1.646 4.477h-3.457q-.047-1.805-.556-2.49-.51-.686-1.87-.686-1.382 0-1.957.966-.574.967-.609 3.182v3.223q0 2.543.568 3.492.569.95 1.952.95 1.359 0 1.875-.663.515-.662.586-2.396h3.445zm-52.477-11.38v17.063h5.649q2.59 0 3.955-1.265 1.365-1.266 1.365-3.75 0-1.453-.621-2.444-.621-.99-1.77-1.318.997-.434 1.57-1.371.575-.938.575-2.239 0-2.296-1.389-3.486-1.388-1.19-4.06-1.19h-5.274zm63.129 17.063h3.434V27.97h-3.434v6.902h-5.086V27.97h-3.445v17.06h3.445v-7.3h5.086v7.3zm-41.109-9.855q0-2.309-.656-3.434-.657-1.125-2.04-1.125-1.371 0-2.027 1.084-.656 1.084-.68 3.299v3.035q0 2.238.668 3.299.668 1.06 2.063 1.06 1.348 0 2.004-1.037.656-1.037.668-3.216v-2.965zm-16.782-.07h-1.792V30.84h1.828q1.054 0 1.523.504.469.504.469 1.664 0 2.097-2.028 2.097zm-71.507 8.94q.14.692.281.985h3.34v-.199q-.445-.926-.469-2.566V36.3q0-2.016-1.143-3.1-1.142-1.084-3.228-1.084-2.016 0-3.334 1.143-1.318 1.142-1.318 2.9h3.316q0-1.453 1.242-1.453.563 0 .856.352.293.351.293 1.207v1.02h-1.008q-2.39.023-3.662 1.112-1.272 1.09-1.272 3.082 0 1.676 1.05 2.73 1.048 1.056 2.642 1.056 1.523 0 2.414-1.22zm20.191 0q.14.692.281.985h3.34v-.199q-.445-.926-.468-2.566V36.3q0-2.016-1.143-3.1t-3.229-1.084q-2.015 0-3.334 1.143-1.318 1.142-1.318 2.9h3.316q0-1.453 1.243-1.453.562 0 .855.352.293.351.293 1.207v1.02h-1.008q-2.39.023-3.662 1.112-1.271 1.09-1.271 3.082 0 1.676 1.049 2.73 1.048 1.056 2.642 1.056 1.523 0 2.414-1.22zm10.945-7.944q0-1.395-1.054-1.395-.575 0-.903.334-.328.334-.328.967h-3.316q0-1.723 1.219-2.801 1.218-1.078 3.152-1.078 2.121 0 3.328.967 1.207.967 1.207 2.724 0 .844-.434 1.553-.433.709-1.206 1.13 1.828.774 1.828 2.942 0 1.735-1.29 2.778-1.288 1.043-3.445 1.043-2.004 0-3.263-1.084-1.26-1.084-1.26-2.9h3.316q0 .667.375 1.042t1.02.375q.61 0 .925-.404.317-.404.317-1.108 0-1.488-1.16-1.535h-1.653V37.45h1.57q1.055-.011 1.055-1.347zm-43.793-3.75L7.852 41l-2.344-8.648h-4.09v12.68h3.305v-6.563L6.75 45.03h2.215l2.11-6.785v6.785h3.316V32.35h-4.16zm25.63 2.765h-4.114v9.914H28.43v-12.68h7.43v2.766zm33.21-2.765h-3.304l-2.954 7.78v-7.78h-3.328v12.68h3.328l2.954-7.794v7.793h3.304v-12.68zm11.965 12.68H77.72v-4.876H74.8v4.875h-3.328v-12.68H74.8v5.075h2.918v-5.074h3.316v12.68zm11.567-2.86v-4.559h2.425q1.664.059 1.664 2.356 0 1.054-.48 1.629-.48.574-1.406.574h-2.203zm-70.454.27q-.386.222-.937.222-1.102 0-1.102-1.406 0-.903.487-1.442.486-.539 1.33-.539h.797v2.637q-.188.305-.575.527zm20.192 0q-.387.222-.938.222-1.101 0-1.101-1.406 0-.903.486-1.442.486-.539 1.33-.539h.797v2.637q-.187.305-.574.527z" id="магазин-BOSCH"/></g></svg>