<svg xmlns="http://www.w3.org/2000/svg" width="494" height="115" viewBox="0 0 494 115"><path fill="#9E9E9E" d="M148.42.001c31.95 0 50.419 25.425 50.419 57.487 0 32.224-18.468 57.485-50.418 57.485-31.794 0-50.42-25.26-50.42-57.485 0-32.062 18.626-57.487 50.419-57.487zm201.305.162c18.14 0 31.146 7.125 42.23 23.806l-22.16 14.736c-4.494-7.776-10.278-12.308-19.914-12.308-12.2 0-23.923 10.908-23.923 30.442 0 21.894 12.686 31.9 24.729 31.9 10.435 0 15.252-5.18 19.75-12.63l22.317 15.06c-11.237 16.194-21.676 23.804-43.348 23.804-30.834 0-50.745-25.584-50.745-58.134 0-30.928 17.985-56.676 51.064-56.676zM248.508 0c19.592 0 32.274 8.42 39.984 17.167l-17.019 16.841c-5.303-5.668-13.33-10.202-22.485-10.202-6.258 0-13.322 2.915-13.322 10.202 0 6.638 7.353 9.046 16.693 11.013l3.858.81c15.636 3.281 34.522 8.095 34.522 33.355 0 24.128-21.836 35.786-42.39 35.786-23.764 0-35.966-9.067-45.6-20.564l17.502-17.166c7.386 9.394 17.02 14.09 27.778 14.09 8.83 0 14.772-4.372 14.772-10.852 0-6.961-5.25-9.13-19.593-12.144l-3.85-.809c-17.277-3.629-31.472-13.439-31.472-33.033C207.886 12.955 225.387 0 248.508 0zM51.382 2.754c19.751 0 34.043 9.878 34.043 30.12 0 17.327-15.094 22.508-15.094 22.508 0 .163 19.91 4.697 19.91 26.394 0 18.461-17.02 30.607-34.204 30.607H0V2.753h51.382zm379.805 0v40.322h33.237V2.754h28.901v109.629h-28.901V69.148h-33.237v43.235h-28.744V2.753h28.744zm-384.62 65.26H26.974v21.538h20.073c8.189 0 13.97-2.916 13.97-10.853 0-6.314-4.657-10.686-14.452-10.686zM148.42 26.396c-15.574 0-23.284 13.926-23.284 31.091 0 17.327 7.708 31.251 23.284 31.251 15.575 0 23.443-13.924 23.443-31.25 0-17.166-7.868-31.092-23.443-31.092zm-101.373-.812H26.975V45.99h19.591c7.064 0 10.917-5.181 10.917-10.039 0-6.155-4.173-10.367-10.435-10.367z" opacity=".119"/></svg>