<svg xmlns="http://www.w3.org/2000/svg" width="163" height="41"><path fill="#394791" d="M4.347 12.352c.224 0 .437-.035.638-.104.2-.069.379-.177.534-.323.155-.147.28-.334.375-.561.095-.227.15-.502.168-.824H7.5a3.32 3.32 0 0 1-.289 1.272c-.175.383-.405.71-.69.984a3.042 3.042 0 0 1-.986.634c-.373.15-.77.224-1.189.224-.603 0-1.127-.097-1.573-.293a2.862 2.862 0 0 1-1.107-.845c-.293-.368-.511-.82-.655-1.355a7.033 7.033 0 0 1-.215-1.82V8.288c0-.678.072-1.284.215-1.816a3.72 3.72 0 0 1 .655-1.354c.293-.371.66-.654 1.103-.85.443-.196.965-.293 1.569-.293.47 0 .897.076 1.28.228.381.153.709.374.981.665.273.29.487.645.642 1.065.156.42.242.894.259 1.424H6.06c-.034-.69-.199-1.208-.495-1.553-.295-.345-.705-.518-1.227-.518-.403 0-.733.072-.991.216a1.605 1.605 0 0 0-.617.608 2.75 2.75 0 0 0-.318.945 7.7 7.7 0 0 0-.09 1.233v1.053c0 .46.028.875.085 1.246.058.371.163.688.315.95.152.261.359.462.62.603.262.141.596.212 1.004.212zm11.666 1.13h-1.517V5.467h-3.37v8.015H9.594V4.147h6.42v9.335zm5.96.172c-.557 0-1.06-.083-1.508-.25a2.888 2.888 0 0 1-1.141-.763c-.313-.343-.553-.775-.72-1.299-.166-.523-.25-1.141-.25-1.855V8.435c0-.823.098-1.517.293-2.084.196-.566.453-1.026.772-1.38a2.789 2.789 0 0 1 1.098-.763 3.624 3.624 0 0 1 1.284-.233c.586 0 1.086.096 1.5.289.413.192.752.476 1.016.85.265.373.457.833.578 1.38.12.546.18 1.176.18 1.89v.888h-5.204v.215c0 1.001.188 1.729.564 2.183.377.455.918.682 1.625.682.258 0 .49-.026.698-.078a2.37 2.37 0 0 0 .568-.22c.173-.095.33-.207.474-.336a3.82 3.82 0 0 0 .405-.427l.793.966a3.43 3.43 0 0 1-.457.517c-.178.167-.39.315-.637.445s-.53.234-.85.315c-.318.08-.678.12-1.08.12zm-.172-8.368c-.264 0-.508.04-.732.12a1.367 1.367 0 0 0-.59.428c-.17.204-.306.479-.41.824-.103.345-.166.779-.19 1.302h3.671v-.207a6.735 6.735 0 0 0-.116-.996 2.478 2.478 0 0 0-.284-.78 1.364 1.364 0 0 0-.522-.51c-.218-.12-.494-.181-.827-.181zm5.435-1.139h1.534v8.032h3.37V4.147h1.516v8.032h.982l-.155 4.072h-1.352v-2.77h-5.895V4.148zm14.354 0h1.517v9.335H41.59V6.675l-3.378 6.807h-1.525V4.147h1.525v6.816l3.378-6.816zm8.943 9.335a1.896 1.896 0 0 1-.125-.444 6.638 6.638 0 0 1-.073-.574 3.3 3.3 0 0 1-.375.457c-.141.144-.299.27-.474.38a2.43 2.43 0 0 1-.569.259c-.204.063-.42.094-.65.094a3.36 3.36 0 0 1-1.108-.172 2.26 2.26 0 0 1-.849-.518 2.298 2.298 0 0 1-.542-.85 3.342 3.342 0 0 1-.19-1.177c0-.449.078-.863.233-1.242a2.68 2.68 0 0 1 .689-.984 3.26 3.26 0 0 1 1.146-.651c.46-.159.994-.238 1.603-.238h1.06V6.83c0-.558-.124-.954-.37-1.19-.248-.236-.624-.354-1.13-.354a1.75 1.75 0 0 0-.659.116 1.439 1.439 0 0 0-.487.315 1.339 1.339 0 0 0-.301.462c-.07.175-.104.36-.104.556h-1.525c0-.333.073-.665.22-.996.146-.33.356-.627.629-.889.273-.261.605-.473.995-.634.39-.16.827-.241 1.31-.241.43 0 .826.051 1.185.155.359.103.67.27.93.5.262.23.464.527.608.889.144.362.215.805.215 1.329v4.598c0 .155.006.319.018.492a5.867 5.867 0 0 0 .15.987c.038.153.08.292.125.419v.138h-1.585zm-2.034-1.217c.213 0 .414-.031.603-.094.19-.064.362-.146.517-.246.156-.101.292-.216.41-.345a1.78 1.78 0 0 0 .28-.402V8.953h-.802c-.367 0-.699.04-.995.12-.296.08-.549.197-.758.35-.21.152-.37.34-.483.565-.112.224-.168.48-.168.768 0 .281.029.519.086.711.058.193.144.348.259.466.115.118.26.203.435.255.175.052.38.077.616.077zm12.458-8.118v9.335h-1.525V5.467h-2.447l-.086 2.675c-.035.885-.1 1.662-.198 2.329-.098.667-.25 1.224-.457 1.67-.207.445-.481.78-.823 1.004-.342.225-.774.337-1.297.337h-.422l.034-1.424.293-.008c.259 0 .47-.074.634-.22.163-.147.294-.377.392-.69.097-.314.168-.718.21-1.213l.041-.528c.026-.374.048-.793.068-1.257l.146-3.995h5.437zm7.659 0h1.516v9.335h-1.516V6.675l-3.378 6.807h-1.525V4.147h1.525v6.816l3.378-6.816zm9.864 2.545c0 .42-.106.805-.318 1.156-.213.351-.515.63-.905.837.448.184.788.457 1.02.82.234.362.35.814.35 1.354 0 .443-.075.837-.224 1.182-.15.345-.36.636-.634.871a2.862 2.862 0 0 1-.978.544c-.379.127-.795.19-1.25.19-.384 0-.765-.058-1.14-.173a3.015 3.015 0 0 1-1.009-.526 2.61 2.61 0 0 1-.715-.906c-.181-.368-.272-.808-.272-1.32h1.508a1.703 1.703 0 0 0 .444 1.152 1.588 1.588 0 0 0 1.185.505c.258 0 .485-.042.68-.126a1.42 1.42 0 0 0 .488-.332c.129-.138.226-.299.293-.483a1.7 1.7 0 0 0 .099-.578c0-.523-.117-.898-.35-1.126-.232-.227-.598-.34-1.098-.34h-1.396V8.047h1.396c.247 0 .454-.032.62-.095a.998.998 0 0 0 .405-.272c.104-.118.177-.26.22-.427.043-.167.065-.35.065-.552 0-.184-.026-.361-.078-.53a1.215 1.215 0 0 0-.68-.772 1.586 1.586 0 0 0-.655-.122 1.56 1.56 0 0 0-.595.113 1.476 1.476 0 0 0-.806.785 1.433 1.433 0 0 0-.116.578h-1.508c0-.426.08-.81.241-1.152.161-.342.378-.633.65-.871.274-.24.594-.423.962-.553a3.51 3.51 0 0 1 1.172-.194c.453 0 .861.06 1.223.177.362.118.67.29.922.518.253.227.447.51.582.85.135.339.202.727.202 1.164zm7.392-2.545h1.516v9.335h-1.516V6.675l-3.378 6.807h-1.525V4.147h1.525v6.816l3.378-6.816zm10.881 5.116c0 1.478-.266 2.58-.797 3.304-.531.725-1.283 1.087-2.253 1.087-.489 0-.91-.09-1.263-.271a2.508 2.508 0 0 1-.9-.79v4.478h-1.517V4.147h1.379l.077 1.035c.247-.39.55-.69.91-.897.358-.207.788-.31 1.288-.31s.94.086 1.322.258c.382.173.703.439.961.798.259.36.455.819.59 1.377.135.557.203 1.219.203 1.984v.871zm-1.517-.871c0-1.047-.16-1.82-.482-2.317-.322-.497-.839-.746-1.551-.746-.397 0-.731.102-1.004.306a2.272 2.272 0 0 0-.66.79v4.857c.167.316.383.574.647.772.264.198.609.298 1.034.298.695 0 1.205-.253 1.53-.76.324-.506.486-1.282.486-2.329v-.871zm3.359-.009c0-.73.093-1.37.28-1.92.187-.549.442-1.007.767-1.375a3.173 3.173 0 0 1 1.142-.833 3.53 3.53 0 0 1 1.404-.28c.506 0 .98.093 1.422.28.442.187.826.464 1.15.833.325.368.58.826.767 1.376.187.549.28 1.189.28 1.92v.88c0 .724-.093 1.36-.28 1.91-.186.55-.442 1.008-.767 1.376a3.128 3.128 0 0 1-1.141.828 3.6 3.6 0 0 1-1.413.276c-.506 0-.979-.092-1.418-.276a3.12 3.12 0 0 1-1.146-.828c-.325-.368-.58-.827-.767-1.376-.187-.55-.28-1.186-.28-1.91v-.88zm1.525.88c0 .518.053.97.16 1.355.106.385.252.706.44.962.186.256.405.448.658.578.253.129.529.194.828.194 1.384 0 2.076-1.03 2.076-3.089v-.88c0-.512-.053-.96-.16-1.346a3.004 3.004 0 0 0-.439-.966 1.887 1.887 0 0 0-.663-.587 1.783 1.783 0 0 0-.832-.198 1.74 1.74 0 0 0-.818.198 1.862 1.862 0 0 0-.655.587c-.184.259-.33.581-.435.966a5.06 5.06 0 0 0-.16 1.346v.88zm7.986 4.219V4.147h3.128c.506 0 .962.052 1.37.155.408.104.754.26 1.039.47.284.21.502.477.654.799.153.322.229.701.229 1.138 0 .432-.112.82-.336 1.165-.224.345-.552.61-.983.794a2.11 2.11 0 0 1 1.185.81c.135.19.236.402.302.635.066.233.099.473.099.72 0 .443-.07.83-.211 1.16-.14.331-.343.606-.608.825a2.691 2.691 0 0 1-.965.496 4.53 4.53 0 0 1-1.284.168h-3.619zm1.517-4.098v2.812h2.102c.529 0 .918-.123 1.168-.37.25-.248.375-.596.375-1.044 0-.443-.125-.787-.375-1.031-.25-.245-.64-.367-1.168-.367h-2.102zm0-1.277h1.594c1.189 0 1.784-.437 1.784-1.311 0-.903-.59-1.355-1.767-1.355h-1.611v2.666zm12.225 5.375a1.896 1.896 0 0 1-.125-.444 6.639 6.639 0 0 1-.073-.574 3.3 3.3 0 0 1-.375.457 2.55 2.55 0 0 1-.474.38 2.43 2.43 0 0 1-.568.259 2.194 2.194 0 0 1-.651.094c-.408 0-.777-.057-1.107-.172a2.26 2.26 0 0 1-.85-.518 2.298 2.298 0 0 1-.542-.85 3.342 3.342 0 0 1-.19-1.177c0-.449.078-.863.233-1.242a2.68 2.68 0 0 1 .69-.984 3.26 3.26 0 0 1 1.146-.651c.46-.159.993-.238 1.602-.238h1.06V6.83c0-.558-.123-.954-.37-1.19s-.624-.354-1.13-.354a1.75 1.75 0 0 0-.658.116 1.439 1.439 0 0 0-.487.315 1.339 1.339 0 0 0-.302.462 1.5 1.5 0 0 0-.103.556h-1.525c0-.333.073-.665.22-.996.146-.33.355-.627.628-.889a3.17 3.17 0 0 1 .996-.634c.39-.16.827-.241 1.31-.241.43 0 .825.051 1.184.155.36.103.67.27.93.5.262.23.465.527.608.889.144.362.216.805.216 1.329v4.598c0 .155.006.319.017.492a5.867 5.867 0 0 0 .15.987c.038.153.08.292.126.419v.138h-1.586zm-2.033-1.217c.212 0 .413-.031.603-.094a2.154 2.154 0 0 0 .927-.591 1.78 1.78 0 0 0 .28-.402V8.953h-.802c-.368 0-.7.04-.995.12-.296.08-.55.197-.759.35-.21.152-.37.34-.482.565-.112.224-.168.48-.168.768 0 .281.028.519.086.711a1.1 1.1 0 0 0 .258.466c.115.118.26.203.436.255.175.052.38.077.616.077zm12.432 1.217h-1.517V9.496h-3.36v3.986h-1.534V4.147h1.534v4.046h3.36V4.147h1.517v9.335zm9.175 0h-1.517V9.496h-3.36v3.986h-1.534V4.147h1.534v4.046h3.36V4.147h1.517v9.335zm4.28-6.117h1.896c.483 0 .907.076 1.271.229.365.152.673.362.922.63.25.267.439.586.565.957.126.371.19.775.19 1.212 0 .432-.064.836-.19 1.212a2.736 2.736 0 0 1-.565.98 2.69 2.69 0 0 1-.922.655c-.364.161-.788.242-1.27.242h-3.413V4.147h1.517v3.218zm7.687 6.117h-1.525V4.147h1.525v9.335zm-7.686-4.814v3.511h1.895c.265 0 .487-.049.668-.147.181-.097.328-.227.44-.388a1.6 1.6 0 0 0 .241-.552 2.772 2.772 0 0 0 0-1.268 1.785 1.785 0 0 0-.241-.578 1.304 1.304 0 0 0-.44-.419 1.298 1.298 0 0 0-.668-.16h-1.895zm15.577-4.52h1.517v9.334h-1.517V6.675l-3.378 6.807h-1.525V4.147h1.525v6.816l3.378-6.816zm.896-3.4c0 .34-.058.65-.176.932a2.037 2.037 0 0 1-.513.729 2.403 2.403 0 0 1-.814.479 3.145 3.145 0 0 1-1.073.172 3.15 3.15 0 0 1-1.073-.172 2.403 2.403 0 0 1-.814-.48 2.084 2.084 0 0 1-.517-.728 2.343 2.343 0 0 1-.181-.932h1.301c0 .173.023.337.069.492a1.041 1.041 0 0 0 .616.69c.164.069.363.104.599.104.23 0 .426-.035.59-.104a1.07 1.07 0 0 0 .4-.28c.104-.118.179-.255.225-.41.046-.155.069-.32.069-.492h1.292zM8.12 36.315l2.47-8.989h4.319v13.178h-3.443v-7.052l-2.19 7.052h-2.3l-2.104-6.82v6.82h-3.43V27.326h4.245l2.433 8.989zm15.9 4.19a2.637 2.637 0 0 1-.164-.47 12.66 12.66 0 0 1-.128-.554 3.31 3.31 0 0 1-1.003.902c-.41.243-.91.365-1.503.365a4.003 4.003 0 0 1-1.502-.28 3.625 3.625 0 0 1-1.217-.792 3.689 3.689 0 0 1-.815-1.236 4.24 4.24 0 0 1-.298-1.626c0-.666.108-1.269.323-1.809.215-.54.54-.998.973-1.376.434-.378.977-.668 1.63-.87.653-.204 1.421-.305 2.305-.305h.937v-1.06c0-.593-.101-1.01-.304-1.254-.203-.244-.499-.366-.888-.366-.446 0-.773.132-.98.396-.206.264-.31.635-.31 1.114h-3.442a4 4 0 0 1 .334-1.626c.223-.507.546-.952.967-1.333a4.72 4.72 0 0 1 1.521-.908c.592-.223 1.261-.335 2.007-.335.657 0 1.261.084 1.813.25.551.167 1.03.426 1.435.78.406.353.722.804.95 1.352.226.548.34 1.207.34 1.979v5.846c0 .382.01.72.03 1.017.02.296.051.564.092.804a4.303 4.303 0 0 0 .365 1.188v.206H24.02zm-2.031-2.46c.381 0 .705-.078.973-.232.268-.155.466-.337.596-.548v-2.74h-.815c-.324 0-.604.052-.84.158a1.641 1.641 0 0 0-.59.438 1.836 1.836 0 0 0-.352.658c-.077.251-.116.52-.116.804 0 .479.1.842.298 1.09.2.247.48.371.846.371zM37.195 30.2h-4.27v10.304h-3.442V27.326h7.712V30.2zm7.786 10.304a2.637 2.637 0 0 1-.164-.468 12.66 12.66 0 0 1-.128-.555c-.26.358-.594.658-1.003.902-.41.243-.91.365-1.503.365a4.003 4.003 0 0 1-1.502-.28 3.625 3.625 0 0 1-1.217-.792 3.689 3.689 0 0 1-.815-1.236 4.24 4.24 0 0 1-.298-1.626c0-.666.108-1.269.323-1.809.214-.54.539-.998.973-1.376.434-.378.977-.668 1.63-.87.653-.204 1.421-.305 2.305-.305h.937v-1.06c0-.593-.101-1.01-.304-1.254-.203-.244-.499-.366-.888-.366-.446 0-.773.132-.98.396-.206.264-.31.635-.31 1.114h-3.443a4 4 0 0 1 .335-1.626 3.89 3.89 0 0 1 .967-1.333 4.72 4.72 0 0 1 1.52-.908c.593-.223 1.262-.335 2.008-.335.657 0 1.261.084 1.813.25.551.167 1.03.426 1.435.78.406.353.722.804.95 1.352.226.548.34 1.207.34 1.979v5.846c0 .382.01.72.03 1.017.02.296.05.564.091.804a4.303 4.303 0 0 0 .365 1.188v.206h-3.467zm-2.031-2.46c.38 0 .705-.077.973-.231.268-.155.466-.337.596-.548v-2.74h-.815c-.324 0-.604.052-.84.158a1.641 1.641 0 0 0-.59.438 1.836 1.836 0 0 0-.352.658c-.077.251-.116.52-.116.804 0 .479.1.842.298 1.09.199.247.48.371.846.371zm11.995-5.42c.397 0 .68-.13.851-.39.17-.26.256-.596.256-1.01 0-.18-.017-.354-.049-.524a1.435 1.435 0 0 0-.17-.463.945.945 0 0 0-.335-.335 1.038 1.038 0 0 0-.541-.128c-.398 0-.71.116-.937.347-.227.232-.34.567-.34 1.005h-3.443c0-.633.117-1.198.352-1.693.236-.495.558-.917.968-1.267.41-.349.89-.615 1.441-.797a5.614 5.614 0 0 1 1.776-.274 7 7 0 0 1 1.94.25c.58.166 1.075.41 1.485.73.41.32.726.72.949 1.2.223.479.334 1.031.334 1.656 0 .585-.15 1.123-.45 1.614-.3.491-.718.883-1.253 1.175.617.26 1.087.648 1.411 1.164.325.515.487 1.146.487 1.893 0 .626-.122 1.184-.365 1.675a3.604 3.604 0 0 1-1.016 1.249 4.6 4.6 0 0 1-1.557.78 6.948 6.948 0 0 1-1.977.267 6.188 6.188 0 0 1-1.721-.244 4.463 4.463 0 0 1-1.503-.749 3.84 3.84 0 0 1-1.064-1.285c-.272-.52-.408-1.14-.408-1.863h3.443c0 .195.027.382.08.56.052.179.137.335.255.47.117.133.267.24.45.322.182.081.403.122.663.122.243 0 .448-.045.614-.134.166-.09.298-.207.396-.353.097-.147.168-.315.212-.506.045-.19.067-.384.067-.578 0-.569-.107-.977-.322-1.225-.215-.247-.541-.371-.98-.371h-1.617v-2.29h1.618zm13.296-5.298h3.431v13.178h-3.43v-8.099l-3.066 8.1H61.72v-13.18h3.455v8.087l3.065-8.087zm15.852 13.178H80.65V35.45h-3.03v5.054h-3.454V27.326h3.455V32.6h3.029v-5.274h3.443v13.178zm8.43 0V22.771h5.475c.884 0 1.676.097 2.378.292.702.195 1.296.493 1.782.895a3.87 3.87 0 0 1 1.113 1.517c.256.609.384 1.327.384 2.156 0 .406-.043.795-.128 1.169a3.893 3.893 0 0 1-.402 1.047c-.182.325-.413.62-.693.883-.28.264-.614.481-1.004.652.454.13.84.327 1.156.59.316.265.572.571.766.92.195.35.337.729.426 1.139.09.41.134.83.134 1.26 0 1.722-.472 3.021-1.417 3.898-.945.877-2.314 1.315-4.106 1.315h-5.864zm3.577-7.71v4.739h2.287c.349 0 .647-.057.894-.17.247-.115.45-.275.608-.482.159-.207.274-.449.347-.725.073-.276.11-.58.11-.913 0-.755-.14-1.352-.42-1.79-.28-.439-.752-.658-1.417-.658h-2.41zm0-2.606h1.861c.714 0 1.243-.184 1.588-.554.344-.37.517-.911.517-1.626 0-.804-.162-1.38-.487-1.73-.324-.349-.851-.523-1.581-.523H96.1v4.433zm22.87 3.045c0 1.243-.153 2.335-.462 3.277-.308.941-.74 1.725-1.295 2.35a5.315 5.315 0 0 1-2.007 1.413c-.783.317-1.649.475-2.598.475-.949 0-1.816-.158-2.603-.475a5.412 5.412 0 0 1-2.026-1.413c-.563-.625-1.001-1.409-1.314-2.35-.312-.942-.468-2.034-.468-3.277v-2.947c0-1.275.154-2.398.462-3.368.309-.97.742-1.78 1.302-2.43a5.36 5.36 0 0 1 2.02-1.467c.786-.33 1.654-.494 2.603-.494.949 0 1.815.165 2.597.494a5.424 5.424 0 0 1 2.02 1.467c.563.65 1 1.46 1.307 2.43.309.97.463 2.093.463 3.368v2.947zm-3.588-2.972c0-.844-.06-1.565-.183-2.162-.121-.596-.3-1.086-.535-1.467-.235-.382-.527-.662-.876-.84a2.605 2.605 0 0 0-1.204-.269c-.462 0-.868.09-1.217.268-.348.18-.64.46-.876.84-.235.382-.413.872-.535 1.468-.121.597-.182 1.318-.182 2.162v2.972c0 .804.06 1.492.182 2.065.122.572.302 1.041.542 1.406.239.366.535.634.888.804.352.17.76.256 1.222.256.454 0 .854-.085 1.198-.256a2.19 2.19 0 0 0 .87-.804c.236-.365.412-.834.53-1.406.117-.573.176-1.26.176-2.065v-2.972zm13.637 5.59c0-.308-.028-.584-.085-.827a1.633 1.633 0 0 0-.359-.689c-.182-.215-.442-.424-.778-.627a9.84 9.84 0 0 0-1.345-.645c-.665-.252-1.3-.54-1.904-.865a7.151 7.151 0 0 1-1.593-1.151 5.15 5.15 0 0 1-1.095-1.535c-.272-.58-.408-1.256-.408-2.028 0-.738.138-1.414.414-2.028a4.451 4.451 0 0 1 1.162-1.565 5.427 5.427 0 0 1 1.776-1.004c.685-.24 1.442-.36 2.269-.36.851 0 1.62.136 2.305.408a5.1 5.1 0 0 1 1.752 1.133c.482.483.853 1.06 1.113 1.73.26.67.39 1.406.39 2.21h-3.565c0-.373-.039-.716-.116-1.029a2.218 2.218 0 0 0-.365-.804 1.716 1.716 0 0 0-.638-.524c-.26-.125-.572-.188-.937-.188-.34 0-.635.052-.882.158a1.7 1.7 0 0 0-.614.432c-.163.183-.284.4-.365.652-.081.252-.122.52-.122.804 0 .292.063.556.189.791.125.236.304.455.535.658.231.203.51.394.84.573.328.178.69.353 1.088.523.827.3 1.55.634 2.165.999.617.365 1.132.78 1.545 1.242.414.463.722.985.925 1.565.203.581.304 1.237.304 1.967 0 .78-.128 1.474-.383 2.083a4.174 4.174 0 0 1-1.095 1.54 4.9 4.9 0 0 1-1.721.963c-.673.223-1.432.335-2.275.335a7.44 7.44 0 0 1-2.245-.347 5.736 5.736 0 0 1-1.964-1.066 5.343 5.343 0 0 1-1.393-1.815c-.353-.73-.53-1.6-.53-2.606h3.59c0 .536.052.99.157 1.364.106.374.266.676.48.907.216.232.481.398.798.5a3.63 3.63 0 0 0 1.107.152c.34 0 .63-.05.87-.152.239-.102.433-.24.584-.414.15-.175.257-.384.322-.627a3.07 3.07 0 0 0 .097-.792zM147 34.598c-.089 2.022-.656 3.553-1.703 4.592-1.046 1.04-2.522 1.559-4.428 1.559-.981 0-1.857-.162-2.627-.487a4.991 4.991 0 0 1-1.947-1.45c-.527-.641-.93-1.435-1.21-2.38-.28-.947-.42-2.037-.42-3.27V30.14c0-1.235.144-2.327.432-3.277.288-.95.703-1.746 1.247-2.387a5.25 5.25 0 0 1 1.97-1.455c.771-.33 1.639-.494 2.604-.494 1.93 0 3.396.54 4.398 1.62 1.001 1.08 1.571 2.631 1.709 4.653h-3.589c-.016-.634-.07-1.163-.164-1.59-.093-.426-.237-.765-.432-1.017a1.576 1.576 0 0 0-.76-.536c-.313-.105-.7-.158-1.162-.158-.479 0-.886.081-1.223.244-.336.162-.61.424-.82.785-.212.362-.368.837-.47 1.425-.1.589-.151 1.31-.151 2.162v3.045c0 .828.04 1.535.121 2.12.081.584.223 1.061.426 1.43.203.37.47.64.803.81.333.171.754.256 1.265.256a3.96 3.96 0 0 0 1.126-.14 1.6 1.6 0 0 0 .772-.493c.203-.236.357-.56.462-.975.106-.414.17-.937.195-1.57H147zm14.623 5.907h-3.564v-7.587h-5.28v7.587h-3.577V22.771h3.577v7.174h5.28V22.77h3.564v17.733z"/></svg>