<svg width="184" height="40" xmlns="http://www.w3.org/2000/svg"><path d="M46.398 0v15.943h4.057v-5.429h2.343c4.286 0 5.543-3.085 5.543-5.257C58.34 3.086 57.14 0 52.798 0h-6.4zm46.286 16.114v4.457h3.771v-4.514c2.286 0 6-.914 6-5.6 0-4.628-3.714-5.543-6-5.543V.23h-3.771v4.74c-2.286-.057-6 .915-6 5.543 0 4.686 3.714 5.6 6 5.6zm17.086 4.457v-4.457c-2.286 0-6-.914-6-5.6 0-4.628 3.714-5.6 6-5.543V.23h3.77v4.685c2.287 0 6 .915 6 5.543 0 4.686-3.713 5.6-6 5.6v4.514h-3.77zM79.598 3.714c1.714 0 3.486-.685 4.286-2.514L81.427.286C81.14 1.543 80.055 1.6 79.598 1.6c-.457 0-1.486-.057-1.828-1.314l-2.458.914c.8 1.829 2.572 2.514 4.286 2.514zm61.543 0c1.714 0 3.486-.685 4.286-2.514L142.97.286c-.286 1.257-1.372 1.314-1.83 1.314-.456 0-1.485-.057-1.77-1.314l-2.458.914c.686 1.829 2.515 2.514 4.229 2.514zM50.512 3.43v3.6h1.372c1.886 0 2.057-1.143 2.057-1.829 0-.743-.229-1.771-2.057-1.771h-1.372zm20.8 1.657v10.8h-3.771v-1.2h-.057c-.686 1.085-2 1.543-3.2 1.543-3.143 0-5.372-2.686-5.372-5.772 0-3.086 2.172-5.771 5.372-5.771 1.2 0 2.514.457 3.314 1.428V5.086h3.714zm61.543 0v10.8h-3.771v-1.2h-.057c-.686 1.085-2 1.543-3.2 1.543-3.143 0-5.372-2.686-5.372-5.772 0-3.086 2.172-5.771 5.372-5.771 1.2 0 2.514.457 3.314 1.428V5.086h3.714zm19.258 2.171c-.914 0-2 .4-2.8.914l-.972-2.342c1.143-.629 2.858-1.086 4.4-1.086 1.6 0 4.286.514 4.286 3.028 0 1.143-.571 2.115-1.543 2.515 1.486.4 2.172 1.543 2.172 2.685 0 .8-.515 3.315-4.857 3.315a9.56 9.56 0 01-4.858-1.315l.972-2.571c1.086.686 1.943 1.029 3.257 1.029s1.543-.686 1.543-1.029c0-.857-1.03-.914-1.543-.914h-1.657V9.143h1.886c.342 0 1.257 0 1.257-.914 0-.915-1.086-.972-1.543-.972zm18.343 3.714v.4h-7.943c0 1.543.8 2.4 2.343 2.4.8 0 1.37-.285 1.828-.971h3.657c-.628 2.571-2.971 3.714-5.428 3.714-3.543 0-6.172-2-6.172-5.771 0-3.6 2.458-5.772 5.886-5.772 3.714 0 5.829 2.286 5.829 6zm-96.8 4.915v-10.8h3.77v5.771l3.772-5.771h3.657v10.8h-3.771V9.943l-3.772 5.943h-3.657zm61.542 0v-10.8h3.829v5.771l3.771-5.771h3.658v10.8h-3.772V9.943l-3.772 5.943h-3.714zm37.143.057h3.772V11.6h3.486v4.343h3.77V5.086h-3.77v3.828h-3.486V5.086h-3.772v10.857zm-5.371-6.8h-4.4c.229-1.086 1.143-1.714 2.229-1.714 1.028 0 2 .685 2.17 1.714zm-74-1.543v6c-1.315 0-2.63-.971-2.572-2.971 0-2.115 1.314-3.029 2.572-3.029zm3.314 0v6c1.257 0 2.571-.914 2.571-2.971 0-2.115-1.314-3.029-2.571-3.029zm13.714 6v-6c-1.257 0-2.571.914-2.571 3.029 0 2 1.314 2.971 2.571 2.971zm3.372 0v-6c1.257 0 2.57.914 2.57 3.029 0 2.057-1.313 2.971-2.57 2.971zm-50.63-3.086c0-1.314.915-2.457 2.458-2.457 1.543 0 2.457 1.143 2.457 2.457 0 1.315-.914 2.4-2.457 2.4-1.543 0-2.457-1.028-2.457-2.4zm61.544 0c0-1.314.914-2.457 2.457-2.457 1.543 0 2.457 1.143 2.457 2.457 0 1.315-.914 2.4-2.457 2.4-1.543 0-2.457-1.028-2.457-2.4zM57.998 37.886c.8-.743 1.143-1.829 1.314-2.915.286-1.485-.228-2.685-1.257-3.485-1.257-1.086-3.028-1.257-4.457-1.257h-1.886l.515-3.2h6.571l.514-3.143H48.455L45.77 39.77h6.342c1.6-.057 4.172-.171 5.886-1.885zm12.743-.857h-6l-1.6 2.742h-4.629l9.086-15.885h4.743l3.657 15.885H71.37l-.63-2.742zm11.771-7.2l.972-5.943h-4.229L76.684 39.77h4.228l1.086-6.857h5.772l-1.086 6.857h4.228l2.572-15.885h-4.229l-.971 5.943h-5.772zm17.772-5.943h-4.4L93.255 39.77h4.343l1.143-6.914h.057l4.457 6.914h5.657l-5.885-8.342 7.885-7.543h-5.371l-6.343 6.571h-.057l1.143-6.571zm-31.086 4.857l.914 5.086h-3.6l2.629-5.086h.057zM51.312 33.2l-.571 3.371h1.086c2.514 0 2.971-.685 3.143-1.6.171-1.028-.058-1.771-2.515-1.771h-1.143z" fill-rule="evenodd"/><path d="M1.314 1.314h37.143v37.143H1.314V1.314z" fill="#FAEB00"/><path d="M39.771 39.771H0V0h39.771v39.771zM38.457 1.314H1.314v37.143h37.143V1.314z" fill-rule="evenodd"/><path d="M19.886 24.4L8.457 35.829l-4.514-4.515L15.37 19.886l-2.4-2.4V12.8l-1.657-1.657v4.114l-1.428 1.429-5.829-5.772-1.428 1.429c0-1.086.228-4.229 2.857-6.8 2.857-2.743 5.943-1.486 7.028-.457l5.829 5.771-1.486 1.486 3.029 3.028 3.028-3.028-1.485-1.486 5.828-5.828c1.086-1.029 4.172-2.286 7.029.457a9.707 9.707 0 012.857 6.8l-1.429-1.429-5.828 5.829-1.429-1.429v-4.114L26.8 12.8v4.686l-2.4 2.4 11.429 11.428-4.515 4.515L19.886 24.4z"/></svg>