<svg width="240" height="17" xmlns="http://www.w3.org/2000/svg"><g fill="#C8102E"><path d="M107.42.758c3.84 0 6.415 2.092 6.415 5.437 0 2.035-.977 3.667-2.622 4.622l3.645 5.414h-4.484l-2.93-4.483h-2.932v4.483h-3.852V.758h6.76zm-2.908 7.53h2.84c1.483 0 2.643-.817 2.643-2.093 0-1.253-1.16-2.046-2.644-2.046h-2.84v4.139z" fill-rule="evenodd"/><path d="M128.433 4.103V.758h-11.69V16.23h11.69v-3.345h-7.84v-2.679h6.863V6.931h-6.862V4.103h7.84z"/><path d="M137.239.758c4.862 0 8.346 3.161 8.346 7.69 0 4.599-3.484 7.783-8.346 7.783h-6.208V.758h6.208zm0 3.46h-2.369v8.553h2.369c2.528 0 4.46-1.862 4.46-4.323 0-2.39-1.932-4.23-4.46-4.23z" fill-rule="evenodd"/><path d="M151.55.758h-3.85V16.23h3.85V.758zm2.024 0v3.437h4.437v12.036h3.817V4.195h4.449V.758h-12.703zM90.853 16.53c3.908 0 6.805-2.334 7.61-5.863h-4.07c-.597 1.426-1.827 2.265-3.563 2.265-2.53 0-4.277-1.862-4.277-4.437 0-2.576 1.748-4.438 4.277-4.438 1.724 0 2.966.85 3.564 2.265h4.07C97.658 2.792 94.76.459 90.853.459c-4.656 0-8.185 3.368-8.185 8.036 0 4.667 3.53 8.035 8.185 8.035z"/><path d="M188.465 4.93c0 1.426-.793 2.91-2.139 3.392 1.886.414 2.817 2.012 2.828 3.667 0 2.575-2.08 4.311-5.564 4.311h-7.793V.804h7.333c3.369 0 5.335 1.598 5.335 4.127zm-8.818-.976h2.886c1.483 0 2.253.529 2.253 1.506 0 1-.793 1.736-2.253 1.736h-2.886V3.954zm0 9.162h3.438c1.598 0 2.3-.713 2.3-1.621 0-.954-.795-1.506-2.232-1.506h-3.506v3.127zm9.701 3.184L195.935.804h3.69l6.564 15.496h-4.104l-1.046-2.667h-6.564l-1.023 2.667h-4.104zm8.403-11.093l-2.023 5.219h4.058l-2.035-5.22z" fill-rule="evenodd"/><path d="M217.892 9.53L210.42.803h-2.943V16.3h3.851V7.805l7.426 8.495h2.966V.804h-3.828v8.725zM239.494.804h-4.552l-6.184 7.116V.804h-3.852V16.3h3.852v-3.138l2.276-2.644 4.15 5.782H240l-6.403-8.702 5.897-6.794zM3.84 10.347h6.3v5.805h3.827V.679H10.14v6.219h-6.3V.678H0v15.474h3.84v-5.805zm41.453-2.001l3.46 5.346v.023h2.139v-.023l3.437-5.3v7.76h3.851V.679h-2.874l-5.484 8.265L44.34.68h-2.862v15.473h3.84l-.024-7.806zm27.761 4.461h-7.84v-2.679h6.863V6.852h-6.863V4.024h7.84V.679h-11.69v15.473h11.69v-3.345zm-41.281 3.344h5.345c1.07-1.62 1.69-3.54 1.69-5.598C38.808 4.725 33.854 0 27.726 0c-6.115 0-11.081 4.725-11.081 10.553 0 2.058.62 3.978 1.69 5.598h5.345A6.723 6.723 0 0121 10.794a6.726 6.726 0 0113.45 0 6.756 6.756 0 01-2.678 5.357z"/><path d="M27.715 14.945c1.69 0 3.115-1.116 3.632-2.656h-7.265c.529 1.54 1.954 2.656 3.633 2.656z"/></g></svg>