<svg width="240" height="38" xmlns="http://www.w3.org/2000/svg"><path d="M201.941.343h.858v37.114h-.858V.343z"/><path d="M214.285 23.143h2.914c1.715 0 2.743-.857 2.829-2.486v-.086c0-1.714-1.114-2.4-2.829-2.4h-1.885v-2.743h4.028v-.857h-5.057v8.572zm4.629-2.4c0 1.028-.515 1.628-1.8 1.628h-1.886v-3.343h1.8c1.286 0 1.886.6 1.886 1.629v.086zm5.228-1.286c-1.628 0-3.171.514-3.171 1.971 0 1.286.857 1.886 2.057 1.886.943 0 1.543-.343 1.971-.943v.772h1.029v-4.2c0-1.715-1.114-2.229-2.314-2.229s-2.315.514-2.486 1.972h1.029c.085-.772.6-1.115 1.457-1.115 1.028 0 1.371.429 1.371 1.457v.429h-.943zm.857.771V21c0 .943-.857 1.457-1.8 1.457-.857 0-1.2-.343-1.2-1.029 0-.857.858-1.2 2.143-1.2H225z" fill-rule="evenodd"/><path d="M231.77 20.4h-3.085v2.743h-1.028v-6.257h1.028v2.657h3.086v-2.657h1.028v6.257h-1.028V20.4zm3.687-.429v3.172h-1.029v-6.257h1.029V19.8l2.571-2.914h1.2l-2.657 2.914 2.914 3.343h-1.2l-2.828-3.172z"/><g fill-rule="evenodd"><path d="M18.6.429C8.314.429 0 8.743 0 19.029c0 10.285 8.314 18.6 18.6 18.6 10.286 0 18.6-8.315 18.6-18.6 0-10.286-8.314-18.6-18.6-18.6zm-2.571 26.485l-1.372 4.029c-5.143-1.714-8.571-6.6-8.571-12.086 0-5.486 3.428-10.286 8.657-12.086l1.371 4.029c-3.428 1.114-5.657 4.371-5.657 7.971-.171 3.772 2.143 7.029 5.572 8.143zm5.057 0l1.285 4.115c5.315-1.629 8.915-6.515 8.915-12.172a12.713 12.713 0 00-8.743-12.086l-1.372 4.115C24.6 12 26.914 15.17 26.914 18.857S24.6 25.8 21.086 26.914z" fill="#00BEF0"/><path d="M116.229 18.943c0-4.972-3.429-8.572-8.058-8.572-2.228 0-4.028.772-5.4 2.4V10.8h-3.514v23.229h3.6v-8.572c1.286 1.372 3.086 2.143 5.314 2.143 4.715 0 8.058-3.771 8.058-8.657zM55.2 10.457c-5.057 0-8.829 3.686-8.829 8.572 0 4.885 3.858 8.571 8.829 8.657 5.057 0 8.829-3.772 8.829-8.657 0-4.886-3.858-8.572-8.829-8.572zm135.771 14.4l-2.057-2.486c-1.457 1.458-3.086 1.972-4.714 1.972-1.458 0-2.572-.257-3.515-.857-1.114-.686-1.885-1.972-1.97-3.343h12.856c.43-5.486-2.314-9.686-7.97-9.686-5.059 0-8.487 3.772-8.487 8.829 0 3.343 1.371 6.085 4.114 7.457 1.286.6 2.743.943 4.8.943 2.143 0 4.8-.6 6.943-2.829zm-93.857 2.314h-4.628L87 20.571h-1.629v6.515h-3.514V10.714h3.514v6.343H87l5.486-6.343h4.543l-7.2 7.972 7.285 8.485zM64.63 10.8h14.74v3.257H73.8v13.114h-3.6V14.057h-5.571V10.8zm61.714 16.371c3.428 0 5.828-2.314 5.828-5.571 0-3.257-2.057-5.486-5.485-5.486h-4.029V10.8h-3.514v16.371h7.2zm7.886 0h3.514V10.8h-3.514v16.371zM154.97 10.8h-14.74v3.257h5.571v13.114h3.6V14.057h5.571V10.8zm17.314 0v16.371h-3.514V16.63l-8.57 10.542h-2.83V10.8h3.514v10.543l8.572-10.543h2.828zm6.515 6.343h9.085c-.257-1.972-1.885-3.686-4.457-3.686-2.657 0-4.286 1.886-4.628 3.686zM60.343 19.029c0-3.086-2.143-5.315-5.143-5.315-2.914 0-5.143 2.229-5.143 5.315 0 3.085 2.143 5.314 5.143 5.314 2.914 0 5.143-2.229 5.143-5.314zm47.228-5.315c-3 0-4.971 2.315-4.971 5.229s1.971 5.228 4.971 5.228 4.886-2.228 4.886-5.228c.086-2.829-1.8-5.229-4.886-5.229zm21.086 7.886c0-1.457-1.028-2.486-2.4-2.486h-3.6v5.057h3.6c1.372 0 2.4-1.114 2.4-2.571z"/></g></svg>