<svg width="219" height="40" xmlns="http://www.w3.org/2000/svg"><path d="M70.449 11.345a6.438 6.438 0 00-4.846-1.533H53.23v20.24h3.698v-6.747h8.675c4.338 0 7.07-2.41 7.07-6.586v-.803a6.438 6.438 0 00-2.224-4.57zm-1.473 5.695a3.024 3.024 0 01-3.213 2.731h-8.998v-6.748h9.32a3.24 3.24 0 012.891 3.535v.482z" fill-rule="evenodd"/><path d="M86.144 30.378c-6.425 0-11.726-4.336-11.726-10.604 0-6.268 5.302-10.605 11.726-10.605 6.425 0 11.727 4.337 11.727 10.605 0 6.268-5.302 10.604-11.727 10.604m0-17.83a7.356 7.356 0 00-7.87 6.747v.484c0 4.177 3.052 7.229 7.87 7.229 4.82 0 7.871-3.052 7.871-7.229s-3.052-7.229-7.87-7.229m26.792 17.827c-6.747 0-11.726-4.336-11.726-10.604 0-6.268 5.14-10.605 11.726-10.605 3.37-.126 6.674.957 9.317 3.052l-1.928 2.902a12.026 12.026 0 00-7.229-2.57c-4.98 0-8.031 3.051-8.031 7.069s3.052 7.229 8.031 7.229c2.663.04 5.262-.808 7.39-2.41l1.927 2.892a16.221 16.221 0 01-9.477 3.045"/><path d="M150.945 29.73l2.249-4.818 10.922.005 2.249 4.818h4.016l-9.798-20.079h-3.855l-9.798 20.075h4.015zm11.565-8.03h-7.71l3.855-8.193 3.855 8.193z" fill-rule="evenodd"/><path d="M189.98 29.892v-8.675h-13.173v8.675h-3.694V9.812h3.695v8.193h13.172V9.812h3.691v20.08h-3.692zm9.313 0V9.812h3.695v9.317l10.12-9.317h4.498l-10.281 9.639 10.759 10.44h-4.98l-10.116-9.798v9.799h-3.695zm-60.666-12.847h-8.674v-4.177h14.296V9.656h-18.151v20.08h12.372c4.336 0 7.389-2.41 7.389-6.426s-2.732-6.265-7.23-6.265m.322 9.316h-8.996V20.42h8.996c2.249 0 3.695 1.285 3.695 3.052 0 1.768-1.125 3.052-3.695 2.891"/><path d="M0 0h40.32v20.56H0V0z" fill="#E9041E"/><path d="M0 19.546h40.32v20.079H0v-20.08z"/><path d="M6.922 18.463h26.183v2.41H6.922v-2.41z" fill="#FFF"/></svg>