<svg width="240" height="30" xmlns:xlink="http://www.w3.org/1999/xlink" xmlns="http://www.w3.org/2000/svg"><defs><clipPath id="b"><use xlink:href="#a"/></clipPath><path d="M0 0h15.383v29.579H0V0z" transform="translate(0 .16)" id="a"/></defs><path d="M17.747.458v7.688H14.79a6.804 6.804 0 100 13.606h2.957v7.69c6.752-1.368 11.832-7.336 11.832-14.493 0-7.155-5.08-13.121-11.832-14.491" fill="#213A8F"/><path d="M0 .16h15.383v29.58H0V.16z" fill="none"/><g clip-path="url(#b)"><path d="M14.79 24.119a9.168 9.168 0 01-9.169-9.17 9.167 9.167 0 019.17-9.168h.592V.174C15.185.168 14.99.16 14.79.16 6.623.16 0 6.782 0 14.95s6.623 14.79 14.79 14.79c.199 0 .395-.003.593-.013V24.12h-.593z" fill="#E9515A"/></g><path d="M50.46 20.083a6.663 6.663 0 01-10.911-5.133 6.663 6.663 0 016.662-6.663c1.681 0 3.213.627 4.385 1.655l2.346-2.347A9.933 9.933 0 0046.21 4.97c-5.512 0-9.98 4.468-9.98 9.981s4.468 9.982 9.98 9.982c2.53 0 4.835-.95 6.594-2.502l-2.346-2.347zM156.61 5.737l-7.351 8.874-7.408-8.874-.038.085v-.085l-2.958.003v18.383h2.958V10.655l7.446 8.854 7.35-8.676v13.29h2.956V5.74l-2.956-.003z" fill="#E9515A"/><path d="M65.075 24.932c5.512 0 9.98-4.47 9.98-9.982 0-5.513-4.468-9.981-9.98-9.981-5.513 0-9.981 4.468-9.981 9.981s4.468 9.982 9.98 9.982zm0-16.645a6.663 6.663 0 016.662 6.663 6.663 6.663 0 11-6.662-6.663zm60.765 16.645c5.512 0 9.981-4.47 9.981-9.982 0-5.513-4.469-9.981-9.98-9.981-5.513 0-9.982 4.468-9.982 9.981s4.47 9.982 9.981 9.982zm0-16.645a6.663 6.663 0 016.663 6.663 6.663 6.663 0 11-6.663-6.663z" fill="#E9515A" fill-rule="evenodd"/><path d="M115.825 5.733h-3.991l-7.59 7.75h-3.065V5.74h-2.956v18.382h2.956V16.44h3.037l7.52 7.667h3.992l-8.957-9.13 9.054-9.244z" fill="#E9515A"/><path d="M239.587 5.733h-3.991l-7.59 7.75h-3.064V5.74h-2.958v18.382h2.958V16.44h3.036l7.52 7.667h3.992l-8.956-9.13 9.053-9.244z" fill="#213A8F"/><path d="M199.62 24.123h-3.258l-1.761-3.966h-9.487l-1.76 3.966h-3.26l8.103-18.386h3.32l8.104 18.386zm-9.763-14.647l-3.43 7.723h6.86l-3.43-7.723z" fill="#213A8F" fill-rule="evenodd"/><path d="M92.833 14.957a5.304 5.304 0 011.653 3.846 5.33 5.33 0 01-5.278 5.323v.009h-10.74V5.777h10.74v.012a5.329 5.329 0 015.277 5.323 5.306 5.306 0 01-1.652 3.845zM81.425 8.735h7.737v.01a2.37 2.37 0 012.366 2.367 2.37 2.37 0 01-2.365 2.367h-.002v.004h-7.736V8.735zm7.736 12.442v-.006a2.37 2.37 0 002.367-2.368 2.367 2.367 0 00-2.322-2.362h-7.78v4.736h7.735z" fill="#E9515A" fill-rule="evenodd"/><path d="M215.391 5.776v7.706h-10.735V5.776H201.7v18.291h2.957V16.44h10.735v7.627h2.957V5.777h-2.957z" fill="#213A8F"/><path d="M173.716 13.478a5.33 5.33 0 015.325 5.325 5.33 5.33 0 01-5.278 5.323v.009h-10.74V5.777h14.228v2.958h-11.27v4.748h7.735v-.005zm0 7.699v-.006a2.37 2.37 0 002.368-2.368 2.366 2.366 0 00-2.322-2.362h-7.781v4.736h7.735z" fill="#213A8F" fill-rule="evenodd"/></svg>