<svg width="169" height="40" xmlns="http://www.w3.org/2000/svg"><path d="M0 0h168.317v39.386H0V0z" fill="#FFDD2D"/><path d="M18.812 16.635h-5.71v-3.531h15.524v3.503h-5.683v9.655h-4.138l.007-9.627zm25.706-3.531v13.103h-4V18.62l-6.896 7.634h-3.524v-13.15h4v7.662l6.89-7.662h3.53zm6.888 13.151h-4V13.104h4v4.827h6.428v-4.827h4v13.103h-4v-4.828h-6.428v4.876z"/><path d="M64.723 13.104v13.151l8.082-.02a9.075 9.075 0 002.51-.304 4.531 4.531 0 003.45-4.552 4.42 4.42 0 00-2.98-4.386 8.517 8.517 0 00-2.924-.358h-4.138v-3.531h-4zm7.448 9.979h-3.448l-.028-3.304h3.448a4.49 4.49 0 011.545.173c.632.184 1.062.77 1.048 1.427 0 .657-.39 1.25-.993 1.51a3.747 3.747 0 01-1.572.194z" fill-rule="evenodd"/><path d="M84.605 26.255h-4V13.104h4v4.965h1.097l4.828-4.938h5.02l-6.4 6.283 6.649 6.841h-5.325l-4.772-4.965h-1.097v4.965z"/><path d="M104.13 26.67c5.352 0 8.58-3.035 8.58-6.953 0-3.91-3.187-6.945-8.573-6.945-5.386 0-8.614 3.028-8.614 6.945 0 3.918 3.256 6.952 8.607 6.952zm0-10.67c2.649 0 4.387 1.572 4.387 3.717 0 2.152-1.697 3.731-4.38 3.731s-4.393-1.586-4.393-3.73c0-2.146 1.738-3.718 4.386-3.718zm21.765 9.51c5.048-.11 8.055-2.068 8.055-5.82 0-3.745-3.007-5.897-8.055-5.952v-1.324h-4v1.304c-5.02.11-8.028 2.227-8.028 5.979 0 3.752 3.007 5.71 8.028 5.82v1.318h4V25.51zm-4-8.958c-2.759.11-3.973 1.38-3.973 3.138 0 1.759 1.214 2.896 3.973 3.007v-6.145zm4 0c2.786.11 3.972 1.38 3.972 3.138 0 1.765-1.186 2.896-3.972 3.007v-6.145zm21.222 8.958c5.049-.11 8.056-2.068 8.056-5.82 0-3.745-2.987-5.897-8.056-5.952v-1.324h-4v1.304c-5.02.11-8.027 2.227-8.027 5.979 0 3.752 3.007 5.71 8.027 5.82v1.318h4V25.51zm-3.979-8.958c-2.758.11-3.972 1.38-3.972 3.138 0 1.759 1.214 2.896 3.972 3.007v-6.145zm4 0c2.786.11 3.973 1.38 3.973 3.138 0 1.765-1.187 2.896-3.973 3.007v-6.145z" fill-rule="evenodd"/></svg>