<svg xmlns="http://www.w3.org/2000/svg" width="40" height="40"><g fill="none" fill-rule="evenodd"><rect width="40" height="40" fill="#394791" rx="2"/><path fill="#FFF" d="M20 5c1.09 0 2.145.304 3.053.879 1.39.88 4.172 2.432 7.193 2.94 1.789.302 3.087 1.759 3.087 3.464v7.072c0 2.337-.695 4.615-2.065 6.77-1.072 1.687-2.558 3.298-4.415 4.79-3.124 2.51-6.216 3.819-6.346 3.873L20 35l-.507-.212c-.13-.055-3.222-1.363-6.346-3.872-1.857-1.493-3.343-3.104-4.415-4.79-1.37-2.156-2.065-4.434-2.065-6.77v-7.073c0-1.705 1.298-3.162 3.087-3.463 3.021-.51 5.803-2.062 7.193-2.941A5.696 5.696 0 0120 5zm0 2.345a3.1 3.1 0 00-1.662.479c-1.552.982-4.674 2.719-8.144 3.304-.6.1-1.035.587-1.035 1.155v7.072c0 7.402 8.636 12.005 10.841 13.06.96-.46 3.137-1.588 5.281-3.32 3.69-2.98 5.56-6.256 5.56-9.74v-7.072c0-.569-.435-1.054-1.035-1.155-3.47-.585-6.592-2.322-8.144-3.304A3.1 3.1 0 0020 7.344zm5.927 6.8l1.854 1.566-8.978 9.404-5.893-5.277 1.719-1.698 4.034 3.613 7.264-7.609z"/></g></svg>