<svg xmlns="http://www.w3.org/2000/svg" width="40" height="40" viewBox="0 0 40 40">
  <g fill="none" fill-rule="evenodd">
    <rect width="40" height="40" fill="#394791" rx="2"/>
    <path fill="#FFF" d="M20.0000018,5 C21.089721,5 22.1454955,5.30386719 23.0533457,5.87873047 C24.442775,6.75851563 27.2247479,8.31054688 30.2455795,8.81984375 C32.0347469,9.12148438 33.333304,10.5777734 33.333304,12.2826172 L33.333304,12.2826172 L33.333304,19.3554102 C33.333304,21.6919531 32.6384648,23.969668 31.2680321,26.1252734 C30.1959392,27.8116602 28.7102813,29.4233984 26.8528507,30.9157227 C23.7294375,33.425 20.6366679,34.7335156 20.5065568,34.7879492 L20.5065568,34.7879492 L19.9999396,35 L19.4933846,34.7879492 C19.3632735,34.733457 16.270504,33.425 13.147153,30.9157227 C11.2895356,29.4233984 9.80406447,27.8116602 8.73190934,26.1252734 C7.36153889,23.9696094 6.66663737,21.6919531 6.66663737,19.3554102 L6.66663737,19.3554102 L6.66663737,12.2825586 C6.66663737,10.5777734 7.96525677,9.12148438 9.7544242,8.81984375 C12.7753181,8.31054688 15.557291,6.75845703 16.9467203,5.87867187 C17.8545705,5.30386719 18.9103449,5 20.0000018,5 Z M20.0000018,7.34451172 C19.4079933,7.34451172 18.833362,7.51021484 18.3384541,7.82369141 C16.7864015,8.80642578 13.6644208,10.5426172 10.1940863,11.1276758 C9.59429228,11.2288086 9.15886551,11.7145508 9.15886551,12.2826172 L9.15886551,12.2826172 L9.15886551,19.3554688 C9.15886551,26.7575 17.7952139,31.3600977 20.0001264,32.414082 C20.9594231,31.9559375 23.1367438,30.8270703 25.2812409,29.0951562 C28.970628,26.1157227 30.8411382,22.8388672 30.8411382,19.3554688 L30.8411382,19.3554688 L30.8411382,12.2825 C30.8411382,11.7144336 30.4057737,11.2286914 29.8059797,11.1275586 C26.3355828,10.5425 23.2136644,8.80642578 21.6616118,7.82363281 C21.1667662,7.51021484 20.5920726,7.34451172 20.0000018,7.34451172 Z M25.9265831,14.1442051 L27.7806504,15.7108848 L18.8025502,25.1148887 L12.910306,19.8384043 L14.6285944,18.1401816 L18.6627228,21.7526621 L25.9265831,14.1442051 Z"/>
  </g>
</svg>
