<svg xmlns="http://www.w3.org/2000/svg" width="24" height="24" viewBox="0 0 24 24">
  <g fill="none" fill-rule="evenodd">
    <rect width="24" height="24" fill="#394791" rx="2"/>
    <path fill="#FFF" fill-rule="nonzero" d="M16.629125,6 C17.2020445,6 17.7241747,6.09244699 18.1955312,6.27734375 C18.6668878,6.46224051 19.0718316,6.75130012 19.410375,7.14453125 C19.7489184,7.53776238 20.0119366,8.04036152 20.1994375,8.65234375 C20.3869384,9.26432598 20.4806875,9.99739156 20.4806875,10.8515625 L20.4806875,12.828125 C20.4806875,13.6822959 20.3882405,14.4153615 20.2033437,15.0273438 C20.018447,15.639326 19.7580329,16.1432272 19.4220937,16.5390625 C19.0861546,16.9348978 18.6825128,17.2252595 18.2111562,17.4101562 C17.7397997,17.595053 17.2176695,17.6875 16.64475,17.6875 C16.0718305,17.6875 15.5497003,17.595053 15.0783437,17.4101562 C14.6069872,17.2252595 14.2020434,16.9348978 13.8635,16.5390625 C13.5249566,16.1432272 13.2619384,15.639326 13.0744375,15.0273438 C12.8869366,14.4153615 12.7931875,13.6822959 12.7931875,12.828125 L12.7931875,10.8515625 C12.7931875,9.99739156 12.8856345,9.26432598 13.0705312,8.65234375 C13.255428,8.04036152 13.5171441,7.53776238 13.8556875,7.14453125 C14.1942309,6.75130012 14.5978727,6.46224051 15.066625,6.27734375 C15.5353773,6.09244699 16.0562055,6 16.629125,6 Z M8.953125,6.140625 L8.953125,17.53125 L6.6953125,17.53125 L6.6953125,8.828125 L4,9.6640625 L4,7.828125 L8.7109375,6.140625 L8.953125,6.140625 Z M16.629125,7.828125 C16.3791237,7.828125 16.1564697,7.87499953 15.9611562,7.96875 C15.7658428,8.06250047 15.6004798,8.2148427 15.4650625,8.42578125 C15.3296452,8.6367198 15.2267816,8.91406078 15.1564687,9.2578125 C15.0861559,9.60156422 15.051,10.0260391 15.051,10.53125 L15.051,10.53125 L15.051,13.125 C15.051,13.6354192 15.087458,14.0651024 15.160375,14.4140625 C15.233292,14.7630226 15.3374577,15.0455718 15.472875,15.2617188 C15.6082923,15.4778657 15.7749573,15.632812 15.972875,15.7265625 C16.1707927,15.820313 16.3947487,15.8671875 16.64475,15.8671875 C16.8947512,15.8671875 17.1187073,15.820313 17.316625,15.7265625 C17.5145427,15.632812 17.6799056,15.4778657 17.8127187,15.2617188 C17.9455319,15.0455718 18.0470934,14.7630226 18.1174062,14.4140625 C18.1877191,14.0651024 18.222875,13.6354192 18.222875,13.125 L18.222875,13.125 L18.222875,10.53125 C18.222875,10.0260391 18.1877191,9.60156422 18.1174062,9.2578125 C18.0470934,8.91406078 17.9429278,8.6367198 17.8049062,8.42578125 C17.6668847,8.2148427 17.4989177,8.06250047 17.301,7.96875 C17.1030823,7.87499953 16.8791262,7.828125 16.629125,7.828125 Z"/>
  </g>
</svg>
