<?xml version="1.0" encoding="utf-8"?>
<!-- Generator: Adobe Illustrator 23.1.1, SVG Export Plug-In . SVG Version: 6.00 Build 0)  -->
<svg version="1.1" id="Слой_1" xmlns="http://www.w3.org/2000/svg" xmlns:xlink="http://www.w3.org/1999/xlink" x="0px" y="0px"
	 viewBox="0 0 24 24" style="enable-background:new 0 0 24 24;" xml:space="preserve">
<style type="text/css">
	.st0{fill-rule:evenodd;clip-rule:evenodd;fill:#41479B;}
	.st1{fill:#FFFFFF;}
	.st2{fill:#FFDA44;}
</style>
<title>flag</title>
<desc>Created with Sketch.</desc>
<g>
	<path class="st0" d="M21.6,24H2.4C1.1,24,0,22.9,0,21.6V2.4C0,1.1,1.1,0,2.4,0h19.2C22.9,0,24,1.1,24,2.4v19.2
		C24,22.9,22.9,24,21.6,24z"/>
	<g>
		<path class="st1" d="M22.2,0.6c0.7,0,1.2,0.5,1.2,1.2v20.4c0,0.7-0.5,1.2-1.2,1.2H1.8c-0.7,0-1.2-0.5-1.2-1.2V1.8
			c0-0.7,0.5-1.2,1.2-1.2L22.2,0.6 M22.2,0H1.8C0.8,0,0,0.8,0,1.8v20.4c0,1,0.8,1.8,1.8,1.8h20.4c1,0,1.8-0.8,1.8-1.8V1.8
			C24,0.8,23.2,0,22.2,0L22.2,0z"/>
	</g>
	<g>
		<polygon class="st2" points="12,3 12.5,4.5 14,4.5 12.8,5.4 13.3,6.9 12,5.9 10.7,6.9 11.2,5.4 10,4.5 11.5,4.5 		"/>
		<polygon class="st2" points="5.6,5.6 7,6.3 8.1,5.2 7.9,6.8 9.2,7.5 7.7,7.7 7.5,9.2 6.8,7.9 5.2,8.1 6.3,7 		"/>
		<polygon class="st2" points="3,12 4.5,11.5 4.5,10 5.4,11.2 6.9,10.7 5.9,12 6.9,13.3 5.4,12.8 4.5,14 4.5,12.5 		"/>
		<polygon class="st2" points="5.6,18.4 6.3,17 5.2,15.9 6.8,16.1 7.5,14.8 7.7,16.3 9.2,16.5 7.9,17.2 8.1,18.8 7,17.7 		"/>
		<polygon class="st2" points="12,21 11.5,19.5 10,19.5 11.2,18.6 10.7,17.1 12,18.1 13.3,17.1 12.8,18.6 14,19.5 12.5,19.5 		"/>
		<polygon class="st2" points="18.4,18.4 17,17.7 15.9,18.8 16.1,17.2 14.8,16.5 16.3,16.3 16.5,14.8 17.2,16.1 18.8,15.9 17.7,17 
					"/>
		<polygon class="st2" points="21,12 19.5,12.5 19.5,14 18.6,12.8 17.1,13.3 18.1,12 17.1,10.7 18.6,11.2 19.5,10 19.5,11.5 		"/>
		<polygon class="st2" points="18.4,5.6 17.7,7 18.8,8.1 17.2,7.9 16.5,9.2 16.3,7.7 14.8,7.5 16.1,6.8 15.9,5.2 17,6.3 		"/>
	</g>
</g>
</svg>
