<?xml version="1.0" encoding="utf-8"?>
<!-- Generator: Adobe Illustrator 23.1.1, SVG Export Plug-In . SVG Version: 6.00 Build 0)  -->
<svg version="1.1" id="Слой_1" xmlns="http://www.w3.org/2000/svg" xmlns:xlink="http://www.w3.org/1999/xlink" x="0px" y="0px"
	 viewBox="0 0 40 40" style="enable-background:new 0 0 40 40;" xml:space="preserve">
<style type="text/css">
	.st0{fill-rule:evenodd;clip-rule:evenodd;fill:#41479B;}
	.st1{fill:#FFFFFF;}
	.st2{fill:#FFDA44;}
</style>
<path class="st0" d="M36,40H4c-2.2,0-4-1.8-4-4V4c0-2.2,1.8-4,4-4h32c2.2,0,4,1.8,4,4v32C40,38.2,38.2,40,36,40z"/>
<title>flag</title>
<desc>Created with Sketch.</desc>
<g>
	<path class="st1" d="M37,1c1.1,0,2,0.9,2,2v34c0,1.1-0.9,2-2,2H3c-1.1,0-2-0.9-2-2V3c0-1.1,0.9-2,2-2H37 M37,0H3C1.3,0,0,1.3,0,3
		v34c0,1.7,1.3,3,3,3h34c1.7,0,3-1.3,3-3V3C40,1.3,38.7,0,37,0L37,0z"/>
</g>
<g>
	<polygon class="st2" points="20,8 20.6,10 22.7,10 21,11.2 21.7,13.1 20,11.9 18.3,13.1 19,11.2 17.3,10 19.4,10 	"/>
	<polygon class="st2" points="11.5,11.5 13.4,12.5 14.8,11 14.5,13 16.3,14 14.3,14.3 14,16.3 13,14.5 11,14.8 12.5,13.4 	"/>
	<polygon class="st2" points="8,20 10,19.4 10,17.3 11.2,19 13.1,18.3 11.9,20 13.1,21.7 11.2,21 10,22.7 10,20.6 	"/>
	<polygon class="st2" points="11.5,28.5 12.5,26.6 11,25.2 13,25.5 14,23.7 14.3,25.7 16.3,26 14.5,27 14.8,29 13.4,27.5 	"/>
	<polygon class="st2" points="20,32 19.4,30 17.3,30 19,28.8 18.3,26.9 20,28.1 21.7,26.9 21,28.8 22.7,30 20.6,30 	"/>
	<polygon class="st2" points="28.5,28.5 26.6,27.5 25.2,29 25.5,27 23.7,26 25.7,25.7 26,23.7 27,25.5 29,25.2 27.5,26.6 	"/>
	<polygon class="st2" points="32,20 30,20.6 30,22.7 28.8,21 26.9,21.7 28.1,20 26.9,18.3 28.8,19 30,17.3 30,19.4 	"/>
	<polygon class="st2" points="28.5,11.5 27.5,13.4 29,14.8 27,14.5 26,16.3 25.7,14.3 23.7,14 25.5,13 25.2,11 26.6,12.5 	"/>
</g>
</svg>
