<svg xmlns="http://www.w3.org/2000/svg" width="24" height="24" viewBox="0 0 24 24">
  <g fill="none" fill-rule="evenodd">
    <rect width="24" height="24" fill="#394791" rx="2"/>
    <path fill="#FFF" fill-rule="nonzero" d="M5.18073878,10.7582418 L6.56125021,8 L8.30585256,8 L6.16176155,11.967033 L8.36147756,16 L6.59664794,16 L5.18073878,13.1978022 L3.76482963,16 L2,16 L4.19971601,11.967033 L2.055625,8 L3.80022735,8 L5.18073878,10.7582418 Z M13.6535796,8 L15.175682,8 L15.175682,16 L13.6535796,16 L13.6535796,10.6868132 L10.7054545,16 L9.18840896,16 L9.18840896,8 L10.7054545,8 L10.7054545,13.3241758 L13.6535796,8 Z M22,9.33516484 L19.744659,9.33516484 L19.744659,16 L18.2276135,16 L18.2276135,9.33516484 L16.0026134,9.33516484 L16.0026134,8 L22,8 L22,9.33516484 Z"/>
  </g>
</svg>
