<svg xmlns="http://www.w3.org/2000/svg" width="24" height="24" viewBox="0 0 24 24">
  <g fill="none" fill-rule="evenodd">
    <rect width="24" height="24" fill="#394791" rx="2"/>
    <path fill="#FFF" d="M8.211,11.802 C7.26099525,11.802 6.48833631,11.4758366 5.893,10.8235 C5.29766369,10.1711634 5,9.36367148 5,8.401 C5,7.43832852 5.30399696,6.6308366 5.912,5.9785 C6.52000304,5.32616341 7.29899525,5 8.249,5 C9.19900475,5 9.97166369,5.32616341 10.567,5.9785 C11.1623363,6.6308366 11.46,7.43832852 11.46,8.401 C11.46,9.35100475 11.156003,10.15533 10.548,10.814 C9.93999696,11.47267 9.16100475,11.802 8.211,11.802 Z M6.33,18.452 L16.039,5.152 L18.3,5.152 L8.591,18.452 L6.33,18.452 Z M16.381,18.604 C15.4309953,18.604 14.6583363,18.2778366 14.063,17.6255 C13.4676637,16.9731634 13.17,16.1656715 13.17,15.203 C13.17,14.2403285 13.473997,13.4328366 14.082,12.7805 C14.690003,12.1281634 15.4689953,11.802 16.419,11.802 C17.3690048,11.802 18.1416637,12.1281634 18.737,12.7805 C19.3323363,13.4328366 19.63,14.2403285 19.63,15.203 C19.63,16.1530048 19.326003,16.95733 18.718,17.616 C18.109997,18.27467 17.3310048,18.604 16.381,18.604 Z M8.249,10.073 C8.6290019,10.073 8.92666559,9.91150162 9.142,9.5885 C9.35733441,9.26549839 9.465,8.86966901 9.465,8.401 C9.465,7.94499772 9.34783451,7.55233498 9.1135,7.223 C8.8791655,6.89366502 8.57833517,6.729 8.211,6.729 C7.8309981,6.729 7.53333441,6.88733175 7.318,7.204 C7.10266559,7.52066825 6.995,7.91966426 6.995,8.401 C6.995,8.85700228 7.1121655,9.24966502 7.3465,9.579 C7.58083451,9.90833498 7.88166483,10.073 8.249,10.073 Z M16.419,16.875 C16.7990019,16.875 17.0966656,16.7135016 17.312,16.3905 C17.5273344,16.0674984 17.635,15.671669 17.635,15.203 C17.635,14.7469977 17.5178345,14.354335 17.2835,14.025 C17.0491655,13.695665 16.7483352,13.531 16.381,13.531 C16.0009981,13.531 15.7033344,13.6893318 15.488,14.006 C15.2726656,14.3226683 15.165,14.7216643 15.165,15.203 C15.165,15.6590023 15.2821655,16.051665 15.5165,16.381 C15.7508345,16.710335 16.0516648,16.875 16.419,16.875 Z"/>
  </g>
</svg>
