<svg xmlns="http://www.w3.org/2000/svg" width="24" height="24" viewBox="0 0 24 24">
  <g fill="none" fill-rule="evenodd">
    <rect width="24" height="24" fill="#394791" rx="2"/>
    <path fill="#FFF" d="M12.0000011,3 C12.6538326,3 13.2872973,3.18232031 13.8320074,3.52723828 C14.665665,4.05510937 16.3348487,4.98632812 18.1473477,5.29190625 C19.2208482,5.47289063 19.9999824,6.34666406 19.9999824,7.36957031 L19.9999824,7.36957031 L19.9999824,11.6132461 C19.9999824,13.0151719 19.5830789,14.3818008 18.7608192,15.6751641 C18.1175635,16.6869961 17.2261688,17.6540391 16.1117104,18.5494336 C14.2376625,20.055 12.3820007,20.8401094 12.3039341,20.8727695 L12.3039341,20.8727695 L11.9999637,21 L11.6960307,20.8727695 C11.6179641,20.8400742 9.76230237,20.055 7.88829181,18.5494336 C6.77372135,17.6540391 5.88243868,16.6869961 5.23914561,15.6751641 C4.41692333,14.3817656 3.99998242,13.0151719 3.99998242,11.6132461 L3.99998242,11.6132461 L3.99998242,7.36953516 C3.99998242,6.34666406 4.77915406,5.47289063 5.85265452,5.29190625 C7.66519087,4.98632812 9.33437458,4.05507422 10.1680322,3.52720312 C10.7127423,3.18232031 11.346207,3 12.0000011,3 Z M12.0000011,4.40670703 C11.644796,4.40670703 11.3000172,4.50612891 11.0030725,4.69421484 C10.0718409,5.28385547 8.1986525,6.32557031 6.11645177,6.67660547 C5.75657537,6.73728516 5.4953193,7.02873047 5.4953193,7.36957031 L5.4953193,7.36957031 L5.4953193,11.6132812 C5.4953193,16.0545 10.6771284,18.8160586 12.0000758,19.4484492 C12.5756539,19.1735625 13.8820463,18.4962422 15.1687446,17.4570937 C17.3823768,15.6694336 18.5046829,13.7033203 18.5046829,11.6132812 L18.5046829,11.6132812 L18.5046829,7.3695 C18.5046829,7.02866016 18.2434642,6.73721484 17.8835878,6.67653516 C15.8013497,6.3255 13.9281987,5.28385547 12.9969671,4.69417969 C12.7000597,4.50612891 12.3552436,4.40670703 12.0000011,4.40670703 Z M15.5559499,8.48652305 L16.6683902,9.42653086 L11.2815301,15.0689332 L7.74618361,11.9030426 L8.77715662,10.884109 L11.1976337,13.0515973 L15.5559499,8.48652305 Z"/>
  </g>
</svg>
